<svg width="50" height="54" viewBox="0 0 50 54" fill="none" xmlns="http://www.w3.org/2000/svg">
<g clip-path="url(#clip0_128_40)">
<path d="M50 27.4252C50 34.9029 50 42.3811 50 49.8596C50 51.8174 48.9624 53.2404 47.1817 53.7645C46.6871 53.8957 46.1747 53.9549 45.6618 53.94C32.3209 53.94 18.9796 53.94 5.63783 53.94C2.25067 53.94 0.00738798 51.7972 0.00615134 48.5469C0.00120476 39.5932 0.00120476 30.6387 0.00615134 21.6835C0.00615134 20.3257 0.00615134 18.968 0.00615134 17.6102C0.0197544 15.139 1.67069 13.5701 4.2528 13.5654C5.27921 13.5654 6.30687 13.5417 7.33205 13.5749C7.78466 13.5903 7.91945 13.4847 7.9145 13.0306C7.88977 10.4123 7.9009 7.79521 7.90337 5.17811C7.90337 2.4709 9.50234 0.942383 12.3268 0.942383C23.4921 0.942383 34.6578 0.942383 45.8238 0.942383C47.8828 0.942383 49.4336 2.06416 49.9048 3.87727C50.0148 4.3018 50.0024 4.73581 50.0024 5.16863C50.0016 12.5863 50.0008 20.0051 50 27.4252ZM47.3746 27.475V5.27654C47.3746 3.81443 47.0036 3.45631 45.5011 3.45631H12.4369C10.8936 3.45631 10.5411 3.79071 10.5411 5.25045C10.5411 19.6747 10.5411 34.0997 10.5411 48.5256C10.5411 49.3213 10.4719 50.1086 10.1021 50.8237C9.84118 51.3277 9.94259 51.4095 10.5016 51.4095C22.201 51.3953 33.9001 51.3917 45.5988 51.3988C46.9986 51.3988 47.3709 51.0348 47.3709 49.6734L47.3746 27.475ZM7.90214 32.7578V26.6188C7.90214 23.2986 7.89224 19.9688 7.91326 16.6438C7.91326 16.1694 7.78218 16.0449 7.29494 16.0627C6.33159 16.0995 5.36701 16.0734 4.40243 16.0746C3.02852 16.0746 2.64764 16.4398 2.64764 17.7596V41.4344C2.64764 43.9531 2.6365 46.4718 2.65752 48.9892C2.6618 49.5649 2.8803 50.1201 3.27367 50.5549C3.66705 50.9897 4.20943 51.2755 4.8031 51.3609C6.18814 51.5494 7.40006 50.8486 7.77971 49.6284C7.88082 49.2466 7.92249 48.8526 7.90337 48.4592L7.90214 32.7578Z" fill="#6440FB"/>
<path d="M21.0402 19.8525C20.2858 19.8252 19.524 19.9379 18.7759 19.7434C17.0656 19.2999 15.8858 17.9327 15.824 16.2465C15.7894 15.2836 15.7857 14.3183 15.824 13.3554C15.8668 12.4132 16.2806 11.5215 16.982 10.8603C17.6833 10.199 18.62 9.81727 19.6032 9.79206C20.5678 9.76755 21.5324 9.76755 22.4969 9.79206C23.501 9.8155 24.4572 10.2083 25.1675 10.889C25.8779 11.5698 26.2881 12.4864 26.3132 13.4491C26.333 14.3527 26.333 15.2575 26.3132 16.1634C26.293 17.1161 25.896 18.0258 25.2025 18.7083C24.5091 19.3908 23.5712 19.7952 22.5786 19.8395C22.0666 19.8679 21.5534 19.8525 21.0402 19.8525ZM21.0909 12.2929C20.6605 12.2929 20.2252 12.2787 19.7998 12.2929C18.9342 12.3261 18.4482 12.8076 18.4395 13.6424C18.4288 14.4282 18.4288 15.2144 18.4395 16.001C18.4531 16.8311 18.949 17.3244 19.8085 17.3421C20.6494 17.3603 21.4899 17.3603 22.33 17.3421C23.14 17.3267 23.6544 16.8832 23.6903 16.1136C23.7299 15.2516 23.7299 14.3835 23.6903 13.5214C23.6532 12.753 23.1449 12.3238 22.33 12.2929C21.9108 12.2763 21.5002 12.2894 21.0909 12.2894V12.2929Z" fill="#6440FB"/>
<path d="M15.8155 27.3931C15.8428 26.6294 15.7302 25.8598 15.9639 25.1068C16.1927 24.357 16.6601 23.6945 17.301 23.212C17.9418 22.7296 18.7239 22.4513 19.5378 22.4162C20.542 22.3814 21.547 22.3814 22.5528 22.4162C23.5572 22.4501 24.5091 22.8546 25.21 23.5452C25.9109 24.2359 26.3067 25.1594 26.3147 26.1231C26.3307 27.0077 26.3332 27.8935 26.3147 28.7781C26.2956 29.7519 25.8839 30.6807 25.1658 31.3695C24.4477 32.0582 23.4792 32.4534 22.4637 32.4719C21.5412 32.4909 20.6174 32.4897 19.6949 32.4719C18.6796 32.463 17.7076 32.076 16.9842 31.3928C16.2608 30.7096 15.8427 29.7835 15.818 28.8101C15.7995 28.337 15.8155 27.865 15.8155 27.3931ZM21.0874 24.9136C20.678 24.9136 20.2675 24.9064 19.8581 24.9136C18.948 24.9313 18.4484 25.3997 18.4347 26.2606C18.4236 27.0468 18.4224 27.8318 18.4347 28.618C18.4484 29.4481 18.9381 29.9355 19.8062 29.958C20.6455 29.9794 21.4856 29.9794 22.3265 29.958C23.1439 29.9378 23.6485 29.4955 23.6868 28.7259C23.7276 27.8639 23.7276 26.997 23.6868 26.1338C23.6497 25.3665 23.1352 24.9385 22.3191 24.9159C21.9073 24.9041 21.4967 24.9136 21.0874 24.9136Z" fill="#6440FB"/>
<path d="M19.7244 43.8179C19.3175 43.8333 19.0096 43.6507 18.735 43.3934C17.8941 42.587 17.0433 41.789 16.2148 40.9708C15.5964 40.3589 15.589 39.6972 16.1591 39.1482C16.7292 38.5991 17.4143 38.6015 18.0611 39.1849C18.5236 39.6023 18.9824 40.0269 19.4065 40.481C19.6625 40.7538 19.8072 40.7419 20.0731 40.481C21.3493 39.23 22.6515 38.0039 23.9388 36.7635C24.3098 36.4077 24.7155 36.1706 25.2509 36.2714C25.4864 36.3063 25.7065 36.405 25.8855 36.5559C26.0645 36.7067 26.1948 36.9034 26.2613 37.1228C26.3445 37.3478 26.3571 37.5913 26.2975 37.8231C26.238 38.055 26.1088 38.265 25.9261 38.4272C25.232 39.0976 24.5366 39.7656 23.8399 40.4312C22.8399 41.3917 21.8394 42.3514 20.8386 43.3104C20.5257 43.6128 20.1906 43.8487 19.7244 43.8179Z" fill="#6440FB"/>
<path d="M35.4892 26.1787C33.7851 26.1787 32.081 26.1787 30.3782 26.1787C29.4099 26.1787 28.8855 25.7246 28.8843 24.9123C28.883 24.1 29.4062 23.653 30.3794 23.6506C33.8074 23.6435 37.2349 23.6411 40.6621 23.6435C41.7948 23.6435 42.433 24.3751 42.1461 25.2906C41.9531 25.8965 41.5277 26.1752 40.7264 26.1776C38.9778 26.1823 37.2341 26.1787 35.4892 26.1787Z" fill="#6440FB"/>
<path d="M35.5524 38.7924C33.8722 38.7924 32.192 38.7924 30.5118 38.7924C30.0048 38.7924 29.5225 38.7272 29.2047 38.2896C29.0707 38.1149 28.9854 37.9103 28.9572 37.6951C28.9289 37.48 28.9585 37.2615 29.0432 37.0604C29.1278 36.8593 29.2647 36.6824 29.4408 36.5463C29.6169 36.4103 29.8264 36.3197 30.0493 36.2832C30.2955 36.2559 30.5437 36.248 30.7913 36.2595C34.0494 36.2595 37.3059 36.2595 40.5608 36.2595C41.0257 36.2595 41.466 36.3188 41.79 36.6757C42.1437 37.0682 42.1919 37.5342 42.0225 38.0038C41.9538 38.2232 41.8138 38.4158 41.6229 38.5536C41.4321 38.6914 41.2003 38.7672 40.9614 38.7699C40.3901 38.7971 39.8151 38.7924 39.2425 38.7936C38.0108 38.7947 36.7816 38.7924 35.5524 38.7924Z" fill="#6440FB"/>
<path d="M35.4892 13.5677C33.7678 13.5677 32.0463 13.5795 30.3249 13.5677C29.2651 13.557 28.6518 12.7056 29.0277 11.8032C29.2664 11.2292 29.7511 11.0466 30.3546 11.0478C31.6865 11.0478 33.0183 11.0478 34.3502 11.0478C36.4612 11.0478 38.5721 11.0419 40.6831 11.0478C41.613 11.0478 42.1336 11.5115 42.1411 12.287C42.1485 13.0625 41.6155 13.5594 40.714 13.5653C38.9728 13.5677 37.2304 13.5677 35.4892 13.5677Z" fill="#6440FB"/>
<path d="M32.9071 16.0733C33.7468 16.0733 34.5865 16.0602 35.4262 16.0733C36.324 16.0899 36.8607 16.5867 36.8495 17.3587C36.8396 18.1081 36.3227 18.5931 35.4484 18.6026C33.7493 18.62 32.0501 18.62 30.351 18.6026C29.4779 18.5931 28.9635 18.1022 28.9573 17.3516C28.9573 16.5784 29.4866 16.0887 30.3893 16.0733C31.2277 16.0578 32.0674 16.0733 32.9071 16.0733Z" fill="#6440FB"/>
<path d="M32.9367 28.6915C33.7764 28.6915 34.6161 28.6832 35.4558 28.6915C36.3214 28.7022 36.8569 29.173 36.8866 29.9117C36.9162 30.6719 36.382 31.196 35.4817 31.2078C33.7826 31.2308 32.0834 31.2308 30.3843 31.2078C29.4729 31.1972 28.977 30.7003 28.9993 29.9034C29.0203 29.1505 29.536 28.6987 30.4189 28.688C31.2574 28.6821 32.097 28.6915 32.9367 28.6915Z" fill="#6440FB"/>
<path d="M32.8726 43.8284C32.0131 43.8284 31.1524 43.8438 30.2929 43.8284C29.4681 43.8094 28.9648 43.3268 28.9574 42.594C28.9487 41.841 29.478 41.3322 30.3251 41.3275C32.044 41.3156 33.7634 41.3156 35.4831 41.3275C36.329 41.3275 36.8595 41.8421 36.8509 42.5951C36.8422 43.3268 36.3389 43.8106 35.5128 43.8296C34.6336 43.845 33.758 43.8284 32.8726 43.8284Z" fill="#6440FB"/>
</g>
<defs>
<clipPath id="clip0_128_40">
<rect width="50" height="53" fill="white" transform="translate(0 0.939941)"/>
</clipPath>
</defs>
</svg>
