<svg width="59" height="60" viewBox="0 0 59 60" fill="none" xmlns="http://www.w3.org/2000/svg">
<g clip-path="url(#clip0_129_63)">
<path d="M58.9923 10.6361C58.945 10.4456 58.9008 10.252 58.8582 10.0585C58.7695 9.62502 58.6576 9.19665 58.5229 8.77521C57.0309 4.39807 53.9997 1.80561 49.5054 1.06644L49.481 0.939941H9.42277L9.39229 1.05577H9.32826C3.84949 1.99155 0.0151277 6.52263 0.00293571 12.0748C0.00293571 12.9324 0.00293571 13.7899 0.00293571 14.6475C0.00293571 15.6717 0.00293571 16.6958 0.00293571 17.72C-0.00198621 18.7369 0.134957 19.7495 0.409831 20.7285C1.0444 23.047 2.42339 25.0926 4.33446 26.5505C6.24553 28.0084 8.58277 28.7977 10.9864 28.797C12.9523 28.8061 15.0341 28.8107 17.3521 28.8107C20.5906 28.8107 23.8825 28.8016 27.0737 28.7939C27.133 28.7916 27.1923 28.7962 27.2505 28.8077C27.2618 28.8643 27.2664 28.9221 27.2642 28.9799C27.252 31.2889 27.252 33.6359 27.252 35.9053C27.252 37.0016 27.252 38.0974 27.252 39.1927C27.1094 38.8898 27.0069 38.5696 26.9472 38.2402C26.8754 37.7977 26.7372 37.3687 26.5373 36.9676C26.223 36.3786 25.7557 35.8854 25.1847 35.5396C24.6138 35.1939 23.9601 35.0085 23.2927 35.003C23.0044 35.0028 22.7173 35.0381 22.4377 35.1082C20.5952 35.5654 19.411 37.1123 19.4933 38.955C19.667 42.8048 21.1575 46.1928 23.9251 49.0245C24.7724 49.8917 25.6442 50.762 26.4854 51.6048L27.4638 52.5848C28.6129 53.737 29.1814 55.0233 29.2012 56.5336C29.2286 58.6338 30.556 59.9384 32.6637 59.9399H43.8392C45.9819 59.9399 47.32 58.5972 47.3352 56.4346V55.6725C47.3352 54.6316 47.3474 53.5541 47.3627 52.4948C47.3627 51.436 47.6112 50.392 48.0881 49.4467C48.7592 48.1192 49.143 46.6651 49.2143 45.1793C49.3667 42.2378 49.3118 39.2704 49.2524 36.7207C49.2376 35.7466 48.8406 34.8174 48.1469 34.1334C47.4533 33.4494 46.5187 33.0655 45.5445 33.0644C44.8803 33.0664 44.2291 33.2492 43.6609 33.5933L43.6365 33.607L43.6014 33.5689C42.7541 32.5691 41.8397 32.0844 40.8079 32.0844C40.1165 32.105 39.4388 32.2833 38.8267 32.6057L38.7734 32.63C38.7666 32.6225 38.7605 32.6143 38.7551 32.6057C38.3774 32.0798 37.8623 31.668 37.2662 31.4153C36.8234 31.2243 36.3463 31.1257 35.8641 31.1258C35.4669 31.1286 35.0719 31.1865 34.6906 31.298V30.9398C34.6906 30.3302 34.7043 29.748 34.6708 29.1567C34.6556 28.8808 34.6936 28.8366 34.6952 28.8351C34.6967 28.8336 34.7409 28.7894 35 28.7894H35.0168C37.9123 28.8092 40.305 28.8168 42.5255 28.8168C44.5234 28.8168 46.3583 28.8168 48.1353 28.7955C50.5679 28.7693 52.9228 27.9355 54.8299 26.425C56.7369 24.9146 58.088 22.8132 58.6707 20.4512C58.7 20.325 58.7219 20.1973 58.7362 20.0686C58.7682 19.8263 58.7957 19.619 58.9267 19.459L58.9984 19.3736V10.6727L58.9923 10.6361ZM36.9751 35.7361C37.0147 36.4981 37.4902 37.0209 38.1943 37.0575H38.2766C38.9426 37.0575 39.4105 36.6155 39.5278 35.8748C39.6482 35.1051 40.0841 34.6266 40.6632 34.6266H40.7424C41.3993 34.6723 41.8473 35.2362 41.8565 36.0409C41.8565 36.1278 41.8565 36.2162 41.8565 36.3046C41.8565 36.4265 41.8565 36.55 41.8565 36.6719C41.8778 37.469 42.3761 38.0176 43.0955 38.0359H43.1336C43.8133 38.0359 44.3116 37.5543 44.4046 36.8167C44.41 36.7747 44.413 36.7325 44.4137 36.6902C44.4122 36.6612 44.4122 36.6322 44.4137 36.6033C44.4521 36.341 44.5801 36.1 44.7759 35.9214C44.9718 35.7428 45.2234 35.6374 45.4881 35.6233H45.5339C45.7906 35.628 46.0388 35.7162 46.241 35.8746C46.4431 36.033 46.5881 36.253 46.654 36.5012C46.6899 36.6226 46.7104 36.7481 46.715 36.8746C46.715 37.789 46.715 38.7202 46.7226 39.6179C46.7363 41.3874 46.75 43.2178 46.6662 45.0132C46.6057 46.2433 46.2787 47.4456 45.7076 48.5368C45.1443 49.6477 44.8435 50.873 44.8283 52.1184C44.7978 53.1487 44.7902 54.1957 44.7825 55.2077C44.7825 55.6055 44.7825 56.0017 44.7719 56.3995C44.7627 57.2073 44.5768 57.3917 43.7752 57.3932H32.6591C31.9749 57.3932 31.7539 57.1859 31.7447 56.5428C31.7371 54.3832 30.9294 52.475 29.346 50.8717C28.7293 50.2468 28.1105 49.6245 27.4898 49.0047C26.9157 48.4286 26.3422 47.8515 25.7692 47.2733C23.4725 44.9522 22.2182 42.1509 22.0369 38.9489C21.9973 38.2219 22.4407 37.661 23.1174 37.5863C23.1746 37.5804 23.2321 37.5773 23.2896 37.5772C23.887 37.5772 24.2833 37.9552 24.4052 38.644C24.7679 40.6863 25.8758 42.2012 27.7016 43.1462C27.9741 43.2987 28.2794 43.3834 28.5916 43.3931C29.1753 43.3931 29.8001 42.9922 29.8016 41.869C29.8016 39.4173 29.8016 36.966 29.8016 34.5153V29.2313C29.8016 26.6557 29.8016 24.081 29.8016 21.5073C29.8016 21.0196 29.887 20.7255 30.0973 20.4908C30.3716 20.186 30.6337 20.0427 30.9263 20.0427C31.0054 20.0429 31.0842 20.0526 31.161 20.0717C31.6746 20.1951 31.9718 20.4893 32.0754 20.9724C32.1159 21.2146 32.1333 21.46 32.1273 21.7055C32.1273 24.6195 32.1273 27.533 32.1273 30.446V34.4086C32.1219 34.5928 32.1285 34.7771 32.1471 34.9604C32.1739 35.266 32.3137 35.5508 32.5391 35.759C32.7645 35.9672 33.0594 36.084 33.3663 36.0866C33.6527 36.1023 33.9355 36.0165 34.1649 35.8442C34.3943 35.6719 34.5557 35.4242 34.6205 35.1448C34.6525 35.0243 34.6749 34.9015 34.6876 34.7775C34.6876 34.7378 34.6982 34.6982 34.7043 34.6586C34.736 34.3854 34.868 34.1338 35.0747 33.9525C35.2814 33.7711 35.548 33.673 35.823 33.6771H35.8534C36.1328 33.6878 36.3989 33.7993 36.6025 33.9909C36.8062 34.1825 36.9336 34.4413 36.9614 34.7195C36.9758 34.9041 36.9809 35.0892 36.9766 35.2743C36.969 35.4282 36.9614 35.5822 36.9751 35.7361ZM34.6891 26.2426C34.677 26.1804 34.6724 26.117 34.6754 26.0537C34.6937 24.6317 34.6952 23.1 34.6754 21.3717C34.6586 19.5428 33.5293 18.0263 31.8621 17.6072C31.5745 17.5351 31.2792 17.4982 30.9827 17.4975C30.0126 17.5003 29.0817 17.8803 28.3868 18.5573C27.6919 19.2343 27.2877 20.1551 27.2596 21.1248C27.2246 22.7723 27.2383 24.4153 27.2596 26.0933C27.261 26.1443 27.258 26.1952 27.2505 26.2457C27.2001 26.2541 27.1491 26.2576 27.0981 26.2564C25.9469 26.2564 24.7968 26.2564 23.6477 26.2564H17.3993C14.7964 26.2564 12.8106 26.2564 10.9605 26.2396C6.27264 26.2122 2.57848 22.4965 2.548 17.781C2.53886 16.2066 2.548 14.6048 2.548 13.0563V12.1419C2.55715 7.21761 6.26504 3.50039 11.1738 3.49581C13.5878 3.49581 16.0029 3.49581 18.4189 3.49581H29.5273H40.5412H47.8823C52.0489 3.49581 55.4231 6.25439 56.278 10.3465C56.386 10.8654 56.4407 11.394 56.4411 11.924C56.4411 12.6352 56.4411 13.3464 56.4411 14.0577C56.4411 15.2769 56.4411 16.5541 56.4411 17.8008C56.4435 18.909 56.2274 20.0068 55.8052 21.0315C55.383 22.0561 54.7629 22.9874 53.9804 23.7722C53.1979 24.557 52.2685 25.1798 51.2451 25.605C50.2218 26.0302 49.1246 26.2495 48.0165 26.2503C46.5885 26.2594 45.0584 26.264 43.0528 26.264H38.176C37.0686 26.264 35.9581 26.264 34.8446 26.264C34.791 26.2639 34.7377 26.2567 34.6861 26.2426H34.6891Z" fill="#6440FB"/>
<path d="M14.9595 12.7362C13.9811 12.0519 12.9783 11.3646 12.0121 10.697C11.3263 10.2246 10.64 9.75108 9.95318 9.27658C9.49821 8.93895 8.94985 8.75048 8.38346 8.73706C7.98039 8.7411 7.58418 8.84198 7.22826 9.03121C6.31386 9.50215 5.82924 10.3373 5.83229 11.4484C5.83229 12.2409 5.83229 13.0334 5.83229 13.8259V15.8743C5.83229 16.676 5.83229 17.4781 5.83229 18.2808C5.83229 19.3934 6.30932 20.2301 7.22219 20.701C7.58049 20.893 7.98005 20.995 8.38651 20.9982C8.9496 20.9863 9.49521 20.8005 9.94861 20.4663L11.526 19.3766C12.6507 18.6009 13.812 17.7977 14.9549 17.0021C15.755 16.4443 16.1955 15.6853 16.1955 14.8684C16.1955 14.0515 15.7565 13.294 14.9595 12.7362ZM8.39109 15.696V14.0134C8.39109 13.1833 8.39109 12.3527 8.39109 11.5215C8.39109 11.485 8.39109 11.4469 8.39109 11.4088C8.39109 11.3707 8.39109 11.3356 8.39109 11.3082C8.42971 11.3288 8.46642 11.3527 8.50081 11.3798L8.55416 11.4164L10.0903 12.4832C11.215 13.2585 12.3408 14.0337 13.4675 14.809C13.5072 14.8364 13.5361 14.8577 13.5574 14.876L13.4843 14.9309C12.3062 15.7356 11.1145 16.5601 9.96081 17.3588L8.54196 18.3403C8.49505 18.3768 8.44387 18.4075 8.38956 18.4317C8.38956 18.4012 8.38956 18.3555 8.38956 18.3235C8.38956 18.2915 8.39719 18.2275 8.39719 18.1818C8.38957 17.3496 8.39109 16.522 8.39109 15.6899V15.696Z" fill="#6440FB"/>
<path d="M32.7339 11.005C32.7339 10.7307 32.7339 10.4563 32.7339 10.182C32.7339 9.5556 32.7339 8.90787 32.7339 8.26929C32.7248 7.37618 32.2112 6.77417 31.4568 6.77417H31.4172C30.6552 6.79398 30.1797 7.36551 30.1766 8.26167C30.1766 10.0235 30.1766 11.8448 30.1766 13.6721C30.1766 14.5866 30.6338 15.1368 31.4096 15.1581H31.4538C32.2158 15.1581 32.7232 14.579 32.7339 13.6813C32.7339 13.0564 32.7339 12.4193 32.7339 11.8051C32.7354 11.5415 32.7339 11.2702 32.7339 11.005Z" fill="#6440FB"/>
<path d="M27.4517 14.6506C26.9437 14.0512 26.4398 13.4527 25.9399 12.8553C25.2287 12.0038 24.5125 11.1534 23.7911 10.304C23.4558 9.90771 23.0641 9.69434 22.6587 9.69434C22.3748 9.69776 22.101 9.80018 21.8846 9.98391C21.7567 10.0827 21.6503 10.2065 21.5717 10.3477C21.4931 10.4889 21.444 10.6446 21.4274 10.8054C21.4175 11.0176 21.4502 11.2297 21.5235 11.4291C21.5968 11.6286 21.7092 11.8114 21.8541 11.9667C22.295 12.492 22.737 13.0168 23.18 13.5411L23.8322 14.3138L24.4586 15.0591C24.8355 15.5072 25.2124 15.9542 25.5894 16.4003C25.7046 16.546 25.8512 16.664 26.0182 16.7455C26.1851 16.827 26.3683 16.87 26.5541 16.8712C26.7273 16.87 26.8988 16.837 27.0601 16.7737C27.2898 16.6879 27.4887 16.5354 27.6312 16.3358C27.7738 16.1362 27.8535 15.8986 27.8602 15.6535V15.6291C27.8485 15.2639 27.7032 14.9157 27.4517 14.6506Z" fill="#6440FB"/>
<path d="M37.821 15.8026C37.8865 15.7233 37.9521 15.6426 38.0191 15.5633L38.9488 14.4599C39.66 13.6115 40.3757 12.7631 41.096 11.9147C41.5944 11.3249 41.5121 10.7869 41.3552 10.4379C41.1418 9.96387 40.7364 9.71697 40.1649 9.7063H40.1116C39.9325 9.71561 39.7578 9.76428 39.5998 9.84884C39.4417 9.9334 39.3042 10.0518 39.1972 10.1955L38.2904 11.2624C37.3257 12.4054 36.3275 13.5866 35.3552 14.7571C34.8766 15.3332 34.9239 16.0724 35.4695 16.554C35.6935 16.7561 35.9846 16.868 36.2863 16.8679C36.4804 16.8637 36.6715 16.8192 36.8475 16.7374C37.0235 16.6556 37.1806 16.5381 37.3089 16.3924C37.4888 16.2034 37.6579 15.9946 37.821 15.8026Z" fill="#6440FB"/>
<path d="M39.5172 21.9783H41.1662H42.8426H43.9627C44.8101 21.9783 45.3633 21.4799 45.3724 20.724C45.3782 20.5592 45.3506 20.395 45.2911 20.2412C45.2317 20.0874 45.1416 19.9473 45.0265 19.8293C44.8879 19.6972 44.7247 19.5938 44.546 19.525C44.3674 19.4562 44.1769 19.4234 43.9856 19.4285C43.0712 19.4285 42.1543 19.4285 41.2348 19.4285C40.2909 19.4285 39.3465 19.4285 38.4017 19.4285C37.5756 19.4285 36.9905 19.9512 36.9798 20.692C36.9745 20.8516 37.0014 21.0107 37.059 21.1597C37.1166 21.3087 37.2037 21.4446 37.3151 21.5591C37.4645 21.6996 37.6403 21.809 37.8323 21.8809C38.0243 21.9529 38.2287 21.986 38.4336 21.9783C38.7903 21.9783 39.1545 21.9783 39.5172 21.9783Z" fill="#6440FB"/>
<path d="M24.5378 19.4269C23.5808 19.4208 22.6237 19.4208 21.6666 19.4269C20.7431 19.4269 19.8195 19.4269 18.896 19.4269C18.7077 19.4197 18.5198 19.451 18.344 19.5189C18.1682 19.5867 18.008 19.6898 17.8734 19.8217C17.7575 19.9444 17.6678 20.0895 17.6096 20.248C17.5515 20.4065 17.5261 20.5751 17.5351 20.7437C17.5549 21.4829 18.0898 21.963 18.896 21.9752H20.0131H21.6895H23.3781C23.7652 21.9752 24.1523 21.9752 24.5394 21.9752C25.3273 21.9676 25.8927 21.4616 25.911 20.7437C25.9173 20.5783 25.8902 20.4132 25.8313 20.2584C25.7724 20.1037 25.6828 19.9624 25.5681 19.843C25.433 19.7082 25.2721 19.6019 25.0952 19.5304C24.9182 19.4589 24.7287 19.4238 24.5378 19.4269Z" fill="#6440FB"/>
</g>
<defs>
<clipPath id="clip0_129_63">
<rect width="59" height="59" fill="white" transform="translate(0 0.939941)"/>
</clipPath>
</defs>
</svg>
