<?xml version="1.0" standalone="no"?>
<!DOCTYPE svg PUBLIC "-//W3C//DTD SVG 1.1//EN" "http://www.w3.org/Graphics/SVG/1.1/DTD/svg11.dtd"><svg xmlns="http://www.w3.org/2000/svg" style="background-color:#FFF" width="1920" height="384"><path stroke="black" fill="none" stroke-width="1" d="M1607, 24.05L1599.84, 22.2L1582.91, 18.14L1565.95, 14.4L1548.94, 11.02L1531.89, 8.06L1514.79, 5.54L1497.64, 3.51L1480.42, 2.01L1463.14, 1.08L1445.8, 0.76L1428.46, 1.08L1411.18, 2.01L1393.97, 3.51L1376.81, 5.54L1359.71, 8.06L1342.66, 11.02L1325.66, 14.4L1308.69, 18.14L1291.76, 22.2L1274.87, 26.56L1258, 31.15L1241.15, 35.95L1207.51, 46L1173.9, 56.37L1140.29, 66.75L1106.65, 76.79L1089.8, 81.59L1072.93, 86.19L1056.03, 90.54L1039.1, 94.61L1022.14, 98.35L1005.13, 101.72L988.08, 104.69L970.98, 107.21L953.83, 109.24L936.62, 110.74L919.34, 111.67L901.99, 111.99L884.65, 111.67L867.37, 110.74L850.16, 109.24L833.01, 107.21L815.91, 104.69L798.86, 101.72L781.85, 98.35L764.89, 94.61L747.96, 90.54L731.06, 86.19L714.19, 81.59L697.34, 76.79L663.7, 66.75L630.09, 56.37L596.49, 46L562.84, 35.95L546, 31.15L529.13, 26.56L512.23, 22.2L495.3, 18.14L478.34, 14.4L461.33, 11.02L444.28, 8.06L427.18, 5.54L410.03, 3.51L392.81, 2.01L375.54, 1.08L358.19, 0.76L340.85, 1.08L323.57, 2.01L306.36, 3.51L289.21, 5.54L272.11, 8.06L255.06, 11.02L238.05, 14.4L221.09, 18.14L204.16, 22.2L187.26, 26.56L170.39, 31.15L153.55, 35.95L119.9, 46L86.3, 56.37L52.69, 66.75L19.04, 76.79L2.2, 81.59L0, 82.19"/></svg>