<svg width="51" height="52" viewBox="0 0 51 52" fill="none" xmlns="http://www.w3.org/2000/svg">
<g clip-path="url(#clip0_129_71)">
<path d="M4.80272 51.9399C4.55251 51.9399 4.36044 51.9399 4.18327 51.9318C3.27584 51.8934 2.40297 51.5732 1.68597 51.0158C0.968966 50.4583 0.443459 49.6914 0.182567 48.8216C0.171684 48.7825 0.163558 48.7428 0.158232 48.7026C0.137921 48.5413 0.0840248 48.386 0 48.2469V4.6506C0.0863014 4.52331 0.137194 4.37537 0.147434 4.22193C0.147434 4.19624 0.154173 4.16243 0.156878 4.15161C0.592382 2.68303 1.52155 1.70398 2.99712 1.15766C3.05512 1.13984 3.11434 1.12629 3.17431 1.11709C3.35406 1.09305 3.52707 1.03278 3.68285 0.939941H47.117C47.272 1.03041 47.4487 1.07714 47.6282 1.07517C47.6695 1.07501 47.7107 1.07863 47.7513 1.08599C49.7544 1.6553 50.9973 3.33618 50.9973 5.47144C50.9973 13.2894 50.9973 21.1074 50.9973 28.9254C50.9973 35.0873 50.9973 41.2492 50.9973 47.4111C51.0033 47.8312 50.9551 48.2502 50.8539 48.6579C50.3129 50.6864 48.6169 51.9426 46.411 51.944H4.79866L4.80272 51.9399ZM4.70399 3.16444C3.05935 3.16444 2.22485 3.99339 2.22485 5.6283V47.2664C2.22485 48.8892 3.04718 49.7127 4.67018 49.7127H46.3109C47.946 49.7127 48.7751 48.8784 48.7751 47.2326V41.3827C48.7751 31.3122 48.7751 20.8969 48.7873 10.6547C48.7873 10.3762 48.7589 10.0908 48.552 9.88258C48.345 9.67433 48.0502 9.64729 47.7892 9.64729C42.5144 9.65676 36.7595 9.66081 30.1783 9.66081H19.1973C16.6087 9.66081 14.822 7.98263 14.6449 5.38895C14.5475 3.95824 13.713 3.16985 12.2928 3.1685H4.70399V3.16444ZM46.0607 7.43631C46.7243 7.43631 47.3884 7.43631 48.0529 7.43631C48.1536 7.44493 48.255 7.43256 48.3507 7.39997C48.4464 7.36738 48.5343 7.31529 48.6088 7.24699C48.6714 7.17393 48.7186 7.08892 48.7474 6.9971C48.7762 6.90529 48.7861 6.80858 48.7765 6.71283C48.7657 6.47213 48.7684 6.23277 48.7765 5.97854C48.7846 5.72432 48.7765 5.46062 48.7765 5.19693C48.7636 4.66488 48.5472 4.15802 48.1718 3.78069C47.7964 3.40336 47.2906 3.18426 46.7586 3.1685C45.8808 3.15903 44.9232 3.15498 43.7465 3.15498H41.753H39.7134H39.1169L39.3225 3.70265C39.4922 4.20863 39.5914 4.73556 39.6174 5.2686C39.6255 5.34568 39.6323 5.42411 39.6404 5.50119C39.679 6.02641 39.9168 6.51705 40.3052 6.87274C40.6936 7.22843 41.2033 7.42229 41.73 7.41467C42.7119 7.42278 43.6897 7.42278 44.6 7.42278L46.0607 7.43631ZM27.9372 3.68778C28.1071 4.19504 28.2059 4.7234 28.2307 5.25778C28.2631 6.56949 29.1409 7.42143 30.4664 7.4336H31.8906H34.0546H37.8415L37.6752 6.90621C37.5128 6.35952 37.4139 5.79597 37.3803 5.22668C37.2748 3.93795 36.4241 3.16715 35.1041 3.16444H27.7817L27.9372 3.68778ZM17.1794 3.15633C17.0854 3.15412 16.992 3.17177 16.9053 3.20812C16.8186 3.24447 16.7406 3.29871 16.6763 3.36729L16.5032 3.54579L16.5843 3.78109C16.7445 4.29062 16.8377 4.81884 16.8616 5.35244C16.9576 6.64928 17.7989 7.42819 19.1122 7.4336C19.728 7.4336 20.3425 7.4336 20.9556 7.4336H26.4413L26.2953 6.91703C26.1363 6.42376 26.0387 5.91282 26.0045 5.39571C25.9626 4.02179 25.0861 3.16715 23.7201 3.16444H21.218H17.3539H17.3093C17.2741 3.16039 17.2295 3.15633 17.1862 3.15633H17.1794Z" fill="#6440FB"/>
<path d="M18.1532 27.5663C15.6348 27.5663 13.1043 27.5542 10.6293 27.5298C10.0777 27.5192 9.53412 27.396 9.03196 27.1676C8.5298 26.9392 8.07966 26.6106 7.70921 26.2019C6.9352 25.3788 6.50424 24.2917 6.50415 23.1619C6.5285 20.8225 8.40712 18.8887 10.6969 18.8495C11.5611 18.8346 12.4862 18.8279 13.6088 18.8279C14.3689 18.8279 15.1295 18.8279 15.8905 18.8279C16.6515 18.8279 17.4125 18.8279 18.1735 18.8279H18.5792H20.4349H22.6922C23.7945 18.8279 24.702 18.8279 25.5514 18.8441C26.1276 18.8455 26.6979 18.9614 27.2289 19.1852C27.7599 19.409 28.2412 19.7362 28.6445 20.1477C29.0477 20.5686 29.3629 21.0655 29.5719 21.6095C29.7809 22.1535 29.8795 22.7336 29.8618 23.3161C29.8226 25.5812 27.9358 27.5082 25.7421 27.5339C23.194 27.5542 20.6418 27.5663 18.1532 27.5663ZM13.9916 21.0564C12.9447 21.0564 11.8974 21.0591 10.8497 21.0646C10.2915 21.0638 9.7555 21.2834 9.35836 21.6757C8.96123 22.068 8.73506 22.6011 8.729 23.1592C8.72432 23.441 8.77598 23.7208 8.88096 23.9823C8.98594 24.2437 9.14213 24.4816 9.34034 24.6819C9.53809 24.8844 9.77431 25.0452 10.0351 25.1551C10.296 25.2649 10.5762 25.3215 10.8592 25.3215C13.2035 25.3215 15.551 25.3215 17.9016 25.3215H23.9879H25.5257C25.8198 25.3243 26.111 25.2631 26.3791 25.1421C26.6472 25.0212 26.8858 24.8434 27.0783 24.6211C27.3622 24.3268 27.5512 23.9542 27.6212 23.5514C27.6911 23.1486 27.6386 22.7341 27.4705 22.3614C27.3205 21.9687 27.0521 21.6323 26.7024 21.3988C26.3528 21.1652 25.9392 21.0461 25.5189 21.0578H22.3757H13.9902L13.9916 21.0564Z" fill="#6440FB"/>
<path d="M12.6593 38.9311H7.84173C6.89498 38.9311 6.6583 38.4726 6.55686 38.1292C6.51315 37.9831 6.50032 37.8295 6.51918 37.6781C6.53804 37.5268 6.58819 37.3811 6.66642 37.2502C6.74186 37.1223 6.8433 37.0116 6.96423 36.9255C7.08515 36.8393 7.22284 36.7794 7.36836 36.7498C7.55679 36.7173 7.74794 36.7032 7.93911 36.7079H20.4511H28.4308C29.3776 36.7079 29.6643 37.0149 29.8103 37.5112C29.8589 37.6651 29.8728 37.8278 29.8511 37.9877C29.8293 38.1476 29.7725 38.3008 29.6846 38.4361C29.5957 38.5688 29.4785 38.6802 29.3415 38.7623C29.2045 38.8443 29.051 38.8951 28.892 38.9108C28.7064 38.9287 28.5199 38.9359 28.3334 38.9324H12.6661L12.6593 38.9311Z" fill="#6440FB"/>
<path d="M43.4057 29.1756C43.0861 29.1672 42.7822 29.0354 42.5577 28.8078C42.1452 28.4115 41.6772 27.9612 41.258 27.5001C41.1726 27.3927 41.0648 27.3051 40.9422 27.2435C40.8196 27.1818 40.6851 27.1476 40.5479 27.1431C40.3877 27.1474 40.2298 27.1823 40.0826 27.2459C39.5788 27.4447 39.0419 27.5466 38.5002 27.5461C37.7129 27.5492 36.9397 27.3375 36.2639 26.9338C35.588 26.5302 35.035 25.9498 34.6645 25.2553C33.6353 23.2472 34.2588 20.7414 36.0752 19.55C36.8258 19.0774 37.6957 18.8288 38.5827 18.8333H38.6016C39.2979 18.8419 39.9815 19.0211 40.5924 19.3552C41.2034 19.6893 41.7231 20.168 42.106 20.7495C42.504 21.3224 42.7555 21.9842 42.8382 22.6769C42.921 23.3696 42.8326 24.0719 42.5807 24.7225C42.3738 25.2391 42.4576 25.615 42.862 25.9815C43.2664 26.3479 43.6735 26.7618 44.1307 27.2459C44.5878 27.73 44.6176 28.4034 44.1645 28.8524C44.066 28.9541 43.9481 29.0351 43.8178 29.0906C43.6875 29.1462 43.5474 29.175 43.4057 29.1756ZM38.5016 21.0619C38.2161 21.0639 37.9338 21.1221 37.6709 21.2332C37.4079 21.3444 37.1695 21.5063 36.9692 21.7096C36.7747 21.9049 36.6211 22.1371 36.5175 22.3925C36.4139 22.648 36.3624 22.9215 36.366 23.1971C36.3692 23.7615 36.5961 24.3017 36.9969 24.6991C37.3977 25.0966 37.9398 25.319 38.5043 25.3175C39.0699 25.3197 39.6132 25.0976 40.0153 24.6998C40.4174 24.3021 40.6454 23.7613 40.6493 23.1958C40.652 22.9198 40.5995 22.6461 40.4949 22.3907C40.3904 22.1353 40.236 21.9033 40.0407 21.7083C39.6347 21.2984 39.0826 21.0664 38.5056 21.0632L38.5016 21.0619Z" fill="#6440FB"/>
<path d="M23.5633 45.4463H7.89595C7.56189 45.4463 7.21973 45.4179 6.94112 45.2137C6.75585 45.0656 6.62081 44.8638 6.55448 44.6361C6.48816 44.4084 6.49378 44.1657 6.57053 43.9412C6.63791 43.7305 6.77163 43.5473 6.95178 43.4188C7.13193 43.2904 7.34881 43.2236 7.57001 43.2286C8.19622 43.2205 8.8684 43.2178 9.75293 43.2178H20.366C21.5066 43.2178 22.6467 43.22 23.7865 43.2245C23.9785 43.2163 24.1696 43.254 24.3442 43.3344C24.5187 43.4149 24.6715 43.5357 24.79 43.687C24.8911 43.8327 24.9553 44.0007 24.9772 44.1766C24.9991 44.3526 24.9781 44.5312 24.9158 44.6972C24.866 44.861 24.7749 45.0092 24.6512 45.1276C24.5276 45.246 24.3756 45.3306 24.2098 45.3733C24.0021 45.4254 23.7881 45.4482 23.5741 45.4409L23.5633 45.4463Z" fill="#6440FB"/>
</g>
<defs>
<clipPath id="clip0_129_71">
<rect width="51" height="51" fill="white" transform="translate(0 0.939941)"/>
</clipPath>
</defs>
</svg>
