<svg xmlns="http://www.w3.org/2000/svg" width="44" height="44" viewBox="0 0 44 44" fill="none">
  <g clip-path="url(#clip0_1861_512)">
    <path d="M21.9375 43.998C16.7667 43.998 11.5978 44.002 6.42701 43.998C2.742 43.9941 0.00625326 41.2485 0.00428792 37.5537C0.000357243 32.4163 0.000357243 27.2789 0.00428792 22.1415C0.00625326 18.767 2.30766 16.1315 5.6625 15.7502C6.27961 15.6795 6.2973 15.4495 6.29534 14.9739C6.28354 10.6541 6.28748 6.33429 6.28944 2.01644C6.28944 0.538503 6.81419 0 8.2705 0C17.4329 0 26.5934 0 35.7558 0C37.159 0 37.7113 0.54833 37.7132 1.94372C37.7172 6.26353 37.725 10.5833 37.7034 14.9012C37.6995 15.4869 37.8095 15.6795 38.466 15.7601C41.7068 16.161 43.9945 18.8122 43.9984 22.0688C44.0043 27.2396 44.0043 32.4084 43.9984 37.5792C43.9945 41.2623 41.2469 43.9921 37.5482 43.9961C32.3459 44 27.1436 43.9961 21.9394 43.9961L21.9375 43.998ZM22.0318 3.14258C18.1051 3.14258 14.1763 3.1524 10.2496 3.13078C9.66589 3.12685 9.40843 3.19564 9.41236 3.89727C9.44381 10.5421 9.43595 17.1849 9.42219 23.8297C9.42219 24.3014 9.5578 24.5785 9.96266 24.8556C12.3073 26.4594 14.6146 28.1161 16.9494 29.7336C20.1962 31.982 23.8262 31.9741 27.0827 29.7159C29.39 28.1161 31.6757 26.4849 33.9889 24.8949C34.4075 24.608 34.5864 24.323 34.5844 23.7944C34.5628 17.183 34.5569 10.5716 34.5883 3.96016C34.5923 3.24477 34.3761 3.11899 33.7157 3.12489C29.8204 3.15633 25.9271 3.14061 22.0318 3.14061V3.14258ZM3.1449 23.926C3.1449 28.519 3.14293 32.9351 3.1449 37.3513C3.1449 39.5957 4.41647 40.8535 6.68054 40.8555C16.8905 40.8574 27.1004 40.8574 37.3103 40.8555C39.6098 40.8555 40.8519 39.5917 40.8519 37.2609C40.8538 33.1376 40.8519 29.0143 40.8519 24.891C40.8519 24.6159 40.8519 24.3407 40.8519 24.0184C40.6789 24.0931 40.618 24.1088 40.5708 24.1422C36.6893 26.8505 32.8117 29.5626 28.9282 32.2709C24.4767 35.3761 19.5083 35.3741 15.0647 32.2689C11.1379 29.5233 7.21315 26.7777 3.14097 23.928L3.1449 23.926ZM6.28748 22.2712C6.28748 21.4831 6.32089 20.866 6.27568 20.2548C6.24227 19.7969 6.55869 19.1286 6.0988 18.9262C5.61533 18.714 5.03949 19.0933 4.56977 19.3979C4.40665 19.504 4.26514 19.6416 4.11185 19.7615C3.5871 20.1722 3.60675 20.4808 4.21208 20.8346C4.88226 21.2257 5.49348 21.715 6.28551 22.2712H6.28748ZM37.7132 22.2673C38.352 21.8251 38.8335 21.4949 39.315 21.1608C40.5374 20.3098 40.5119 19.9443 39.1676 19.2426C38.9101 19.109 38.6271 19.0166 38.35 18.9242C37.9373 18.7886 37.6779 18.822 37.7034 19.3841C37.7427 20.2902 37.7132 21.1981 37.7132 22.2673Z" fill="#6440FB"/>
    <path d="M20.3825 18.885C21.6325 17.9455 22.8058 17.0651 23.9752 16.1826C24.5255 15.7699 25.0954 15.5282 25.7852 15.8623C26.4535 16.1866 26.6755 16.7251 26.7266 17.4385C26.8505 19.1758 28.1456 20.3806 29.8751 20.4238C30.4293 20.4376 30.9875 20.3963 31.5417 20.4356C32.3829 20.4965 32.9921 21.1687 32.998 21.9863C33.0039 22.8038 32.4025 23.4937 31.5614 23.5605C28.6134 23.7904 26.0309 23.1615 24.4075 20.4022C24.1933 20.0386 24.0498 20.0543 23.755 20.2862C23.0888 20.811 22.4088 21.32 21.715 21.8035C20.2135 22.851 18.5155 22.5169 17.6389 20.9191C17.3343 20.3629 17.1771 20.5024 16.8213 20.7776C15.7876 21.5735 14.744 22.3577 13.6905 23.1262C12.7727 23.7963 11.8431 23.6961 11.285 22.9001C10.7504 22.1356 10.9351 21.2689 11.7999 20.6125C13.099 19.6259 14.4 18.6432 15.7129 17.6763C17.578 16.3025 19.2878 16.729 20.3806 18.885H20.3825Z" fill="#6440FB"/>
    <path d="M21.9017 9.42969C19.447 9.42969 16.9923 9.43166 14.5376 9.42969C13.2896 9.42969 12.59 8.8735 12.5742 7.88297C12.5585 6.88261 13.2601 6.28908 14.4865 6.28908C19.4942 6.28515 24.5038 6.28515 29.5115 6.28908C30.734 6.28908 31.4415 6.88654 31.4277 7.88297C31.414 8.8735 30.7143 9.42773 29.4644 9.42969C26.9448 9.43362 24.4233 9.42969 21.9037 9.42969H21.9017Z" fill="#6440FB"/>
    <path d="M22.0216 10.9999C24.5097 10.9999 26.9979 10.9979 29.484 10.9999C30.7202 10.9999 31.4238 11.5738 31.4258 12.5682C31.4277 13.5607 30.7222 14.1405 29.4879 14.1405C24.4803 14.1425 19.4706 14.1444 14.4629 14.1405C13.2483 14.1405 12.5428 13.5273 12.5723 12.523C12.5998 11.56 13.2798 11.0038 14.459 11.0019C16.9786 10.9979 19.5001 11.0019 22.0197 11.0019L22.0216 10.9999Z" fill="#6440FB"/>
  </g>
  <defs>
    <clipPath id="clip0_1861_512">
      <rect width="44" height="44" fill="white"/>
    </clipPath>
  </defs>
</svg>