<svg width="27" height="26" viewBox="0 0 27 26" fill="none" xmlns="http://www.w3.org/2000/svg">
<path d="M23.7778 14.5509C23.7778 14.8569 23.7778 15.1639 23.7778 15.4699C23.7778 15.5889 23.7508 15.6349 23.6238 15.6289C23.4028 15.6189 23.1818 15.6229 22.9598 15.6289C22.8265 15.6133 22.6923 15.6509 22.5864 15.7334C22.4805 15.8159 22.4113 15.9368 22.3938 16.0699C22.2083 16.8737 21.8899 17.6409 21.4518 18.3399C21.3737 18.4434 21.3381 18.5727 21.3522 18.7015C21.3663 18.8304 21.4292 18.9489 21.5278 19.0329C21.6868 19.1989 21.8468 19.3639 22.0158 19.5189C22.1098 19.6049 22.0958 19.6579 22.0158 19.7409C21.5732 20.1769 21.1342 20.6166 20.6988 21.0599C20.6098 21.1509 20.5588 21.1439 20.4778 21.0599C20.3278 20.8979 20.1698 20.7419 20.0098 20.5899C19.9265 20.4845 19.805 20.416 19.6716 20.3994C19.5382 20.3827 19.4036 20.4192 19.2968 20.5009C18.5979 20.9394 17.8307 21.2581 17.0268 21.4439C16.8982 21.461 16.781 21.5266 16.6993 21.6275C16.6177 21.7283 16.5778 21.8566 16.5878 21.9859C16.5808 22.2159 16.5798 22.4459 16.5878 22.6749C16.5928 22.8009 16.5498 22.8309 16.4298 22.8299C15.8172 22.8246 15.2045 22.8246 14.5918 22.8299C14.4618 22.8299 14.4118 22.8009 14.4198 22.6629C14.4318 22.4509 14.4258 22.2379 14.4198 22.0249C14.4289 21.9568 14.4244 21.8875 14.4066 21.8211C14.3888 21.7547 14.3579 21.6925 14.3159 21.6381C14.2739 21.5837 14.2215 21.5382 14.1617 21.5042C14.102 21.4702 14.0361 21.4483 13.9678 21.4399C13.1651 21.2516 12.3988 20.9323 11.6998 20.4949C11.5958 20.4161 11.4651 20.3811 11.3356 20.3974C11.2061 20.4136 11.0881 20.4799 11.0068 20.5819C10.8408 20.7409 10.6768 20.9029 10.5198 21.0699C10.4448 21.1499 10.3978 21.1549 10.3198 21.0699C9.8785 20.6206 9.43316 20.1753 8.98383 19.7339C8.88383 19.6339 8.92083 19.5869 8.99883 19.5119C9.15883 19.3593 9.3155 19.2029 9.46883 19.0429C9.5721 18.9572 9.63798 18.8347 9.65254 18.7012C9.6671 18.5678 9.62919 18.4339 9.54683 18.3279C9.11378 17.636 8.7985 16.8771 8.61383 16.0819C8.60623 16.013 8.58482 15.9463 8.55089 15.8858C8.51697 15.8252 8.47121 15.7722 8.41634 15.7297C8.36147 15.6873 8.29862 15.6563 8.23153 15.6386C8.16444 15.621 8.09449 15.617 8.02583 15.6269C7.81283 15.6269 7.59983 15.6169 7.38783 15.6269C7.25083 15.6379 7.22583 15.5839 7.22583 15.4559C7.23116 14.8433 7.23116 14.2306 7.22583 13.6179C7.22583 13.4969 7.25583 13.4539 7.38183 13.4599C7.59383 13.4699 7.80783 13.4659 8.01983 13.4599C8.09045 13.4699 8.16234 13.4654 8.23118 13.4468C8.30003 13.4282 8.36441 13.3959 8.42045 13.3519C8.4765 13.3078 8.52305 13.2528 8.55731 13.1903C8.59157 13.1277 8.61284 13.0589 8.61983 12.9879C8.80308 12.2028 9.11351 11.4529 9.53883 10.7679C9.62504 10.6594 9.66471 10.5211 9.64915 10.3833C9.6336 10.2455 9.56408 10.1196 9.45583 10.0329C9.30283 9.87294 9.14683 9.71594 8.98583 9.56494C8.90583 9.48994 8.90183 9.44194 8.98583 9.36494C9.43483 8.92394 9.88583 8.47994 10.3218 8.02894C10.4218 7.92894 10.4708 7.96894 10.5438 8.04494C10.6968 8.20494 10.8528 8.36194 11.0128 8.51494C11.0963 8.61417 11.2145 8.67781 11.3433 8.69286C11.4721 8.70792 11.6017 8.67325 11.7058 8.59594C12.4046 8.15806 13.1714 7.8397 13.9748 7.65394C14.108 7.63548 14.2288 7.56605 14.3118 7.46029C14.3948 7.35453 14.4335 7.22069 14.4198 7.08694C14.4258 6.87394 14.4258 6.66094 14.4188 6.44894C14.4188 6.32794 14.4308 6.26694 14.5788 6.26894C15.1998 6.27794 15.8258 6.27494 16.4428 6.26794C16.5538 6.26794 16.5908 6.29894 16.5868 6.41094C16.5788 6.63194 16.5808 6.85394 16.5868 7.07494C16.5725 7.2126 16.6131 7.35034 16.6998 7.45821C16.7865 7.56608 16.9123 7.63534 17.0498 7.65094C17.8286 7.82948 18.5722 8.1367 19.2498 8.55994C19.3076 8.60902 19.375 8.64556 19.4476 8.66723C19.5202 8.6889 19.5966 8.69524 19.6718 8.68583C19.747 8.67643 19.8195 8.6515 19.8846 8.61261C19.9496 8.57372 20.0059 8.52173 20.0498 8.45994C20.2328 8.28794 20.3878 7.96694 20.6008 7.98194C20.7888 7.99594 20.9578 8.29194 21.1328 8.46494C21.4168 8.74694 21.6928 9.03694 21.9858 9.30894C22.1148 9.42794 22.0988 9.49794 21.9788 9.60894C21.8198 9.74994 21.6718 9.90894 21.5268 10.0589C21.4319 10.1413 21.3715 10.2564 21.3576 10.3813C21.3437 10.5062 21.3773 10.6317 21.4518 10.7329C21.8957 11.4384 22.2176 12.2136 22.4038 13.0259C22.4239 13.1544 22.4919 13.2704 22.5942 13.3506C22.6964 13.4307 22.8253 13.4691 22.9548 13.4579C23.1758 13.4659 23.3978 13.4679 23.6188 13.4579C23.7558 13.4509 23.7908 13.4999 23.7868 13.6299C23.7778 13.9359 23.7868 14.2429 23.7868 14.5489" fill="#E8E4F9"/>
<path d="M14.9128 0.0289307C15.2365 0.0956276 15.5637 0.144369 15.8928 0.174931C16.0928 0.216931 16.2928 0.239931 16.4928 0.280931C16.5618 0.289702 16.6283 0.312464 16.6882 0.347821C16.748 0.383179 16.8001 0.430388 16.8411 0.486558C16.8821 0.542729 16.9112 0.606678 16.9266 0.67449C16.9421 0.742302 16.9435 0.812549 16.9308 0.880931C16.9159 0.949144 16.8873 1.01362 16.8467 1.07048C16.8062 1.12734 16.7545 1.17539 16.6949 1.21174C16.6353 1.2481 16.5689 1.27199 16.4998 1.28199C16.4307 1.29199 16.3603 1.28789 16.2928 1.26993C14.7275 0.943069 13.1108 0.950907 11.5488 1.29293C9.46358 1.68759 7.52658 2.64673 5.94868 4.06594C4.37078 5.48515 3.21245 7.31004 2.59981 9.34193C1.98022 11.1546 1.82116 13.093 2.13694 14.9825C2.45273 16.8719 3.23344 18.6532 4.40881 20.1659C4.42098 20.1931 4.43905 20.2172 4.4617 20.2364C4.48436 20.2557 4.51103 20.2697 4.53977 20.2773C4.5685 20.285 4.59859 20.2862 4.62783 20.2807C4.65708 20.2753 4.68474 20.2634 4.70881 20.2459C5.13126 20.064 5.6014 20.0242 6.04842 20.1326C6.49543 20.241 6.89512 20.4918 7.18727 20.847C7.47943 21.2023 7.64823 21.6429 7.66825 22.1024C7.68828 22.562 7.55844 23.0156 7.2983 23.3949C7.03816 23.7743 6.6618 24.0588 6.22591 24.2057C5.79002 24.3526 5.3182 24.3539 4.88152 24.2094C4.44484 24.0648 4.06695 23.7823 3.80476 23.4044C3.54256 23.0265 3.41027 22.5736 3.42781 22.1139C3.43168 21.7836 3.52238 21.4601 3.69081 21.1759C3.72742 21.1276 3.74482 21.0674 3.73965 21.007C3.73448 20.9467 3.7071 20.8903 3.66281 20.8489C2.37034 19.1877 1.51803 17.2272 1.18481 15.1489C0.851381 13.3134 0.929213 11.4268 1.4127 9.62495C1.89618 7.82313 2.77328 6.15097 3.98081 4.72893C5.94964 2.29943 8.7488 0.685554 11.8378 0.198931C12.1448 0.145931 12.4558 0.119931 12.7648 0.0809307C12.8098 0.0749307 12.8648 0.0999307 12.8888 0.0289307L14.9128 0.0289307ZM6.66481 22.2009C6.66527 22.0548 6.63695 21.9101 6.58146 21.7749C6.52598 21.6398 6.44442 21.5169 6.34144 21.4132C6.23846 21.3096 6.11608 21.2273 5.98128 21.171C5.84648 21.1146 5.7019 21.0854 5.55581 21.0849C5.40971 21.0845 5.26496 21.1128 5.12981 21.1683C4.99466 21.2238 4.87176 21.3053 4.76813 21.4083C4.6645 21.5113 4.58216 21.6337 4.52583 21.7685C4.4695 21.9033 4.44027 22.0478 4.43981 22.1939C4.43888 22.489 4.5552 22.7723 4.76318 22.9816C4.97115 23.1909 5.25375 23.309 5.54881 23.3099C5.84386 23.3109 6.1272 23.1945 6.33649 22.9866C6.54578 22.7786 6.66388 22.496 6.66481 22.2009Z" fill="#6440FB"/>
<path d="M26.9059 14.0469C26.8216 14.3237 26.7745 14.6106 26.7659 14.8999C26.5086 16.6315 25.9028 18.293 24.9851 19.7838C24.0674 21.2746 22.8568 22.5638 21.4266 23.5733C19.9964 24.5829 18.3762 25.2919 16.6642 25.6574C14.9521 26.0229 13.1837 26.0374 11.4659 25.6999C11.3943 25.6956 11.3245 25.676 11.2611 25.6424C11.1978 25.6087 11.1424 25.5619 11.0988 25.505C11.0552 25.4481 11.0243 25.3824 11.0083 25.3125C10.9922 25.2426 10.9914 25.1701 11.0059 25.0999C11.0186 25.029 11.0465 24.9618 11.0876 24.9027C11.1287 24.8436 11.1821 24.7941 11.2441 24.7576C11.3061 24.721 11.3752 24.6983 11.4468 24.6909C11.5184 24.6835 11.5907 24.6917 11.6589 24.7149C14.6949 25.328 17.8501 24.7124 20.4329 23.0029C21.8183 22.1327 23.0034 20.9787 23.9101 19.6169C24.8167 18.2552 25.4244 16.7167 25.6929 15.1029C25.997 13.4956 25.9615 11.8426 25.5887 10.2499C25.2158 8.65716 24.5138 7.1601 23.5279 5.85487C23.5129 5.82042 23.4904 5.78973 23.4621 5.76501C23.4338 5.74029 23.4004 5.72216 23.3642 5.71192C23.3281 5.70169 23.2901 5.6996 23.253 5.70582C23.2159 5.71203 23.1807 5.7264 23.1499 5.74787C22.7236 5.92022 22.2529 5.94939 21.8086 5.83098C21.3643 5.71256 20.9705 5.45298 20.6866 5.09134C20.4027 4.72969 20.2439 4.28557 20.2343 3.82587C20.2247 3.36618 20.3647 2.91581 20.6333 2.54261C20.9019 2.16941 21.2844 1.89359 21.7234 1.7567C22.1623 1.61981 22.6339 1.62927 23.067 1.78365C23.5001 1.93803 23.8713 2.22897 24.1247 2.61264C24.3781 2.99631 24.4999 3.45193 24.4719 3.91087C24.4632 4.21573 24.3772 4.51337 24.2219 4.77587C24.1794 4.83025 24.159 4.89866 24.1647 4.96745C24.1705 5.03623 24.2019 5.10031 24.2529 5.14687C25.3307 6.55363 26.105 8.16865 26.5269 9.88987C26.6827 10.5283 26.7929 11.1769 26.8569 11.8309C26.8619 11.8829 26.8279 11.9529 26.9079 11.9819L26.9059 14.0469ZM22.3519 4.88687C22.5722 4.88646 22.7875 4.8206 22.9704 4.69763C23.1532 4.57466 23.2954 4.40014 23.3789 4.19621C23.4624 3.99229 23.4834 3.76815 23.4393 3.55226C23.3952 3.33636 23.2879 3.13844 23.1311 2.98362C22.9743 2.82879 22.7751 2.72404 22.5586 2.68266C22.3422 2.64128 22.1184 2.66513 21.9155 2.7512C21.7127 2.83726 21.5399 2.98166 21.4193 3.16605C21.2987 3.35045 21.2355 3.56653 21.2379 3.78687C21.2416 4.07989 21.3606 4.35966 21.5691 4.56556C21.7776 4.77145 22.0588 4.88689 22.3519 4.88687Z" fill="#6440FB"/>
<path d="M13.9468 3.76898H15.3888C15.8738 3.76898 16.0338 3.93298 16.0358 4.42498C16.0358 4.64398 16.0418 4.86397 16.0358 5.08297C16.0313 5.10714 16.0318 5.132 16.0374 5.15595C16.0429 5.1799 16.0535 5.20243 16.0682 5.2221C16.083 5.24176 16.1017 5.25813 16.1232 5.27016C16.1446 5.28219 16.1683 5.28962 16.1928 5.29197C16.7516 5.44663 17.289 5.67 17.7928 5.95698C17.8136 5.97308 17.8375 5.98463 17.863 5.99086C17.8886 5.9971 17.9151 5.99789 17.941 5.99317C17.9668 5.98845 17.9914 5.97833 18.0131 5.96348C18.0348 5.94863 18.0531 5.92938 18.0668 5.90698C18.2398 5.72298 18.4188 5.54398 18.6028 5.36998C18.6497 5.31492 18.7081 5.2707 18.7738 5.24038C18.8395 5.21006 18.911 5.19435 18.9833 5.19435C19.0557 5.19435 19.1272 5.21006 19.1929 5.24038C19.2585 5.2707 19.3169 5.31492 19.3638 5.36998C20.0971 6.09264 20.8248 6.81998 21.5468 7.55198C21.6052 7.59883 21.6523 7.6582 21.6847 7.7257C21.7171 7.7932 21.7339 7.86711 21.7339 7.94198C21.7339 8.01684 21.7171 8.09075 21.6847 8.15825C21.6523 8.22576 21.6052 8.28512 21.5468 8.33198C21.3728 8.51498 21.1938 8.69498 21.0098 8.86798C20.9892 8.88087 20.9715 8.89797 20.9579 8.91816C20.9444 8.93835 20.9352 8.96117 20.9311 8.98514C20.9269 9.00911 20.9279 9.03369 20.9338 9.05726C20.9398 9.08084 20.9507 9.10289 20.9658 9.12198C21.2524 9.62618 21.4764 10.1635 21.6328 10.722C21.6355 10.7484 21.6437 10.774 21.6569 10.7971C21.67 10.8202 21.6878 10.8403 21.7092 10.8561C21.7306 10.8719 21.755 10.8831 21.7809 10.8889C21.8069 10.8948 21.8337 10.8951 21.8598 10.89C22.1208 10.882 22.3828 10.882 22.6438 10.89C22.7138 10.8851 22.7841 10.8955 22.8497 10.9203C22.9153 10.9451 22.9748 10.9838 23.0241 11.0338C23.0734 11.0837 23.1113 11.1437 23.1353 11.2097C23.1592 11.2757 23.1686 11.346 23.1628 11.416C23.1675 12.4533 23.1675 13.4906 23.1628 14.528C23.1676 14.5979 23.1575 14.668 23.1331 14.7336C23.1087 14.7993 23.0705 14.859 23.0212 14.9088C22.9719 14.9585 22.9126 14.9972 22.8472 15.0223C22.7818 15.0473 22.7117 15.0581 22.6418 15.054C22.3718 15.062 22.1018 15.06 21.8328 15.054C21.8107 15.0502 21.788 15.0509 21.7661 15.0562C21.7443 15.0614 21.7237 15.0711 21.7058 15.0846C21.6878 15.0981 21.6727 15.1151 21.6616 15.1346C21.6504 15.1541 21.6433 15.1756 21.6408 15.198C21.4832 15.7655 21.2565 16.3116 20.9658 16.824C20.9512 16.8433 20.9409 16.8655 20.9353 16.8892C20.9298 16.9128 20.9293 16.9373 20.9339 16.9611C20.9384 16.9849 20.9478 17.0075 20.9616 17.0275C20.9754 17.0474 20.9931 17.0643 21.0138 17.077C21.1971 17.251 21.3762 17.4296 21.5508 17.613C21.6097 17.6592 21.6574 17.7181 21.6905 17.7853C21.7236 17.8524 21.7412 17.9262 21.7419 18.0011C21.7427 18.0759 21.7267 18.15 21.695 18.2178C21.6633 18.2857 21.6167 18.3455 21.5588 18.393C20.8361 19.1263 20.1088 19.854 19.3768 20.576C19.3291 20.6337 19.2691 20.68 19.2012 20.7115C19.1332 20.7429 19.059 20.7587 18.9842 20.7576C18.9093 20.7566 18.8356 20.7387 18.7686 20.7054C18.7015 20.672 18.6428 20.624 18.5968 20.565C18.4138 20.39 18.2348 20.212 18.0608 20.028C18.048 20.0074 18.0311 19.9897 18.0111 19.976C17.9911 19.9623 17.9685 19.953 17.9447 19.9486C17.9209 19.9442 17.8964 19.9447 17.8728 19.9503C17.8493 19.9559 17.8271 19.9663 17.8078 19.981C17.3044 20.2696 16.7669 20.494 16.2078 20.649C16.0758 20.687 16.0338 20.742 16.0378 20.874C16.0468 21.135 16.0448 21.397 16.0378 21.658C16.043 21.728 16.0331 21.7983 16.0087 21.8641C15.9843 21.93 15.9461 21.9898 15.8966 22.0396C15.8471 22.0894 15.7875 22.1279 15.7218 22.1527C15.6561 22.1774 15.5859 22.1877 15.5158 22.183C14.4785 22.1883 13.4411 22.1883 12.4038 22.183C12.3319 22.1878 12.2598 22.1771 12.1925 22.1515C12.1251 22.1259 12.0641 22.0861 12.0135 22.0347C11.963 21.9833 11.9242 21.9216 11.8997 21.8538C11.8753 21.7861 11.8657 21.7138 11.8718 21.642C11.8668 21.398 11.8638 21.153 11.8718 20.908C11.8768 20.765 11.8508 20.686 11.6878 20.642C11.1362 20.4891 10.6055 20.2688 10.1078 19.986C10.0892 19.9705 10.0676 19.9591 10.0444 19.9524C10.0212 19.9457 9.99682 19.9439 9.97287 19.9471C9.94891 19.9503 9.92588 19.9584 9.90522 19.971C9.88456 19.9835 9.86671 20.0002 9.85281 20.02C9.68081 20.205 9.49982 20.383 9.31782 20.558C9.27075 20.619 9.21041 20.6686 9.14136 20.7029C9.07231 20.7371 8.99637 20.7553 8.91928 20.7558C8.84219 20.7564 8.76598 20.7394 8.69642 20.7062C8.62687 20.673 8.56579 20.6243 8.51781 20.564C7.79315 19.8453 7.07182 19.1236 6.35382 18.399C6.2956 18.3521 6.24862 18.2928 6.21635 18.2254C6.18408 18.158 6.16733 18.0842 6.16733 18.0095C6.16733 17.9347 6.18408 17.861 6.21635 17.7936C6.24862 17.7261 6.2956 17.6668 6.35382 17.62C6.56282 17.4 6.90482 17.21 6.95382 16.962C7.00282 16.714 6.73182 16.43 6.61882 16.154C6.49482 15.854 6.37682 15.544 6.28382 15.231C6.28139 15.2024 6.27287 15.1748 6.25882 15.1498C6.24478 15.1249 6.22554 15.1032 6.20241 15.0863C6.17927 15.0695 6.15278 15.0577 6.12473 15.052C6.09668 15.0462 6.06772 15.0466 6.03982 15.053C5.78682 15.063 5.53381 15.06 5.28081 15.053C5.20891 15.0577 5.13683 15.0468 5.06951 15.0211C5.00219 14.9954 4.94123 14.9554 4.8908 14.904C4.84037 14.8525 4.80166 14.7907 4.77733 14.7229C4.75299 14.6551 4.74361 14.5828 4.74981 14.511C4.74648 13.4823 4.74648 12.4533 4.74981 11.424C4.74307 11.3519 4.75225 11.2793 4.77672 11.2112C4.80119 11.1432 4.84036 11.0813 4.89142 11.03C4.94248 10.9788 5.00418 10.9394 5.07217 10.9147C5.14016 10.89 5.21276 10.8805 5.28482 10.887C5.53782 10.881 5.79081 10.877 6.04381 10.887C6.19081 10.894 6.24381 10.841 6.28281 10.701C6.43798 10.1501 6.65891 9.62 6.94082 9.12198C6.95662 9.10349 6.96838 9.0819 6.97532 9.05859C6.98227 9.03528 6.98425 9.01078 6.98114 8.98665C6.97803 8.96253 6.9699 8.93932 6.95727 8.91854C6.94464 8.89775 6.92779 8.87985 6.90781 8.86598C6.71714 8.68731 6.53214 8.50298 6.35281 8.31298C6.29775 8.26604 6.25354 8.2077 6.22322 8.14201C6.1929 8.07632 6.17719 8.00483 6.17719 7.93248C6.17719 7.86012 6.1929 7.78863 6.22322 7.72294C6.25354 7.65724 6.29775 7.59892 6.35281 7.55198C7.07681 6.81864 7.80448 6.09131 8.53582 5.36998C8.58268 5.31176 8.64199 5.26478 8.70939 5.23251C8.7768 5.20024 8.85058 5.18349 8.92531 5.18349C9.00005 5.18349 9.07383 5.20024 9.14123 5.23251C9.20864 5.26478 9.26796 5.31176 9.31482 5.36998C9.49782 5.54498 9.67681 5.72298 9.85081 5.90698C9.86407 5.92736 9.88144 5.94475 9.9018 5.95804C9.92216 5.97134 9.94506 5.98025 9.96905 5.9842C9.99304 5.98816 10.0176 5.98707 10.0411 5.981C10.0647 5.97494 10.0867 5.96403 10.1058 5.94898C10.61 5.66289 11.1474 5.43957 11.7058 5.28398C11.7323 5.28108 11.7578 5.27265 11.7808 5.25925C11.8038 5.24585 11.8237 5.22777 11.8393 5.20618C11.8548 5.18459 11.8657 5.15998 11.8711 5.13393C11.8765 5.10788 11.8764 5.08098 11.8708 5.05497C11.8628 4.81097 11.8658 4.56597 11.8708 4.32097C11.8605 4.24478 11.8678 4.16723 11.8923 4.09434C11.9168 4.02146 11.9578 3.95521 12.0121 3.90074C12.0664 3.84627 12.1325 3.80505 12.2053 3.78029C12.2781 3.75553 12.3556 3.7479 12.4318 3.75798C12.9378 3.75798 13.4438 3.75798 13.9498 3.75798M22.1498 12.972C22.1498 12.672 22.1438 12.365 22.1498 12.061C22.1498 11.932 22.1198 11.884 21.9838 11.89C21.7648 11.901 21.5448 11.899 21.3258 11.89C21.1977 11.9009 21.0702 11.8628 20.969 11.7833C20.8679 11.7039 20.8006 11.5891 20.7808 11.462C20.5964 10.657 20.2776 9.88894 19.8378 9.18998C19.7652 9.08942 19.7326 8.96547 19.7463 8.84221C19.76 8.71896 19.819 8.60518 19.9118 8.52298C20.0558 8.36998 20.2028 8.21698 20.3598 8.07698C20.4788 7.97198 20.4938 7.90198 20.3658 7.78398C20.0758 7.51498 19.8028 7.22697 19.5208 6.94797C19.3478 6.77597 19.1798 6.48298 18.9938 6.46898C18.7828 6.45398 18.6288 6.76898 18.4478 6.94198C18.4044 7.00256 18.3489 7.05352 18.2848 7.09169C18.2208 7.12985 18.1496 7.15439 18.0756 7.16378C18.0017 7.17316 17.9266 7.16719 17.855 7.14623C17.7835 7.12527 17.717 7.08978 17.6598 7.04197C16.988 6.6227 16.2508 6.31852 15.4788 6.14197C15.3424 6.12662 15.2177 6.05799 15.1317 5.95103C15.0457 5.84407 15.0055 5.70746 15.0198 5.57097C15.0198 5.35197 15.0138 5.13198 15.0198 4.91298C15.0198 4.80198 14.9868 4.76998 14.8768 4.77098C14.2618 4.77098 13.6458 4.77798 13.0298 4.77098C12.8838 4.77098 12.8668 4.82898 12.8718 4.94898C12.8798 5.15998 12.8778 5.37098 12.8718 5.58098C12.8849 5.71353 12.8461 5.84599 12.7634 5.95045C12.6808 6.05492 12.5608 6.12322 12.4288 6.14097C11.6328 6.3249 10.8731 6.64023 10.1808 7.07398C10.0779 7.15163 9.94905 7.18654 9.82105 7.17145C9.69305 7.15636 9.57581 7.09243 9.49382 6.99298C9.33582 6.84098 9.18081 6.68597 9.02981 6.52697C8.95681 6.45097 8.90781 6.41098 8.80981 6.51098C8.37381 6.95798 7.93081 7.39697 7.48581 7.83397C7.40481 7.91297 7.40881 7.96098 7.48581 8.03398C7.64581 8.18398 7.80082 8.33998 7.95182 8.49798C8.05901 8.58379 8.12782 8.70859 8.14319 8.84504C8.15856 8.98149 8.11923 9.11847 8.03382 9.22598C7.61046 9.9044 7.30103 10.6476 7.11782 11.426C7.11091 11.4959 7.09002 11.5637 7.05638 11.6254C7.02274 11.6871 6.97704 11.7413 6.92199 11.785C6.86695 11.8287 6.80369 11.8608 6.73597 11.8795C6.66826 11.8983 6.59747 11.9032 6.52781 11.894C6.31681 11.894 6.10582 11.902 5.89582 11.894C5.77182 11.888 5.74081 11.931 5.74181 12.051C5.74714 12.6583 5.74714 13.2653 5.74181 13.872C5.74181 13.999 5.76781 14.052 5.90681 14.044C6.11681 14.032 6.32782 14.039 6.53882 14.044C6.60619 14.0352 6.67464 14.0398 6.74019 14.0577C6.80575 14.0756 6.8671 14.1063 6.92069 14.1481C6.97428 14.1898 7.01903 14.2418 7.05236 14.301C7.08568 14.3602 7.10691 14.4255 7.11481 14.493C7.29768 15.2806 7.60992 16.0325 8.03882 16.718C8.12038 16.8229 8.15794 16.9554 8.14358 17.0876C8.12921 17.2197 8.06403 17.341 7.96181 17.426C7.81048 17.584 7.65515 17.7386 7.49582 17.89C7.41882 17.964 7.38282 18.014 7.48082 18.11C7.92748 18.546 8.36848 18.9873 8.80382 19.434C8.88382 19.515 8.93081 19.509 9.00381 19.434C9.15981 19.268 9.32181 19.108 9.48581 18.95C9.56707 18.85 9.68376 18.7853 9.81156 18.7693C9.93936 18.7533 10.0684 18.7872 10.1718 18.864C10.8643 19.2972 11.6235 19.6135 12.4188 19.8C12.4864 19.8084 12.5517 19.8301 12.6109 19.8638C12.6701 19.8976 12.722 19.9427 12.7637 19.9966C12.8053 20.0505 12.8359 20.1122 12.8536 20.178C12.8713 20.2438 12.8758 20.3124 12.8668 20.38C12.8668 20.591 12.8758 20.802 12.8668 21.012C12.8598 21.149 12.9088 21.179 13.0378 21.178C13.6451 21.172 14.2521 21.172 14.8588 21.178C14.9778 21.178 15.0208 21.149 15.0158 21.024C15.0068 20.797 15.0078 20.569 15.0158 20.341C15.0053 20.2127 15.0446 20.0853 15.1256 19.9852C15.2066 19.8852 15.3231 19.8203 15.4508 19.804C16.2472 19.6199 17.0073 19.3042 17.6998 18.87C17.753 18.8294 17.8138 18.7998 17.8785 18.7828C17.9432 18.7658 18.0106 18.7618 18.0769 18.771C18.1432 18.7802 18.207 18.8024 18.2647 18.8364C18.3223 18.8704 18.3727 18.9154 18.4128 18.969C18.5708 19.121 18.7278 19.274 18.8768 19.435C18.9568 19.521 19.0078 19.529 19.0958 19.435C19.5258 18.995 19.9592 18.5593 20.3958 18.128C20.4798 18.046 20.4958 17.993 20.3958 17.908C20.2288 17.754 20.0688 17.591 19.9118 17.426C19.8131 17.3433 19.7501 17.2257 19.736 17.0977C19.7218 16.9697 19.7576 16.8412 19.8358 16.739C20.2697 16.0464 20.585 15.2863 20.7688 14.49C20.786 14.358 20.8546 14.2381 20.9596 14.1563C21.0646 14.0745 21.1976 14.0374 21.3298 14.053C21.5488 14.053 21.7688 14.045 21.9878 14.053C22.1138 14.059 22.1438 14.013 22.1408 13.895C22.1338 13.595 22.1408 13.288 22.1408 12.984" fill="#6440FB"/>
<path d="M19.1148 1.42894C19.1153 1.49613 19.1026 1.56276 19.0773 1.62503C19.0521 1.68729 19.0148 1.74396 18.9676 1.7918C18.9204 1.83963 18.8642 1.87769 18.8023 1.9038C18.7404 1.92991 18.674 1.94355 18.6068 1.94394C18.4757 1.93899 18.3514 1.88472 18.2587 1.792C18.166 1.69929 18.1117 1.57497 18.1068 1.44394C18.1055 1.37659 18.1179 1.30968 18.1432 1.24724C18.1685 1.1848 18.2061 1.12811 18.2538 1.08057C18.3016 1.03303 18.3584 0.995626 18.4209 0.970601C18.4835 0.945575 18.5504 0.933444 18.6178 0.934937C18.7492 0.934924 18.8753 0.986643 18.9689 1.0789C19.0624 1.17116 19.1159 1.29655 19.1178 1.42794" fill="#6440FB"/>
<path d="M9.81393 24.546C9.81432 24.6131 9.80092 24.6796 9.77457 24.7414C9.74823 24.8032 9.70948 24.8589 9.66074 24.9052C9.612 24.9514 9.55431 24.9871 9.49122 25.0101C9.42812 25.0331 9.36097 25.0429 9.29392 25.039C9.16254 25.0356 9.03777 24.9806 8.94663 24.8859C8.85549 24.7912 8.8053 24.6644 8.80692 24.533C8.8107 24.4015 8.8646 24.2766 8.95756 24.1836C9.05052 24.0906 9.17551 24.0367 9.30692 24.033C9.37409 24.0327 9.44063 24.0458 9.50266 24.0716C9.56469 24.0974 9.62096 24.1352 9.66817 24.183C9.71539 24.2308 9.7526 24.2875 9.77763 24.3498C9.80265 24.4121 9.81499 24.4788 9.81393 24.546Z" fill="#6440FB"/>
<path d="M14.0897 17.165C13.2626 17.1925 12.4459 16.974 11.7429 16.5371C11.04 16.1003 10.4825 15.4648 10.1408 14.711C9.79922 13.9572 9.68887 13.119 9.82377 12.3025C9.95866 11.4859 10.3327 10.7278 10.8987 10.1239C11.4646 9.52003 12.1969 9.0976 13.003 8.91007C13.8091 8.72255 14.6527 8.77834 15.427 9.0704C16.2014 9.36246 16.8717 9.87766 17.3531 10.5508C17.8346 11.2239 18.1056 12.0248 18.1317 12.852C18.1639 13.9589 17.7569 15.0336 16.9997 15.8416C16.2425 16.6496 15.1964 17.1253 14.0897 17.165ZM17.1227 12.981C17.1223 12.3536 16.9359 11.7404 16.587 11.2189C16.238 10.6975 15.7423 10.2913 15.1625 10.0516C14.5827 9.81188 13.9448 9.74952 13.3296 9.87238C12.7143 9.99524 12.1493 10.2978 11.706 10.7418C11.2627 11.1858 10.9611 11.7513 10.8392 12.3667C10.7173 12.9822 10.7806 13.6199 11.0212 14.1994C11.2618 14.7788 11.6689 15.2739 12.1908 15.622C12.7128 15.9701 13.3263 16.1556 13.9537 16.155C14.7935 16.15 15.5974 15.8138 16.1908 15.2195C16.7842 14.6252 17.1191 13.8208 17.1227 12.981Z" fill="#6440FB"/>
</svg>
