<svg width="31" height="34" viewBox="0 0 31 34" fill="none" xmlns="http://www.w3.org/2000/svg">
<path d="M13.3259 32.3851C14.6866 31.0317 16.0443 29.6751 17.3989 28.3151L18.0069 27.7061C18.0589 27.6541 18.1069 27.6061 18.1639 27.5501L23.3139 22.3981L23.5479 22.1641C24.8466 20.8621 26.1483 19.5621 27.4529 18.2641C27.6942 18.0377 27.8843 17.7624 28.0107 17.4567C28.1371 17.1509 28.1969 16.8217 28.1859 16.4911C28.1679 13.7911 28.1499 11.0911 28.1909 8.39108C28.2067 8.10863 28.1623 7.82605 28.0607 7.56202C27.9592 7.29798 27.8028 7.05849 27.6019 6.85936C27.4009 6.66023 27.1601 6.50599 26.8951 6.40682C26.6302 6.30765 26.3472 6.26582 26.0649 6.28408C25.8727 6.30179 25.6792 6.30179 25.4869 6.28408C25.2589 6.25808 25.2409 6.36308 25.2759 6.54208C25.3992 7.17501 25.6995 7.76 26.1419 8.22908C26.232 8.30295 26.3002 8.40007 26.339 8.50992C26.3778 8.61977 26.3857 8.73814 26.362 8.8522C26.3383 8.96627 26.2839 9.07166 26.2045 9.15696C26.1252 9.24226 26.024 9.30421 25.9119 9.33608C25.7996 9.37463 25.6783 9.37895 25.5635 9.34851C25.4486 9.31807 25.3454 9.25423 25.2669 9.16508C24.5576 8.46946 24.108 7.55186 23.9929 6.56508C23.9679 6.35108 23.9129 6.28008 23.6929 6.28108C21.7229 6.29041 19.7526 6.29041 17.7819 6.28108C17.5133 6.27579 17.2464 6.32609 16.9981 6.42882C16.7497 6.53156 16.5253 6.68451 16.3389 6.87808C11.5683 11.6494 6.79726 16.4204 2.02593 21.1911C1.83679 21.3671 1.68582 21.5801 1.58238 21.8169C1.47894 22.0537 1.42522 22.3092 1.42457 22.5676C1.42391 22.8259 1.47633 23.0817 1.57857 23.319C1.6808 23.5563 1.83069 23.7701 2.01893 23.9471C4.83826 26.7764 7.66259 29.6007 10.4919 32.4201C10.6733 32.6154 10.8936 32.7706 11.1386 32.8756C11.3836 32.9806 11.6479 33.0331 11.9144 33.0297C12.1809 33.0263 12.4438 32.9671 12.6861 32.8559C12.9283 32.7447 13.1446 32.584 13.3209 32.3841" fill="#E8E4F9"/>
<path d="M0.00595313 19.221C0.105953 19.126 0.0939531 18.99 0.129953 18.872C0.285276 18.3752 0.561141 17.9244 0.932953 17.56C5.34095 13.154 9.74962 8.74638 14.159 4.33704C14.4528 4.03218 14.8064 3.79139 15.1978 3.62979C15.5891 3.4682 16.0097 3.38929 16.433 3.39804C18.273 3.40504 20.113 3.39804 21.953 3.40504C22.153 3.40504 22.219 3.34404 22.269 3.15904C22.467 2.44863 22.8477 1.80251 23.3732 1.28506C23.8987 0.767623 24.5506 0.396933 25.264 0.209933C25.9774 0.0229343 26.7273 0.0261563 27.4391 0.219278C28.1508 0.412401 28.7996 0.788679 29.3206 1.31062C29.8416 1.83255 30.2168 2.48192 30.4087 3.19402C30.6006 3.90611 30.6025 4.65605 30.4142 5.36912C30.226 6.08218 29.8542 6.73347 29.3358 7.25807C28.8175 7.78267 28.1707 8.16227 27.46 8.35904C27.26 8.41404 27.227 8.50204 27.228 8.68704C27.235 10.497 27.22 12.307 27.237 14.117C27.2496 14.569 27.1667 15.0185 26.9937 15.4362C26.8206 15.8539 26.5614 16.2304 26.233 16.541C24.663 18.094 23.108 19.661 21.547 21.223C21.4827 21.3053 21.4015 21.3727 21.3088 21.4207C21.2161 21.4687 21.1142 21.4961 21.01 21.501C20.9049 21.5036 20.8012 21.4769 20.7104 21.4239C20.6197 21.3709 20.5454 21.2938 20.496 21.201C20.4374 21.1074 20.4086 20.9983 20.4132 20.888C20.4179 20.7777 20.4558 20.6714 20.522 20.583C20.5943 20.4884 20.6746 20.4001 20.762 20.319C22.295 18.785 23.822 17.246 25.362 15.719C25.5861 15.5088 25.7628 15.2531 25.8802 14.9691C25.9977 14.685 26.0532 14.3792 26.043 14.072C26.026 11.566 26.01 9.05904 26.043 6.55304C26.0591 6.29023 26.0192 6.02698 25.9257 5.78082C25.8322 5.53466 25.6873 5.31123 25.5008 5.12542C25.3142 4.93961 25.0902 4.79567 24.8437 4.70318C24.5971 4.6107 24.3337 4.57179 24.071 4.58904C23.8927 4.60541 23.7132 4.60541 23.535 4.58904C23.323 4.56504 23.306 4.66204 23.335 4.82804C23.4482 5.41549 23.7255 5.95882 24.135 6.39504C24.2192 6.46268 24.2833 6.55207 24.3203 6.65353C24.3574 6.75499 24.3659 6.86465 24.3451 6.97063C24.3243 7.07662 24.2749 7.1749 24.2023 7.25482C24.1296 7.33474 24.0365 7.39326 23.933 7.42404C23.8286 7.46059 23.7157 7.46508 23.6088 7.43692C23.5018 7.40876 23.4058 7.34925 23.333 7.26604C22.6748 6.62072 22.2573 5.76955 22.15 4.85404C22.126 4.65404 22.076 4.58904 21.868 4.59004C20.038 4.59871 18.208 4.59871 16.378 4.59004C16.1291 4.58538 15.8819 4.63208 15.6518 4.72722C15.4218 4.82237 15.2138 4.96393 15.041 5.14304C10.6116 9.57504 6.18195 14.0067 1.75195 18.438C1.57633 18.6016 1.43616 18.7995 1.34013 19.0195C1.2441 19.2394 1.19427 19.4767 1.1937 19.7167C1.19314 19.9567 1.24187 20.1943 1.33686 20.4147C1.43185 20.6351 1.57109 20.8337 1.74595 20.998C4.36395 23.626 6.98695 26.2494 9.61495 28.868C9.78343 29.0494 9.98803 29.1934 10.2156 29.2908C10.4431 29.3882 10.6885 29.4369 10.936 29.4337C11.1835 29.4305 11.4276 29.3755 11.6525 29.2722C11.8774 29.1689 12.0782 29.0197 12.242 28.834C13.6946 27.3894 15.1436 25.941 16.589 24.489C16.652 24.426 16.714 24.36 16.78 24.3C16.8343 24.2406 16.9001 24.1929 16.9735 24.1596C17.0468 24.1264 17.1261 24.1084 17.2066 24.1067C17.2871 24.105 17.3672 24.1197 17.4418 24.1499C17.5165 24.18 17.5842 24.225 17.641 24.2821C17.6978 24.3392 17.7424 24.4072 17.7721 24.4821C17.8018 24.5569 17.816 24.637 17.8138 24.7175C17.8117 24.798 17.7932 24.8772 17.7595 24.9504C17.7259 25.0235 17.6777 25.0891 17.618 25.143C17.126 25.649 16.618 26.143 16.118 26.643C15.127 27.635 14.132 28.623 13.144 29.619C12.6798 30.1309 12.0539 30.4678 11.371 30.573C11.359 30.573 11.351 30.603 11.341 30.619H10.386C10.357 30.53 10.27 30.552 10.21 30.537C9.6481 30.3976 9.13691 30.1026 8.73495 29.686C6.13495 27.086 3.53495 24.486 0.934953 21.886C0.525494 21.4908 0.233975 20.9894 0.0929531 20.438C0.0759531 20.37 0.100953 20.271 0.00195312 20.238L0.00595313 19.221ZM26.35 1.26004C25.7405 1.25924 25.1448 1.44067 24.6392 1.78102C24.1337 2.12137 23.7415 2.60509 23.513 3.17004C23.448 3.33904 23.436 3.42304 23.662 3.40604C23.888 3.38904 24.119 3.40104 24.347 3.40604C24.9366 3.42521 25.5074 3.61814 25.9878 3.96062C26.4681 4.3031 26.8366 4.77986 27.047 5.33104C27.2064 5.83301 27.2695 6.36062 27.233 6.88604C27.233 7.20604 27.233 7.20604 27.533 7.07704C28.1734 6.80211 28.6996 6.315 29.0231 5.69765C29.3465 5.0803 29.4475 4.37038 29.309 3.68732C29.1705 3.00426 28.801 2.38974 28.2627 1.94713C27.7243 1.50451 27.0499 1.26082 26.353 1.25704" fill="#6440FB"/>
<path d="M12.72 19.328C13.097 19.7 13.41 20.003 13.72 20.313C13.7911 20.3643 13.8501 20.4305 13.8928 20.507C13.9355 20.5835 13.961 20.6685 13.9674 20.7559C13.9738 20.8433 13.9609 20.931 13.9298 21.0129C13.8986 21.0948 13.8499 21.1689 13.787 21.23C13.724 21.2906 13.6488 21.337 13.5663 21.366C13.4838 21.395 13.3961 21.4059 13.3091 21.398C13.222 21.3902 13.1377 21.3637 13.0617 21.3204C12.9858 21.277 12.9201 21.2179 12.869 21.147C11.7357 20.017 10.6043 18.8857 9.47501 17.753C9.39864 17.6958 9.33664 17.6216 9.29394 17.5363C9.25124 17.451 9.229 17.3569 9.229 17.2615C9.229 17.1661 9.25124 17.072 9.29394 16.9867C9.33664 16.9014 9.39864 16.8272 9.47501 16.77C9.78901 16.452 10.096 16.125 10.429 15.828C10.6809 15.5844 10.9958 15.4161 11.3382 15.3419C11.6806 15.2677 12.0369 15.2906 12.367 15.408C12.6832 15.5041 12.9658 15.6875 13.1823 15.9371C13.3989 16.1867 13.5405 16.4924 13.591 16.819C13.6728 17.2119 13.6199 17.6208 13.441 17.98C13.357 18.149 13.411 18.18 13.567 18.189C14.013 18.212 14.46 18.241 14.906 18.268C15.0549 18.2729 15.2034 18.2852 15.351 18.305C15.505 18.3214 15.6465 18.3977 15.7447 18.5175C15.8429 18.6373 15.8901 18.7909 15.8761 18.9452C15.862 19.0994 15.7879 19.242 15.6696 19.3421C15.5514 19.4421 15.3985 19.4917 15.244 19.48C14.639 19.453 14.034 19.408 13.429 19.371L12.723 19.329M12.423 17.159C12.4266 17.0445 12.3985 16.9313 12.3419 16.8318C12.2852 16.7323 12.2022 16.6504 12.102 16.595C11.9861 16.5253 11.852 16.4916 11.7169 16.4982C11.5818 16.5048 11.4516 16.5513 11.343 16.632C11.1367 16.8019 10.9398 16.9829 10.753 17.174C10.642 17.274 10.734 17.325 10.794 17.385C10.99 17.5817 11.1867 17.7773 11.384 17.972C11.673 18.258 11.671 18.256 11.969 17.961C12.0978 17.8682 12.2049 17.7487 12.2831 17.6106C12.3613 17.4725 12.4087 17.3191 12.422 17.161" fill="#6440FB"/>
<path d="M22.7608 12.055C22.7557 12.1346 22.7346 12.2123 22.6987 12.2834C22.6627 12.3545 22.6128 12.4177 22.5518 12.469C22.0808 12.94 21.6138 13.415 21.1378 13.881C21.0832 13.9505 21.0135 14.0067 20.934 14.0453C20.8545 14.0839 20.7672 14.104 20.6788 14.104C20.5905 14.104 20.5032 14.0839 20.4237 14.0453C20.3442 14.0067 20.2745 13.9505 20.2198 13.881C19.0632 12.7317 17.9102 11.5787 16.7608 10.422C16.6887 10.3669 16.6302 10.2958 16.59 10.2144C16.5498 10.133 16.5288 10.0434 16.5288 9.95254C16.5288 9.86172 16.5498 9.77211 16.59 9.69069C16.6302 9.60926 16.6887 9.53821 16.7608 9.48304C17.2202 9.01638 17.6839 8.55205 18.1519 8.09005C18.2057 8.02457 18.2726 7.97101 18.3482 7.93277C18.4239 7.89453 18.5066 7.87245 18.5913 7.86793C18.6759 7.86342 18.7606 7.87657 18.8399 7.90654C18.9192 7.93652 18.9914 7.98266 19.0518 8.04204C19.112 8.10263 19.1586 8.17537 19.1884 8.2554C19.2182 8.33542 19.2306 8.42089 19.2247 8.50609C19.2188 8.59128 19.1949 8.67424 19.1544 8.74943C19.1139 8.82461 19.0578 8.89028 18.9899 8.94204C18.6989 9.24204 18.4049 9.54205 18.1019 9.82505C17.9959 9.92505 18.0019 9.98504 18.1019 10.081C18.3329 10.3 18.5628 10.52 18.7758 10.756C18.8928 10.886 18.9558 10.842 19.0518 10.742C19.2998 10.484 19.5529 10.2307 19.8109 9.98205C19.863 9.91583 19.9285 9.86133 20.0031 9.82211C20.0776 9.78289 20.1597 9.75981 20.2438 9.7544C20.3279 9.74898 20.4121 9.76134 20.4911 9.79068C20.5702 9.82001 20.6421 9.86566 20.7023 9.92464C20.7625 9.98363 20.8096 10.0546 20.8405 10.133C20.8714 10.2114 20.8854 10.2955 20.8817 10.3796C20.878 10.4638 20.8566 10.5463 20.8189 10.6217C20.7812 10.697 20.728 10.7636 20.6629 10.817C20.4079 11.082 20.1469 11.342 19.8819 11.597C19.7889 11.686 19.7518 11.742 19.8708 11.849C20.1058 12.062 20.3289 12.291 20.5459 12.523C20.6459 12.633 20.7148 12.634 20.8208 12.523C21.1302 12.2004 21.4469 11.8844 21.7709 11.575C21.8544 11.4879 21.9644 11.4308 22.0838 11.4127C22.2032 11.3946 22.3252 11.4165 22.4308 11.475C22.5394 11.5268 22.6296 11.6105 22.6895 11.7148C22.7493 11.8191 22.7759 11.9392 22.7659 12.059" fill="#6440FB"/>
<path d="M19.2961 15.47C19.297 15.555 19.2797 15.6392 19.2451 15.7169C19.2106 15.7945 19.1598 15.8638 19.0961 15.92C18.6181 16.398 18.145 16.881 17.66 17.353C17.6058 17.4201 17.5372 17.4741 17.4593 17.5113C17.3815 17.5484 17.2963 17.5677 17.2101 17.5677C17.1238 17.5677 17.0386 17.5484 16.9608 17.5113C16.8829 17.4741 16.8143 17.4201 16.7601 17.353C15.5961 16.197 14.4361 15.037 13.2801 13.873C13.2109 13.8182 13.1551 13.7484 13.1167 13.6689C13.0783 13.5894 13.0583 13.5023 13.0583 13.414C13.0583 13.3258 13.0783 13.2386 13.1167 13.1592C13.1551 13.0797 13.2109 13.0099 13.2801 12.955C13.7467 12.479 14.2177 12.008 14.6931 11.542C14.7465 11.4795 14.8121 11.4285 14.8858 11.3921C14.9595 11.3558 15.0399 11.3347 15.122 11.3303C15.2041 11.3259 15.2862 11.3383 15.3634 11.3666C15.4406 11.3949 15.5113 11.4386 15.5711 11.495C15.6323 11.5543 15.6802 11.626 15.7116 11.7053C15.743 11.7845 15.7571 11.8696 15.753 11.9548C15.749 12.0399 15.7268 12.1232 15.688 12.1991C15.6492 12.2751 15.5947 12.3418 15.5281 12.395C15.2371 12.695 14.9431 12.995 14.6401 13.278C14.5271 13.386 14.5311 13.453 14.6401 13.556C14.8651 13.766 15.0841 13.984 15.2941 14.209C15.3941 14.318 15.4591 14.334 15.5701 14.216C15.8141 13.954 16.0701 13.704 16.3271 13.455C16.3797 13.39 16.4454 13.3367 16.5199 13.2985C16.5944 13.2604 16.6761 13.2382 16.7596 13.2335C16.8432 13.2288 16.9268 13.2416 17.0052 13.2712C17.0835 13.3007 17.1547 13.3463 17.2144 13.405C17.274 13.4638 17.3207 13.5343 17.3515 13.6122C17.3822 13.69 17.3963 13.7734 17.3929 13.8571C17.3895 13.9407 17.3686 14.0227 17.3316 14.0978C17.2946 14.1729 17.2423 14.2394 17.1781 14.293C16.9291 14.55 16.6781 14.804 16.4181 15.051C16.3181 15.151 16.2841 15.212 16.4081 15.325C16.6431 15.538 16.8661 15.767 17.0841 15.998C17.1841 16.098 17.2381 16.098 17.3371 15.998C17.6471 15.675 17.9651 15.36 18.2861 15.05C18.3679 14.961 18.4767 14.9013 18.5957 14.88C18.7147 14.8587 18.8374 14.8769 18.9451 14.932C19.0512 14.9763 19.1412 15.0522 19.2029 15.1493C19.2646 15.2464 19.295 15.3601 19.2901 15.475" fill="#6440FB"/>
<path d="M7.75504 18.675C7.87867 18.6627 8.00305 18.6895 8.11068 18.7516C8.21831 18.8136 8.30377 18.9079 8.35503 19.0211C8.41035 19.1285 8.42896 19.2511 8.40801 19.3701C8.38706 19.4891 8.32772 19.598 8.23904 19.6801C7.9577 19.9741 7.6697 20.2621 7.37503 20.5441C7.26303 20.6511 7.22303 20.7221 7.36003 20.8441C7.57478 21.0363 7.77875 21.2403 7.97103 21.4551C8.09403 21.5921 8.17103 21.5551 8.27103 21.4421C8.49503 21.2031 8.72903 20.973 8.96603 20.742C9.01863 20.6769 9.08426 20.6236 9.15871 20.5853C9.23317 20.5471 9.31479 20.5249 9.39835 20.5201C9.48191 20.5153 9.56555 20.528 9.6439 20.5574C9.72224 20.5869 9.79356 20.6324 9.85326 20.6911C9.91297 20.7497 9.95975 20.8202 9.99059 20.898C10.0214 20.9758 10.0356 21.0592 10.0323 21.1429C10.029 21.2265 10.0082 21.3085 9.97131 21.3836C9.93441 21.4587 9.8822 21.5253 9.81803 21.5791C9.59203 21.8171 9.36303 22.0521 9.11803 22.2741C8.98503 22.3961 8.97404 22.4691 9.11204 22.6001C9.50104 22.9691 9.87604 23.3541 10.253 23.7361C10.326 23.7869 10.387 23.8531 10.4315 23.93C10.4761 24.007 10.5032 24.0928 10.511 24.1814C10.5187 24.27 10.5069 24.3592 10.4764 24.4427C10.4458 24.5263 10.3973 24.6021 10.3342 24.6648C10.2712 24.7275 10.1951 24.7755 10.1114 24.8056C10.0277 24.8356 9.9384 24.8469 9.84985 24.8386C9.7613 24.8304 9.67564 24.8028 9.59895 24.7577C9.52226 24.7127 9.45641 24.6513 9.40604 24.578C8.28004 23.4554 7.1557 22.3311 6.03304 21.2051C5.95258 21.1488 5.88688 21.074 5.84151 20.987C5.79615 20.8999 5.77246 20.8032 5.77246 20.7051C5.77246 20.6069 5.79615 20.5102 5.84151 20.4231C5.88688 20.3361 5.95258 20.2613 6.03304 20.2051C6.45904 19.7741 6.89003 19.3481 7.31803 18.9181C7.36998 18.8502 7.4353 18.7937 7.50995 18.7521C7.5846 18.7105 7.66699 18.6846 7.75204 18.6761" fill="#6440FB"/>
<path d="M19.1059 22.211C19.2604 22.2109 19.4091 22.2704 19.5209 22.3771C19.6326 22.4839 19.6989 22.6296 19.7059 22.784C19.7098 22.8631 19.6977 22.9422 19.6702 23.0165C19.6428 23.0909 19.6007 23.1589 19.5463 23.2165C19.492 23.2741 19.4265 23.3202 19.3539 23.3519C19.2813 23.3836 19.2031 23.4003 19.1239 23.401C19.0444 23.4021 18.9655 23.3873 18.8918 23.3577C18.8181 23.328 18.751 23.2839 18.6944 23.2281C18.6379 23.1723 18.5929 23.1058 18.5623 23.0325C18.5316 22.9592 18.5159 22.8805 18.5159 22.801C18.521 22.6462 18.5845 22.4991 18.6935 22.3892C18.8026 22.2792 18.9491 22.2145 19.1039 22.208" fill="#6440FB"/>
</svg>
