<svg width="68" height="68" viewBox="0 0 68 68" fill="none" xmlns="http://www.w3.org/2000/svg">
<path d="M14.7611 57.5931C17.4951 57.5931 20.2301 57.5991 22.9611 57.5931C23.669 57.6088 24.3728 57.4824 25.0311 57.2215C25.6893 56.9606 26.2886 56.5704 26.7936 56.0741C27.2985 55.5777 27.6989 54.9852 27.9711 54.3315C28.2432 53.6778 28.3816 52.9762 28.3781 52.2682C28.3821 51.2299 28.7685 50.2295 29.4634 49.4581C30.1583 48.6867 31.113 48.1983 32.1452 48.0862C33.1774 47.9741 34.2147 48.2462 35.059 48.8505C35.9032 49.4548 36.4953 50.349 36.7221 51.3621C36.8611 51.9621 36.8381 52.5931 36.9321 53.2041C37.1329 54.3903 37.7334 55.472 38.6338 56.2699C39.5342 57.0677 40.6804 57.5336 41.8821 57.5901C43.0982 57.6577 44.2971 57.278 45.2527 56.5228C46.2083 55.7676 46.8547 54.689 47.0701 53.4901C47.1821 52.9331 47.1181 52.3431 47.2021 51.7781C47.3346 50.7065 47.8721 49.7261 48.7044 49.0381C49.5366 48.3501 50.6006 48.0067 51.6781 48.0782C52.7542 48.1548 53.7616 48.6352 54.4985 49.4231C55.2355 50.211 55.6475 51.2483 55.6521 52.3271C55.6562 53.4954 56.0456 54.6297 56.7599 55.5541C57.4743 56.4785 58.4736 57.1415 59.6031 57.4402C60.6458 57.6116 61.7045 57.6649 62.7591 57.5991C63.6724 57.6143 64.5564 57.9243 65.279 58.483C66.0017 59.0417 66.5244 59.8191 66.7691 60.6992C66.9419 61.2909 66.9817 61.9136 66.8856 62.5225C66.7895 63.1314 66.5599 63.7116 66.2133 64.2213C65.8666 64.7311 65.4115 65.1579 64.8806 65.4712C64.3496 65.7844 63.7559 65.9763 63.1421 66.0331C61.1204 66.298 59.0655 66.13 57.1137 65.5402C55.1619 64.9504 53.3578 63.9523 51.8211 62.6121C51.5751 62.3921 51.4341 62.3492 51.1631 62.5952C48.6628 64.843 45.4175 66.0832 42.0554 66.0758C38.6933 66.0684 35.4534 64.8139 32.9631 62.5551C32.6861 62.3051 32.5351 62.2941 32.2491 62.5501C29.6467 64.8989 26.2448 66.1639 22.7401 66.0861C17.2721 66.0711 11.8031 66.0861 6.33509 66.0751C5.3163 66.1023 4.32188 65.7613 3.53429 65.1144C2.7467 64.4676 2.21877 63.5585 2.04738 62.5538C1.876 61.5492 2.07264 60.5165 2.60123 59.6451C3.12982 58.7738 3.95491 58.1223 4.92509 57.8101C5.38509 57.6639 5.86541 57.5916 6.34809 57.5961C9.14809 57.6021 11.9511 57.6021 14.7571 57.5961" stroke="white" stroke-width="2"/>
<path d="M54.312 8.52109C53.333 6.26031 51.6967 4.34619 49.6158 3.02743C47.5348 1.70866 45.1053 1.04619 42.643 1.12609C39.5622 1.21844 36.6421 2.52167 34.516 4.75309C24.9767 14.2918 15.437 23.8291 5.89698 33.3651C5.20345 34.0431 4.73855 34.9205 4.56698 35.8751C3.74032 40.2944 2.91465 44.7138 2.08998 49.1331C1.91622 49.829 1.92281 50.5576 2.10914 51.2502C2.29546 51.9428 2.65536 52.5765 3.1548 53.0912C3.65424 53.606 4.27672 53.9849 4.96338 54.192C5.65004 54.3992 6.37819 54.4278 7.07898 54.2751C11.191 53.5561 15.286 52.7451 19.392 51.9971C20.7022 51.8995 21.9472 51.3867 22.946 50.5331C32.5586 40.9044 42.1756 31.2801 51.797 21.6601C53.4705 19.9655 54.603 17.812 55.0508 15.4727C55.4986 13.1335 55.2414 10.714 54.312 8.52109M38.007 23.4871C31.3856 30.0944 24.7723 36.7098 18.167 43.3331C17.9657 43.5521 17.6998 43.7013 17.408 43.7591C15.648 44.0831 13.89 44.4141 12.132 44.7421C12.042 44.7591 11.95 44.7651 11.841 44.7781C11.576 44.8541 11.541 44.6991 11.582 44.4781C11.943 42.5621 12.309 40.6471 12.664 38.7291C12.7248 38.5312 12.8488 38.3587 13.017 38.2381C19.6443 31.6041 26.2713 24.9708 32.898 18.3381C33.161 18.0751 33.306 17.9561 33.637 18.2981C35.0756 19.7841 36.5377 21.2474 38.023 22.6881C38.36 23.0161 38.315 23.1811 38.007 23.4881M45.577 15.9011C45.182 16.2761 44.852 16.9611 44.387 16.9471C43.995 16.9351 43.614 16.3081 43.243 15.9381C42.043 14.7381 40.852 13.5261 39.632 12.3451C39.332 12.0511 39.305 11.8841 39.632 11.6061C40.015 11.2791 40.332 10.8781 40.712 10.5461C41.2181 10.0527 41.8634 9.72642 42.5608 9.61126C43.2582 9.49611 43.9741 9.59761 44.612 9.90209C45.2247 10.1372 45.7551 10.5466 46.1377 11.0797C46.5203 11.6128 46.7384 12.2464 46.765 12.9021C46.8005 13.4585 46.7127 14.016 46.5079 14.5346C46.303 15.0532 45.9862 15.5201 45.58 15.9021" stroke="white" stroke-width="2"/>
</svg>
