<svg width="47" height="47" viewBox="0 0 47 47" fill="none" xmlns="http://www.w3.org/2000/svg">
<g clip-path="url(#clip0_344_332)">
<path d="M0 22.5773V21.8434C0.196667 21.6364 0.388749 21.4259 0.590016 21.2245C1.60555 20.2065 2.6188 19.1862 3.64354 18.1762C3.73822 18.0909 3.81288 17.9857 3.86219 17.8682C3.91149 17.7506 3.93423 17.6237 3.92876 17.4963C3.91726 15.3544 3.92071 13.2125 3.92876 11.0695C3.91164 10.7337 3.93909 10.3972 4.01041 10.0687C4.4003 8.62503 5.51244 7.80715 7.11568 7.80715C14.5346 7.80715 21.9539 7.80907 29.3736 7.8129C29.5153 7.81946 29.6567 7.79484 29.7879 7.74078C29.919 7.68672 30.0367 7.60453 30.1326 7.50001C32.2879 5.32819 34.4501 3.16328 36.6192 1.00527C37.8705 -0.242829 39.5083 -0.340607 40.8148 0.775209C41.3996 1.26884 41.9385 1.8144 42.4249 2.40522C43.1322 3.27486 43.2518 4.24574 42.8769 5.29024C42.6791 5.83664 42.2789 6.24155 41.874 6.63957C41.5037 7.00307 41.1403 7.37347 40.7113 7.80254C41.5163 7.80254 42.2064 7.79449 42.8965 7.80254C43.5428 7.81175 44.1788 7.89572 44.7619 8.19366C46.2778 8.97703 46.9943 10.2527 46.9943 11.9449C46.9943 21.5838 46.9943 31.2228 46.9943 40.8618C46.9943 40.9538 46.9943 41.0458 46.9943 41.1367C46.9391 43.305 45.2576 44.9247 43.3278 44.9914C42.349 45.0248 41.3726 45.0259 40.3915 45.0248C39.5186 45.0248 39.1736 44.6716 39.1701 43.8008C39.1701 42.3928 39.1575 40.986 39.1782 39.578C39.1782 39.2329 39.0896 39.142 38.7446 39.1432C36.1293 39.1581 33.5128 39.1501 30.8975 39.1547C30.7928 39.1547 30.6513 39.0833 30.5812 39.2444C30.6249 39.2916 30.664 39.3364 30.7054 39.3801C31.5553 40.2452 31.5565 40.5926 30.7054 41.4415C29.083 43.0635 27.4606 44.6862 25.8382 46.3097C25.5529 46.595 25.2769 46.8849 24.8721 46.9999H24.412C24.1257 46.7307 23.837 46.4684 23.5564 46.1947C21.3259 43.9707 19.0997 41.7402 16.8777 39.5032C16.7654 39.3828 16.6279 39.2885 16.4751 39.227C16.3222 39.1656 16.1578 39.1386 15.9933 39.1478C13.072 39.1604 10.1508 39.1558 7.22954 39.1547C6.86262 39.1706 6.49521 39.1377 6.13695 39.0569C4.73038 38.675 3.923 37.5799 3.9184 36.0235C3.9115 33.0096 3.9115 29.9958 3.9184 26.9819C3.92584 26.8471 3.90377 26.7123 3.85371 26.587C3.80365 26.4616 3.7268 26.3487 3.62857 26.2561C2.41637 25.0367 1.21106 23.8047 0 22.5773ZM5.88048 15.8652C6.68555 15.5316 6.91557 15.5822 7.55273 16.2195C14.4211 23.0892 21.288 29.9613 28.1533 36.8356C28.2641 36.9561 28.4001 37.0506 28.5515 37.1124C28.703 37.1742 28.8663 37.2019 29.0297 37.1934C33.2521 37.1819 37.4745 37.1796 41.6969 37.1865C42.8194 37.1865 43.9557 37.1013 45.046 37.7271V37.4361C45.046 28.9283 45.046 20.4209 45.046 11.9138C45.046 10.5691 44.2478 9.78571 42.8987 9.7742C41.6589 9.7627 40.4203 9.77995 39.1816 9.765C39.0392 9.75851 38.897 9.78361 38.7654 9.8385C38.6338 9.89338 38.5159 9.9767 38.4203 10.0825C35.0627 13.4568 31.6995 16.8222 28.3304 20.1789C27.883 20.6241 27.484 21.1233 26.9043 21.4581C27.0987 21.5616 27.2678 21.5179 27.4276 21.5179C29.8911 21.5179 32.3535 21.5294 34.817 21.511C35.1873 21.511 35.2885 21.618 35.2586 21.9711C35.2259 22.3216 35.2259 22.6743 35.2586 23.0248C35.2966 23.4067 35.1758 23.501 34.7905 23.4999C30.1395 23.4861 25.4889 23.4861 20.8387 23.4999C19.8991 23.4999 19.3827 22.8546 19.7116 21.9354C20.351 20.1398 20.9318 18.3234 21.5207 16.5105C21.6491 16.1028 21.8754 15.7328 22.1797 15.4327C23.9378 13.6849 25.6902 11.9322 27.4368 10.1745C27.5438 10.0675 27.7163 9.99161 27.7232 9.78686C27.6082 9.7811 27.5219 9.77305 27.431 9.77305H7.14444C7.03766 9.77169 6.93089 9.77669 6.82471 9.78801C6.26231 9.85243 5.89659 10.1734 5.88854 10.7278C5.86553 12.4361 5.88048 14.1454 5.88048 15.8652ZM14.5189 25.9765C14.2003 26.3067 13.8875 26.6403 13.5655 26.9647C13.1986 27.3328 12.8236 27.6917 12.4521 28.0552C12.0588 27.6767 11.6724 27.2914 11.2687 26.9244C11.0916 26.7634 11.0858 26.6633 11.2687 26.4919C11.8311 25.9524 12.3705 25.3876 12.9306 24.8446C13.0974 24.6824 13.1675 24.5812 12.9582 24.3845C12.2417 23.6943 11.5413 22.9891 10.8489 22.2759C10.6764 22.0988 10.5798 22.1126 10.4153 22.2828C9.88512 22.835 9.32387 23.3561 8.80517 23.9152C8.57516 24.159 8.44635 24.136 8.24164 23.9014C7.96799 23.592 7.67569 23.2996 7.3664 23.026C7.17318 22.8534 7.16973 22.7499 7.3664 22.5658C7.92075 22.0378 8.44404 21.4788 8.99838 20.9554C9.2077 20.7564 9.22841 20.6413 9.00644 20.4251C8.27728 19.7272 7.56385 19.0132 6.86612 18.2832C6.64185 18.0531 6.52107 18.06 6.3014 18.2832C5.11335 19.4956 3.91956 20.6988 2.69701 21.8814C2.38763 22.1793 2.45088 22.3127 2.71655 22.5773C7.33229 27.1786 11.9411 31.7845 16.5431 36.395C19.1929 39.0454 21.8412 41.6969 24.488 44.3495C24.7088 44.5727 24.8123 44.5923 25.0423 44.3587C26.2614 43.1126 27.4939 41.8794 28.7399 40.6593C28.9423 40.4603 28.9469 40.3591 28.7399 40.1601C27.9923 39.4376 27.2597 38.6991 26.5351 37.9526C26.3546 37.7662 26.2545 37.772 26.0751 37.9526C25.5369 38.5162 24.9721 39.0546 24.4316 39.6159C24.2637 39.7908 24.1567 39.8357 23.9716 39.6309C23.6764 39.3002 23.3634 38.9857 23.0342 38.6888C22.8329 38.507 22.8583 38.3989 23.0411 38.2229C23.5932 37.6938 24.1188 37.1381 24.6708 36.6124C24.8606 36.4307 24.9135 36.3249 24.6904 36.1132C23.9819 35.438 23.293 34.742 22.6133 34.0426C22.4224 33.8448 22.32 33.877 22.1532 34.0553C21.6115 34.6178 21.0491 35.1584 20.5051 35.7175C20.3499 35.8762 20.251 35.928 20.075 35.7324C19.7676 35.3916 19.4428 35.0668 19.102 34.7593C18.918 34.5925 18.941 34.4947 19.102 34.3348C19.6771 33.7815 20.2245 33.2075 20.7973 32.6553C20.9721 32.4874 20.9629 32.3873 20.7973 32.224C20.0865 31.5292 19.3838 30.8263 18.6891 30.1154C18.5224 29.944 18.4281 29.9383 18.2601 30.1154C17.7196 30.6779 17.1503 31.2128 16.6155 31.7799C16.4154 31.9916 16.3004 31.9835 16.1152 31.773C15.8652 31.4846 15.5938 31.2154 15.3032 30.9678C15.0226 30.7377 14.9927 30.5778 15.2872 30.3098C15.9082 29.7439 16.4878 29.1342 17.0778 28.5498L14.5189 25.9765ZM26.6593 19.0654C26.7387 18.9906 26.8169 18.9239 26.8894 18.8514C30.3397 15.4004 33.79 11.9525 37.2403 8.50769C37.3932 8.35585 37.4346 8.25923 37.2575 8.08553C36.4908 7.33858 35.734 6.58205 34.9872 5.81593C34.8136 5.63763 34.717 5.66294 34.5536 5.82744C31.1087 9.27841 27.6584 12.7271 24.2027 16.1735C24.0199 16.3564 24.0107 16.4553 24.2027 16.6393C24.9595 17.3756 25.6979 18.129 26.4443 18.8744C26.5064 18.9388 26.5788 18.9941 26.6593 19.0654ZM14.3533 37.1853L5.87933 28.7086C5.87933 31.1104 5.87358 33.602 5.87933 36.0948C5.87933 36.7942 6.26805 37.1807 6.96156 37.183C9.45268 37.1899 11.9449 37.1853 14.3498 37.1853H14.3533ZM38.8504 1.95199C38.5505 1.97089 38.2693 2.10432 38.0649 2.32469C37.5048 2.8872 36.9458 3.45316 36.3765 4.00762C36.2178 4.16176 36.1799 4.25724 36.3639 4.43554C37.131 5.18095 37.8832 5.94132 38.633 6.70398C38.7757 6.84777 38.8631 6.89724 39.0298 6.72239C39.6049 6.12882 40.2018 5.56056 40.7734 4.96469C41.2518 4.4666 41.2438 3.98116 40.7619 3.46927C40.3846 3.07011 39.9867 2.69049 39.598 2.30053C39.3993 2.09487 39.1311 1.97062 38.8458 1.95199H38.8504ZM41.1288 41.0918C41.1288 41.6566 41.1391 42.2214 41.1288 42.7862C41.123 43.006 41.1897 43.0727 41.4105 43.0669C42.004 43.0508 42.6009 43.075 43.1943 43.0508C43.6711 43.031 44.1236 42.8346 44.4636 42.4998C44.8037 42.165 45.0072 41.7156 45.0345 41.2391C45.0839 40.1658 44.3605 39.2766 43.3093 39.188C42.6883 39.1363 42.0603 39.1754 41.4358 39.1455C41.1506 39.1317 41.1184 39.2605 41.1253 39.4906C41.1287 40.0243 41.1288 40.5581 41.1288 41.0918ZM23.0009 18.2878L22.1176 20.9519L24.772 20.0627L23.0009 18.2878Z" fill="#030303"/>
<path d="M5.8805 15.8653C5.8805 14.1455 5.86556 12.4361 5.88856 10.7268C5.89661 10.1723 6.26233 9.85136 6.82473 9.78695C6.93092 9.77563 7.03769 9.77063 7.14446 9.77199H27.4299C27.5208 9.77199 27.6116 9.78005 27.722 9.7858C27.7151 9.99056 27.5426 10.0665 27.4357 10.1735C25.6875 11.9296 23.9352 13.6823 22.1786 15.4316C21.8743 15.7317 21.648 16.1018 21.5196 16.5094C20.9307 18.3224 20.3499 20.1387 19.7105 21.9344C19.3815 22.8546 19.8979 23.5023 20.8376 23.4988C25.4886 23.482 30.1392 23.482 34.7894 23.4988C35.1747 23.4988 35.2955 23.4057 35.2575 23.0237C35.2247 22.6733 35.2247 22.3205 35.2575 21.97C35.2874 21.6192 35.1862 21.5099 34.8159 21.5099C32.3524 21.5283 29.89 21.5203 27.4265 21.5168C27.2666 21.5168 27.0976 21.5605 26.9032 21.457C27.4782 21.1223 27.8819 20.623 28.3293 20.1778C31.6968 16.8166 35.0601 13.4511 38.4191 10.0814C38.5148 9.97564 38.6327 9.89232 38.7643 9.83743C38.8959 9.78255 39.0381 9.75745 39.1805 9.76394C40.4192 9.7789 41.6578 9.76394 42.8976 9.77314C44.2467 9.78465 45.0437 10.568 45.0449 11.9127C45.051 20.4206 45.051 28.928 45.0449 37.435V37.7261C43.9546 37.1003 42.8183 37.1854 41.6958 37.1854C37.4726 37.1854 33.2502 37.1877 29.0286 37.1923C28.8652 37.2008 28.7019 37.1732 28.5504 37.1113C28.3989 37.0495 28.263 36.955 28.1522 36.8346C21.2907 29.9564 14.4238 23.0843 7.5516 16.2184C6.9156 15.5823 6.68557 15.5317 5.8805 15.8653ZM38.1983 21.5203C37.1977 21.5203 37.1977 21.5203 37.1977 22.5026V22.5487C37.1977 23.4885 37.1977 23.4885 38.1477 23.4885C39.1713 23.4885 39.1713 23.4885 39.1713 22.4865C39.1736 21.5203 39.1736 21.5203 38.2006 21.5203H38.1983ZM43.0747 22.5326C43.0747 21.5203 43.0747 21.5203 42.1006 21.5203C41.1265 21.5203 41.1219 21.5203 41.1219 22.4796C41.1219 23.4885 41.1219 23.4885 42.1397 23.4885C43.0771 23.4885 43.077 23.4885 43.077 22.528L43.0747 22.5326Z" fill="#FDFDFD"/>
<path d="M14.5189 25.9789L17.0698 28.5395C16.4798 29.1238 15.9002 29.7335 15.2791 30.2995C14.9847 30.5675 15.0146 30.7228 15.2952 30.9575C15.5857 31.2051 15.8572 31.4742 16.1072 31.7627C16.2924 31.9732 16.4074 31.9813 16.6075 31.7696C17.1423 31.2025 17.7116 30.6676 18.2522 30.1051C18.4201 29.9314 18.5144 29.9371 18.6811 30.1051C19.3712 30.8175 20.0739 31.5204 20.7893 32.2136C20.9572 32.377 20.9664 32.477 20.7893 32.645C20.2142 33.1971 19.6656 33.7712 19.094 34.3245C18.9284 34.4844 18.9054 34.5821 19.094 34.7489C19.4348 35.0564 19.7596 35.3813 20.067 35.7221C20.243 35.9177 20.3419 35.8659 20.4972 35.7072C21.0411 35.1481 21.6035 34.6074 22.1452 34.0449C22.3177 33.8666 22.4201 33.8344 22.6053 34.0323C23.285 34.7363 23.9739 35.4322 24.6824 36.1029C24.9055 36.3145 24.8526 36.4204 24.6628 36.6021C24.1108 37.1313 23.5851 37.6869 23.0331 38.2126C22.8502 38.3886 22.825 38.4967 23.0262 38.6784C23.3554 38.9753 23.6683 39.2898 23.9635 39.6206C24.1464 39.8253 24.2534 39.7805 24.4236 39.6056C24.9641 39.0443 25.5288 38.5059 26.0671 37.9422C26.243 37.7582 26.3431 37.7524 26.5271 37.9422C27.2517 38.6888 27.9843 39.4273 28.7319 40.1497C28.9377 40.3487 28.9331 40.45 28.7319 40.649C27.489 41.8783 26.2542 43.1145 25.0274 44.3576C24.7974 44.5877 24.6938 44.5716 24.473 44.3484C21.8309 41.6904 19.1826 39.0389 16.5282 36.3939C11.9216 31.7872 7.31276 27.1813 2.70162 22.5762C2.43595 22.3116 2.3727 22.1782 2.68208 21.8802C3.90464 20.7023 5.0973 19.4945 6.2865 18.282C6.50962 18.052 6.63152 18.0439 6.85119 18.282C7.54815 19.0113 8.26161 19.7253 8.99154 20.4239C9.22156 20.6402 9.1928 20.7552 8.98348 20.9542C8.42914 21.4811 7.90585 22.0401 7.3515 22.5647C7.16058 22.7464 7.16403 22.85 7.3515 23.0248C7.66079 23.2985 7.95306 23.5909 8.22671 23.9002C8.43143 24.1303 8.56255 24.1579 8.79027 23.914C9.31127 23.355 9.87252 22.8339 10.4004 22.2817C10.5649 22.1115 10.6615 22.0977 10.834 22.2748C11.5241 22.988 12.2268 23.6943 12.9433 24.3834C13.1526 24.5847 13.0824 24.6859 12.9157 24.8435C12.3556 25.3864 11.8162 25.9512 11.2538 26.4908C11.0744 26.6621 11.0801 26.7622 11.2538 26.9233C11.6575 27.2902 12.0439 27.6756 12.4372 28.054C12.8087 27.6905 13.1836 27.3316 13.5505 26.9635C13.8875 26.6403 14.2003 26.3067 14.5189 25.9789Z" fill="#6440FB"/>
<path d="M26.6594 19.0655C26.5789 18.9942 26.5065 18.939 26.4421 18.8745C25.6957 18.1291 24.9573 17.3791 24.2005 16.6395C24.0119 16.4554 24.0211 16.3565 24.2005 16.1736C27.6554 12.731 31.1057 9.28235 34.5514 5.82754C34.7148 5.66305 34.8114 5.63774 34.985 5.81604C35.7326 6.58292 36.4894 7.33946 37.2553 8.08563C37.4324 8.25933 37.391 8.35596 37.2381 8.5078C33.7878 11.9526 30.3375 15.4006 26.8872 18.8515C26.817 18.924 26.7388 18.9907 26.6594 19.0655Z" fill="#FDFDFD"/>
<path d="M14.3497 37.1854C11.9449 37.1854 9.45259 37.1854 6.96032 37.1854C6.27026 37.1854 5.88154 36.7966 5.87809 36.0972C5.87004 33.6044 5.87809 31.1128 5.87809 28.7109L14.3497 37.1854Z" fill="#FDFDFD"/>
<path d="M38.8457 1.95215C39.1299 1.97281 39.3963 2.09825 39.5933 2.30415C39.982 2.69411 40.38 3.07371 40.7572 3.47288C41.2391 3.98132 41.2472 4.46676 40.7687 4.9683C40.1937 5.56417 39.5968 6.13243 39.0252 6.726C38.8572 6.90085 38.771 6.85138 38.6284 6.70759C37.8785 5.94492 37.1263 5.18456 36.3592 4.43915C36.1752 4.26085 36.2132 4.16538 36.3719 4.01123C36.9469 3.45678 37.5001 2.89082 38.0602 2.32831C38.264 2.10666 38.5453 1.97196 38.8457 1.95215Z" fill="#6440FB"/>
<path d="M41.1287 41.0919C41.1287 40.5581 41.1379 40.0244 41.1287 39.4906C41.1218 39.2606 41.154 39.1317 41.4393 39.1455C42.0638 39.1754 42.6917 39.1363 43.3128 39.1881C44.3594 39.2767 45.0828 40.1659 45.0379 41.2391C45.0106 41.7157 44.8072 42.165 44.4671 42.4999C44.127 42.8347 43.6746 43.0311 43.1978 43.0509C42.6043 43.075 42.0074 43.0509 41.414 43.067C41.1931 43.067 41.1264 43.006 41.1322 42.7863C41.1345 42.2215 41.1287 41.6567 41.1287 41.0919Z" fill="#FDFDFD"/>
<path d="M23.0009 18.2878L24.7721 20.0628L22.1177 20.952L23.0009 18.2878Z" fill="#FCFCFC"/>
<path d="M38.2005 21.5203C39.1735 21.5203 39.1735 21.5203 39.1735 22.4865C39.1735 23.4885 39.1735 23.4885 38.1499 23.4885C37.2 23.4885 37.2 23.4885 37.2 22.5487V22.5026C37.2 21.5203 37.1999 21.5203 38.2005 21.5203Z" fill="#030303"/>
<path d="M43.0769 22.5279C43.0769 23.4838 43.0769 23.4838 42.1419 23.4838C41.124 23.4838 41.124 23.4838 41.124 22.475C41.124 21.5156 41.124 21.5156 42.1028 21.5156C43.0815 21.5156 43.0769 21.5202 43.0769 22.5279Z" fill="#030303"/>
</g>
<defs>
<clipPath id="clip0_344_332">
<rect width="47" height="47" fill="white"/>
</clipPath>
</defs>
</svg>
