<svg width="48" height="48" viewBox="0 0 48 48" fill="none" xmlns="http://www.w3.org/2000/svg">
<g clip-path="url(#clip0_344_343)">
<path d="M23.976 47.9989C21.1252 47.9989 18.2744 47.9989 15.4236 47.9989C12.898 47.9989 11.2009 46.2962 11.1996 43.765C11.1996 38.9538 11.1902 34.1318 11.2116 29.3153C11.2116 28.8542 11.078 28.7807 10.6624 28.79C9.19916 28.8154 9.15238 28.8007 8.91719 27.3774C8.78356 26.5755 8.51626 26.0677 7.67172 25.7884C7.09176 25.5973 6.67884 25.5278 6.20178 25.9354C5.89763 26.1675 5.576 26.3757 5.23968 26.5582C5.08218 26.6725 4.88776 26.724 4.69433 26.7028C4.5009 26.6815 4.3223 26.589 4.19335 26.4432C3.57509 25.8365 2.96213 25.2239 2.35456 24.6056C2.02984 24.2755 2.01114 23.9067 2.26236 23.5177C2.56036 23.0567 2.84635 22.5822 3.15236 22.1332C3.27664 21.9487 3.31539 21.7964 3.18845 21.5919C3.05348 21.4015 2.95637 21.1869 2.90246 20.9598C2.7862 20.2461 2.31716 20.0069 1.67173 19.9294C1.32713 19.875 0.985849 19.8014 0.64947 19.7089C0.457459 19.6773 0.28419 19.5751 0.163756 19.4222C0.043321 19.2694 -0.0155759 19.077 -0.00132474 18.8829C-0.00132474 18.0343 -0.00132474 17.1843 -0.00132474 16.3343C-0.00132474 15.8732 0.225862 15.5859 0.682878 15.4843C1.2174 15.3654 1.75192 15.2251 2.28644 15.1248C2.38433 15.1185 2.47748 15.0805 2.55194 15.0166C2.6264 14.9528 2.67813 14.8665 2.69934 14.7707C2.75765 14.5107 2.85691 14.2617 2.99335 14.0329C3.35683 13.5091 3.24324 13.0747 2.85972 12.619C2.62965 12.313 2.42028 11.992 2.233 11.6581C2.11832 11.5007 2.06629 11.3062 2.08704 11.1125C2.10779 10.9189 2.1998 10.7398 2.34523 10.6103C2.94924 9.99018 3.56393 9.37809 4.1773 8.76733C4.50736 8.4399 4.87349 8.41049 5.26369 8.66041C5.68463 8.9277 6.11497 9.18296 6.52255 9.4703C6.78981 9.66141 7.03034 9.7563 7.32433 9.52509C7.41701 9.45379 7.52657 9.40775 7.64235 9.39145C8.56574 9.2578 8.84502 8.62299 8.90917 7.78771C8.93752 7.50583 9.0017 7.22873 9.10021 6.96312C9.14894 6.77394 9.26933 6.61113 9.43592 6.50912C9.60251 6.40711 9.80226 6.3739 9.99289 6.41651C10.093 6.43043 10.1892 6.46436 10.2759 6.5163C10.3626 6.56825 10.438 6.63713 10.4975 6.71883C10.557 6.80053 10.5994 6.89338 10.6222 6.99184C10.645 7.09029 10.6478 7.19234 10.6303 7.29189C10.474 8.15924 10.2815 9.01992 10.0824 9.87792C10.0468 10.0164 9.97231 10.1418 9.86761 10.2391C9.76291 10.3365 9.63246 10.4018 9.49178 10.4272C8.73598 10.6277 8.01119 10.9308 7.33764 11.328C7.19492 11.4144 7.02967 11.4563 6.86302 11.4482C6.69636 11.4401 6.5359 11.3824 6.40223 11.2825C6.00134 11.0219 5.58446 10.7707 5.18624 10.4994C4.99515 10.3657 4.87087 10.3484 4.67978 10.5301C3.89938 11.2705 3.89137 11.2611 4.48469 12.1846C4.6103 12.3811 4.73185 12.5856 4.8628 12.7727C4.97572 12.9186 5.04009 13.0962 5.04681 13.2805C5.05352 13.4649 5.00226 13.6467 4.90026 13.8004C4.52186 14.4274 4.23859 15.107 4.05972 15.8171C4.02273 16.0063 3.92657 16.1789 3.78508 16.3098C3.6436 16.4407 3.4641 16.5233 3.27262 16.5455C2.8156 16.6297 2.36664 16.7606 1.90963 16.8448C1.67177 16.8889 1.59692 16.9785 1.59291 17.2311C1.57821 18.2842 1.56749 18.2829 2.60447 18.5047C2.83164 18.5528 3.05484 18.6237 3.28469 18.6597C3.47657 18.6815 3.65616 18.7649 3.79663 18.8974C3.9371 19.03 4.03081 19.2045 4.0637 19.3948C4.23856 20.0889 4.51557 20.7533 4.88558 21.3661C4.99335 21.5248 5.04858 21.7133 5.04354 21.9052C5.03851 22.097 4.97341 22.2824 4.85745 22.4352C4.59019 22.8201 4.36704 23.2291 4.09711 23.6073C3.93809 23.8291 3.97416 23.9601 4.15857 24.1486C4.88017 24.8849 4.8722 24.893 5.7408 24.337C5.90917 24.2287 6.0869 24.1339 6.24459 24.0122C6.66552 23.6875 7.07572 23.6808 7.53273 23.9641C8.08421 24.3077 8.68823 24.5587 9.32076 24.7072C9.79114 24.8168 10.0758 25.0801 10.1559 25.5745C10.2268 26.0169 10.3577 26.4499 10.4232 26.8936C10.4793 27.2745 10.7425 27.1823 10.9764 27.197C11.3091 27.2197 11.1956 26.9711 11.1956 26.8201C11.2022 25.4703 11.1889 24.1205 11.2076 22.7707C11.2076 22.466 11.1301 22.3991 10.8281 22.3697C9.87618 22.2952 8.96798 21.9391 8.21909 21.3468C7.4702 20.7544 6.91453 19.9525 6.62277 19.0433C6.33599 18.1407 6.32321 17.1733 6.58603 16.2634C6.84886 15.3535 7.37547 14.542 8.09936 13.9314C8.23727 13.8105 8.38472 13.701 8.54031 13.6039C8.7078 13.4938 8.9105 13.4505 9.10837 13.4824C9.30625 13.5143 9.48495 13.6192 9.60935 13.7763C9.87661 14.1212 9.83518 14.5341 9.50378 14.8535C9.40757 14.9457 9.2927 15.0166 9.19248 15.1048C8.15016 16.0082 7.77733 17.1375 8.12344 18.47C8.43613 19.6821 9.54922 20.5949 10.8067 20.7807C11.2383 20.8448 11.2009 20.6203 11.2009 20.3357C11.1956 15.0032 11.1956 9.67033 11.2009 4.33699C11.2009 1.64137 12.8579 -0.00647605 15.5666 -0.0078125H32.5136C35.1154 -0.0078125 36.7991 1.66943 36.7991 4.26883C36.7991 9.0854 36.7965 13.9015 36.7911 18.7172C36.7911 19.1048 36.8807 19.2104 37.2749 19.205C38.7956 19.1836 38.833 19.1917 39.0936 20.7059C39.2272 21.4583 39.5038 21.894 40.2708 22.1759C40.9056 22.4125 41.3653 22.4606 41.8651 22.0062C42.0367 21.8749 42.2191 21.7582 42.4102 21.6574C43.2481 21.1228 43.3978 21.1389 44.114 21.8552C44.5857 22.327 45.0588 22.7907 45.5278 23.2705C45.9969 23.7503 46.0209 24.0189 45.6615 24.5923C45.6267 24.6484 45.5853 24.7018 45.5519 24.7593C45.278 25.2311 44.7501 25.6534 44.7501 26.1599C44.7501 26.6384 45.1684 27.1141 45.314 27.63C45.3675 27.8158 45.4944 27.8719 45.6775 27.908C46.212 28.0136 46.7466 28.1552 47.2811 28.2702C47.7595 28.3731 47.9933 28.6644 47.9933 29.1482C47.9933 29.9822 47.9933 30.8157 47.9933 31.6487C47.9933 32.1085 47.7755 32.4011 47.3252 32.5067C46.7907 32.631 46.2562 32.774 45.7216 32.8702C45.4664 32.9157 45.3381 33.0172 45.29 33.2632C45.2746 33.3792 45.234 33.4905 45.1711 33.5892C44.5711 34.3911 44.7915 35.1021 45.4022 35.781C45.5229 35.9403 45.6323 36.1078 45.7297 36.2822C45.9969 36.6831 45.9608 37.0667 45.62 37.4115C45.024 38.0156 44.425 38.6179 43.8228 39.2184C43.6903 39.3719 43.5045 39.4696 43.3029 39.4917C43.1013 39.5137 42.8989 39.4586 42.7364 39.3373C42.274 39.042 41.8009 38.7613 41.3533 38.4459C41.2729 38.3766 41.1718 38.336 41.0658 38.3304C40.9599 38.3248 40.8551 38.3547 40.768 38.4152C40.6186 38.5215 40.451 38.5994 40.2735 38.645C39.453 38.7653 39.1898 39.3133 39.1123 40.0483C39.0721 40.3622 39.005 40.6721 38.9118 40.9745C38.7849 41.4155 38.4147 41.6534 38.0125 41.5826C37.9091 41.5668 37.8099 41.5301 37.7211 41.4747C37.6323 41.4194 37.5557 41.3466 37.4959 41.2607C37.4362 41.1748 37.3945 41.0776 37.3735 40.9751C37.3525 40.8726 37.3526 40.7669 37.3737 40.6644C37.5301 39.8131 37.7185 38.9685 37.9082 38.1252C37.9421 37.9862 38.0153 37.8599 38.1191 37.7615C38.2229 37.6632 38.353 37.5968 38.4936 37.5705C39.249 37.3694 39.9735 37.0669 40.6477 36.6711C40.7896 36.5835 40.9545 36.5403 41.1211 36.547C41.2878 36.5536 41.4486 36.6099 41.5831 36.7085C42.004 36.9758 42.4356 37.2297 42.8419 37.5104C43.037 37.644 43.1452 37.612 43.3056 37.4636C44.1074 36.7272 44.1074 36.7312 43.5114 35.8091C43.3938 35.6273 43.2909 35.4349 43.1613 35.2625C43.0315 35.1085 42.956 34.9161 42.9463 34.7149C42.9367 34.5137 42.9934 34.315 43.1078 34.1492C43.4787 33.5371 43.7554 32.8725 43.9283 32.178C43.9633 31.9882 44.0583 31.8146 44.1992 31.6828C44.3402 31.551 44.5197 31.4678 44.7114 31.4456C45.1524 31.3694 45.5867 31.2505 46.0276 31.1663C46.2949 31.1168 46.4058 31.0259 46.4032 30.7172C46.3938 29.6975 46.4111 29.6975 45.4022 29.4823C45.2071 29.4409 45.0134 29.3888 44.817 29.3607C44.5909 29.3424 44.3776 29.2484 44.2116 29.0939C44.0455 28.9394 43.9363 28.7335 43.9016 28.5094C43.7493 27.8605 43.4915 27.2411 43.1385 26.6758C42.8806 26.2535 42.8913 25.8739 43.1813 25.473C43.3756 25.2024 43.5541 24.9209 43.7158 24.6297C43.824 24.4372 44.1274 24.2394 43.9911 24.0403C43.7373 23.7116 43.4433 23.4162 43.1158 23.1609C43.025 23.0821 42.9087 23.2251 42.8138 23.2852C42.4049 23.5418 42 23.8024 41.5951 24.0644C41.4527 24.1681 41.282 24.226 41.1058 24.2303C40.9296 24.2346 40.7563 24.1851 40.6089 24.0884C39.9653 23.7057 39.2713 23.415 38.547 23.2251C38.3743 23.1924 38.2161 23.1063 38.0948 22.979C37.9735 22.8517 37.8952 22.6896 37.8708 22.5154C37.7853 22.0583 37.6517 21.6093 37.5862 21.1496C37.5341 20.7807 37.319 20.7767 37.033 20.7767C36.6655 20.7767 36.7991 21.0346 36.7991 21.195C36.7898 22.5114 36.7991 23.8278 36.7858 25.1442C36.7858 25.4663 36.8312 25.5812 37.2 25.6106C38.1511 25.6918 39.0565 26.0541 39.8011 26.6515C40.5457 27.2488 41.0958 28.0542 41.3813 28.9651C41.6637 29.8866 41.6628 30.8717 41.3788 31.7927C41.0948 32.7137 40.5407 33.5281 39.7885 34.1305C39.6081 34.2748 39.433 34.4406 39.1938 34.482C39.03 34.5225 38.8574 34.5082 38.7025 34.4413C38.5476 34.3745 38.4188 34.2587 38.3359 34.1118C38.2433 33.9706 38.2016 33.802 38.2177 33.6339C38.2337 33.4658 38.3065 33.3082 38.4241 33.187C38.5166 33.0911 38.6177 33.0038 38.7261 32.9264C39.7951 32.051 40.2214 30.9324 39.8793 29.5946C39.5439 28.2822 38.6499 27.5084 37.3216 27.2264C36.9421 27.1449 36.7804 27.1783 36.7871 27.6501C36.8058 32.9825 36.7991 38.3149 36.7991 43.6487C36.7991 46.3216 35.1368 47.9828 32.4735 47.9828L23.976 47.9989ZM12.8018 23.9735V43.6688C12.8018 45.4623 13.7439 46.3965 15.5506 46.3965H32.4989C34.2361 46.3965 35.1996 45.4409 35.1996 43.7236V4.27819C35.1996 2.5555 34.2361 1.60529 32.4989 1.60529H15.5025C13.7479 1.60529 12.8018 2.55951 12.8018 4.33031V23.9735Z" fill="#020202"/>
<path d="M6.40222 34.3134C6.40222 33.8055 6.75104 33.4286 7.2134 33.4366C7.4225 33.4435 7.62093 33.5306 7.7675 33.6799C7.91406 33.8293 7.99745 34.0293 8.00043 34.2385C8.00295 34.4641 7.91641 34.6816 7.75953 34.8438C7.60266 35.0059 7.38812 35.0996 7.16257 35.1045C6.69353 35.1032 6.40356 34.7972 6.40222 34.3134Z" fill="#020202"/>
<path d="M7.22004 36.6401C7.42786 36.649 7.62442 36.737 7.76951 36.886C7.91459 37.0351 7.9972 37.234 8.00042 37.442C8.0015 37.6675 7.91352 37.8843 7.75561 38.0452C7.5977 38.2061 7.3827 38.2982 7.15727 38.3014C6.6762 38.2933 6.38083 37.9619 6.40221 37.454C6.40221 37.3468 6.42344 37.2407 6.46459 37.1417C6.50574 37.0426 6.56601 36.9527 6.642 36.8771C6.718 36.8015 6.80817 36.7416 6.90737 36.7009C7.00657 36.6603 7.11284 36.6396 7.22004 36.6401Z" fill="#020202"/>
<path d="M6.40222 40.7285C6.40222 40.2219 6.73763 39.8397 7.204 39.8384C7.41363 39.8407 7.61423 39.9241 7.76371 40.0711C7.91319 40.2181 7.99993 40.4173 8.00579 40.6269C8.01194 40.8521 7.92915 41.0707 7.77533 41.2353C7.62151 41.3999 7.40906 41.4972 7.18397 41.5063C6.70958 41.5089 6.40757 41.2069 6.40222 40.7285Z" fill="#020202"/>
<path d="M39.9996 7.27169C39.9996 6.75849 40.3471 6.39097 40.8188 6.403C41.0272 6.40925 41.225 6.49649 41.3702 6.6462C41.5154 6.79591 41.5966 6.9963 41.5965 7.20487C41.5965 7.67263 41.1876 8.09228 40.7533 8.07891C40.2989 8.07089 39.9983 7.74613 39.9996 7.27169Z" fill="#020202"/>
<path d="M40.7999 9.60242C41.0105 9.60239 41.2126 9.68522 41.3627 9.83301C41.5127 9.9808 41.5986 10.1817 41.6017 10.3923C41.6097 10.8573 41.2128 11.285 40.7759 11.2837C40.6719 11.2864 40.5686 11.2676 40.4723 11.2284C40.376 11.1891 40.2888 11.1304 40.2164 11.0558C40.1439 10.9812 40.0877 10.8924 40.0513 10.795C40.0149 10.6976 39.9991 10.5937 40.0048 10.4898C39.9941 9.97395 40.3296 9.60242 40.7999 9.60242Z" fill="#020202"/>
<path d="M39.9997 13.6573C40.0077 13.1467 40.3631 12.7819 40.8335 12.8033C41.0429 12.8133 41.2399 12.905 41.3826 13.0586C41.5252 13.2122 41.602 13.4156 41.5965 13.6252C41.5845 14.0929 41.1729 14.5046 40.7386 14.4832C40.2829 14.4591 39.9917 14.133 39.9997 13.6573Z" fill="#020202"/>
<path d="M12.8018 23.9733V4.32744C12.8018 2.55665 13.7479 1.60242 15.5024 1.60242H32.4988C34.236 1.60242 35.1995 2.55664 35.1995 4.27532V43.722C35.1995 45.4434 34.2347 46.3949 32.4988 46.3949H15.5505C13.7438 46.3949 12.8018 45.4594 12.8018 43.6672V23.9733ZM20.8008 27.2128C20.7929 27.0769 20.7572 26.944 20.6958 26.8223C20.6344 26.7007 20.5487 26.593 20.4441 26.5059C19.6904 25.7534 18.9447 24.993 18.1804 24.2526C17.9746 24.0521 17.9799 23.9425 18.1804 23.7448C18.9679 22.9803 19.7443 22.2043 20.5096 21.4167C20.8904 21.0264 20.8891 20.5506 20.5457 20.2232C20.2022 19.8958 19.7586 19.9172 19.3884 20.282C18.3461 21.3093 17.3113 22.3446 16.2842 23.3879C15.8833 23.7889 15.894 24.1991 16.2842 24.6161C16.5514 24.8941 16.8187 25.1587 17.094 25.4287C17.8583 26.1945 18.6201 26.9616 19.3871 27.722C19.6423 27.9746 19.9416 28.0842 20.2958 27.9319C20.4416 27.8754 20.5674 27.7769 20.6573 27.6489C20.7472 27.521 20.7971 27.3692 20.8008 27.2128ZM27.9862 28C28.1246 27.9906 28.2597 27.9532 28.3833 27.89C28.5069 27.8269 28.6164 27.7392 28.7051 27.6325C29.6806 26.6542 30.6615 25.6813 31.6343 24.7003C32.1408 24.1898 32.1381 23.8076 31.6236 23.289C30.6615 22.3214 29.6966 21.357 28.7291 20.3956C28.2561 19.9252 27.7857 19.8757 27.4276 20.2486C27.0695 20.6215 27.1336 21.0612 27.5826 21.5142C28.2988 22.2346 29.0018 22.9669 29.7434 23.6525C30.0441 23.9345 29.9986 24.0855 29.7287 24.3421C28.959 25.0785 28.2147 25.8403 27.4664 26.5967C27.2125 26.8533 27.1162 27.1567 27.2739 27.5082C27.331 27.6512 27.4291 27.7742 27.5558 27.8617C27.6825 27.9492 27.8322 27.9973 27.9862 28ZM23.257 28C23.4323 27.9923 23.5998 27.9253 23.7321 27.81C23.8644 27.6947 23.9537 27.5378 23.9853 27.3652C24.5198 25.2536 25.0485 23.1411 25.5715 21.0277C25.6019 20.9229 25.6106 20.813 25.5971 20.7047C25.5835 20.5964 25.548 20.492 25.4927 20.398C25.4374 20.3039 25.3635 20.2221 25.2754 20.1575C25.1874 20.093 25.0872 20.0471 24.9808 20.0227C24.7752 19.9757 24.5593 20.0116 24.38 20.1227C24.2006 20.2338 24.0723 20.411 24.0227 20.6161C23.9185 20.9663 23.8477 21.3258 23.7555 21.6853C23.3198 23.4271 22.8846 25.1685 22.4499 26.9095C22.3029 27.5055 22.637 27.9893 23.2637 27.9973L23.257 28ZM24.0013 4.80322C24.7323 4.80322 25.4646 4.80322 26.1955 4.80322C26.8276 4.80322 27.1897 4.51187 27.1977 4.01471C27.2058 3.51755 26.8409 3.20482 26.2182 3.20348C24.7394 3.20348 23.2601 3.20348 21.7804 3.20348C21.1577 3.20348 20.7942 3.51354 20.8035 4.01605C20.8129 4.51855 21.1724 4.80055 21.8071 4.80322C22.5381 4.80322 23.2704 4.80054 24.0013 4.80054V4.80322Z" fill="#6440FB"/>
<path d="M20.8008 27.2128C20.7975 27.3687 20.7481 27.5202 20.6589 27.6481C20.5698 27.776 20.4448 27.8747 20.2997 27.9319C19.9456 28.0842 19.6463 27.9746 19.3911 27.722C18.624 26.9616 17.8623 26.1945 17.0979 25.4287C16.8307 25.1614 16.5501 24.8941 16.2881 24.6161C15.8966 24.1991 15.8872 23.7942 16.2881 23.3879C17.3135 22.3446 18.347 21.3088 19.3884 20.2807C19.7585 19.9158 20.2156 19.9091 20.5456 20.2219C20.8757 20.5346 20.8904 21.0237 20.5096 21.4153C19.7425 22.2012 18.9661 22.9772 18.1804 23.7434C17.9772 23.9412 17.9719 24.0508 18.1804 24.2513C18.9447 24.9917 19.6904 25.7521 20.4441 26.5045C20.5489 26.5918 20.6347 26.6998 20.696 26.8216C20.7574 26.9435 20.7931 27.0766 20.8008 27.2128Z" fill="white"/>
<path d="M27.9861 28C27.8329 27.9978 27.6838 27.9507 27.5572 27.8644C27.4306 27.7782 27.332 27.6566 27.2739 27.5149C27.1162 27.1634 27.2125 26.86 27.4664 26.6034C28.2147 25.847 28.959 25.0852 29.7287 24.3488C29.9959 24.0922 30.0441 23.9412 29.7434 23.6592C29.0018 22.9669 28.2988 22.2345 27.5826 21.5209C27.1336 21.0678 27.0815 20.6161 27.4276 20.2552C27.7737 19.8944 28.2561 19.9318 28.7291 20.4023C29.6957 21.3645 30.6605 22.329 31.6236 23.2957C32.1381 23.8142 32.1407 24.1964 31.6343 24.707C30.6614 25.6879 29.6806 26.6609 28.7051 27.6391C28.6158 27.7447 28.5061 27.831 28.3825 27.893C28.259 27.9551 28.1241 27.9914 27.9861 28Z" fill="white"/>
<path d="M23.2637 27.9974C22.6436 27.9894 22.3095 27.5056 22.4619 26.9016C22.8931 25.1588 23.3283 23.4174 23.7675 21.6774C23.857 21.3232 23.9278 20.9637 24.0347 20.6082C24.0843 20.4031 24.2126 20.2258 24.392 20.1148C24.5713 20.0037 24.7872 19.9678 24.9928 20.0148C25.0992 20.0392 25.1995 20.0851 25.2875 20.1496C25.3755 20.2141 25.4494 20.296 25.5047 20.39C25.56 20.4841 25.5955 20.5885 25.609 20.6968C25.6226 20.8051 25.6139 20.915 25.5835 21.0198C25.0623 23.1341 24.5336 25.2466 23.9973 27.3573C23.9666 27.5318 23.877 27.6905 23.7435 27.8069C23.61 27.9234 23.4407 27.9907 23.2637 27.9974Z" fill="white"/>
<path d="M24.0014 4.80053C23.2704 4.80053 22.5315 4.80053 21.8072 4.80053C21.1725 4.80053 20.8116 4.51187 20.8036 4.01337C20.7956 3.51487 21.1577 3.20214 21.7804 3.20081C23.2602 3.20081 24.7395 3.20081 26.2183 3.20081C26.841 3.20081 27.2058 3.50953 27.1978 4.01203C27.1898 4.51454 26.8277 4.79786 26.1956 4.80053C25.4646 4.80321 24.7337 4.80053 24.0014 4.80053Z" fill="white"/>
</g>
<defs>
<clipPath id="clip0_344_343">
<rect width="48" height="48" fill="white"/>
</clipPath>
</defs>
</svg>
