<svg width="20" height="20" viewBox="0 0 20 20" fill="none" xmlns="http://www.w3.org/2000/svg">
<path d="M10.3799 19.313H8.87085C8.84985 19.254 8.79785 19.279 8.75885 19.273C8.40485 19.22 8.04785 19.185 7.69785 19.113C5.96927 18.7538 4.37225 17.9276 3.08045 16.7242C1.78865 15.5207 0.85151 13.9861 0.370944 12.2873C-0.109622 10.5885 -0.115224 8.79037 0.354749 7.08857C0.824721 5.38676 1.75228 3.84638 3.03656 2.63492C4.32084 1.42345 5.91268 0.587284 7.63899 0.217333C9.3653 -0.152619 11.16 -0.0421923 12.8279 0.536605C14.4959 1.1154 15.9732 2.14041 17.0993 3.50018C18.2253 4.85995 18.9571 6.50243 19.2149 8.24901C19.2227 8.47049 19.2562 8.6903 19.3149 8.90401V10.45C19.2639 10.465 19.2789 10.509 19.2759 10.543C19.1414 12.1258 18.6063 13.6482 17.7209 14.967C16.9807 16.105 16.0061 17.0719 14.8622 17.803C13.7183 18.534 12.4315 19.0123 11.0879 19.206C10.8482 19.2204 10.6103 19.2559 10.3769 19.312M9.66585 1.51201C8.05477 1.51103 6.47957 1.98779 5.13944 2.88202C3.79931 3.77624 2.75444 5.04777 2.13694 6.53582C1.51945 8.02387 1.35707 9.66161 1.67033 11.2419C1.9836 12.8223 2.75844 14.2742 3.89688 15.4142C5.03532 16.5542 6.48622 17.331 8.06613 17.6464C9.64604 17.9618 11.284 17.8016 12.7729 17.1861C14.2618 16.5706 15.5347 15.5275 16.4307 14.1886C17.3268 12.8497 17.8057 11.2751 17.8069 9.66401C17.8084 7.50391 16.952 5.43161 15.4259 3.90287C13.8998 2.37413 11.829 1.51413 9.66885 1.51201" fill="white"/>
<path d="M9.66809 1.51203C11.2793 1.51302 12.854 1.99176 14.193 2.88772C15.5321 3.78368 16.5754 5.05661 17.191 6.54554C17.8066 8.03446 17.9669 9.6725 17.6515 11.2525C17.3362 12.8325 16.5593 14.2835 15.4193 15.422C14.2793 16.5605 12.8272 17.3354 11.2468 17.6486C9.66635 17.9618 8.02853 17.7994 6.54044 17.1817C5.05235 16.5641 3.78083 15.5191 2.88668 14.1788C1.99253 12.8385 1.51591 11.2632 1.51709 9.65202C1.51775 8.58232 1.72911 7.52323 2.1391 6.53522C2.5491 5.54721 3.14969 4.64963 3.9066 3.89375C4.6635 3.13787 5.56188 2.53848 6.55045 2.12983C7.53901 1.72117 8.59839 1.51124 9.66809 1.51203ZM10.4191 11.268C10.4191 10.4827 10.4191 9.69736 10.4191 8.91203C10.4289 8.80741 10.4168 8.70189 10.3837 8.60219C10.3505 8.50249 10.2969 8.41079 10.2263 8.33293C10.1558 8.25507 10.0697 8.19275 9.97378 8.14995C9.87782 8.10714 9.77399 8.08479 9.66892 8.0843C9.56384 8.08381 9.45981 8.1052 9.36346 8.14712C9.2671 8.18903 9.18052 8.25055 9.10924 8.32775C9.03795 8.40495 8.98352 8.49614 8.94941 8.59553C8.91529 8.69492 8.90225 8.80032 8.91109 8.90503C8.91109 10.4824 8.91109 12.0594 8.91109 13.636C8.90899 13.7112 8.91536 13.7863 8.93009 13.86C8.96724 14.0438 9.07172 14.2071 9.22304 14.3179C9.37436 14.4286 9.5616 14.4789 9.74803 14.4587C9.93446 14.4385 10.1066 14.3495 10.2308 14.2089C10.3549 14.0684 10.4221 13.8865 10.4191 13.699C10.4191 12.888 10.4191 12.078 10.4191 11.267M9.66709 5.12902C9.53351 5.1281 9.40107 5.15358 9.27737 5.204C9.15366 5.25442 9.04114 5.32879 8.94626 5.42283C8.85139 5.51687 8.77603 5.62873 8.72452 5.75198C8.67301 5.87523 8.64635 6.00744 8.64609 6.14103C8.64577 6.27471 8.67177 6.40715 8.72263 6.53079C8.77348 6.65442 8.84819 6.76683 8.94249 6.86159C9.03679 6.95635 9.14883 7.03161 9.27221 7.08308C9.3956 7.13454 9.52791 7.1612 9.66159 7.16153C9.79528 7.16185 9.92772 7.13585 10.0514 7.08499C10.175 7.03414 10.2874 6.95943 10.3822 6.86513C10.4769 6.77083 10.5522 6.65879 10.6036 6.53541C10.6551 6.41202 10.6818 6.27971 10.6821 6.14603C10.6828 6.01241 10.657 5.87998 10.6062 5.75637C10.5555 5.63276 10.4808 5.5204 10.3865 5.42578C10.2921 5.33116 10.18 5.25613 10.0565 5.20503C9.93306 5.15393 9.80071 5.12776 9.66709 5.12803" fill="#2A1957"/>
<path d="M10.4169 11.268C10.4169 12.079 10.4169 12.889 10.4169 13.7C10.4174 13.8858 10.3491 14.0652 10.2252 14.2036C10.1013 14.342 9.93053 14.4297 9.74584 14.4497C9.56114 14.4697 9.37558 14.4206 9.22492 14.3119C9.07426 14.2032 8.96916 14.0426 8.92989 13.861C8.91516 13.7873 8.90878 13.7121 8.91089 13.637C8.91089 12.0597 8.91089 10.4827 8.91089 8.906C8.90204 8.80129 8.91509 8.69589 8.94921 8.5965C8.98332 8.49712 9.03774 8.40591 9.10903 8.32871C9.18031 8.25151 9.2669 8.19001 9.36325 8.14809C9.45961 8.10618 9.56364 8.08479 9.66872 8.08527C9.7738 8.08576 9.87763 8.10811 9.97359 8.15092C10.0696 8.19372 10.1555 8.25604 10.2261 8.3339C10.2967 8.41176 10.3503 8.50346 10.3835 8.60316C10.4166 8.70286 10.4287 8.80838 10.4189 8.913C10.4189 9.69834 10.4189 10.4837 10.4189 11.269" fill="white"/>
<path d="M9.66602 5.129C9.79964 5.12873 9.93199 5.15491 10.0555 5.20601C10.1789 5.25711 10.291 5.33214 10.3854 5.42676C10.4797 5.52138 10.5544 5.63373 10.6052 5.75734C10.6559 5.88095 10.6817 6.01338 10.681 6.147C10.6804 6.41699 10.5725 6.67566 10.3811 6.86611C10.1897 7.05655 9.93052 7.16316 9.66053 7.1625C9.39054 7.16184 9.13185 7.05395 8.94141 6.86257C8.75097 6.67119 8.64436 6.41199 8.64502 6.142C8.64528 6.00842 8.67192 5.87621 8.72344 5.75295C8.77495 5.6297 8.85032 5.51784 8.94519 5.4238C9.04007 5.32976 9.15259 5.2554 9.27629 5.20498C9.4 5.15456 9.53244 5.12908 9.66602 5.13" fill="white"/>
</svg>
