<svg width="53" height="53" viewBox="0 0 53 53" fill="none" xmlns="http://www.w3.org/2000/svg">
<g clip-path="url(#clip0_327_285)">
<path d="M41.1332 51.2023C38.1388 51.2023 35.1443 51.2023 32.1442 51.2023C31.7903 51.2023 31.5361 51.267 31.2917 51.5596C30.89 52.0392 30.324 52.3051 29.7355 52.4921C27.6054 53.182 25.3115 53.1766 23.1847 52.4767C22.5302 52.2671 21.9206 51.945 21.4993 51.3725C21.3209 51.1306 21.092 51.2122 20.8813 51.2122C14.9092 51.2122 8.93716 51.2122 2.96509 51.2122C0.84706 51.2122 -0.336965 49.7592 0.0815858 47.6958C0.14479 47.3878 0.191134 47.0755 0.251529 46.7661C1.46879 40.5314 2.6837 34.2957 3.89628 28.0591C4.12101 26.8987 4.73902 26.3712 5.92023 26.3571H6.18286C6.5677 26.3571 7.00312 26.4584 7.32336 26.3121C7.64359 26.1659 7.51016 25.6567 7.63657 25.3276C7.91747 24.5793 8.45399 24.1615 9.24194 24.0926C9.6324 24.0589 9.80376 23.9942 9.68017 23.5145C9.1956 21.648 9.47789 19.8659 10.4288 18.1964C10.5758 17.9411 10.6365 17.6451 10.6015 17.3524C10.4836 15.8292 11.1043 14.6645 12.3937 13.8684C12.5273 13.8016 12.6428 13.7033 12.7304 13.5821C12.8179 13.4609 12.8749 13.3202 12.8965 13.1722C13.367 10.6081 15.6396 9.06087 18.193 9.54754C18.2997 9.57548 18.4123 9.57071 18.5162 9.53384C18.6201 9.49698 18.7106 9.42972 18.7759 9.34077C20.856 7.0678 23.7999 6.56988 26.5008 8.0355C26.5817 8.09317 26.6802 8.12042 26.7791 8.11244C26.8781 8.10446 26.971 8.06178 27.0416 7.9919C28.7495 6.73304 30.8338 6.99607 32.1751 8.64032C32.2374 8.7204 32.3177 8.78458 32.4095 8.82761C32.5013 8.87064 32.6019 8.89129 32.7032 8.88787C36.4575 9.11854 38.9885 11.1707 39.9984 14.7954C40.0172 14.8939 40.0639 14.985 40.1329 15.0578C40.2018 15.1306 40.2901 15.182 40.3874 15.2061C42.3861 15.8981 43.3369 17.683 42.82 19.7422C42.792 19.8327 42.7826 19.9279 42.7923 20.0222C42.8019 20.1165 42.8305 20.2078 42.8763 20.2907C43.4594 21.3411 43.6641 22.5602 43.4563 23.7438C43.417 23.9745 43.4774 24.0406 43.7035 24.0828C44.8721 24.298 45.271 24.689 45.4719 25.8888C45.5351 26.2643 45.653 26.3951 46.0337 26.3614C46.4354 26.3346 46.8384 26.3346 47.2401 26.3614C48.2416 26.405 48.8792 26.9352 49.0745 27.9086C49.441 29.7441 49.788 31.5839 50.1447 33.4222C51.0727 38.1988 52.0019 42.9745 52.9327 47.7493C53.3175 49.7072 52.1251 51.2009 50.1236 51.2066C47.1221 51.2094 44.1277 51.2023 41.1332 51.2023ZM6.10283 45.3539C6.23345 45.3188 6.30085 45.3047 6.36686 45.2836C12.6255 43.2985 18.8878 43.2849 25.1539 45.2428C25.5752 45.3764 25.6019 45.2428 25.6005 44.8856C25.5907 41.448 25.6005 38.0104 25.6005 34.5728C25.6005 33.6627 25.8814 33.2394 26.4938 33.2337C27.1062 33.2281 27.4025 33.6557 27.4025 34.5573C27.4025 37.9949 27.411 41.4325 27.3927 44.8701C27.3927 45.3019 27.4882 45.3624 27.8815 45.2316C29.4099 44.7386 30.9767 44.374 32.5656 44.1415C36.1905 43.5883 39.8853 43.6931 43.4732 44.4509C44.6109 44.6858 45.7204 45.0135 46.889 45.3624C46.8665 45.2217 46.8553 45.1317 46.8413 45.0487C46.3647 42.1803 45.888 39.3128 45.4114 36.4463C44.844 33.0256 44.2784 29.603 43.7147 26.1785C43.6853 25.9943 43.6361 25.8789 43.4072 25.8353C42.7892 25.7172 42.3692 25.9591 42.188 26.6792C41.7901 28.3288 40.8454 29.7946 39.5082 30.837C39.2877 31.0114 39.2989 31.1394 39.4183 31.356C39.6865 31.8471 39.9008 32.3659 40.0573 32.9032C40.2356 33.4858 40.2168 34.1111 40.0037 34.6819C39.7906 35.2526 39.3952 35.7369 38.879 36.0595C37.8424 36.7065 36.4379 36.6362 35.5867 35.7332C34.7356 34.8302 33.7454 34.3351 32.6218 33.9384C31.4602 33.5277 30.22 33.0199 29.6961 31.8624C29.2383 30.8511 28.5725 30.5697 27.6188 30.4727C27.3787 30.4488 27.2129 30.4389 27.0093 30.5979C24.2142 32.7822 20.5667 32.1634 18.6326 29.1745C18.5915 29.082 18.5176 29.0081 18.4254 28.9668C18.3331 28.9255 18.2288 28.9198 18.1326 28.9508C15.259 29.4515 12.8727 28.5668 11.0566 26.2981C10.6563 25.7987 10.308 25.7003 9.7518 25.8016C9.42314 25.8606 9.30515 25.9816 9.25037 26.3206C8.68856 29.8116 8.10005 33.2998 7.52138 36.7895C7.05087 39.618 6.58318 42.4536 6.10283 45.3539ZM41.497 21.6579C41.3748 21.7381 41.2891 21.7985 41.2006 21.852C40.5588 22.2416 40.0307 22.1867 39.7287 21.7015C39.4267 21.2162 39.6135 20.7394 40.2554 20.3287C40.3151 20.2926 40.3728 20.2531 40.4282 20.2105C41.0082 19.7464 41.2709 19.1472 41.1487 18.4074C41.0265 17.6675 40.5742 17.1527 39.8453 16.9094C39.2076 16.697 38.6528 16.8869 38.1051 17.2216C37.9071 17.3492 37.6666 17.3928 37.4365 17.3428C37.2065 17.2928 37.0056 17.1534 36.8782 16.9551C36.7508 16.7568 36.7073 16.516 36.7572 16.2856C36.8071 16.0552 36.9464 15.8541 37.1444 15.7265C37.3811 15.5474 37.6434 15.4052 37.9225 15.3045C38.2217 15.2061 38.2301 15.057 38.1599 14.8024C37.598 12.7418 35.5474 10.9808 33.4041 10.7234C33.0853 10.684 32.9477 10.7431 32.9125 11.1032C32.8746 11.4886 32.5796 11.7108 32.199 11.7671C32.0161 11.8055 31.8256 11.7798 31.6594 11.6943C31.4931 11.6087 31.3613 11.4686 31.2861 11.2973C31.2065 11.0852 31.1592 10.8623 31.1456 10.6362C31.0936 10.2156 30.8992 9.82566 30.5948 9.5313C30.2903 9.23694 29.8943 9.056 29.4728 9.01867C28.5514 8.94835 27.741 9.47018 27.4882 10.3183C27.4194 10.5518 27.4194 10.8036 27.3702 11.0441C27.3331 11.2616 27.2161 11.4573 27.0421 11.5927C26.8682 11.7281 26.6499 11.7934 26.4303 11.7758C26.2106 11.7582 26.0056 11.6588 25.8554 11.4974C25.7052 11.336 25.6208 11.1241 25.6188 10.9034C25.617 10.6061 25.6558 10.3098 25.734 10.0229C25.8014 9.77118 25.7424 9.6474 25.5163 9.52503C24.6199 9.0218 23.57 8.86659 22.5667 9.089C20.8982 9.46033 19.7759 10.4716 19.2464 12.1117C19.113 12.5238 18.9065 12.8459 18.4486 12.9176C17.7703 13.0217 17.2731 12.3958 17.5146 11.677C17.6551 11.241 17.4978 11.2044 17.1509 11.2382C16.0427 11.3437 15.2632 11.9007 14.8053 12.9261C14.6648 13.2341 14.6339 13.4085 15.0792 13.4788C15.7567 13.5999 16.3776 13.9357 16.8503 14.4367C17.4374 15.026 17.5315 15.5619 17.1172 15.9839C16.6747 16.4312 16.2225 16.3524 15.6017 15.7209C15.5904 15.7082 15.5778 15.6969 15.5651 15.6843C15.3044 15.4299 14.9755 15.2571 14.6183 15.1868C14.2612 15.1165 13.8914 15.1518 13.5539 15.2884C13.2165 15.425 12.9261 15.6569 12.718 15.956C12.51 16.2551 12.3934 16.6084 12.3825 16.9727C12.353 17.7252 12.7181 18.2625 13.3137 18.6915C13.4128 18.7568 13.4977 18.8416 13.5631 18.9408C13.6285 19.04 13.673 19.1514 13.6941 19.2684C13.7151 19.3854 13.7121 19.5054 13.6853 19.6212C13.6586 19.7369 13.6086 19.8461 13.5384 19.9419C13.2575 20.3428 12.735 20.4272 12.2814 20.1374C12.0847 20.0108 11.9021 19.8561 11.6718 19.6915C10.9358 21.7226 11.1437 23.5792 12.4626 25.2319C13.7814 26.8846 15.5525 27.5035 17.6424 27.2292C17.745 27.2151 17.8419 27.2025 17.8784 27.0689C17.9207 26.882 17.8888 26.686 17.7895 26.5222C17.6902 26.3584 17.5312 26.2397 17.3461 26.1912C16.0581 25.8522 15.0876 24.6707 15.0398 23.3781C15.016 22.7339 15.3067 22.3344 15.8362 22.2852C16.398 22.2318 16.7506 22.5665 16.8292 23.2459C16.8466 23.5095 16.9418 23.7621 17.1025 23.9717C17.2633 24.1812 17.4824 24.3383 17.7323 24.4231C17.9753 24.5174 18.1031 24.5019 18.2014 24.2262C18.317 23.8965 18.4701 23.5812 18.6579 23.2867C18.7841 23.1128 18.9689 22.9905 19.1781 22.9424C19.3873 22.8943 19.6068 22.9236 19.7961 23.0249C19.9854 23.1262 20.1317 23.2927 20.208 23.4936C20.2844 23.6945 20.2855 23.9162 20.2113 24.1179C20.1524 24.2811 20.0596 24.433 19.9852 24.5905C19.5922 25.4124 19.5042 26.3476 19.7368 27.2285C19.9694 28.1095 20.5075 28.8788 21.2548 29.3988C22.0021 29.9187 22.9098 30.1554 23.8154 30.0663C24.721 29.9773 25.5654 29.5684 26.1974 28.9128C26.5177 28.5907 26.8548 28.3404 27.3056 28.512C28.8366 29.0915 30.3745 29.1069 31.9406 28.6779C32.0513 28.6497 32.1666 28.6435 32.2797 28.6599C32.3928 28.6763 32.5017 28.7148 32.5999 28.7734C32.6981 28.8319 32.7838 28.9093 32.8522 29.001C32.9205 29.0928 32.9702 29.1971 32.9982 29.3081C33.0595 29.5309 33.0311 29.769 32.9189 29.971C32.8068 30.173 32.6199 30.3229 32.3985 30.3883C32.0829 30.4914 31.7585 30.5649 31.4293 30.6077C31.0304 30.6598 31.0459 30.8004 31.2748 31.0564C31.8184 31.6654 32.5277 32.0171 33.2735 32.266C34.605 32.7105 35.8241 33.2984 36.7651 34.3913C37.0812 34.7584 37.5418 34.7852 37.9618 34.5123C38.146 34.4033 38.2852 34.232 38.3542 34.0292C38.4232 33.8265 38.4176 33.6057 38.3382 33.4067C38.2048 32.9932 38.0067 32.5994 37.848 32.1929C37.7511 31.9482 37.6177 31.9116 37.3649 31.9946C36.9526 32.1413 36.5301 32.2575 36.1008 32.342C35.8769 32.377 35.648 32.3251 35.4609 32.197C35.2738 32.0689 35.1426 31.8742 35.0939 31.6526C35.0452 31.4309 35.0827 31.199 35.1988 31.0041C35.3149 30.8091 35.5009 30.6659 35.7188 30.6035C35.8354 30.5666 35.954 30.5365 36.0741 30.5135C37.266 30.2687 38.3455 29.641 39.1487 28.7258C39.2287 28.6386 39.3818 28.5654 39.3045 28.3755C37.5292 28.7595 35.8957 28.4684 34.4533 27.3291C34.2735 27.1884 34.1345 27.2812 33.9688 27.322C33.3125 27.4958 32.6175 27.4498 31.9899 27.191C31.3622 26.9322 30.8363 26.4749 30.4925 25.8888C30.1765 25.3458 30.2537 24.8381 30.6976 24.5497C31.1414 24.2614 31.6147 24.3809 31.9953 24.9084C32.4883 25.5892 33.1653 25.7931 33.81 25.4541C34.4252 25.1306 34.6302 24.4836 34.3718 23.6861C34.185 23.1235 34.3606 22.6734 34.8493 22.4709C35.3381 22.2683 35.8072 22.4863 36.0362 23.025C36.4281 23.9505 36.4084 24.8789 35.9098 25.7537C35.7469 26.035 35.8213 26.1349 36.0502 26.2601C36.7192 26.6137 37.4744 26.7708 38.2286 26.713C40.6585 26.5597 42.4029 23.8971 41.4914 21.6579H41.497ZM41.1557 49.4034C44.1333 49.4034 47.1105 49.4034 50.0871 49.4034C50.9818 49.4034 51.3512 48.9659 51.1798 48.1009C49.9438 41.7433 48.7037 35.3872 47.4593 29.0324C47.2865 28.1449 47.2724 28.1885 46.4128 28.135C45.896 28.1069 45.8679 28.2757 45.9424 28.7187C46.8141 33.8808 47.6751 39.0446 48.5253 44.2104C48.6109 44.7266 48.7697 45.2414 48.6461 45.7717C48.3806 46.9053 47.3244 47.3934 46.021 46.9855C41.386 45.5396 36.6865 45.2653 31.9083 46.0642C31.5571 46.1233 31.5361 46.271 31.5642 46.5523C31.6414 47.3203 31.7243 48.0883 31.7524 48.8576C31.7692 49.2796 31.883 49.4202 32.3282 49.4202C35.2637 49.3935 38.2076 49.4034 41.1501 49.4034H41.1557ZM11.7856 49.4034H20.7184C20.9515 49.4034 21.2114 49.4793 21.2338 49.0813C21.2844 48.2064 21.3645 47.3329 21.4473 46.4609C21.4698 46.219 21.3996 46.1191 21.1538 46.0797C19.9121 45.8662 18.659 45.7253 17.4009 45.6577C13.7917 45.4879 10.181 45.9574 6.73487 47.0446C5.3191 47.4863 4.11401 46.4496 4.34716 44.991C4.75869 42.3974 5.20813 39.8093 5.63792 37.2185C6.11921 34.3172 6.59815 31.4151 7.07475 28.512C7.09301 28.4051 7.21521 28.2082 7.07475 28.1913C6.66004 28.1327 6.23967 28.1261 5.82333 28.1716C5.5972 28.2025 5.64776 28.519 5.61124 28.7089C4.36027 35.1152 3.11303 41.5234 1.86955 47.9335C1.65887 49.018 1.96085 49.4006 3.07043 49.402L11.7856 49.4034ZM26.5036 51.1995C27.5725 51.1545 28.6329 51.0729 29.6189 50.5961C29.8998 50.4625 30.1147 50.3233 30.0711 49.9322C29.9602 48.9406 29.8815 47.9462 29.8127 46.9504C29.7902 46.6297 29.7172 46.5396 29.3773 46.6409C28.6046 46.8559 27.8464 47.1204 27.1076 47.4328C26.919 47.5238 26.7123 47.571 26.5029 47.571C26.2936 47.571 26.0869 47.5238 25.8983 47.4328C25.2129 47.1248 24.4937 46.9208 23.7788 46.6831C23.3701 46.5425 23.1974 46.5804 23.1735 47.0615C23.1271 47.9701 23.0555 48.8787 22.9403 49.7817C22.8827 50.2346 23.0513 50.4527 23.4347 50.6257C24.4081 51.0687 25.4488 51.1531 26.498 51.1995H26.5036Z" fill="#040404"/>
<path d="M18.0285 0.807396C18.1863 0.822518 18.3364 0.882813 18.461 0.981083C18.5855 1.07935 18.6791 1.21144 18.7307 1.36157C19.0847 2.19565 19.4414 3.02833 19.7659 3.87366C19.8573 4.09096 19.8588 4.33573 19.7701 4.55414C19.6813 4.77255 19.5095 4.9467 19.2925 5.03828C19.0756 5.12986 18.8311 5.13137 18.613 5.04248C18.3949 4.95359 18.221 4.78157 18.1296 4.56428C17.756 3.72035 17.3922 2.86939 17.072 2.00296C16.8458 1.38267 17.2855 0.803176 18.0285 0.807396Z" fill="#040404"/>
<path d="M35.0051 0.820068C35.6793 0.820068 36.1288 1.4066 35.9209 1.98891C35.5978 2.87362 35.2271 3.74287 34.838 4.60086C34.7927 4.70674 34.7263 4.80222 34.6428 4.88143C34.5593 4.96064 34.4605 5.02189 34.3524 5.06142C34.2444 5.10095 34.1295 5.11792 34.0147 5.11128C33.8999 5.10464 33.7876 5.07454 33.6849 5.02282C33.4728 4.93342 33.3048 4.76334 33.2178 4.54997C33.1309 4.33659 33.1322 4.09738 33.2213 3.88493C33.5472 3.041 33.9054 2.19708 34.2593 1.36721C34.3169 1.21315 34.4181 1.07929 34.5506 0.982079C34.6831 0.884872 34.8411 0.82856 35.0051 0.820068Z" fill="#040404"/>
<path d="M9.15613 14.7645C9.16596 15.5057 8.57746 15.9558 7.96228 15.7294C7.09568 15.4115 6.24595 15.0472 5.40323 14.6689C5.19362 14.5734 5.02932 14.4 4.94514 14.1854C4.86096 13.9708 4.86349 13.7317 4.95221 13.519C5.04092 13.3062 5.20885 13.1363 5.42044 13.0454C5.63203 12.9544 5.87066 12.9495 6.08581 13.0316C6.94819 13.3594 7.79934 13.7208 8.64627 14.0894C8.78568 14.1431 8.90734 14.2347 8.99744 14.3541C9.08753 14.4734 9.1425 14.6155 9.15613 14.7645Z" fill="#040404"/>
<path d="M47.1964 12.9626C47.6459 13.0175 47.9493 13.2088 48.0645 13.6392C48.1796 14.0696 48.0364 14.4437 47.6585 14.6238C46.7737 15.0345 45.872 15.4128 44.9576 15.749C44.7466 15.8207 44.5158 15.8057 44.3158 15.7074C44.1157 15.6091 43.9627 15.4354 43.8902 15.2244C43.7301 14.8235 43.8621 14.3228 44.268 14.1385C45.1556 13.7362 46.0672 13.3846 46.9703 13.0133C47.044 12.9896 47.1197 12.9726 47.1964 12.9626Z" fill="#040404"/>
<path d="M40.945 8.89909C40.7744 8.89328 40.6087 8.84079 40.4658 8.7473C40.323 8.65382 40.2084 8.52292 40.1346 8.36882C40.0539 8.22155 40.0213 8.05264 40.0415 7.88586C40.0616 7.71908 40.1334 7.56282 40.2469 7.43909C40.5765 7.05464 40.9358 6.69675 41.3214 6.36871C41.4734 6.2316 41.6719 6.15761 41.8764 6.16179C42.0809 6.16597 42.2763 6.24801 42.4226 6.39122C42.7555 6.67253 42.8847 7.05511 42.6627 7.42081C42.3102 7.98295 41.8353 8.45801 41.2736 8.81047C41.1697 8.85799 41.0587 8.88794 40.945 8.89909Z" fill="#040404"/>
<path d="M12.0157 8.87952C11.8059 8.86628 11.6061 8.78479 11.4468 8.64744C11.1224 8.32675 10.7867 8.01731 10.4833 7.67974C10.3363 7.51065 10.2583 7.2922 10.2651 7.06806C10.2718 6.84391 10.3628 6.63057 10.5198 6.47068C10.6768 6.31078 10.8883 6.21611 11.112 6.20557C11.3356 6.19504 11.555 6.26942 11.7263 6.41385C12.078 6.72987 12.4114 7.06564 12.725 7.41953C12.8486 7.54895 12.926 7.71563 12.9453 7.89366C12.9646 8.0717 12.9247 8.25114 12.8317 8.40411C12.7551 8.55297 12.6375 8.6768 12.493 8.76103C12.3484 8.84525 12.1828 8.88636 12.0157 8.87952Z" fill="#040404"/>
<path d="M27.3968 1.38271C27.3968 1.45303 27.3968 1.52336 27.3968 1.59228C27.38 2.28711 27.0373 2.70345 26.4853 2.69642C25.9333 2.68939 25.606 2.27446 25.5962 1.57118C25.5854 1.32733 25.5901 1.08304 25.6103 0.839781C25.6232 0.611169 25.7232 0.396231 25.8896 0.239232C26.0561 0.0822327 26.2763 -0.00487296 26.505 -0.00414588C26.9699 -0.00414588 27.3294 0.34749 27.3842 0.860879C27.3933 1.0347 27.3933 1.20888 27.3842 1.38271H27.3968Z" fill="#040404"/>
<path d="M6.10278 45.3541C6.58313 42.4496 7.05082 39.6182 7.52134 36.7882C8.10001 33.2986 8.68711 29.8104 9.25033 26.3193C9.3051 25.9803 9.42309 25.8594 9.75175 25.8003C10.3136 25.699 10.6563 25.8003 11.0566 26.2968C12.8726 28.5656 15.2589 29.4503 18.1326 28.9495C18.2288 28.9186 18.333 28.9243 18.4253 28.9656C18.5176 29.0068 18.5914 29.0808 18.6326 29.1732C20.5666 32.1621 24.2142 32.781 27.0092 30.5966C27.2129 30.4377 27.3786 30.4475 27.6188 30.4714C28.5697 30.5685 29.2382 30.8498 29.6961 31.8611C30.22 33.0187 31.4602 33.5264 32.6217 33.9372C33.7453 34.3338 34.7468 34.843 35.5867 35.7319C36.4266 36.6208 37.8424 36.7052 38.879 36.0582C39.3952 35.7357 39.7906 35.2514 40.0037 34.6806C40.2168 34.1098 40.2356 33.4845 40.0573 32.9019C39.9007 32.3646 39.6865 31.8458 39.4183 31.3547C39.2989 31.1381 39.2877 31.0101 39.5082 30.8357C40.8449 29.7931 41.7891 28.3274 42.1866 26.678C42.3678 25.9606 42.7878 25.7187 43.4058 25.8341C43.6347 25.8777 43.6867 25.993 43.7133 26.1772C44.2752 29.598 44.8407 33.0206 45.41 36.445C45.8848 39.3125 46.3613 42.18 46.8398 45.0474C46.8538 45.1304 46.8651 45.2134 46.8876 45.3611C45.7246 45.0109 44.6094 44.6846 43.4717 44.4497C39.8839 43.6919 36.1891 43.5871 32.5642 44.1402C30.9733 44.3738 29.4046 44.7398 27.8744 45.2345C27.4812 45.3653 27.3843 45.3048 27.3857 44.873C27.4039 41.4354 27.3969 37.9978 27.3955 34.5603C27.3955 33.6615 27.0991 33.2311 26.4867 33.2367C25.8744 33.2423 25.5935 33.6657 25.5935 34.5757C25.5935 38.0133 25.5935 41.4509 25.5935 44.8885C25.5935 45.2444 25.5724 45.3794 25.1468 45.2458C18.8826 43.2766 12.6203 43.2902 6.35979 45.2866C6.3008 45.3048 6.2306 45.3189 6.10278 45.3541Z" fill="#FDFDFD"/>
<path d="M41.4911 21.6579C42.4027 23.8971 40.6583 26.5597 38.2284 26.7088C37.4742 26.7665 36.719 26.6095 36.05 26.2559C35.8155 26.1307 35.741 26.0351 35.9096 25.7495C36.4082 24.8747 36.4278 23.9463 36.036 23.0208C35.807 22.4821 35.3252 22.2697 34.8491 22.4667C34.373 22.6636 34.1848 23.1165 34.3716 23.6819C34.6356 24.4794 34.4306 25.1264 33.8098 25.4499C33.1651 25.7889 32.4881 25.5906 31.9951 24.9042C31.6145 24.3767 31.1524 24.2487 30.6973 24.5455C30.2423 24.8423 30.1763 25.3416 30.4923 25.8846C30.8361 26.4707 31.362 26.928 31.9896 27.1868C32.6173 27.4456 33.3123 27.4916 33.9685 27.3178C34.1343 27.277 34.2733 27.1772 34.453 27.3249C35.8955 28.4642 37.529 28.7553 39.3043 28.3713C39.3816 28.5612 39.2285 28.6343 39.1484 28.7216C38.3453 29.6368 37.2658 30.2645 36.0739 30.5093C35.9538 30.5323 35.8352 30.5624 35.7186 30.5993C35.5007 30.6617 35.3147 30.8049 35.1986 30.9998C35.0825 31.1948 35.045 31.4267 35.0937 31.6483C35.1424 31.87 35.2736 32.0647 35.4607 32.1928C35.6478 32.3209 35.8766 32.3728 36.1006 32.3378C36.5299 32.2533 36.9524 32.1371 37.3646 31.9904C37.6175 31.9003 37.7509 31.9439 37.8478 32.1887C38.0065 32.5952 38.2046 32.989 38.338 33.4025C38.4174 33.6015 38.423 33.8223 38.354 34.025C38.285 34.2278 38.1458 34.3991 37.9616 34.5081C37.5402 34.7809 37.0809 34.7542 36.7649 34.3871C35.8239 33.2942 34.6048 32.7063 33.2733 32.2618C32.5275 32.0129 31.8182 31.6612 31.2746 31.0522C31.0457 30.7962 31.0302 30.6556 31.4291 30.6035C31.7582 30.5607 32.0827 30.4872 32.3982 30.3841C32.6196 30.3187 32.8065 30.1688 32.9187 29.9668C33.0309 29.7648 33.0593 29.5267 32.998 29.3039C32.9704 29.1918 32.9209 29.0862 32.8523 28.9935C32.7837 28.9007 32.6973 28.8225 32.5982 28.7635C32.4991 28.7045 32.3894 28.6658 32.2752 28.6496C32.1611 28.6335 32.0448 28.6402 31.9333 28.6695C30.3673 29.0985 28.8293 29.083 27.2984 28.5035C26.8475 28.3319 26.5104 28.5823 26.1902 28.9044C25.5575 29.5541 24.7153 29.9582 23.8133 30.0449C22.9112 30.1316 22.0077 29.8954 21.2631 29.3781C20.5186 28.8608 19.9812 28.096 19.7464 27.2195C19.5116 26.343 19.5946 25.4115 19.9808 24.5905C20.0552 24.433 20.1479 24.2811 20.2069 24.1179C20.2811 23.9162 20.2799 23.6945 20.2036 23.4936C20.1273 23.2927 19.9809 23.1262 19.7916 23.0249C19.6023 22.9236 19.3828 22.8943 19.1736 22.9424C18.9644 22.9905 18.7797 23.1128 18.6535 23.2867C18.4657 23.5812 18.3125 23.8965 18.197 24.2262C18.0987 24.5075 17.9709 24.5174 17.7279 24.4232C17.478 24.3383 17.2588 24.1812 17.0981 23.9717C16.9373 23.7621 16.8422 23.5095 16.8248 23.2459C16.7461 22.5693 16.3936 22.2318 15.8318 22.2852C15.3023 22.3344 15.0115 22.7339 15.0354 23.3781C15.0832 24.6665 16.0537 25.848 17.3417 26.1912C17.5268 26.2397 17.6858 26.3584 17.7851 26.5222C17.8844 26.686 17.9163 26.882 17.874 27.0689C17.8374 27.2025 17.7335 27.2095 17.638 27.2292C15.5495 27.5035 13.7798 26.886 12.4581 25.2319C11.1364 23.5778 10.9314 21.7226 11.6673 19.6915C11.8977 19.8617 12.0803 20.0108 12.2769 20.1374C12.7306 20.4272 13.2488 20.3428 13.534 19.9419C13.6042 19.8461 13.6541 19.737 13.6809 19.6212C13.7077 19.5054 13.7106 19.3854 13.6896 19.2684C13.6686 19.1514 13.624 19.04 13.5586 18.9408C13.4932 18.8416 13.4084 18.7568 13.3092 18.6915C12.7137 18.2625 12.3485 17.7252 12.378 16.9727C12.389 16.6084 12.5056 16.2551 12.7136 15.956C12.9216 15.657 13.2121 15.425 13.5495 15.2884C13.8869 15.1518 14.2568 15.1165 14.6139 15.1868C14.971 15.2571 15.3 15.4299 15.5607 15.6843C15.5733 15.697 15.586 15.7082 15.5972 15.7209C16.218 16.3524 16.6703 16.4312 17.1127 15.9839C17.527 15.5619 17.433 15.0232 16.8459 14.4367C16.3732 13.9357 15.7523 13.5999 15.0747 13.4788C14.6295 13.4085 14.6632 13.2341 14.8009 12.9261C15.2587 11.9077 16.0382 11.3507 17.1464 11.2382C17.4933 11.2045 17.6563 11.2382 17.5102 11.6771C17.2686 12.3958 17.7658 13.0217 18.4442 12.9176C18.9021 12.8459 19.1085 12.5238 19.242 12.1117C19.7715 10.4716 20.8937 9.46034 22.5623 9.08901C23.5656 8.86659 24.6155 9.02181 25.5118 9.52504C25.7379 9.64741 25.7927 9.77118 25.7295 10.023C25.6513 10.3098 25.6126 10.6061 25.6143 10.9035C25.6164 11.1241 25.7008 11.336 25.8509 11.4974C26.0011 11.6589 26.2062 11.7582 26.4259 11.7758C26.6455 11.7934 26.8637 11.7281 27.0377 11.5927C27.2116 11.4573 27.3287 11.2616 27.3658 11.0441C27.4149 10.8036 27.415 10.5518 27.4838 10.3183C27.7366 9.4744 28.547 8.94835 29.4684 9.01868C29.8899 9.05601 30.2859 9.23695 30.5903 9.53131C30.8947 9.82566 31.0892 10.2156 31.1412 10.6362C31.1548 10.8624 31.2021 11.0852 31.2816 11.2973C31.3569 11.4686 31.4887 11.6087 31.6549 11.6943C31.8211 11.7798 32.0117 11.8055 32.1946 11.7671C32.5752 11.7108 32.8701 11.4858 32.9081 11.1032C32.9432 10.7431 33.0808 10.6812 33.3997 10.7234C35.543 10.9864 37.5936 12.7474 38.1554 14.8024C38.2256 15.057 38.2172 15.2061 37.918 15.3045C37.6389 15.4052 37.3766 15.5475 37.1399 15.7265C36.9419 15.8541 36.8027 16.0552 36.7528 16.2856C36.7029 16.516 36.7463 16.7568 36.8737 16.9551C37.0011 17.1534 37.202 17.2928 37.4321 17.3428C37.6621 17.3928 37.9027 17.3492 38.1006 17.2216C38.6484 16.8869 39.2032 16.697 39.8408 16.9094C40.5698 17.1527 41.0164 17.6506 41.1443 18.4074C41.2721 19.1641 41.0038 19.7464 40.4237 20.2106C40.3684 20.2531 40.3107 20.2926 40.251 20.3287C39.6091 20.7394 39.4251 21.219 39.7243 21.7015C40.0235 22.1839 40.5544 22.2416 41.1962 21.852C41.2833 21.7971 41.3689 21.7381 41.4911 21.6579ZM26.3222 23.3106C25.7717 23.9998 25.141 24.35 24.346 24.4119C23.6016 24.4696 23.1971 24.8437 23.2491 25.3965C23.3011 25.9493 23.7365 26.2587 24.4935 26.1954C26.1396 26.0547 27.3532 25.2375 28.1116 23.7818C28.18 23.6385 28.2807 23.5132 28.4057 23.4155C28.5307 23.3179 28.6767 23.2507 28.8321 23.2192C30.8603 22.6312 32.1539 21.3034 32.6932 19.2569C32.8646 18.6085 32.6314 18.1317 32.1215 17.991C31.5766 17.8391 31.151 18.1429 30.9628 18.8209C30.1777 21.634 27.0133 22.5257 24.8756 20.527C24.3952 20.0769 23.8643 20.0333 23.4879 20.4117C23.1115 20.7901 23.1452 21.3203 23.6073 21.7971C24.3515 22.551 25.2955 23.0761 26.3279 23.3106H26.3222ZM23.4443 14.3875C21.3193 14.4254 19.4611 16.3369 19.4976 18.4453C19.506 18.9812 19.8572 19.3737 20.3488 19.399C20.8403 19.4243 21.1915 19.1008 21.2758 18.5804C21.2926 18.4763 21.2996 18.3722 21.3122 18.2667C21.4527 17.081 22.2954 16.2722 23.5033 16.1794C24.1733 16.1274 24.5329 15.7799 24.5034 15.2159C24.4795 14.6744 24.0975 14.3748 23.45 14.3875H23.4443Z" fill="#6440FB"/>
<path d="M41.15 49.4034C38.2075 49.4034 35.2636 49.3935 32.3225 49.4146C31.8773 49.4146 31.7607 49.274 31.7467 48.852C31.7186 48.0826 31.6357 47.3146 31.5585 46.5467C31.5304 46.2654 31.5585 46.1177 31.9026 46.0586C36.678 45.2597 41.3845 45.534 46.0153 46.9799C47.3187 47.3878 48.375 46.8997 48.6404 45.766C48.764 45.2358 48.6053 44.721 48.5196 44.2048C47.6656 39.0399 46.8047 33.876 45.9367 28.7131C45.8623 28.2757 45.8903 28.1012 46.4072 28.1294C47.2667 28.1772 47.2808 28.1392 47.4536 29.0268C48.698 35.3815 49.9382 41.7377 51.1742 48.0953C51.3427 48.9603 50.9761 49.3963 50.0814 49.3977C47.1057 49.4052 44.1286 49.4071 41.15 49.4034Z" fill="#FCFCFC"/>
<path d="M11.7798 49.4035H3.05765C1.94807 49.4035 1.65315 49.0195 1.85681 47.935C3.10497 41.5268 4.35217 35.1186 5.59846 28.7104C5.63498 28.5205 5.58442 28.204 5.81055 28.1731C6.22689 28.1276 6.64726 28.1342 7.06197 28.1928C7.20243 28.2097 7.08585 28.4066 7.06197 28.5135C6.58724 31.4203 6.1083 34.3225 5.62514 37.22C5.19535 39.8108 4.74591 42.3989 4.33438 44.9925C4.10264 46.4511 5.30772 47.4878 6.72209 47.0461C10.1682 45.9589 13.779 45.4894 17.3881 45.6593C18.6462 45.7268 19.8993 45.8677 21.141 46.0812C21.3868 46.1206 21.457 46.2219 21.4346 46.4624C21.3517 47.3344 21.2716 48.2079 21.2211 49.0828C21.1986 49.4808 20.9402 49.4049 20.7056 49.4049L11.7798 49.4035Z" fill="#FCFCFC"/>
<path d="M26.4979 51.1997C25.4487 51.1533 24.408 51.0689 23.429 50.6258C23.0456 50.4514 22.877 50.2334 22.9346 49.7819C23.0498 48.8789 23.1214 47.9703 23.1678 47.0616C23.1917 46.5806 23.3644 46.5468 23.7731 46.6833C24.4838 46.921 25.2071 47.1249 25.8926 47.433C26.0812 47.5239 26.2878 47.5712 26.4972 47.5712C26.7066 47.5712 26.9133 47.5239 27.1019 47.433C27.8407 47.1205 28.5988 46.856 29.3716 46.6411C29.7115 46.5398 29.7845 46.6298 29.807 46.9505C29.8758 47.9463 29.9474 48.9408 30.0654 49.9324C30.109 50.3234 29.8899 50.4627 29.6132 50.5963C28.6272 51.0731 27.5668 51.1547 26.4979 51.1997Z" fill="#FCFCFC"/>
<path d="M26.3279 23.3106C25.2975 23.0751 24.3556 22.5501 23.6129 21.7971C23.1508 21.3203 23.1073 20.7999 23.4935 20.4117C23.8798 20.0235 24.4009 20.0769 24.8812 20.527C27.0189 22.5257 30.1833 21.6396 30.9685 18.8209C31.1567 18.1429 31.5822 17.8363 32.1272 17.991C32.637 18.1317 32.8702 18.6141 32.6989 19.2569C32.1595 21.3034 30.873 22.6326 28.8378 23.2191C28.6824 23.2506 28.5364 23.3179 28.4114 23.4155C28.2864 23.5131 28.1857 23.6385 28.1173 23.7818C27.3588 25.2375 26.1509 26.0575 24.4992 26.1954C23.7422 26.2587 23.3081 25.9675 23.2548 25.3965C23.2014 24.8254 23.6073 24.4639 24.3517 24.4119C25.1467 24.35 25.7773 23.9998 26.3279 23.3106Z" fill="#040404"/>
<path d="M23.4502 14.3876C24.0977 14.3749 24.4797 14.6689 24.5092 15.2161C24.5387 15.7787 24.1791 16.1275 23.5092 16.1795C22.3083 16.2724 21.46 17.0811 21.3181 18.2668C21.3055 18.3723 21.2984 18.4764 21.2816 18.5805C21.1931 19.1009 20.8279 19.4244 20.3546 19.3991C19.8813 19.3738 19.5119 18.9772 19.5035 18.4455C19.4669 16.3371 21.3252 14.4256 23.4502 14.3876Z" fill="#040404"/>
</g>
<defs>
<clipPath id="clip0_327_285">
<rect width="53" height="53" fill="white"/>
</clipPath>
</defs>
</svg>
