<svg width="50" height="56" viewBox="0 0 50 56" fill="none" xmlns="http://www.w3.org/2000/svg">
<g clip-path="url(#clip0_327_268)">
<path d="M26.1383 56C25.0684 55.7107 23.9974 55.4237 22.9275 55.1287C19.9667 54.3127 16.9989 53.5151 14.0509 52.6634C12.8981 52.3315 11.8317 52.3903 10.8168 53.0242C10.6445 53.1294 10.4649 53.2225 10.2795 53.3031C9.66279 53.5762 9.13604 53.854 9.20728 54.7022C9.24933 55.1828 8.83121 55.4883 8.31613 55.4779C5.87973 55.4295 3.44214 55.3742 1.00574 55.2969C0.304954 55.2739 -0.0150805 54.8924 0.00477518 54.1871C0.12313 49.8682 0.245395 45.5504 0.371536 41.2338C0.397232 40.3406 0.411229 39.4474 0.440429 38.5554C0.466125 37.7913 0.808349 37.4697 1.58622 37.487C3.87702 37.5392 6.16665 37.5953 8.45511 37.6553C9.44322 37.6818 9.72705 38.001 9.68967 38.9795C9.67683 39.3426 9.68967 39.7068 9.68967 40.1159C10.6976 39.6457 11.736 39.2457 12.8432 39.0337C15.5202 38.5208 18.1213 38.7617 20.539 40.0145C22.1651 40.8813 23.9865 41.3296 25.8346 41.318C27.6252 41.3088 29.4168 41.3975 31.2073 41.4494C33.3342 41.5116 34.9963 42.4163 36.1584 44.1751C36.3523 44.4701 36.4866 44.4932 36.7891 44.3503C39.1251 43.245 41.4727 42.1397 43.8308 41.0679C44.8538 40.5997 46.0137 40.5115 47.0973 40.8196C48.1809 41.1277 49.1154 41.8113 49.7291 42.7448C50.1823 43.4363 50.09 43.8973 49.3787 44.3503C43.9628 47.8078 38.5527 51.2804 33.1181 54.7126C31.9724 55.4364 30.635 55.7072 29.2942 55.8905C29.1961 55.9043 29.0606 55.8455 29.0244 56H26.1383ZM9.40934 51.6308C9.60323 51.6561 9.77725 51.4913 9.95712 51.3864C11.4113 50.5336 12.932 50.4298 14.5403 50.8862C17.9917 51.8659 21.4512 52.8144 24.9072 53.7768C26.8613 54.3208 28.8001 54.2516 30.7471 53.7122C32.1908 53.3134 33.3226 52.3914 34.5408 51.6204C38.7945 48.9292 43.0261 46.2035 47.2775 43.5135C47.7144 43.2369 47.6525 43.1044 47.2624 42.8877C46.8417 42.6384 46.3636 42.4989 45.8732 42.4824C45.3828 42.4658 44.8962 42.5728 44.4592 42.7932C42.163 43.8674 39.8749 44.9565 37.5682 46.003C37.1267 46.2035 36.9748 46.3833 37.0647 46.8835C37.2259 47.7802 36.9561 48.4072 35.6912 48.3599C32.4057 48.2354 29.119 48.1755 25.8323 48.0879C25.5367 48.0855 25.2415 48.0662 24.9481 48.0303C24.7263 48.001 24.5232 47.892 24.3777 47.7242C24.2321 47.5564 24.1544 47.3415 24.1593 47.1207C24.1642 46.8999 24.2515 46.6886 24.4043 46.5273C24.5572 46.3659 24.7649 46.2659 24.9879 46.2462C25.1535 46.2352 25.3198 46.2352 25.4854 46.2462C28.5315 46.3268 31.5788 46.3972 34.6237 46.4974C35.1341 46.5147 35.1504 46.3683 35.0009 45.9615C34.7251 45.2132 34.231 44.5621 33.5809 44.0904C32.9307 43.6187 32.1536 43.3474 31.3475 43.3107C30.0545 43.2611 28.7628 43.2381 27.4698 43.1954C26.2703 43.1574 25.0684 43.1459 23.8713 43.0618C22.3529 42.9546 21.0237 42.2654 19.6665 41.6395C16.3962 40.1343 13.1679 40.3049 10.0202 42.0556C9.71185 42.2262 9.58339 42.4175 9.57638 42.7759C9.53784 44.7087 9.45957 46.6392 9.41636 48.5708C9.39066 49.5827 9.40934 50.6004 9.40934 51.6308ZM2.08144 46.3706H2.09664C2.0289 48.5904 1.96466 50.8102 1.89108 53.0299C1.8829 53.3054 1.8572 53.4909 2.26366 53.499C3.84977 53.514 5.43472 53.5624 7.02083 53.62C7.33852 53.6315 7.41326 53.5393 7.42144 53.2351C7.53668 48.7787 7.66321 44.3222 7.80103 39.8658C7.81038 39.5396 7.70995 39.4797 7.40861 39.4751C5.84118 39.4497 4.27375 39.414 2.70749 39.3529C2.3571 39.3379 2.28352 39.4451 2.27535 39.7701C2.22279 41.9669 2.14919 44.1682 2.08144 46.3706Z" fill="#040404"/>
<path d="M25.5765 38.8563C18.1108 38.8563 12.0536 32.8632 12.077 25.5147C12.0924 21.9878 13.5229 18.6105 16.0554 16.1216C18.5879 13.6328 22.0162 12.235 25.5905 12.2341C33.0562 12.2341 39.1157 18.2273 39.0888 25.5804C39.0761 29.1075 37.6466 32.4857 35.1136 34.9744C32.5806 37.4631 29.1509 38.8591 25.5765 38.8563ZM25.5578 37.0284C31.9536 37.0549 37.1967 31.9169 37.2189 25.5988C37.2295 23.3266 36.5567 21.1023 35.2856 19.2076C34.0145 17.3128 32.2023 15.8328 30.0784 14.9549C27.9545 14.077 25.6144 13.8406 23.3542 14.2757C21.0941 14.7108 19.0156 15.7978 17.3819 17.3991C15.7481 19.0004 14.6326 21.044 14.1765 23.2713C13.7203 25.4985 13.9441 27.8092 14.8195 29.9109C15.6948 32.0126 17.1825 33.8107 19.094 35.0777C21.0055 36.3447 23.255 37.0236 25.5578 37.0284Z" fill="#040404"/>
<path d="M26.506 5.26926C26.506 6.70684 26.506 8.14404 26.506 9.58085C26.506 10.0511 26.2993 10.3876 25.8227 10.5144C25.3777 10.6296 25.0332 10.4775 24.7833 10.096C24.688 9.91936 24.6474 9.71899 24.6665 9.51976C24.6665 6.69915 24.6665 3.87893 24.6665 1.05908C24.6665 0.394078 25.032 -0.00123781 25.5927 0.00221976C26.1533 0.00567733 26.506 0.398688 26.5095 1.0683C26.513 2.46977 26.5072 3.86779 26.506 5.26926Z" fill="white"/>
<path d="M33.4871 7.60549C33.4871 8.26013 33.4977 8.91361 33.4871 9.56479C33.4743 10.1733 33.0889 10.5663 32.5528 10.5548C32.033 10.5444 31.6581 10.1687 31.6511 9.58553C31.6355 8.24015 31.6355 6.89554 31.6511 5.5517C31.6581 4.97544 32.0377 4.59741 32.5609 4.59164C33.104 4.58473 33.4778 4.96967 33.4953 5.58512C33.4976 6.2605 33.4871 6.93242 33.4871 7.60549Z" fill="white"/>
<path d="M17.6774 7.57451C17.6774 6.91987 17.668 6.26524 17.6774 5.61522C17.6891 4.98824 18.0418 4.6056 18.5837 4.59754C19.1257 4.58947 19.5111 4.97326 19.5181 5.58871C19.5313 6.91565 19.5313 8.2422 19.5181 9.56837C19.5123 10.1792 19.1222 10.5711 18.5837 10.5618C18.0453 10.5526 17.6891 10.1619 17.6762 9.54071C17.668 8.88377 17.6774 8.2326 17.6774 7.57451Z" fill="white"/>
<path d="M9.40918 51.6307C9.40918 50.6003 9.3905 49.5826 9.40918 48.5649C9.4524 46.6333 9.526 44.7028 9.56921 42.7701C9.57622 42.4116 9.7047 42.2203 10.013 42.0497C13.1608 40.299 16.3867 40.1285 19.6594 41.6337C21.0166 42.2595 22.3457 42.9487 23.8641 43.0559C25.0613 43.14 26.2631 43.1515 27.4626 43.1896C28.7556 43.2299 30.0474 43.253 31.3403 43.3048C32.1464 43.3415 32.9235 43.6128 33.5737 44.0845C34.2238 44.5562 34.7179 45.2073 34.9938 45.9556C35.1433 46.3625 35.1269 46.5088 34.6165 46.4916C31.5716 46.3913 28.5243 46.321 25.4782 46.2403C25.3126 46.2293 25.1464 46.2293 24.9807 46.2403C24.7578 46.26 24.55 46.3601 24.3972 46.5214C24.2443 46.6827 24.1571 46.894 24.1522 47.1148C24.1472 47.3356 24.225 47.5505 24.3705 47.7183C24.516 47.8861 24.7191 47.9951 24.941 48.0244C25.2343 48.0604 25.5295 48.0796 25.8251 48.082C29.1118 48.1696 32.3985 48.2296 35.684 48.354C36.9489 48.4013 37.2188 47.7778 37.0576 46.8776C36.9676 46.3775 37.1195 46.1977 37.561 45.9971C39.8689 44.9506 42.157 43.8615 44.4521 42.7873C44.889 42.5669 45.3756 42.4599 45.866 42.4765C46.3565 42.493 46.8345 42.6325 47.2552 42.8818C47.6453 43.0985 47.7072 43.2276 47.2704 43.5077C43.019 46.2 38.7874 48.9245 34.5336 51.6145C33.3154 52.3856 32.1836 53.3076 30.74 53.7064C28.7918 54.2457 26.853 54.3149 24.9001 53.7709C21.4441 52.8085 17.9845 51.86 14.5331 50.8804C12.9248 50.4194 11.4041 50.5277 9.94997 51.3806C9.77711 51.4912 9.60307 51.656 9.40918 51.6307Z" fill="#FDFDFD"/>
<path d="M2.08131 46.3705C2.14906 44.1681 2.22266 41.9667 2.27522 39.7643C2.28339 39.4393 2.3523 39.3321 2.70736 39.3471C4.27362 39.4081 5.84105 39.4439 7.40848 39.4692C7.70982 39.4692 7.81025 39.5338 7.8009 39.8599C7.6623 44.3164 7.53577 48.7747 7.42131 53.235C7.41313 53.5392 7.33839 53.6314 7.0207 53.6199C5.43459 53.5623 3.84964 53.5139 2.26353 53.4989C1.85707 53.4989 1.88277 53.3053 1.89095 53.0298C1.96453 50.8101 2.02877 48.5903 2.09651 46.3705H2.08131Z" fill="#FDFDFD"/>
<path d="M25.5577 37.0282C23.2561 37.0234 21.0077 36.3449 19.097 35.0787C17.1863 33.8124 15.6993 32.0152 14.8241 29.9147C13.949 27.8141 13.725 25.5046 14.1806 23.2783C14.6362 21.0521 15.7508 19.0093 17.3834 17.4084C19.0161 15.8076 21.0933 14.7206 23.3522 14.2852C25.6111 13.8498 27.9502 14.0854 30.0733 14.9623C32.1965 15.8391 34.0083 17.3178 35.2794 19.2112C36.5505 21.1046 37.2239 23.3275 37.2142 25.5986C37.1966 31.9168 31.9582 37.0547 25.5577 37.0282ZM27.6904 28.4765C27.6904 29.5702 26.8226 30.4923 25.7434 30.543C24.5287 30.6006 23.585 29.803 23.4787 28.6309C23.4133 27.9071 23.0115 27.5003 22.4275 27.5683C21.8692 27.6328 21.534 28.11 21.6099 28.7831C21.7723 30.2018 22.4486 31.3186 23.7661 31.9375C24.3395 32.2061 24.649 32.4665 24.5463 33.1258C24.4867 33.5107 24.6923 33.8323 25.0683 34.0075C25.7306 34.3175 26.4057 33.8576 26.3671 33.0543C26.3414 32.5126 26.5096 32.3052 27.0341 32.1058C28.4964 31.5503 29.3466 30.4335 29.5207 28.8983C29.6865 27.4288 29.1166 26.2256 27.9276 25.3255C27.1964 24.77 26.3414 24.6109 25.4397 24.5395C24.2075 24.4415 23.4098 23.5091 23.4729 22.3347C23.5089 21.8114 23.7431 21.3205 24.1289 20.9597C24.5147 20.5989 25.0239 20.3944 25.5554 20.3869C26.6883 20.3708 27.5795 21.2144 27.6846 22.4027C27.7407 23.0331 28.16 23.44 28.6961 23.3939C29.2322 23.3478 29.6059 22.8833 29.5476 22.254C29.4074 20.7419 28.6856 19.5629 27.2665 18.9578C26.6299 18.6858 26.2842 18.4507 26.3543 17.7142C26.3998 17.2336 25.9233 16.8706 25.4479 16.8775C25.2245 16.8808 25.01 16.9646 24.845 17.1133C24.6799 17.2619 24.5758 17.465 24.5521 17.6843C24.5255 17.8466 24.5204 18.0116 24.5369 18.1752C24.5836 18.5337 24.4586 18.7031 24.0931 18.846C23.1469 19.2152 22.3819 19.9307 21.9575 20.8431C21.5331 21.7556 21.4823 22.7945 21.8155 23.7431C22.3353 25.2586 23.7357 26.2867 25.4047 26.3777C26.8016 26.4538 27.6893 27.2721 27.6904 28.4765Z" fill="#FDFDFD"/>
<path d="M27.6903 28.4765C27.6903 27.2722 26.8015 26.4539 25.4104 26.3778C23.7414 26.2867 22.341 25.2587 21.8212 23.7431C21.488 22.7946 21.5388 21.7556 21.9632 20.8432C22.3876 19.9307 23.1527 19.2152 24.0988 18.8461C24.4644 18.7031 24.5893 18.5337 24.5426 18.1753C24.5261 18.0117 24.5312 17.8466 24.5578 17.6843C24.5815 17.4651 24.6857 17.2619 24.8507 17.1133C25.0157 16.9647 25.2302 16.8808 25.4537 16.8775C25.929 16.8706 26.4056 17.2337 26.36 17.7143C26.2899 18.4507 26.6356 18.6858 27.2722 18.9578C28.6913 19.5629 29.4131 20.742 29.5532 22.2541C29.6116 22.8833 29.2496 23.342 28.7018 23.3939C28.154 23.4458 27.7464 23.0332 27.6903 22.4027C27.5852 21.2145 26.694 20.3708 25.5611 20.387C25.0296 20.3945 24.5204 20.5989 24.1346 20.9597C23.7488 21.3206 23.5146 21.8114 23.4786 22.3347C23.4155 23.5092 24.2133 24.4416 25.4455 24.5395C26.3472 24.611 27.1974 24.77 27.9333 25.3255C29.1223 26.2291 29.6922 27.4324 29.5264 28.8984C29.3524 30.4335 28.5021 31.5492 27.0398 32.1058C26.5153 32.3052 26.3471 32.5127 26.3728 33.0544C26.4114 33.8611 25.7363 34.3221 25.0741 34.0075C24.698 33.8323 24.4901 33.5108 24.552 33.1258C24.6548 32.4666 24.3452 32.2038 23.7718 31.9376C22.4543 31.3198 21.778 30.2019 21.6157 28.7831C21.5386 28.11 21.8738 27.6306 22.4333 27.5684C23.0172 27.5004 23.4144 27.9072 23.4844 28.631C23.5907 29.8031 24.5356 30.6006 25.7492 30.543C26.819 30.4923 27.6915 29.5703 27.6903 28.4765Z" fill="#040404"/>
</g>
<defs>
<clipPath id="clip0_327_268">
<rect width="50" height="56" fill="white"/>
</clipPath>
</defs>
</svg>
