<svg xmlns="http://www.w3.org/2000/svg" width="46" height="46" viewBox="0 0 46 46" fill="none">
  <g clip-path="url(#clip0_1861_501)">
    <path d="M27.7507 22.4335C28.9498 21.9876 30.0123 21.6083 31.064 21.2001C32.4537 20.6625 32.637 19.465 31.4775 18.5283C29.6617 17.0611 27.8495 15.5922 26.0176 14.1484C25.6562 13.8643 25.4926 13.5748 25.4765 13.1109C25.3956 10.8382 25.2643 8.56557 25.1762 6.2929C25.1511 5.63304 25.0486 5.05048 24.4158 4.68549C23.756 4.30432 23.2148 4.592 22.6719 4.9444C20.768 6.17783 18.857 7.40047 16.9621 8.64648C16.5361 8.92697 16.1729 9.01867 15.6426 8.86584C13.469 8.23654 11.2757 7.67916 9.08781 7.102C7.48958 6.68127 6.69496 7.48318 7.11924 9.08519C7.69633 11.2734 8.25185 13.4669 8.88107 15.6407C9.03568 16.1765 8.92781 16.5379 8.65095 16.9604C7.42306 18.8321 6.22034 20.72 5.00144 22.5972C4.6329 23.1653 4.29671 23.7209 4.70301 24.4149C5.09313 25.082 5.72596 25.1431 6.40732 25.1701C8.65095 25.2564 10.8928 25.3859 13.1364 25.4632C13.6057 25.4793 13.8897 25.6627 14.1702 26.0169C15.6174 27.8473 17.0844 29.6615 18.555 31.4739C19.4934 32.6318 20.671 32.4394 21.2139 31.037C21.6202 29.9869 22.0031 28.9297 22.413 27.8347C22.7924 27.9336 22.9649 28.2321 23.1825 28.4496C28.5668 33.8239 33.9458 39.2017 39.3212 44.5831C40.4269 45.6889 41.6655 46.3038 43.2728 45.8435C45.8202 45.1117 46.8342 42.1468 45.2377 40.0306C44.986 39.6979 44.6876 39.3995 44.3928 39.1028C39.1001 33.8077 33.8056 28.5144 28.5111 23.2211C28.2828 22.9927 28.0653 22.7572 27.7543 22.4299L27.7507 22.4335ZM8.41185 22.4138C9.47254 20.7596 10.4829 19.1522 11.5328 17.57C11.8942 17.0234 11.9643 16.4876 11.7971 15.8762C11.3728 14.3264 10.9701 12.7711 10.5476 11.2212C10.4775 10.9659 10.2869 10.6333 10.4523 10.4715C10.6609 10.2665 10.9935 10.475 11.2721 10.5524C12.6492 10.9299 14.0407 11.2626 15.4052 11.6797C16.3635 11.9728 17.1671 11.8631 18.003 11.2734C19.4269 10.2701 20.9245 9.36748 22.4328 8.39656C22.6827 10.2988 22.6449 12.095 22.724 13.8859C22.7636 14.7687 23.0962 15.3782 23.8045 15.9122C25.2463 16.9982 26.6252 18.1687 28.0922 19.3554C26.2585 20.0458 24.5434 20.72 22.8049 21.3314C22.066 21.5903 21.6184 22.0074 21.3559 22.759C20.7411 24.521 20.0507 26.2561 19.3604 28.0846C18.1846 26.6247 17.0286 25.2564 15.9536 23.8252C15.4016 23.0916 14.7616 22.7392 13.8484 22.7068C12.0685 22.6457 10.2797 22.6691 8.41365 22.4174L8.41185 22.4138ZM42.4691 43.2472C41.7806 43.2022 41.5145 42.8624 41.2215 42.5675C35.5099 36.8571 29.8091 31.1376 24.0742 25.4488C23.5312 24.9112 23.4503 24.4311 23.9268 23.9492C24.3834 23.4872 24.8652 23.4674 25.4279 24.0356C31.1359 29.7909 36.878 35.514 42.6076 41.2478C42.7963 41.4366 43.0049 41.6254 43.1289 41.8555C43.4561 42.4632 42.9276 43.2651 42.4691 43.249V43.2472Z" fill="#6440FB"/>
    <path d="M31.6321 3.39485C31.6321 2.73678 31.6572 2.07692 31.6267 1.42065C31.5871 0.555813 31.0658 0.034393 30.2046 0.018211C28.8581 -0.00516301 27.5115 -0.00696101 26.165 0.018211C25.3416 0.034393 24.8059 0.597167 24.7969 1.36491C24.7879 2.14165 25.3057 2.69363 26.1344 2.72959C26.8518 2.76016 27.5709 2.76555 28.2882 2.73319C28.7736 2.71161 28.912 2.9022 28.8958 3.35889C28.8707 4.07629 28.8689 4.79549 28.9048 5.5129C28.9444 6.30222 29.4693 6.81465 30.1921 6.83982C30.9579 6.86679 31.5692 6.34896 31.6195 5.54526C31.6662 4.82966 31.6285 4.11046 31.6303 3.39126L31.6321 3.39485Z" fill="#6440FB"/>
    <path d="M0.0125818 28.1943C0.0125818 28.8524 -0.00359726 29.5105 0.0161781 30.1685C0.041347 31.0424 0.533941 31.5979 1.38609 31.6195C2.7614 31.6555 4.13851 31.6573 5.51381 31.6195C6.32282 31.5962 6.85317 30.9866 6.84238 30.2261C6.83159 29.4673 6.30125 28.9351 5.45808 28.8992C4.74077 28.8686 4.02165 28.8722 3.30433 28.8938C2.87826 28.9063 2.72005 28.7517 2.73623 28.322C2.7632 27.6352 2.7578 26.9465 2.73803 26.2579C2.71286 25.3481 2.20229 24.8033 1.40047 24.7979C0.564503 24.7907 0.0323591 25.3643 0.0143814 26.3118C0.00179672 26.9393 0.0125818 27.5686 0.0125818 28.1961V28.1943Z" fill="#6440FB"/>
    <path d="M3.39422 0.0127573C2.73623 0.0127573 2.07645 -0.00702067 1.41846 0.0181513C0.559113 0.0505153 0.0323596 0.568339 0.0179772 1.43138C-0.00539398 2.77808 -0.00719213 4.12478 0.0179772 5.47148C0.0341573 6.28777 0.605855 6.83436 1.36452 6.84515C2.12499 6.85414 2.69488 6.31474 2.72904 5.50025C2.7596 4.78285 2.765 4.06365 2.73264 3.34625C2.71106 2.86618 2.89084 2.71695 3.35467 2.73673C4.04143 2.76729 4.73178 2.7601 5.41853 2.73673C6.30125 2.70796 6.85856 2.15058 6.84238 1.35586C6.8262 0.566541 6.2545 0.0361313 5.3682 0.0163533C4.7102 0.000171326 4.05221 0.0127573 3.39243 0.0127573H3.39422Z" fill="#6440FB"/>
  </g>
  <defs>
    <clipPath id="clip0_1861_501">
      <rect width="46" height="46" fill="white" transform="matrix(-1 0 0 1 46 0)"/>
    </clipPath>
  </defs>
</svg>