<svg width="25" height="24" viewBox="0 0 25 24" fill="none" xmlns="http://www.w3.org/2000/svg">
<path d="M13.6041 23.6659H8.71106V7.88686H13.4021V9.98686C13.4601 9.95686 13.4911 9.95086 13.5021 9.93286C13.9904 9.14143 14.6836 8.49676 15.5083 8.06705C16.3331 7.63735 17.2586 7.43861 18.1871 7.49186C19.3274 7.44281 20.4598 7.70225 21.4651 8.24286C22.0001 8.57059 22.4639 9.00243 22.829 9.51278C23.194 10.0231 23.4528 10.6016 23.5901 11.2139C23.8602 12.2089 23.9947 13.2358 23.9901 14.2669C24.0111 17.3289 24.0011 20.3919 24.0021 23.4539C24.0021 23.5009 23.9971 23.5479 23.9921 23.6179H19.0841V23.2779C19.0841 20.8779 19.1001 18.4779 19.0751 16.0839C19.0807 15.2672 19.0138 14.4517 18.8751 13.6469C18.834 13.3406 18.7289 13.0464 18.5667 12.7834C18.4044 12.5205 18.1885 12.2947 17.9331 12.1207C17.6777 11.9467 17.3885 11.8285 17.0844 11.7738C16.7803 11.719 16.4681 11.7289 16.1681 11.8029C15.5173 11.8254 14.9002 12.0977 14.445 12.5633C13.9897 13.0288 13.7311 13.6518 13.7231 14.3029C13.6529 14.8468 13.6162 15.3945 13.6131 15.9429C13.6011 18.3989 13.6081 20.8539 13.6081 23.3099L13.6041 23.6659Z" fill="white"/>
<path d="M5.60002 7.88086H0.723022V23.6609H5.60002V7.88086Z" fill="white"/>
<path d="M3.16206 5.714C2.40434 5.71268 1.67818 5.4104 1.14332 4.87367C0.60847 4.33694 0.308737 3.60973 0.310063 2.852C0.311389 2.09428 0.613665 1.36812 1.15039 0.833265C1.68712 0.298411 2.41434 -0.0013217 3.17206 4.38148e-06C3.92979 0.00119787 4.656 0.303347 5.19095 0.839982C5.7259 1.37662 6.02576 2.10378 6.02456 2.8615C6.02337 3.61923 5.72122 4.34544 5.18459 4.88039C4.64795 5.41534 3.92079 5.7152 3.16306 5.714" fill="white"/>
</svg>
