<svg width="12" height="22" viewBox="0 0 12 22" fill="none" xmlns="http://www.w3.org/2000/svg">
<path d="M4.19995 21.6663C4.09658 21.6096 4.01267 21.5231 3.95916 21.4181C3.90566 21.313 3.88502 21.1943 3.89995 21.0773C3.90595 18.364 3.90595 15.651 3.89995 12.9383V12.6523C3.81795 12.6523 3.74695 12.6413 3.67695 12.6413H1.33495C0.924949 12.6413 0.774949 12.4933 0.774949 12.0813C0.773616 11.034 0.772949 9.98732 0.772949 8.94132C0.772949 8.53432 0.929949 8.38332 1.33795 8.38332H3.90695C3.90695 8.28832 3.90695 8.21632 3.90695 8.14432C3.90695 7.31432 3.88795 6.48331 3.92395 5.65431C3.92528 4.98435 4.0661 4.32199 4.33743 3.70943C4.60877 3.09686 5.00467 2.5475 5.49995 2.09632C6.22515 1.43518 7.15531 1.04299 8.13495 0.985315C9.27295 0.917315 10.4139 0.942315 11.5529 0.934315C11.6073 0.931081 11.6618 0.93874 11.7132 0.956844C11.7645 0.974947 11.8118 1.00313 11.8521 1.03974C11.8924 1.07634 11.9251 1.12064 11.948 1.17002C11.971 1.21941 11.9839 1.27288 11.9859 1.32732C11.9953 1.39356 11.9997 1.46042 11.9989 1.52732C11.9989 2.46532 11.9989 3.40332 11.9989 4.34132C11.9989 4.80632 11.8619 4.94132 11.3989 4.94132C10.7249 4.94832 10.0489 4.94732 9.37595 4.97532C9.18917 4.96154 9.00239 5.00219 8.83823 5.09235C8.67406 5.1825 8.53955 5.3183 8.45095 5.48331C8.36004 5.67091 8.30832 5.87506 8.29895 6.08332C8.28095 6.83832 8.29195 7.59332 8.29195 8.38332H11.3249C11.7149 8.38332 11.8659 8.52932 11.8669 8.91832C11.8669 9.98498 11.8669 11.0516 11.8669 12.1183C11.8669 12.4953 11.7179 12.6393 11.3359 12.6393C10.4026 12.6393 9.47128 12.6393 8.54195 12.6393H8.28695V12.9053C8.28695 15.618 8.28695 18.331 8.28695 21.0443C8.30096 21.1639 8.28189 21.285 8.23181 21.3945C8.18174 21.504 8.10257 21.5977 8.00295 21.6653L4.19995 21.6663Z" fill="white"/>
</svg>
