<svg width="19" height="14" viewBox="0 0 19 14" fill="none" xmlns="http://www.w3.org/2000/svg">
<path d="M18.0912 8.37501C18.0262 8.40101 18.0212 8.46901 17.9962 8.51901C17.2382 10.0303 16.4822 11.5427 15.7282 13.056C15.7115 13.1067 15.678 13.1501 15.6333 13.179C15.5885 13.2079 15.5352 13.2206 15.4822 13.215C14.3822 13.208 13.2822 13.215 12.1822 13.215C11.9922 13.215 11.9922 13.215 12.0752 13.048C12.8285 11.5407 13.5818 10.033 14.3352 8.52501C14.3747 8.46761 14.4007 8.40195 14.4112 8.33301H14.2212C13.1212 8.33301 12.0302 8.33301 10.9342 8.33301C10.8092 8.33301 10.7642 8.31001 10.7642 8.17101C10.7688 5.83767 10.7688 3.50167 10.7642 1.16301C10.7642 1.02801 10.8042 1.00101 10.9312 1.00101C13.2565 1.00501 15.5815 1.00501 17.9062 1.00101H18.0892L18.0912 8.37501Z" stroke="#140342"/>
<path d="M2.227 13.211C2.266 13.128 2.294 13.069 2.327 13.011L4.584 8.487C4.663 8.329 4.663 8.329 4.484 8.329C3.384 8.329 2.284 8.329 1.184 8.329C1.045 8.333 1 8.31 1 8.165C1.00533 5.83167 1.00533 3.496 1 1.158C1 1.038 1.022 1 1.152 1C3.494 1.00467 5.83567 1.00467 8.177 1C8.31 1 8.328 1.043 8.328 1.16C8.328 3.50667 8.328 5.85367 8.328 8.201C8.32809 8.28942 8.30682 8.37656 8.266 8.455C7.496 9.98833 6.72933 11.5253 5.966 13.066C5.94892 13.114 5.91609 13.1547 5.87286 13.1816C5.82963 13.2085 5.77856 13.2199 5.728 13.214C4.571 13.209 3.415 13.214 2.228 13.214" stroke="#140342"/>
</svg>
