<svg width="51" height="47" viewBox="0 0 51 47" fill="none" xmlns="http://www.w3.org/2000/svg">
<g clip-path="url(#clip0_327_278)">
<path d="M0 13.603C0.254255 13.0497 0.25027 12.4351 0.375401 11.8532C1.70658 5.65538 6.75439 0.893919 12.9044 0.133503C17.3559 -0.411599 21.2522 0.90891 24.5895 3.96965C24.684 4.05551 24.7479 4.18769 24.9263 4.20814C25.1821 3.46001 25.5661 2.76457 26.0604 2.15447C26.9731 1.04775 28.2424 0.311786 29.6388 0.0795985C31.0353 -0.152589 32.4669 0.134319 33.6748 0.888467C33.7697 0.963929 33.8861 1.00557 34.0062 1.00705C34.1264 1.00852 34.2437 0.969754 34.3404 0.896645C36.8323 -0.561501 39.5625 -0.226264 41.6032 1.79334C41.6785 1.87929 41.7771 1.94026 41.8865 1.96842C41.9958 1.99659 42.1109 1.99067 42.2169 1.95142C44.7927 1.30956 47.3739 2.2594 48.918 4.40437C49.663 5.44405 50.0892 6.68696 50.1425 7.97517C50.1958 9.26339 49.8739 10.5388 49.2176 11.6392C49.0671 11.8982 49.0658 12.0358 49.2841 12.2661C50.3618 13.3729 50.9779 14.8645 51.0027 16.427C51.0275 17.9895 50.4592 19.5009 49.4172 20.6429C49.1923 20.8937 49.2016 21.0518 49.3507 21.3243C51.3248 24.9915 49.4199 29.3646 45.4423 30.298C45.1508 30.3662 45.043 30.4534 45.023 30.7818C44.9469 32.262 44.3444 33.6625 43.3293 34.7193C42.3141 35.7761 40.9563 36.4163 39.512 36.519C39.2151 36.5395 39.0993 36.5953 39.0687 36.9278C38.7918 40.0526 36.7098 42.2249 33.6495 42.5914C33.3193 42.631 33.1649 42.6827 33.117 43.0888C32.6684 46.4126 29.3897 47.9784 26.5663 46.2436C26.4185 46.1523 26.3426 46.0569 26.1869 46.2859C25.5865 47.1717 24.7852 47.2125 24.0211 46.4221C19.9228 42.1831 15.8263 37.9422 11.7317 33.6995C9.33953 31.2533 6.97803 28.7704 4.58058 26.3229C2.08862 23.7773 0.58706 20.7356 0.11183 17.1666C0.0985187 17.063 0.15841 16.9185 0 16.8654V13.603ZM26.3573 24.2597C26.3573 28.4234 26.3573 32.5866 26.3573 36.7493C26.3573 38.7376 26.3346 40.7258 26.3719 42.7127C26.3765 43.3833 26.6402 44.0248 27.1054 44.497C27.5706 44.9691 28.1995 45.2336 28.8546 45.2325C30.2337 45.2556 31.3212 44.2363 31.4517 42.8149C31.4783 42.5206 31.4224 42.3434 31.1123 42.2535C30.6513 42.1115 30.2185 41.8868 29.8343 41.5898C29.6614 41.4673 29.5411 41.2813 29.4985 41.0705C29.4558 40.8597 29.4941 40.6401 29.6054 40.4574C29.7097 40.2719 29.8784 40.1334 30.078 40.0695C30.2775 40.0056 30.4933 40.021 30.6823 40.1126C30.834 40.1807 30.9725 40.2748 31.1176 40.3565C31.6314 40.6438 32.1978 40.8193 32.781 40.8719C33.3642 40.9245 33.9518 40.8531 34.5068 40.6622C35.0618 40.4713 35.5723 40.1649 36.0061 39.7624C36.44 39.36 36.7879 38.87 37.028 38.3233C37.2643 37.7749 37.3875 37.1825 37.3896 36.5831C37.3918 35.9837 37.273 35.3903 37.0407 34.8401C36.8083 34.29 36.4675 33.7949 36.0394 33.3859C35.6114 32.9769 35.1055 32.6629 34.5533 32.4635C34.4184 32.4037 34.2718 32.377 34.125 32.3855C33.9783 32.394 33.8355 32.4375 33.708 32.5125C33.0757 32.856 32.3748 33.0462 31.6594 33.0685C31.0457 33.0999 30.6317 32.7728 30.5944 32.2509C30.5571 31.7289 30.9339 31.3814 31.5595 31.3324C33.4312 31.1866 34.7197 29.862 34.8475 27.9555C34.8888 27.345 35.2176 26.9702 35.7061 26.9757C36.2146 26.9757 36.5674 27.4076 36.5434 28.0236C36.5171 28.9795 36.2263 29.9081 35.7048 30.7014C35.581 30.8895 35.5424 30.974 35.7873 31.1102C37.1733 31.808 38.2347 33.037 38.7412 34.5308C38.7611 34.6194 38.8118 34.6977 38.8837 34.751C38.9557 34.8044 39.0441 34.8293 39.1326 34.821C41.2092 34.9082 43.3085 32.8682 43.3338 30.7409C43.3338 30.5011 43.2978 30.3893 43.0343 30.3321C40.8525 29.8552 39.3722 28.5265 38.5961 26.3897C38.572 26.2866 38.5177 26.1936 38.4403 26.1231C38.3629 26.0527 38.2663 26.0083 38.1635 25.9958C37.4277 25.8571 36.7338 25.544 36.1374 25.0814C35.6502 24.708 35.5371 24.2406 35.8206 23.8086C36.1042 23.3766 36.6087 23.3098 37.1265 23.6655C38.7452 24.7734 40.4385 24.5758 41.7856 23.1204C42.185 22.6884 42.6882 22.6244 43.0582 22.961C43.4283 23.2976 43.4389 23.8059 43.0582 24.2692C42.448 25.0406 41.6162 25.5959 40.6807 25.8568C40.2667 25.9699 40.2814 26.1294 40.4638 26.436C41.3836 28.0345 42.7441 28.8058 44.5545 28.6941C47.5669 28.5088 49.4346 24.9015 47.901 22.2673C47.7679 22.0275 47.6508 21.9757 47.4072 22.1038C46.9909 22.3134 46.5462 22.4577 46.088 22.5317C45.9786 22.5575 45.8652 22.5608 45.7546 22.5412C45.6439 22.5216 45.5382 22.4796 45.4436 22.4177C45.3491 22.3557 45.2675 22.2751 45.2037 22.1805C45.1399 22.0859 45.0953 21.9792 45.0723 21.8667C44.9698 21.4224 45.2214 21 45.6846 20.8487C45.8271 20.8024 45.9748 20.7779 46.1186 20.7411C48.3816 20.1646 49.7713 17.6926 49.139 15.3963C48.4961 13.0606 46.092 11.6883 43.8729 12.3792C43.628 12.4555 43.5468 12.5155 43.6958 12.788C43.994 13.3395 44.1651 13.9533 44.1964 14.5828C44.2416 15.1783 43.9381 15.6048 43.4482 15.6593C42.9158 15.7179 42.571 15.3868 42.5018 14.7395C42.3354 13.1805 41.4741 12.3111 39.9566 12.1748C39.4081 12.1244 39.0793 11.766 39.1073 11.2549C39.1339 10.7684 39.4867 10.4373 40.0098 10.4373C40.7105 10.4374 41.3989 10.6253 42.0066 10.9824C42.0833 11.0383 42.1736 11.0715 42.2676 11.0783C42.3615 11.085 42.4555 11.065 42.5391 11.0205C43.2699 10.6513 44.07 10.448 44.8847 10.4245C45.6994 10.401 46.5094 10.5578 47.2594 10.8843C47.5682 11.0124 47.6694 10.8993 47.7919 10.673C48.2116 9.93572 48.4304 9.09662 48.4255 8.24325C48.4233 7.57075 48.2827 6.90627 48.0128 6.29312C47.743 5.67996 47.35 5.13189 46.8595 4.6846C46.3689 4.23731 45.7918 3.90084 45.1658 3.69712C44.5397 3.4934 43.8787 3.42699 43.2259 3.50223C42.9038 3.53902 42.796 3.60989 42.9464 3.9642C43.2057 4.5772 43.3393 5.23813 43.3391 5.90613C43.3391 6.54526 43.0303 6.95272 42.5178 6.96498C42.0053 6.97725 41.6631 6.58205 41.6392 5.94701C41.6199 5.0047 41.2885 4.09705 40.6994 3.37277C39.6185 2.04953 38.2181 1.50443 36.5727 1.84376C34.8835 2.19126 33.8092 3.29236 33.302 4.97809C33.2195 5.25064 33.2381 5.44006 33.5816 5.52319C33.9971 5.6485 34.3731 5.88349 34.6718 6.20457C35.0406 6.57387 35.0712 7.06855 34.7503 7.43105C34.6031 7.59501 34.4009 7.69616 34.184 7.71434C33.9672 7.73253 33.7516 7.66641 33.5802 7.52916C32.5259 6.76057 32.076 6.75921 31.0404 7.51826C30.6264 7.82216 30.1405 7.77446 29.8423 7.3997C29.7063 7.22559 29.6404 7.00483 29.6583 6.78264C29.6761 6.56045 29.7762 6.35363 29.9381 6.20457C30.2883 5.83873 30.727 5.57446 31.2094 5.4387C31.3062 5.42127 31.3942 5.37033 31.4586 5.29442C31.5231 5.2185 31.5601 5.12222 31.5635 5.0217C31.6931 4.14574 32.0315 3.31594 32.5486 2.60554C32.7469 2.33299 32.6364 2.24986 32.4048 2.1422C31.4497 1.67869 30.3584 1.6032 29.3511 1.93097C27.4874 2.51968 26.3639 4.16044 26.3626 6.30678C26.3537 12.2947 26.3511 18.279 26.3546 24.2597H26.3573ZM24.6481 44.3521V43.8779C24.6481 31.8003 24.6547 19.7226 24.668 7.645C24.668 6.77147 24.4244 6.17459 23.8134 5.58179C20.6838 2.54558 16.9898 1.26595 12.738 1.90236C6.57202 2.83039 1.84368 8.41223 1.71322 14.8322C1.63202 18.7596 2.95389 22.1379 5.65085 24.937C9.95055 29.4004 14.2547 33.8566 18.5633 38.3056C20.5707 40.3647 22.634 42.3543 24.6481 44.3521Z" fill="#050505"/>
<path d="M26.3546 24.2598C26.3546 18.2782 26.3546 12.2971 26.3546 6.31639C26.3546 4.17006 27.4768 2.5293 29.3431 1.94059C30.3504 1.61282 31.4417 1.6883 32.3968 2.15182C32.6284 2.25948 32.7389 2.33852 32.5406 2.61516C32.0235 3.32555 31.6851 4.15536 31.5555 5.03132C31.5521 5.13184 31.5151 5.22812 31.4506 5.30404C31.3861 5.37995 31.2982 5.43089 31.2014 5.44832C30.719 5.58408 30.2803 5.84835 29.9301 6.21419C29.7701 6.36382 29.6717 6.57019 29.6549 6.79139C29.6381 7.0126 29.7041 7.23206 29.8396 7.40523C30.1418 7.77999 30.6277 7.82769 31.0377 7.52379C32.0733 6.76474 32.5233 6.7661 33.5775 7.53469C33.7489 7.67194 33.9645 7.73806 34.1813 7.71987C34.3982 7.70169 34.6004 7.60054 34.7477 7.43658C35.0645 7.07136 35.0379 6.57668 34.6691 6.2101C34.3704 5.88902 33.9944 5.65403 33.5789 5.52872C33.2354 5.43878 33.2168 5.25617 33.2993 4.98362C33.8065 3.30198 34.8808 2.20088 36.57 1.84929C38.218 1.50996 39.6184 2.05506 40.6967 3.3783C41.2858 4.10258 41.6172 5.01023 41.6365 5.95254C41.6604 6.58758 42.0105 6.98414 42.5151 6.97052C43.0196 6.95689 43.3417 6.55079 43.3364 5.91166C43.3391 5.24773 43.2096 4.5902 42.9557 3.97927C42.8053 3.62496 42.9131 3.55409 43.2352 3.5173C43.888 3.44206 44.549 3.50847 45.175 3.71219C45.8011 3.91591 46.3782 4.25238 46.8687 4.69967C47.3593 5.14696 47.7523 5.69503 48.0221 6.30819C48.2919 6.92134 48.4326 7.58582 48.4348 8.25832C48.4404 9.10666 48.2249 9.94118 47.8105 10.6758C47.6774 10.9021 47.5815 11.0152 47.278 10.8871C46.528 10.5606 45.718 10.4038 44.9033 10.4273C44.0886 10.4508 43.2885 10.6542 42.5577 11.0233C42.4741 11.0678 42.3801 11.0878 42.2862 11.0811C42.1922 11.0743 42.1019 11.0412 42.0252 10.9852C41.4175 10.6281 40.7291 10.4402 40.0284 10.4401C39.5053 10.4401 39.1525 10.7685 39.1259 11.2577C39.0979 11.7715 39.4267 12.1272 39.9752 12.1776C41.4887 12.3139 42.35 13.1792 42.5177 14.7273C42.5869 15.3733 42.9291 15.7058 43.4642 15.6472C43.9541 15.5927 44.2629 15.1661 44.2123 14.5706C44.1811 13.9411 44.0099 13.3273 43.7118 12.7758C43.5627 12.5128 43.6439 12.4501 43.8888 12.367C46.1079 11.6761 48.512 13.0484 49.155 15.3842C49.7873 17.6804 48.3909 20.1538 46.1345 20.7289C45.9908 20.7657 45.843 20.7902 45.7006 20.8365C45.2373 20.9878 44.9857 21.4103 45.0882 21.8545C45.1112 21.967 45.1559 22.0737 45.2197 22.1683C45.2834 22.2629 45.365 22.3435 45.4596 22.4055C45.5542 22.4674 45.6599 22.5094 45.7705 22.529C45.8812 22.5486 45.9945 22.5454 46.1039 22.5195C46.5621 22.4455 47.0068 22.3012 47.4231 22.0916C47.6667 21.9635 47.7785 22.0153 47.917 22.2552C49.4505 24.8894 47.5829 28.4966 44.5704 28.6819C42.76 28.7936 41.3995 28.0223 40.4797 26.4238C40.304 26.1186 40.2827 25.9578 40.6967 25.8447C41.6322 25.5838 42.4639 25.0284 43.0742 24.257C43.4549 23.7937 43.4509 23.2908 43.0742 22.9488C42.6974 22.6067 42.2009 22.6762 41.8015 23.1082C40.4557 24.5596 38.7625 24.7572 37.1424 23.6533C36.6246 23.2977 36.1281 23.3522 35.8366 23.7964C35.545 24.2407 35.6662 24.6958 36.1534 25.0692C36.7497 25.5318 37.4436 25.8449 38.1794 25.9837C38.2822 25.9961 38.3789 26.0405 38.4562 26.1109C38.5336 26.1814 38.588 26.2744 38.6121 26.3775C39.3881 28.5143 40.8751 29.843 43.0502 30.3199C43.3164 30.3772 43.3524 30.4889 43.3497 30.7288C43.3244 32.856 41.2198 34.8961 39.1485 34.8088C39.06 34.8171 38.9716 34.7922 38.8997 34.7389C38.8277 34.6855 38.7771 34.6072 38.7572 34.5186C38.2506 33.0249 37.1893 31.7958 35.8033 31.0981C35.5583 30.9713 35.5969 30.88 35.7207 30.6892C36.2422 29.8959 36.533 28.9673 36.5594 28.0114C36.5833 27.3955 36.2306 26.9703 35.7221 26.9635C35.2335 26.9635 34.9047 27.3328 34.8635 27.9433C34.7303 29.8511 33.4471 31.1744 31.5755 31.3202C30.9498 31.3693 30.5758 31.729 30.6104 32.2387C30.645 32.7484 31.059 33.089 31.6753 33.0563C32.3908 33.034 33.0917 32.8438 33.724 32.5003C33.8514 32.4253 33.9942 32.3818 34.141 32.3733C34.2877 32.3648 34.4344 32.3915 34.5693 32.4513C35.1214 32.6507 35.6274 32.9647 36.0554 33.3737C36.4834 33.7827 36.8243 34.2778 37.0566 34.828C37.289 35.3781 37.4078 35.9715 37.4056 36.5709C37.4034 37.1703 37.2803 37.7627 37.0439 38.3111C36.8039 38.8582 36.4559 39.3485 36.0218 39.7512C35.5878 40.154 35.077 40.4604 34.5217 40.6514C33.9664 40.8423 33.3784 40.9136 32.7949 40.8608C32.2114 40.808 31.6448 40.6321 31.1308 40.3443C30.9857 40.2626 30.8473 40.1686 30.6956 40.1004C30.5066 40.0088 30.2908 39.9935 30.0913 40.0574C29.8917 40.1212 29.723 40.2597 29.6186 40.4452C29.5074 40.6279 29.4691 40.8475 29.5118 41.0583C29.5544 41.2692 29.6746 41.4551 29.8476 41.5776C30.2318 41.8746 30.6645 42.0993 31.1255 42.2413C31.4357 42.3312 31.4916 42.5138 31.465 42.8027C31.3318 44.2241 30.2469 45.2434 28.8678 45.2203C28.2128 45.2214 27.5839 44.9569 27.1187 44.4848C26.6535 44.0126 26.3898 43.3712 26.3852 42.7005C26.3479 40.7136 26.3706 38.7254 26.3706 36.7371C26.3581 32.5826 26.3528 28.4234 26.3546 24.2598ZM28.8958 19.8267C28.8878 20.4659 29.2033 20.8611 29.7291 20.872C30.2549 20.8829 30.5558 20.5394 30.597 19.918C30.7594 17.4882 32.3728 15.8298 34.7357 15.6635C35.376 15.6185 35.7128 15.2928 35.6848 14.7437C35.6595 14.2245 35.2854 13.9165 34.6851 13.926C31.634 13.9464 28.9357 16.6978 28.8958 19.8267Z" fill="#6440FB"/>
<path d="M24.648 44.3523C22.6339 42.3545 20.5706 40.3648 18.5685 38.3098C14.2448 33.8709 9.94071 29.4147 5.6561 24.9412C2.95914 22.1421 1.63729 18.7638 1.71849 14.8364C1.85161 8.41646 6.57728 2.83463 12.7433 1.90659C16.9951 1.2661 20.6891 2.54572 23.8187 5.58602C24.4297 6.17882 24.6759 6.77571 24.6733 7.64923C24.644 19.726 24.6374 31.8036 24.6533 43.8821L24.648 44.3523ZM14.2369 3.49011C9.77211 3.62638 5.63747 6.76072 4.08133 11.2169C3.68843 12.3363 3.46052 13.5093 3.4051 14.6974C3.38114 15.2275 3.71259 15.6104 4.1745 15.6513C4.68301 15.6949 5.03577 15.3788 5.10633 14.816C5.13162 14.5965 5.15292 14.3758 5.17289 14.1564C5.5576 9.92367 8.73778 6.28648 12.7965 5.43476C13.4121 5.31018 14.0369 5.23997 14.6642 5.22489C15.2193 5.20854 15.5574 4.84469 15.5507 4.33638C15.5441 3.82807 15.198 3.50374 14.6322 3.49147C14.5018 3.48738 14.37 3.49011 14.2369 3.49011ZM5.78922 19.1113C5.68406 18.6698 5.58157 18.1656 5.32066 17.7377C5.11033 17.3902 4.75357 17.2853 4.36354 17.4365C3.9735 17.5878 3.74054 17.9217 3.81243 18.3468C3.88929 18.7614 4.01815 19.164 4.19581 19.5447C4.26752 19.72 4.39951 19.8623 4.56682 19.9447C4.73413 20.0271 4.92514 20.0438 5.10368 19.9917C5.51634 19.8949 5.74529 19.6074 5.78922 19.1113Z" fill="#FDFDFD"/>
<path d="M28.8958 19.8267C28.9357 16.6924 31.634 13.9437 34.6851 13.9192C35.2854 13.9192 35.6595 14.2217 35.6848 14.7368C35.7127 15.2819 35.3759 15.6117 34.7356 15.6567C32.3688 15.827 30.7594 17.4896 30.597 19.9153C30.5557 20.5394 30.2443 20.8815 29.7291 20.8692C29.2139 20.857 28.8878 20.4659 28.8958 19.8267Z" fill="#050505"/>
<path d="M14.237 3.48999C14.3701 3.48999 14.5032 3.48999 14.6363 3.48999C15.2021 3.50226 15.5468 3.81978 15.5548 4.3349C15.5628 4.85002 15.2234 5.20706 14.6683 5.22341C14.0384 5.23712 13.4108 5.30643 12.7926 5.43055C8.73387 6.285 5.5537 9.92764 5.16899 14.1522C5.14902 14.3716 5.12773 14.5923 5.10243 14.8117C5.03721 15.3732 4.68444 15.6907 4.17061 15.6471C3.70869 15.6076 3.3719 15.2247 3.40119 14.6932C3.45868 13.5077 3.68793 12.3374 4.08142 11.2209C5.63756 6.76469 9.7722 3.61945 14.237 3.48999Z" fill="#050505"/>
<path d="M5.78929 19.1114C5.74803 19.6074 5.52307 19.895 5.10375 19.9917C4.92521 20.0438 4.7342 20.0271 4.56689 19.9447C4.39959 19.8623 4.26759 19.72 4.19588 19.5447C4.01822 19.164 3.88936 18.7614 3.8125 18.3469C3.74062 17.9217 3.95627 17.5946 4.36361 17.4366C4.77095 17.2785 5.11041 17.3902 5.32073 17.7377C5.58164 18.1711 5.68413 18.6698 5.78929 19.1114Z" fill="#050505"/>
</g>
<defs>
<clipPath id="clip0_327_278">
<rect width="51" height="47" fill="white"/>
</clipPath>
</defs>
</svg>
