<svg width="46" height="46" viewBox="0 0 46 46" fill="none" xmlns="http://www.w3.org/2000/svg">
<path d="M27.9046 40.782C28.3062 40.5618 29.3621 39.8622 30.7029 37.5174L30.7936 37.2712H25.0481L25.1582 40.3804C25.1776 41.2937 26.933 41.3132 27.9046 40.782Z" fill="white"/>
<path d="M32.1022 37.271H32.0633C28.7793 42.9452 24.8345 44.0853 24.4329 44.2472C23.3123 44.7071 21.4598 44.2925 20.527 42.589C20.2614 42.1032 20.3262 41.8376 20.2938 41.2935L20.3392 37.2645H11.1477L17.243 43.3533C18.7392 44.8496 20.7278 45.6722 22.8459 45.6722C24.9641 45.6722 26.9526 44.8496 28.4489 43.3533L32.8017 39.0005L33.1839 38.6183L33.3134 38.4888L35.0559 36.7334C34.149 37.0961 33.1709 37.271 32.1022 37.271Z" fill="white"/>
<path d="M20.3197 26.2076H13.9653C11.5687 26.2076 9.58658 25.3072 8.01257 23.513C6.51629 21.8289 5.7649 19.769 5.7649 17.34C5.7649 15.5781 6.1665 13.9976 6.9697 12.592L2.31892 17.2428C0.822634 18.7391 0 20.7277 0 22.8458C0 24.9575 0.822634 26.946 2.31892 28.4423L4.41112 30.5345H20.2679L20.3197 26.2076Z" fill="white"/>
<path d="M13.9134 19.4711H20.4038L20.4556 15.1506H13.9134C12.9742 15.1506 12.5078 15.8826 12.5078 17.34C12.5078 18.7586 12.9742 19.4711 13.9134 19.4711Z" fill="white"/>
<path d="M32.1021 26.2075H24.5818L24.7372 30.5344H32.1021C32.2511 30.5344 32.3871 30.5085 32.5102 30.4697L33.4818 27.924C33.3976 26.784 32.9377 26.2075 32.1021 26.2075Z" fill="white"/>
<path d="M43.3727 17.2363L41.2804 15.144H24.1865L24.342 19.4645H32.089C34.4921 19.4645 36.4807 20.3649 38.0547 22.1526C39.5186 23.8691 40.2505 25.9419 40.2505 28.371C40.2505 29.8284 39.985 31.1498 39.4603 32.3546L43.3727 28.4422C46.4559 25.3525 46.4559 20.326 43.3727 17.2363Z" fill="white"/>
<path d="M28.4488 2.31893C26.9525 0.822644 24.964 0 22.8458 0C20.7277 0 18.7392 0.822644 17.2429 2.31893L10.2991 9.26273C11.3808 8.69272 12.605 8.4077 13.9653 8.4077H34.5376L28.4488 2.31893ZM22.3536 7.39074C20.6176 7.39074 19.212 5.98514 19.212 4.24919C19.212 2.51324 20.6176 1.10765 22.3536 1.10765C24.0895 1.10765 25.4951 2.51324 25.4951 4.24919C25.4951 5.98514 24.0895 7.39074 22.3536 7.39074Z" fill="white"/>
</svg>
