<svg width="46" height="46" viewBox="0 0 46 46" fill="none" xmlns="http://www.w3.org/2000/svg">
<path d="M28.0972 41.0628C28.5015 40.841 29.5646 40.1367 30.9147 37.7757L31.006 37.5278H25.2209L25.3318 40.6584C25.3514 41.578 27.1189 41.5976 28.0972 41.0628Z" fill="#FF4C01"/>
<path d="M32.3234 37.5276H32.2843C28.9776 43.241 25.0057 44.3888 24.6013 44.5519C23.473 45.015 21.6077 44.5975 20.6685 42.8822C20.4011 42.3931 20.4664 42.1257 20.4337 41.5778L20.4794 37.5211H11.2246L17.3619 43.6519C18.8685 45.1585 20.8707 45.9867 23.0034 45.9867C25.1361 45.9867 27.1384 45.1585 28.645 43.6519L33.0278 39.269L33.4126 38.8842L33.5431 38.7538L35.2975 36.9863C34.3844 37.3516 33.3996 37.5276 32.3234 37.5276Z" fill="#FF4C01"/>
<path d="M20.4597 26.3881H14.0615C11.6484 26.3881 9.65263 25.4815 8.06777 23.6749C6.56118 21.9792 5.80462 19.9052 5.80462 17.4594C5.80462 15.6854 6.20899 14.094 7.01772 12.6787L2.33489 17.3615C0.828301 18.8681 0 20.8704 0 23.0031C0 25.1293 0.828301 27.1316 2.33489 28.6382L4.44151 30.7448H20.4075L20.4597 26.3881Z" fill="#1C75BC"/>
<path d="M14.0095 19.6051H20.5446L20.5968 15.2549H14.0095C13.0638 15.2549 12.5942 15.9919 12.5942 17.4593C12.5942 18.8877 13.0638 19.6051 14.0095 19.6051Z" fill="#1C75BC"/>
<path d="M32.3231 26.3882H24.751L24.9075 30.7449H32.3231C32.4731 30.7449 32.61 30.7188 32.734 30.6797L33.7123 28.1165C33.6275 26.9686 33.1644 26.3882 32.3231 26.3882Z" fill="#1C75BC"/>
<path d="M43.6718 17.3547L41.5652 15.248H24.3535L24.51 19.5983H32.3104C34.7301 19.5983 36.7324 20.5048 38.3172 22.3049C39.7912 24.0333 40.5282 26.1203 40.5282 28.5661C40.5282 30.0335 40.2608 31.364 39.7325 32.5771L43.6718 28.6378C46.7763 25.5268 46.7763 20.4657 43.6718 17.3547Z" fill="#1C75BC"/>
<path d="M28.6449 2.3349C27.1383 0.828311 25.136 0 23.0033 0C20.8706 0 18.8683 0.828311 17.3618 2.3349L10.3701 9.32654C11.4593 8.7526 12.692 8.46563 14.0616 8.46563H34.7756L28.6449 2.3349ZM22.5077 7.44166C20.7597 7.44166 19.3445 6.02637 19.3445 4.27846C19.3445 2.53055 20.7597 1.11528 22.5077 1.11528C24.2556 1.11528 25.6708 2.53055 25.6708 4.27846C25.6708 6.02637 24.2556 7.44166 22.5077 7.44166Z" fill="#FF4C01"/>
</svg>
