<svg width="354" height="80" viewBox="0 0 354 80" fill="none" xmlns="http://www.w3.org/2000/svg">
<path d="M0.0413278 1.62862L7.84967 8.75586C17.3837 17.4569 26.9215 26.1579 36.4631 34.8588C36.8732 35.2334 36.896 35.4263 36.5486 35.8633C28.1005 46.5125 19.6599 57.1788 11.227 67.8621C11.5972 68.004 11.7282 67.6975 11.9048 67.5273C17.266 62.3521 22.6215 57.1731 27.9714 51.9904L40.5467 39.8241C41.1846 39.1999 41.1846 39.2056 41.868 39.8241L56.3684 53.0572C56.9004 53.5908 57.5331 54.0142 58.23 54.3032C58.9269 54.5922 59.6743 54.7409 60.4292 54.7409C61.1841 54.7409 61.9315 54.5922 62.6284 54.3032C63.3253 54.0142 63.958 53.5908 64.49 53.0572C69.3576 48.6121 74.2196 44.167 79.0758 39.722C79.503 39.3304 79.7251 39.2566 80.1864 39.722C89.7394 48.9828 99.3 58.2343 108.868 67.4763C109.039 67.6408 109.17 67.8905 109.495 67.9302C109.495 67.5954 109.267 67.4479 109.119 67.2606C100.838 56.7778 92.5529 46.3007 84.2643 35.8292C84.0137 35.5114 83.8713 35.3355 84.2643 34.9667C96.2511 24.045 108.228 13.1083 120.196 2.15635C120.356 2.00881 120.521 1.87261 120.686 1.72507C120.88 1.88964 120.783 2.0996 120.783 2.29253C120.783 27.9453 120.783 53.6001 120.783 79.2567C120.783 79.8241 120.663 80 120.054 80C80.2775 80 40.503 80 0.73047 80C0.160934 80 0.00146484 79.8468 0.00146484 79.2623C0.00146484 53.6057 0.00146484 27.951 0.00146484 2.29821L0.0413278 1.62862Z" fill="white"/>
<path d="M1.88672 0H118.921C118.693 0.209959 118.533 0.368855 118.351 0.505044L62.3657 46.0604C60.9988 47.1953 59.8313 47.1953 58.453 46.0604L2.41639 0.470998C2.2797 0.340483 2.14301 0.215633 1.88672 0Z" fill="#6440FB"/>
<path d="M60.4229 68.4239C76.1911 68.4239 88.9737 55.6879 88.9737 39.9773C88.9737 24.2667 76.1911 11.5307 60.4229 11.5307C44.6547 11.5307 31.8721 24.2667 31.8721 39.9773C31.8721 55.6879 44.6547 68.4239 60.4229 68.4239Z" fill="#140342"/>
<path d="M63.0318 39.4892C61.2093 42.7408 59.495 45.788 57.7864 48.8466C57.2458 49.9009 56.5553 50.8718 55.736 51.7293C52.8884 54.5268 48.5371 53.5111 46.9196 49.6297C45.7806 46.8662 46.0312 44.0232 46.6406 41.1803C46.7317 40.7604 46.8399 40.3404 47.0051 39.6595C44.8209 41.1263 42.4184 42.2408 39.8859 42.9621C36.3034 43.896 32.5688 44.1006 28.9052 43.5636C25.6598 43.1238 22.3737 43.0667 19.1149 43.3933C15.1966 43.78 11.4741 45.2876 8.39624 47.7344C8.01465 48.0181 7.62168 48.6991 7.05214 48.3018C6.58512 47.967 6.73319 47.2918 6.80723 46.7584C6.92129 46.0487 7.18931 45.3724 7.5926 44.7765C7.99589 44.1806 8.52476 43.6796 9.14233 43.3082C11.9501 41.3789 15.168 40.8852 18.4656 40.7887C22.1619 40.6866 25.7443 41.5661 29.3267 42.3095C32.3095 42.9862 35.4035 43.0156 38.3987 42.3958C41.394 41.776 44.2204 40.5216 46.6861 38.7175C47.3401 38.2828 47.8809 37.6993 48.2637 37.0151C48.6887 36.2343 49.2028 35.505 49.7958 34.8418C50.6444 33.8998 51.6696 33.1394 53.0478 33.6104C53.7126 33.83 54.2998 34.2359 54.7392 34.7793C55.1785 35.3227 55.4515 35.9807 55.5253 36.6747C55.7119 37.8637 55.52 39.081 54.9766 40.1558C54.4331 41.2306 53.5654 42.1088 52.4954 42.667C49.978 44.0857 50.1489 45.9583 50.6045 48.1373C50.8266 49.1984 51.1741 50.2425 51.3278 51.3094C51.4816 52.3762 52.0967 52.4443 52.9225 52.24C54.0125 51.8766 54.9555 51.172 55.6107 50.2312C56.9422 48.5125 58.0966 46.6646 59.0564 44.7155C59.5462 43.8019 59.9734 42.8486 60.5315 41.9804C61.264 40.9513 61.748 39.7675 61.9455 38.5213C62.1431 37.2751 62.049 36.0004 61.6706 34.7964C60.6113 31.1136 61.8244 28.2196 64.3702 26.7158C65.2562 26.1636 66.2537 25.8131 67.2914 25.6895C68.3291 25.5659 69.3814 25.6722 70.3731 26.0008C71.5122 26.3583 71.683 26.6988 71.5122 27.8337C70.3731 26.0746 68.6645 25.927 67.1837 27.4705C66.3051 28.4293 65.8353 29.691 65.8738 30.9888C65.8168 33.6274 66.6882 36.0448 67.776 38.3657C68.6303 40.1929 69.7124 41.918 70.6237 43.7338C70.9483 44.4034 71.2274 44.375 71.7172 44.0062C72.731 43.2288 73.7675 42.4741 74.7699 41.6796C75.4456 41.0963 76.2588 40.6934 77.1334 40.5087C78.0081 40.3241 78.9154 40.3638 79.7704 40.6241C85.3743 42.1643 91.2214 42.6265 96.9989 41.9861C100.667 41.5888 103.793 39.9943 106.789 38.0139C107.188 37.7472 107.587 37.0606 108.145 37.4975C108.6 37.8493 108.441 38.5075 108.361 39.041C108.219 39.85 107.887 40.6141 107.392 41.2708C106.897 41.9276 106.254 42.4586 105.513 42.8202C102.402 44.5409 98.8181 45.2193 95.2903 44.7552C90.0758 44.2094 84.9262 43.1642 79.9128 41.6342C79.1189 41.3502 78.2632 41.2825 77.4342 41.4381C76.6052 41.5937 75.8329 41.967 75.1971 42.5195C74.2232 43.3026 73.1524 43.9665 72.1614 44.7326C71.8425 44.9822 71.2844 45.1525 71.8881 45.8675C72.9417 47.0989 72.9075 48.5912 72.3494 50.0609C70.7661 54.1977 65.6858 57.0804 61.2947 56.3541C58.8001 55.9398 58.2078 54.5268 59.7399 52.5124C61.4485 50.2993 63.7722 48.8693 66.1016 47.479C67.1495 46.8492 67.1438 46.3441 66.5743 45.4192C65.3783 43.5352 64.2791 41.6058 63.0318 39.4892ZM67.2805 49.1701C67.2463 48.6026 67.4343 47.8422 66.9673 47.5698C66.5003 47.2975 65.9934 47.9387 65.5434 48.2281C64.0448 49.138 62.6355 50.1868 61.3346 51.3604C60.7527 51.8504 60.2844 52.4602 59.962 53.1479C59.8543 53.3338 59.7974 53.5446 59.7972 53.7593C59.7969 53.9739 59.8532 54.1849 59.9605 54.371C60.0677 54.5572 60.2222 54.712 60.4083 54.82C60.5945 54.928 60.8059 54.9854 61.0213 54.9865C61.8183 55.0254 62.6151 54.9046 63.3644 54.6313C64.1138 54.3581 64.8005 53.9379 65.3841 53.3957C65.9676 52.8534 66.4361 52.2 66.7619 51.4742C67.0876 50.7484 67.264 49.965 67.2805 49.1701ZM50.7127 43.0075C53.5262 42.3322 55.1665 38.9332 54.1299 36.0391C53.9534 35.5511 53.7825 34.9496 53.156 34.9666C52.6378 34.9666 52.41 35.5341 52.2448 35.954C51.3944 38.219 50.8784 40.5949 50.7127 43.0075Z" fill="#E35C2E"/>
<path d="M139.22 33.3935V6.77977H156.392V12.7097H147.16V17.3515H156.392V23.026H147.16V27.4749H156.392V33.3935H139.22Z" fill="white"/>
<path d="M160.851 33.3935V6.77977H170.938L176.633 24.1553L182.283 6.77977H192.124V33.3935H184.492V16.489L179.589 33.3935H173.711L168.483 16.4379V33.3935H160.851Z" fill="white"/>
<path d="M213.197 33.3935L212.36 30.3122H203.737L202.9 33.3935H194.659L203.771 6.77977H212.354L221.438 33.3935H213.197ZM205.263 24.5752H210.834L208.048 14.2305L205.263 24.5752Z" fill="white"/>
<path d="M223.996 33.3935V6.77977H231.929V33.3935H223.996Z" fill="white"/>
<path d="M236.662 33.3935V6.77977H244.596V26.584H253.68V33.3935H236.662Z" fill="white"/>
<path d="M266.688 34.205C263.202 34.205 260.461 33.3614 258.464 31.6741C256.466 29.9869 255.468 27.6509 255.468 24.6661H263.407C263.352 25.645 263.671 26.6083 264.301 27.3615C264.621 27.6966 265.011 27.9585 265.443 28.129C265.874 28.2995 266.338 28.3745 266.802 28.3489C268.586 28.3489 269.476 27.6149 269.473 26.1471C269.485 25.8771 269.441 25.6074 269.343 25.3554C269.245 25.1033 269.095 24.8743 268.903 24.6831C268.329 24.2041 267.671 23.8365 266.961 23.5992L261.659 21.6586C257.862 20.2399 255.963 17.7318 255.963 14.1341C255.926 12.9895 256.16 11.8523 256.647 10.815C257.134 9.77766 257.86 8.8695 258.765 8.16443C260.633 6.67391 263.183 5.92679 266.414 5.923C269.645 5.91922 272.246 6.67583 274.217 8.19283C275.17 8.9245 275.932 9.87323 276.441 10.9594C276.949 12.0455 277.188 13.2374 277.139 14.4348H269.165C269.219 13.6013 268.955 12.7783 268.425 12.131C267.904 11.6584 267.24 11.3736 266.538 11.3221C265.835 11.2707 265.136 11.4556 264.552 11.8472C264.348 12.0272 264.185 12.2482 264.073 12.4957C263.961 12.7432 263.903 13.0115 263.903 13.2829C263.903 13.5543 263.961 13.8226 264.073 14.0701C264.185 14.3176 264.348 14.5386 264.552 14.7186C265.236 15.2462 266.007 15.6513 266.83 15.9159L271.711 17.7771C275.508 19.245 277.406 21.8042 277.406 25.4548C277.457 26.6714 277.221 27.8829 276.718 28.9924C276.214 30.1019 275.457 31.0786 274.507 31.8444C272.579 33.4144 269.972 34.2012 266.688 34.205Z" fill="white"/>
<path d="M150.44 75.6663C146.955 75.6663 144.215 74.8227 142.222 73.1354C140.228 71.4482 139.228 69.1103 139.22 66.1217H147.154C147.1 67.1031 147.421 68.0684 148.054 68.8228C148.372 69.1584 148.761 69.4206 149.191 69.5912C149.622 69.7617 150.085 69.8365 150.548 69.8101C152.329 69.8101 153.219 69.0743 153.219 67.6027C153.232 67.3335 153.188 67.0645 153.09 66.8133C152.992 66.562 152.842 66.3342 152.65 66.1444C152.075 65.6634 151.414 65.2956 150.702 65.0605L145.4 63.1198C141.603 61.7012 139.704 59.193 139.704 55.5954C139.666 54.4501 139.901 53.3121 140.389 52.2746C140.877 51.237 141.604 50.3293 142.512 49.6257C144.38 48.1125 146.93 47.3653 150.161 47.3843C153.392 47.4032 155.993 48.1598 157.964 49.6541C158.915 50.3864 159.677 51.3354 160.184 52.4215C160.692 53.5076 160.93 54.6991 160.88 55.8961H152.918C152.969 55.0637 152.702 54.2426 152.171 53.5979C151.899 53.3171 151.568 53.0986 151.202 52.9576C150.836 52.8165 150.444 52.7562 150.053 52.7808C149.423 52.7462 148.802 52.9352 148.299 53.3142C148.094 53.4931 147.93 53.7135 147.818 53.9606C147.706 54.2077 147.647 54.4758 147.647 54.747C147.647 55.0183 147.706 55.2864 147.818 55.5334C147.93 55.7805 148.094 56.0009 148.299 56.1798C148.98 56.7116 149.752 57.1172 150.577 57.3772L155.463 59.2441C159.26 60.7157 161.159 63.275 161.159 66.9218C161.208 68.1373 160.971 69.3474 160.468 70.4557C159.964 71.564 159.208 72.5399 158.26 73.3057C156.323 74.8794 153.717 75.6663 150.44 75.6663Z" fill="#E35C2E"/>
<path d="M164.246 74.8264V48.2184H172.185V74.8264H164.246Z" fill="#E35C2E"/>
<path d="M205.908 60.1917V65.5542H203.812C203.231 68.5461 201.552 71.2148 199.102 73.0389C196.691 74.7867 193.568 75.6625 189.733 75.6663C185.431 75.6663 181.94 74.3422 179.259 71.6941C176.578 69.0459 175.236 65.6753 175.232 61.582C175.263 57.4207 176.618 54.0159 179.299 51.3678C181.98 48.7197 185.587 47.3956 190.12 47.3956C194.008 47.3956 197.194 48.2562 199.677 49.9775C202.16 51.6988 203.502 53.9422 203.704 56.7076H195.075C194.965 56.258 194.765 55.8355 194.486 55.4657C194.207 55.0959 193.855 54.7867 193.452 54.5569C192.452 53.9803 191.309 53.697 190.154 53.7398C188.039 53.7398 186.405 54.4302 185.251 55.811C184.096 57.1918 183.517 59.036 183.513 61.3437C183.423 63.3309 184.061 65.2831 185.308 66.8367C185.888 67.5271 186.62 68.0761 187.446 68.442C188.272 68.8078 189.171 68.9808 190.075 68.9476C193.025 68.9476 194.881 67.8127 195.645 65.5429H191.259V60.1804L205.908 60.1917Z" fill="#E35C2E"/>
<path d="M208.658 74.8264V48.2184H216.665L224.605 63.3468V48.2184H232.231V74.8264H224.223L216.284 59.698V74.8264H208.658Z" fill="#6440FB"/>
<path d="M253.333 74.8264L252.49 71.7508H243.844L243.007 74.8264H234.789L243.901 48.2184H252.484L261.597 74.8264H253.333ZM245.393 66.0082H250.963L248.178 55.6691L245.393 66.0082Z" fill="#6440FB"/>
<path d="M265.771 74.8265V55.0223H258.903V48.2128H280.608V55.0223H273.773V74.8265H265.771Z" fill="#6440FB"/>
<path d="M294.116 75.5471C290.528 75.5471 287.681 74.6619 285.573 72.8914C283.466 71.121 282.416 68.6866 282.424 65.5883V48.2184H290.397V65.0945C290.369 65.5988 290.444 66.1035 290.618 66.5778C290.793 67.052 291.062 67.4858 291.411 67.8524C292.153 68.5055 293.109 68.8658 294.099 68.8658C295.089 68.8658 296.045 68.5055 296.788 67.8524C297.131 67.486 297.398 67.0547 297.572 66.584C297.746 66.1133 297.824 65.6127 297.801 65.1115V48.2354H305.752V65.6052C305.752 68.6998 304.702 71.1341 302.603 72.9084C300.503 74.6826 297.674 75.5622 294.116 75.5471Z" fill="#6440FB"/>
<path d="M332.571 58.1375C332.601 59.822 332.209 61.4872 331.432 62.9836C330.689 64.4091 329.576 65.6102 328.209 66.4621L332.48 74.8264H323.368L319.951 68.0169H317.741V74.8264H309.756V48.2184H322.656C323.97 48.1863 325.277 48.4212 326.498 48.9088C327.718 49.3964 328.826 50.1266 329.753 51.0547C330.681 51.9828 331.409 53.0894 331.894 54.3071C332.378 55.5248 332.609 56.8281 332.571 58.1375ZM317.695 54.3753V61.9054H320.976C321.45 61.9166 321.921 61.8273 322.358 61.6434C322.795 61.4594 323.188 61.1851 323.51 60.8386C324.164 60.0906 324.524 59.1323 324.524 58.1404C324.524 57.1485 324.164 56.1901 323.51 55.4421C323.194 55.0981 322.808 54.825 322.378 54.6411C321.948 54.4571 321.484 54.3665 321.016 54.3753H317.695Z" fill="#6440FB"/>
<path d="M336.16 74.8264V48.2184H353.325V54.1483H344.082V58.7844H353.314V64.459H344.082V68.9079H353.314V74.8378L336.16 74.8264Z" fill="#6440FB"/>
</svg>
