<svg width="50" height="50" viewBox="0 0 50 50" fill="none" xmlns="http://www.w3.org/2000/svg">
<g clip-path="url(#clip0_344_314)">
<path d="M0 36.6244C0.232416 36.321 0.225066 35.9356 0.355953 35.5943C0.746695 34.544 1.44383 33.6352 2.35701 32.9857C3.27019 32.3362 4.35735 31.9758 5.47768 31.9513C7.2 31.9171 8.92478 31.9379 10.6483 31.944C10.907 31.9455 11.1633 31.8947 11.4018 31.7948C16.7498 29.636 22.0999 27.4806 27.452 25.3284C27.7345 25.2146 28.0134 25.0642 28.3388 25.1082C28.8673 25.1779 29.189 25.5902 29.1951 26.2312C29.1951 28.4099 29.2049 30.5886 29.1878 32.7685C29.1878 33.1257 29.2599 33.297 29.6318 33.4107C31.3798 33.9465 32.6177 35.691 32.6165 37.5504C32.6153 39.4098 31.3798 41.1445 29.6318 41.6925C29.3125 41.7928 29.1817 41.9176 29.1853 42.2821C29.2073 44.4278 29.1853 46.5747 29.2049 48.7216C29.211 49.3442 29.0128 49.7797 28.4159 49.9999H27.8312C27.7468 49.8067 27.5425 49.8079 27.3871 49.7455C23.8715 48.3265 20.3547 46.9115 16.8367 45.5006L12.2031 43.6363C12.2031 45.3612 12.1908 47.0334 12.2092 48.7045C12.2165 49.3161 12.0122 49.7626 11.4287 49.9999H6.83913C6.30091 49.5767 6.22753 49.0029 6.24465 48.3595C6.27524 46.8353 6.23364 45.3086 6.26666 43.7843C6.27767 43.295 6.17981 43.147 5.65504 43.1482C4.45474 43.1628 3.28174 42.7898 2.31033 42.0845C1.33892 41.3793 0.620909 40.3795 0.262985 39.2337C0.182251 38.9817 0.200615 38.6942 0.00367331 38.4813L0 36.6244ZM22.8685 29.3041C22.7572 29.3408 22.6814 29.3616 22.6092 29.3897C19.2428 30.7452 15.8748 32.0985 12.5052 33.4499C12.2336 33.5575 12.1933 33.7056 12.1933 33.9576C12.2018 36.3332 12.2067 38.7076 12.1933 41.0821C12.1933 41.4319 12.3021 41.58 12.6238 41.7084C17.2281 43.5482 21.8292 45.3967 26.4269 47.2536C26.6862 47.3588 26.9492 47.453 27.2171 47.5546V27.5254C26.5529 27.7946 25.9352 28.0784 25.2942 28.2937C24.9211 28.416 24.8135 28.6007 24.8147 28.991C24.833 32.2437 24.8281 35.4965 24.8245 38.7492C24.8245 39.4832 24.4636 39.9187 23.8777 39.9346C23.2917 39.9505 22.8905 39.4869 22.8722 38.7456C22.8722 38.6477 22.8722 38.5498 22.8722 38.4532V29.2992L22.8685 29.3041ZM10.2446 37.5639C10.2446 36.4588 10.2446 35.3533 10.2446 34.2475C10.2446 34.0811 10.3083 33.8805 10.0061 33.8903C8.34985 33.938 6.68745 33.7753 5.0373 33.9735C3.29296 34.1826 1.9474 35.7913 1.95596 37.5639C1.96452 39.3364 3.30153 40.923 5.01407 41.1286C6.6789 41.3279 8.35841 41.1677 10.0294 41.2117C10.3046 41.2191 10.2434 41.0307 10.2446 40.8802C10.2463 39.776 10.2463 38.6705 10.2446 37.5639ZM8.20307 45.5557C8.20307 46.2897 8.21163 47.0236 8.20307 47.7478C8.20307 47.9741 8.25321 48.0622 8.49663 48.0524C8.98593 48.0341 9.47522 48.0353 9.95718 48.0524C10.1945 48.0598 10.2557 47.979 10.2544 47.7491C10.2447 46.3202 10.2447 44.8931 10.2544 43.4675C10.2544 43.2387 10.1969 43.1543 9.9584 43.1629C9.4691 43.18 8.97981 43.1813 8.49786 43.1629C8.25321 43.1531 8.1994 43.24 8.20307 43.4663C8.21163 44.1623 8.20307 44.8584 8.20307 45.5557ZM29.1914 39.7964C30.0807 39.3254 30.5749 38.666 30.6459 37.7388C30.7217 36.7601 30.2985 36.0127 29.496 35.4659C29.2428 35.2934 29.1853 35.3692 29.1866 35.6531C29.1976 37.0024 29.1914 38.3529 29.1914 39.7964Z" fill="#020202"/>
<path d="M23.8716 24.4195C20.7168 24.4195 17.5609 24.4195 14.4049 24.4134C14.2702 24.4057 14.1354 24.428 14.0104 24.4788C13.8854 24.5296 13.7732 24.6075 13.682 24.707C12.6117 25.7994 11.5217 26.8723 10.4441 27.9573C10.0954 28.3096 9.69666 28.4919 9.22082 28.2986C8.74498 28.1053 8.62022 27.6931 8.62022 27.2233C8.62022 26.4098 8.61166 25.5963 8.62022 24.7829C8.62022 24.5382 8.59699 24.4159 8.2924 24.4159C5.94622 24.3498 5.26978 23.6464 5.26978 21.3111V7.00707C5.26978 5.22227 6.18719 4.30602 7.9719 4.30602C13.1617 4.30602 18.3511 4.30846 23.5401 4.31336C23.8961 4.31336 24.0172 4.25341 24.0294 3.85462C24.1138 1.65267 25.7419 0.0281333 27.9438 0.0195702C33.9784 -0.0048958 40.0131 -0.0048958 46.0477 0.0195702C48.2924 0.0293566 49.9511 1.71261 49.9682 3.95982C49.9968 7.70068 49.9968 11.4423 49.9682 15.1848C49.9523 17.4932 48.2496 19.1349 45.9132 19.1434C42.6749 19.154 39.4373 19.1516 36.2006 19.1361C35.8006 19.1361 35.6771 19.2193 35.6979 19.6328C35.7358 20.3961 35.7187 21.1619 35.7065 21.9264C35.682 23.4482 34.7071 24.4134 33.1805 24.4171C30.0816 24.4228 26.9786 24.4236 23.8716 24.4195ZM37.0019 1.9585H28.2202C26.734 1.9585 25.9719 2.72184 25.9707 4.20938C25.9707 7.78631 25.9707 11.3641 25.9707 14.9426C25.9707 16.4265 26.7364 17.1886 28.2239 17.1886H45.786C47.2734 17.1886 48.0343 16.4265 48.0355 14.9377C48.0355 11.3608 48.0355 7.78345 48.0355 4.2057C48.0355 2.72062 47.271 1.9585 45.7823 1.9585H37.0019ZM10.5701 25.0789C11.2954 24.3449 11.9413 23.7333 12.5493 23.0788C12.7318 22.8741 12.9578 22.7129 13.2108 22.607C13.4637 22.5012 13.7372 22.4534 14.0111 22.4671C20.3417 22.4826 26.6712 22.4855 32.9994 22.4757C33.7101 22.4757 33.7664 22.417 33.7676 21.6903C33.7676 20.9906 33.7407 20.2897 33.7774 19.5912C33.7982 19.2034 33.6551 19.1447 33.3138 19.1483C31.6013 19.1667 29.8961 19.1557 28.1884 19.1581C27.7649 19.1693 27.3419 19.1203 26.9321 19.0125C25.123 18.4914 24.0282 17.0345 24.0209 15.1053C24.0098 12.2917 24.0209 9.47813 24.0209 6.66454C24.0209 6.40764 24.0208 6.2633 23.6747 6.26452C18.3862 6.27839 13.0981 6.27839 7.81045 6.26452C7.39944 6.26452 7.21962 6.41744 7.22084 6.83948C7.22736 11.8672 7.22736 16.895 7.22084 21.9228C7.22084 22.3155 7.38476 22.4879 7.77742 22.4794C8.33155 22.4671 8.87832 22.4696 9.43734 22.4794C10.1872 22.4904 10.548 22.8464 10.5664 23.5804C10.5798 24.0207 10.5701 24.4734 10.5701 25.0789Z" fill="#010101"/>
<path d="M39.167 36.6098C40.0233 36.6098 40.8906 36.6098 41.753 36.6098C42.4563 36.6098 42.8698 36.9633 42.8869 37.5444C42.904 38.145 42.4796 38.5524 41.7725 38.5573C40.0331 38.5695 38.2932 38.5695 36.553 38.5573C35.8716 38.5573 35.4447 38.1597 35.4386 37.5872C35.4312 36.9878 35.8582 36.6147 36.5823 36.6085C37.4435 36.6049 38.3058 36.6098 39.167 36.6098Z" fill="#020202"/>
<path d="M34.7035 41.9959C34.864 41.9861 35.0246 42.0119 35.174 42.0716C35.3233 42.1312 35.4575 42.2232 35.5671 42.3409C36.1787 42.9464 36.7903 43.5495 37.3909 44.1685C37.835 44.6297 37.8533 45.201 37.468 45.5998C37.0827 45.9986 36.4992 46.0059 36.0356 45.5606C35.391 44.9429 34.7647 44.3068 34.1433 43.6657C33.993 43.5264 33.8919 43.3422 33.8553 43.1405C33.8187 42.9389 33.8485 42.7309 33.9402 42.5476C34.0045 42.3945 34.1098 42.262 34.2444 42.1647C34.3791 42.0674 34.5379 42.009 34.7035 41.9959Z" fill="#020202"/>
<path d="M37.6796 30.1335C37.6583 30.4288 37.5274 30.7054 37.3126 30.9091C36.7267 31.495 36.1481 32.0896 35.5499 32.6633C35.0827 33.1135 34.5138 33.1257 34.1151 32.7294C33.7163 32.333 33.7334 31.7507 34.1738 31.2944C34.7597 30.6828 35.364 30.0944 35.9658 29.4998C36.2827 29.1867 36.6667 29.0839 37.0814 29.2552C37.4618 29.4093 37.6417 29.7274 37.6796 30.1335Z" fill="#020202"/>
<path d="M22.8684 29.3043V38.4583C22.8684 38.5549 22.8684 38.6528 22.8684 38.7506C22.8868 39.492 23.2795 39.9556 23.8739 39.9397C24.4684 39.9238 24.8195 39.4858 24.8207 38.7543C24.8207 35.5015 24.8293 32.2488 24.811 28.996C24.811 28.6058 24.9174 28.4248 25.2905 28.2988C25.9314 28.0834 26.5492 27.7996 27.2134 27.5305V47.5547C26.9455 47.4532 26.6825 47.359 26.4232 47.2538C21.823 45.4042 17.222 43.5558 12.6201 41.7086C12.2984 41.5801 12.1859 41.4321 12.1895 41.0822C12.2067 38.7078 12.2018 36.3334 12.1895 33.9577C12.1895 33.7057 12.2299 33.5577 12.5015 33.4501C15.8744 32.1053 19.2424 30.7519 22.6055 29.3899C22.6813 29.3606 22.7571 29.341 22.8684 29.3043ZM24.8097 43.0053C24.8235 42.7525 24.7373 42.5045 24.5698 42.3147C24.4023 42.125 24.1668 42.0088 23.9143 41.9912C23.6528 41.9785 23.3971 42.0703 23.2032 42.2462C23.0094 42.4222 22.8934 42.6679 22.8807 42.9294C22.8828 43.1823 22.9799 43.4251 23.1529 43.6096C23.3258 43.7941 23.5618 43.9068 23.814 43.9252C24.0662 43.9301 24.3106 43.8374 24.4961 43.6665C24.6817 43.4955 24.794 43.2595 24.8097 43.0077V43.0053Z" fill="#FEFEFE"/>
<path d="M10.2446 37.5639C10.2446 38.6697 10.2446 39.7752 10.2446 40.8802C10.2446 41.0307 10.3045 41.2191 10.0293 41.2117C8.3571 41.1677 6.67759 41.3341 5.01398 41.1286C3.30144 40.923 1.96689 39.3266 1.95588 37.5639C1.94487 35.8011 3.29287 34.1827 5.03722 33.9735C6.68737 33.7753 8.34977 33.938 10.006 33.8903C10.3082 33.8817 10.2446 34.0811 10.2446 34.2475C10.2462 35.3534 10.2462 36.4588 10.2446 37.5639Z" fill="#FEFEFE"/>
<path d="M8.20306 45.5556C8.20306 44.8584 8.21162 44.1598 8.20306 43.4613C8.20306 43.235 8.25564 43.1482 8.49785 43.158C8.98714 43.1763 9.47643 43.1751 9.95839 43.158C10.203 43.1494 10.2557 43.2338 10.2544 43.4626C10.2446 44.8914 10.2446 46.3186 10.2544 47.7441C10.2544 47.9741 10.1945 48.0548 9.95717 48.0475C9.46787 48.0304 8.97858 48.0292 8.49662 48.0475C8.25197 48.0573 8.19939 47.9692 8.20306 47.7429C8.21162 47.0175 8.20306 46.2872 8.20306 45.5556Z" fill="#FEFEFE"/>
<path d="M29.1914 39.7964C29.1914 38.3529 29.1975 37.0024 29.1914 35.6531C29.1914 35.3692 29.2477 35.2934 29.5009 35.4659C30.3033 36.0127 30.7241 36.7626 30.6508 37.7388C30.5749 38.666 30.0807 39.3254 29.1914 39.7964Z" fill="#FEFEFE"/>
<path d="M37.0019 1.9585H45.7799C47.2686 1.9585 48.0318 2.72061 48.0331 4.2057C48.0331 7.78263 48.0331 11.36 48.0331 14.9377C48.0331 16.4265 47.271 17.1886 45.7835 17.1886H28.2239C26.7364 17.1886 25.9719 16.4265 25.9707 14.9426C25.9707 11.3649 25.9707 7.78712 25.9707 4.20937C25.9707 2.72184 26.734 1.95972 28.2202 1.9585H37.0019ZM32.7878 9.54296C32.7878 10.7785 32.7878 12.0153 32.7878 13.252C32.7878 14.2576 33.5218 14.6894 34.3915 14.1915C36.5199 12.9747 38.6443 11.7514 40.7646 10.5216C41.6404 10.0127 41.6502 9.16129 40.7829 8.65607C38.652 7.41483 36.5163 6.18092 34.3756 4.95436C33.5364 4.47483 32.7988 4.91399 32.7927 5.88529C32.7817 7.10248 32.789 8.31966 32.7878 9.54296Z" fill="#FEFEFE"/>
<path d="M10.5699 25.0789C10.5699 24.4795 10.5797 24.0269 10.5699 23.5755C10.5516 22.8415 10.1907 22.4855 9.44086 22.4745C8.88796 22.4659 8.33997 22.4635 7.78095 22.4745C7.38829 22.4831 7.22437 22.3106 7.22437 21.9179C7.22926 16.8901 7.22926 11.8624 7.22437 6.8346C7.22437 6.41256 7.40294 6.25964 7.81395 6.25964C13.1016 6.26535 18.3897 6.26535 23.6782 6.25964C24.0207 6.25964 24.0243 6.40277 24.0243 6.65967C24.0182 9.47326 24.0121 12.2869 24.0243 15.1004C24.0317 17.0296 25.1253 18.4865 26.9357 19.0077C27.3454 19.1154 27.7684 19.1644 28.1919 19.1532C29.9045 19.1532 31.6085 19.1618 33.3173 19.1435C33.6647 19.1435 33.8066 19.1985 33.7809 19.5863C33.7442 20.2848 33.7712 20.9858 33.7712 21.6855C33.7712 22.4121 33.7137 22.4708 33.003 22.4708C26.6739 22.4708 20.3444 22.468 14.0146 22.4623C13.7407 22.4485 13.4672 22.4963 13.2142 22.6022C12.9613 22.708 12.7353 22.8692 12.5528 23.0739C11.9412 23.7259 11.2953 24.3449 10.5699 25.0789ZM16.0366 12.2208C17.6268 12.2208 19.217 12.2294 20.8133 12.2208C21.5864 12.2208 22.0366 11.6789 21.869 10.9975C21.7552 10.5241 21.3577 10.2757 20.6922 10.2745H11.4323C11.2377 10.2644 11.0429 10.2897 10.8574 10.3491C10.7119 10.4011 10.581 10.4873 10.476 10.6006C10.3709 10.7139 10.2948 10.8508 10.2539 10.9998C10.2131 11.1489 10.2089 11.3055 10.2415 11.4565C10.2742 11.6075 10.3428 11.7484 10.4415 11.8673C10.6935 12.1694 11.0348 12.2343 11.4066 12.2343C12.9504 12.2122 14.4941 12.2147 16.0366 12.2147V12.2208ZM14.2201 17.6828C15.1779 17.6828 16.1357 17.6828 17.0935 17.6828C17.7968 17.6828 18.2531 17.2865 18.2531 16.7042C18.2531 16.1219 17.7956 15.7317 17.0935 15.7256C15.1934 15.7207 13.2941 15.7207 11.3956 15.7256C10.6617 15.7256 10.2372 16.0815 10.2225 16.6773C10.2091 17.2963 10.6433 17.673 11.3956 17.6767C12.3363 17.6865 13.2782 17.6828 14.2201 17.6828ZM20.9479 15.7341C20.6955 15.7393 20.4546 15.8412 20.275 16.0187C20.0955 16.1962 19.9909 16.4359 19.9828 16.6883C19.9799 16.9413 20.0752 17.1855 20.2485 17.3698C20.4218 17.5541 20.6598 17.6641 20.9124 17.6767C21.0418 17.678 21.1701 17.6537 21.2899 17.6051C21.4098 17.5564 21.5188 17.4846 21.6107 17.3936C21.7027 17.3026 21.7756 17.1942 21.8254 17.0749C21.8752 16.9555 21.9008 16.8274 21.9008 16.6981C21.8971 16.4455 21.7959 16.2041 21.6183 16.0244C21.4407 15.8447 21.2004 15.7407 20.9479 15.7341Z" fill="#6440FB"/>
<path d="M24.8099 43.0077C24.7948 43.2599 24.6827 43.4965 24.4971 43.668C24.3115 43.8395 24.0668 43.9325 23.8142 43.9276C23.562 43.9092 23.326 43.7965 23.153 43.612C22.9801 43.4275 22.883 43.1847 22.8809 42.9319C22.8935 42.6704 23.0096 42.4246 23.2034 42.2487C23.3972 42.0727 23.653 41.9809 23.9145 41.9936C24.167 42.0112 24.4024 42.1274 24.57 42.3172C24.7375 42.5069 24.8237 42.7549 24.8099 43.0077Z" fill="#020202"/>
<path d="M32.7889 9.543C32.7889 8.3197 32.7816 7.0964 32.7889 5.88166C32.795 4.91036 33.5326 4.4712 34.3718 4.95073C36.5124 6.17403 38.6482 7.40793 40.7791 8.65244C41.6464 9.15766 41.6354 10.0091 40.7608 10.518C38.6405 11.7502 36.5177 12.9735 34.3926 14.1879C33.5241 14.6858 32.7938 14.2539 32.7889 13.2484C32.7828 12.0153 32.7877 10.7785 32.7889 9.543ZM34.7595 7.43036V11.7278L38.4819 9.57725L34.7595 7.43036Z" fill="#020202"/>
<path d="M16.0367 12.2147C14.4942 12.2147 12.9505 12.2147 11.4068 12.2147C11.0398 12.2147 10.6936 12.1536 10.4416 11.8477C10.3429 11.7289 10.2743 11.588 10.2417 11.437C10.209 11.286 10.2133 11.1293 10.2541 10.9803C10.2949 10.8313 10.3711 10.6944 10.4761 10.5811C10.5812 10.4678 10.712 10.3815 10.8575 10.3296C11.0431 10.2701 11.2379 10.2448 11.4324 10.255H20.6924C21.3578 10.255 21.7554 10.4997 21.8691 10.978C22.0331 11.6618 21.5866 12.2013 20.8135 12.2013C19.2208 12.2233 17.6294 12.2147 16.0367 12.2147Z" fill="white"/>
<path d="M14.2203 17.6829C13.2796 17.6829 12.3377 17.6829 11.3958 17.6829C10.6435 17.6829 10.2093 17.3024 10.2227 16.6834C10.2374 16.0877 10.6643 15.7341 11.3958 15.7317C13.2943 15.7317 15.1936 15.7317 17.0937 15.7317C17.7958 15.7317 18.2533 16.1268 18.2533 16.7103C18.2533 17.2938 17.797 17.6816 17.0937 17.689C16.1346 17.6877 15.1768 17.6829 14.2203 17.6829Z" fill="white"/>
<path d="M20.9481 15.7341C21.2008 15.7407 21.4412 15.8449 21.6189 16.0249C21.7965 16.2048 21.8976 16.4465 21.901 16.6993C21.901 16.8287 21.8754 16.9567 21.8256 17.0761C21.7758 17.1955 21.7028 17.3038 21.6109 17.3948C21.519 17.4858 21.41 17.5577 21.2901 17.6063C21.1703 17.6549 21.0419 17.6793 20.9126 17.678C20.66 17.6653 20.422 17.5553 20.2487 17.371C20.0753 17.1868 19.9801 16.9425 19.983 16.6895C19.9908 16.4369 20.0952 16.197 20.2748 16.0192C20.4544 15.8414 20.6954 15.7393 20.9481 15.7341Z" fill="white"/>
<path d="M34.7595 7.4303L38.4819 9.57719L34.7595 11.7278V7.4303Z" fill="#FEFEFE"/>
</g>
<defs>
<clipPath id="clip0_344_314">
<rect width="50" height="50" fill="white"/>
</clipPath>
</defs>
</svg>
