<svg width="50" height="50" viewBox="0 0 50 50" fill="none" xmlns="http://www.w3.org/2000/svg">
<g clip-path="url(#clip0_1529_11)">
<path fill-rule="evenodd" clip-rule="evenodd" d="M45.0212 13.7837V5.4479H4.58325C4.58325 10.0516 8.31531 13.7837 12.919 13.7837H45.0212Z" fill="white"/>
<path fill-rule="evenodd" clip-rule="evenodd" d="M21.4496 16.1675V35.7096C21.4496 40.3625 17.7087 44.1507 13.0562 44.2092V16.1675H21.4496Z" fill="white"/>
<path fill-rule="evenodd" clip-rule="evenodd" d="M45.3669 5.41824L45.5186 5.41699C34.703 5.41699 25.9352 14.0916 25.9352 24.7923C25.9352 35.4428 34.621 44.0862 45.3667 44.167L45.3669 35.7553L45.3353 35.7551C39.2994 35.6583 34.4365 30.7871 34.4365 24.7923C34.4365 18.7871 39.3162 13.9095 45.3666 13.829L45.3669 5.41824Z" fill="white"/>
</g>
<defs>
<clipPath id="clip0_1529_11">
<rect width="50" height="50" fill="white"/>
</clipPath>
</defs>
</svg>
