<svg width="17" height="17" viewBox="0 0 17 17" fill="none" xmlns="http://www.w3.org/2000/svg">
<g clip-path="url(#clip0_263_3603)">
<path d="M17 13.2486C16.9038 13.4312 16.9173 13.6392 16.8601 13.8321C16.3951 15.3889 15.3974 16.4289 13.8271 16.8527C11.629 17.4491 9.37255 16.1881 8.69376 14.0172C8.41068 13.1414 8.43121 12.1957 8.75202 11.333C8.80039 11.1999 8.78427 11.1365 8.65943 11.0611C7.85112 10.5726 7.04663 10.0783 6.24594 9.57804C6.14191 9.51253 6.08574 9.52604 6.00095 9.60768C4.49877 11.0543 2.19503 10.9451 0.829641 9.36537C-0.464487 7.86832 -0.213256 5.48469 1.36435 4.2908C2.60023 3.35482 4.16275 3.29138 5.47352 4.12804C5.79133 4.33131 6.07062 4.58921 6.29848 4.88982C6.35778 4.96782 6.40563 4.98498 6.50186 4.94182C7.61636 4.42183 8.7326 3.90566 9.85057 3.39329C9.93015 3.3569 9.96916 3.32518 9.9546 3.22482C9.74238 1.69917 10.7473 0.320159 12.2682 0.041965C12.3077 0.0346852 12.3603 0.0570453 12.3842 0.00192642H13.049C13.0562 0.0279259 13.0765 0.0300056 13.101 0.0326056C14.7228 0.216682 15.8723 1.78861 15.5275 3.39017C15.2918 4.48215 14.6266 5.23146 13.5473 5.54397C12.4336 5.86688 11.4635 5.56841 10.6682 4.72551C10.5855 4.63815 10.5288 4.63867 10.4316 4.68391C9.33094 5.19523 8.22892 5.70326 7.12551 6.208C7.01472 6.25999 6.98091 6.31199 7.00692 6.42951C7.13293 7.01113 7.0942 7.61636 6.89509 8.17719C6.86284 8.27183 6.88261 8.31291 6.96167 8.36127C7.7939 8.8712 8.62614 9.38357 9.45838 9.89836C9.53588 9.94619 9.57853 9.93736 9.63679 9.87288C9.82021 9.66541 10.0272 9.48008 10.2537 9.32065C11.5119 8.44863 12.869 8.25051 14.2984 8.80534C15.5987 9.31077 16.4367 10.2691 16.8424 11.607C16.91 11.8317 16.9095 12.0698 17.0016 12.2877L17 13.2486ZM12.7639 9.92072C11.2102 9.9046 9.94264 11.1557 9.91871 12.7287C9.89478 14.2845 11.1593 15.5657 12.7338 15.5818C14.2869 15.5974 15.555 14.3463 15.579 12.7739C15.6024 11.2181 14.3384 9.93684 12.7639 9.92124V9.92072ZM3.53545 9.20521C4.09789 9.20522 4.6375 8.98279 5.03646 8.58648C5.43543 8.19016 5.66137 7.65215 5.66494 7.0899C5.67326 5.92564 4.69694 4.94962 3.53233 4.95794C2.96981 4.9611 2.43139 5.18664 2.03465 5.58531C1.63791 5.98397 1.41507 6.52338 1.41481 7.08574C1.41481 7.64799 1.63823 8.18722 2.03593 8.5848C2.43363 8.98238 2.97302 9.20573 3.53545 9.20573V9.20521ZM12.7421 1.4215C11.965 1.42722 11.3195 2.0772 11.332 2.84107C11.3444 3.62105 11.9879 4.25596 12.7566 4.2492C13.5254 4.24244 14.1782 3.58829 14.1662 2.82651C14.1612 2.45216 14.0088 2.09488 13.7422 1.83201C13.4755 1.56914 13.116 1.42185 12.7416 1.42202L12.7421 1.4215Z" fill="white"/>
</g>
<defs>
<clipPath id="clip0_263_3603">
<rect width="17" height="17" fill="white"/>
</clipPath>
</defs>
</svg>
