<svg xmlns="http://www.w3.org/2000/svg" width="41" height="42" viewBox="0 0 41 42" fill="none">
  <g clip-path="url(#clip0_1861_507)">
    <path d="M21.506 26.4573C21.506 23.3163 21.5011 20.1771 21.506 17.0361C21.511 13.7364 23.8181 11.4274 27.1112 11.4191C28.9874 11.4142 30.8652 11.4324 32.7413 11.4109C33.4507 11.4026 34.0192 11.6325 34.5147 12.1303C36.4207 14.0457 38.33 15.9594 40.2525 17.8565C40.7796 18.3775 40.9983 18.9779 40.9967 19.7057C40.9884 25.1043 41.0099 30.5046 40.9851 35.9033C40.9702 39.1369 38.7062 41.378 35.4578 41.4094C32.6701 41.4343 29.8824 41.4293 27.0947 41.4094C23.7617 41.3879 21.511 39.117 21.506 35.7941C21.5011 32.6813 21.506 29.5685 21.506 26.4556V26.4573ZM25.0876 26.3597C25.0876 29.5255 25.081 32.6896 25.0909 35.8553C25.0959 37.2778 25.6909 37.8633 27.0947 37.8649C29.8807 37.8682 32.6651 37.8682 35.4511 37.8649C36.7919 37.8633 37.4085 37.248 37.4101 35.8967C37.4151 30.804 37.4068 25.713 37.4217 20.6203C37.4217 20.2002 37.3024 19.9041 37.0008 19.6114C35.5821 18.2253 34.175 16.8261 32.7828 15.4135C32.4695 15.096 32.1513 14.9471 31.6972 14.9554C30.2089 14.9802 28.7189 14.957 27.2289 14.967C25.6494 14.9769 25.0909 15.5343 25.0893 17.1105C25.0843 20.1936 25.0876 23.2767 25.0893 26.3581L25.0876 26.3597Z" fill="white"/>
    <path d="M0.0065394 11.9946C0.0065394 9.62773 -0.00174745 7.26086 0.00819677 4.89399C0.0214557 1.88371 1.90754 0.00972781 4.90738 0.00807381C6.28631 0.00807381 7.66524 0.0229598 9.04417 0.00145782C9.69221 -0.0101202 10.2176 0.186706 10.6734 0.646518C12.1667 2.15331 13.6666 3.65349 15.1781 5.14209C15.6455 5.6019 15.8145 6.14937 15.8145 6.77789C15.8145 10.9063 15.8361 15.0347 15.8062 19.163C15.7847 21.993 13.9003 23.8306 11.0645 23.8505C8.96794 23.8654 6.87302 23.8654 4.77645 23.8505C1.90091 23.8306 0.036372 21.9748 0.0115115 19.0952C-0.00837693 16.7284 0.00819677 14.3615 0.0065394 11.9946ZM3.59143 11.9103C3.59143 14.335 3.58646 16.7581 3.59474 19.1829C3.59806 20.0281 3.89141 20.3324 4.72341 20.3374C6.84816 20.3473 8.97457 20.3473 11.0993 20.3374C11.933 20.3341 12.2313 20.0297 12.233 19.1862C12.2396 15.3572 12.2363 11.5282 12.2346 7.69917C12.2346 7.45603 12.2628 7.21951 12.0523 7.01441C10.8872 5.88142 9.87949 4.50034 8.52707 3.6783C7.5774 3.10105 6.16035 3.57079 4.95213 3.52778C4.92395 3.52778 4.89744 3.52778 4.86926 3.52778C3.86158 3.55259 3.5964 3.80896 3.59474 4.80302C3.58977 7.17154 3.59474 9.54007 3.59474 11.9103H3.59143Z" fill="white"/>
    <path d="M19.7708 33.7564C19.7376 35.2516 19.2603 36.5103 18.2493 37.5358C16.993 38.811 15.7235 40.0747 14.4456 41.3301C13.5937 42.167 12.5562 42.2183 11.8071 41.4889C11.0281 40.7313 11.0878 39.7042 11.9811 38.8044C13.1446 37.6301 14.323 36.4706 15.4865 35.2979C16.5256 34.2493 16.5207 33.3611 15.4715 32.3075C14.3064 31.1365 13.128 29.9754 11.9645 28.8027C11.1044 27.936 11.0364 26.9403 11.764 26.1778C12.5082 25.4004 13.5838 25.4434 14.4605 26.3085C15.7351 27.5655 17.0063 28.8275 18.2642 30.1027C19.2785 31.1299 19.7343 32.3968 19.7708 33.7581V33.7564Z" fill="white"/>
    <path d="M7.33552 32.0593C9.07078 32.0593 10.8077 32.0527 12.543 32.0626C13.6998 32.0692 14.5202 32.8152 14.5086 33.8241C14.4987 34.838 13.6866 35.5591 12.5165 35.5625C9.01609 35.5691 5.51739 35.5691 2.01702 35.5625C0.820401 35.5608 0.0397798 34.876 0.0198914 33.8406C2.94112e-06 32.7821 0.805484 32.0676 2.04188 32.0626C3.80532 32.056 5.56876 32.0609 7.3322 32.0609L7.33552 32.0593Z" fill="white"/>
  </g>
  <defs>
    <clipPath id="clip0_1861_507">
      <rect width="41" height="42" fill="white"/>
    </clipPath>
  </defs>
</svg>