<svg xmlns="http://www.w3.org/2000/svg" width="37.705" height="18.261" viewBox="0 0 37.705 18.261">
  <path id="Right_Arrow" d="M-124.9,487.05a1.685,1.685,0,0,0,1.837,1.188q15.147-.023,30.3-.009h.5c-.139.149-.223.246-.314.336l-4.8,4.779a1.43,1.43,0,0,0-.393,1.487,1.391,1.391,0,0,0,1.106,1.019,1.486,1.486,0,0,0,1.428-.483q2.721-2.72,5.453-5.427c.687-.683,1.377-1.363,2.061-2.051a1.474,1.474,0,0,0,0-2.268q-3.754-3.743-7.517-7.476a1.469,1.469,0,0,0-2.16-.089,1.487,1.487,0,0,0,.1,2.188q2.319,2.316,4.644,4.624c.113.112.241.209.361.313l-.031.1h-.4q-15.165,0-30.331-.011a1.68,1.68,0,0,0-1.837,1.189Z" transform="translate(124.9 -477.624)" fill="#fff"/>
</svg>
