<svg width="21" height="21" viewBox="0 0 21 21" fill="none" xmlns="http://www.w3.org/2000/svg">
<path d="M10.423 20.846C8.485 20.846 6.547 20.86 4.609 20.846C3.7904 20.8656 2.9822 20.6594 2.27295 20.2502C1.5637 19.841 0.980761 19.2445 0.588004 18.526C0.193548 17.8504 -0.0100297 17.0803 -0.000995662 16.298C-0.000995662 14.996 -0.000995662 13.694 -0.000995662 12.392C-0.00933681 12.2606 0.00936216 12.1288 0.0539456 12.0049C0.098529 11.881 0.168049 11.7676 0.25821 11.6716C0.348371 11.5756 0.457257 11.4992 0.578137 11.447C0.699018 11.3947 0.829325 11.3679 0.961004 11.368C1.09076 11.3708 1.21859 11.3999 1.33672 11.4536C1.45486 11.5074 1.56083 11.5846 1.6482 11.6805C1.73556 11.7765 1.80249 11.8893 1.84492 12.0119C1.88735 12.1346 1.90439 12.2645 1.895 12.394C1.895 13.674 1.895 14.954 1.895 16.234C1.88505 16.5935 1.9486 16.9513 2.08179 17.2854C2.21497 17.6195 2.41497 17.9229 2.66954 18.177C2.9241 18.4311 3.22787 18.6306 3.56222 18.7631C3.89658 18.8957 4.25448 18.9586 4.614 18.948H16.226C16.5856 18.9589 16.9436 18.8962 17.278 18.7638C17.6125 18.6314 17.9164 18.4321 18.1711 18.1781C18.4258 17.924 18.6259 17.6207 18.7591 17.2865C18.8924 16.9524 18.956 16.5946 18.946 16.235C18.946 14.935 18.946 13.635 18.946 12.329C18.9433 12.1053 19.02 11.8879 19.1625 11.7155C19.305 11.5431 19.504 11.4268 19.7242 11.3873C19.9443 11.3478 20.1714 11.3877 20.3649 11.4999C20.5584 11.6121 20.7059 11.7893 20.781 12C20.8246 12.126 20.8456 12.2587 20.843 12.392C20.843 13.687 20.852 14.981 20.843 16.276C20.8508 17.374 20.4597 18.4375 19.7424 19.2689C19.0251 20.1002 18.0303 20.6429 16.943 20.796C16.6867 20.8323 16.4279 20.8486 16.169 20.845C14.253 20.849 12.337 20.849 10.421 20.845" fill="white"/>
<path d="M9.402 3.241C9.36415 3.31199 9.31926 3.37899 9.268 3.441C8.00133 4.70766 6.73466 5.97433 5.468 7.241C5.3051 7.42799 5.07542 7.54371 4.82819 7.56334C4.58097 7.58296 4.3359 7.50492 4.14555 7.34597C3.95519 7.18701 3.8347 6.95979 3.80992 6.71303C3.78514 6.46627 3.85805 6.21963 4.013 6.026C4.06117 5.9697 4.11224 5.91596 4.166 5.865L9.662 0.374996C9.75173 0.258018 9.86717 0.163255 9.99939 0.0980384C10.1316 0.032822 10.2771 -0.00109863 10.4245 -0.00109863C10.5719 -0.00109863 10.7174 0.032822 10.8496 0.0980384C10.9818 0.163255 11.0973 0.258018 11.187 0.374996C13.025 2.21166 14.8613 4.04766 16.696 5.883C16.8293 5.996 16.9295 6.1429 16.9862 6.30818C17.0429 6.47347 17.0539 6.65099 17.018 6.822C16.9835 6.98749 16.9051 7.14062 16.7909 7.26528C16.6768 7.38994 16.5311 7.4815 16.3692 7.53033C16.2074 7.57915 16.0354 7.58344 15.8713 7.54272C15.7073 7.50201 15.5572 7.41781 15.437 7.299C14.998 6.88 14.577 6.443 14.148 6.015C13.2853 5.15233 12.422 4.28966 11.558 3.427C11.508 3.377 11.471 3.308 11.388 3.288C11.3591 3.36282 11.3521 3.44436 11.368 3.523C11.368 7.36233 11.368 11.2013 11.368 15.04C11.3965 15.274 11.3369 15.5103 11.2009 15.7029C11.0649 15.8955 10.8621 16.0306 10.632 16.082C10.5021 16.1117 10.3674 16.1135 10.2368 16.0872C10.1062 16.0608 9.98264 16.007 9.87443 15.9293C9.76622 15.8515 9.6758 15.7516 9.60917 15.6362C9.54254 15.5208 9.50124 15.3926 9.488 15.26C9.48 15.16 9.481 15.053 9.481 14.95C9.481 11.15 9.481 7.348 9.481 3.544V3.301L9.402 3.241Z" fill="white"/>
</svg>
