<svg width="96" height="48" viewBox="0 0 96 48" fill="none" xmlns="http://www.w3.org/2000/svg">
<g clip-path="url(#clip0_1529_21)">
<path d="M13.7528 11.5767C12.6799 9.03379 11.6069 6.49088 10.534 3.94798C9.23195 0.866408 6.19785 -0.573807 3.46264 0.587937C0.442641 1.87204 -0.783247 4.80734 0.511745 7.98877C3.32261 14.8983 6.17671 21.79 9.07406 28.6639C9.45438 29.6304 10.1299 30.4529 11.0049 31.0151C11.88 31.5772 12.9101 31.8505 13.9495 31.7961C14.963 31.8619 15.9719 31.6112 16.8361 31.0789C17.7003 30.5466 18.377 29.759 18.772 28.8256C21.7815 21.7764 24.6936 14.6857 27.5726 7.5802C28.0244 6.42523 28.0629 5.15012 27.6814 3.97015C27.3 2.79019 26.5221 1.77767 25.4791 1.10356C24.436 0.429448 23.1917 0.135045 21.9563 0.270057C20.7209 0.405069 19.57 0.961213 18.698 1.84461C18.0193 2.6764 17.4809 3.61297 17.1041 4.61748C16.0876 6.91003 15.1528 9.23984 14.1856 11.5549L13.7528 11.5767Z" fill="url(#paint0_linear_1529_21)"/>
<path d="M43.2492 5.55549C43.1778 4.3306 42.7142 3.16089 41.9267 2.21843C41.1392 1.27597 40.0692 0.610497 38.8743 0.319902C37.7155 0.0396896 36.4953 0.166445 35.4193 0.678816C34.3432 1.19119 33.4771 2.05786 32.9668 3.13284C31.5315 6.2102 30.2605 9.36633 28.9486 12.5014C27.3592 16.2988 25.7871 20.1038 24.2325 23.9163C23.701 25.103 23.5902 26.4348 23.9183 27.6927C24.2465 28.9506 24.9939 30.0597 26.0379 30.8375C27.0651 31.5824 28.3282 31.9305 29.593 31.8174C30.8579 31.7042 32.0388 31.1375 32.9167 30.2221C33.5697 29.4999 34.0833 28.6635 34.4317 27.7552C37.2134 21.1087 39.9627 14.4488 42.6796 7.77561C42.9218 7.04992 43.1121 6.30802 43.2492 5.55549Z" fill="url(#paint1_linear_1529_21)"/>
<path d="M54.2373 8.22785C47.0891 8.22785 42.3096 12.9114 42.3096 20C42.3096 26.962 46.9199 31.5612 54.4065 31.5612C58.6362 31.5612 62.0623 30.1266 64.3886 27.5105L60.455 23.5865C59.7583 24.309 58.9247 24.8862 58.0026 25.2846C57.0804 25.683 56.0881 25.8946 55.0833 25.9072C53.8826 25.9533 52.7039 25.5771 51.753 24.8445C50.8021 24.1118 50.1394 23.0692 49.8807 21.8987H65.7844C66.292 13.5865 62.2314 8.22785 54.2373 8.22785ZM49.7115 17.8903C50.2191 15.2743 51.8264 13.5021 54.2796 13.5021C56.8174 13.5021 58.5093 15.2743 58.5093 17.8903H49.7115ZM84.1413 8.22785C82.8456 8.19163 81.56 8.46357 80.3905 9.02118C79.2211 9.57879 78.2015 10.4061 77.4161 11.4346V0H69.8872V31.308H77.4161V28.3544C78.2301 29.3936 79.2792 30.2259 80.4774 30.7833C81.6757 31.3406 82.9892 31.6072 84.3105 31.5612C90.655 31.5612 94.8001 26.962 94.8001 20C94.8001 12.9114 90.5281 8.22785 84.1413 8.22785ZM82.2802 25.4852C79.404 25.4852 77.4161 23.2068 77.4161 19.8312C77.4161 16.4557 79.404 14.135 82.2802 14.135C85.241 14.135 87.2289 16.4557 87.2289 19.8312C87.2289 23.2068 85.241 25.4852 82.2802 25.4852Z" fill="#040A17"/>
<path d="M18.4035 39.8781H16.9231V38.7993H21.2423V39.8781H19.7683V43.6094H18.4035V39.8781Z" fill="url(#paint2_linear_1529_21)"/>
<path d="M31.4781 42.558V43.6129H27.6079V38.8027H31.3892V39.8576H28.9579V40.6684H31.1002V41.6853H28.9579V42.5651L31.4781 42.558Z" fill="url(#paint3_linear_1529_21)"/>
<path d="M40.1998 42.3316H39.4561V43.6094H38.092V38.7993H40.2964C41.6118 38.7993 42.4387 39.4793 42.4387 40.5792C42.4511 40.8973 42.3679 41.2118 42.1996 41.4824C42.0314 41.7529 41.786 41.9672 41.4948 42.0975L42.5346 43.6094H41.0747L40.1998 42.3316ZM40.2139 39.8703H39.4561V41.2768H40.2139C40.7779 41.2768 41.0599 41.0152 41.0599 40.5735C41.0599 40.1319 40.7786 39.8717 40.2139 39.8717V39.8703Z" fill="url(#paint4_linear_1529_21)"/>
<path d="M53.3973 43.6092L53.3839 41.06L52.1439 43.1352H51.5383L50.3053 41.1289V43.6099H49.0449V38.7998H50.1679L51.8598 41.5755L53.5129 38.7998H54.6359L54.65 43.6099L53.3973 43.6092Z" fill="url(#paint5_linear_1529_21)"/>
<path d="M61.4702 38.7993H62.8364V43.6094H61.4723L61.4702 38.7993Z" fill="url(#paint6_linear_1529_21)"/>
<path d="M74.2474 38.7993V43.6094H73.1244L70.9962 41.0461V43.6094H69.6567V38.7993H70.7833L72.9122 41.3626V38.7993H74.2474Z" fill="url(#paint7_linear_1529_21)"/>
<path d="M84.2978 42.6732H82.2584L81.8799 43.6085H80.4883L82.6165 38.7983H83.9566L86.0919 43.6085H84.6728L84.2978 42.6732ZM83.8981 41.6703L83.2777 40.131L82.6581 41.6703H83.8981Z" fill="url(#paint8_linear_1529_21)"/>
<path d="M92.3359 38.7993H93.7V42.5328H96.0002V43.6115H92.3345L92.3359 38.7993Z" fill="url(#paint9_linear_1529_21)"/>
<path d="M8.018 36.7629L6.54466 35.2158C5.98563 35.7454 5.48161 36.2137 4.98744 36.6926C4.04492 37.6068 3.08406 38.5014 2.17538 39.4472C1.60579 40.0393 1.57899 40.3747 2.10489 40.9099C3.28004 42.1131 4.51018 43.2615 5.80447 44.5168L7.31023 42.9697L4.53768 40.232L8.018 36.7629Z" fill="#040A17"/>
<path d="M6.67991 40.3446L9.31855 42.9852L5.84033 46.4951L7.41799 48.0007C8.9153 46.5239 10.328 45.161 11.7041 43.7602C12.2843 43.1694 12.2681 42.8319 11.6498 42.199C10.536 41.0661 9.37917 39.9761 8.19979 38.8291C7.85308 38.9595 7.5382 39.1621 7.27613 39.4234C7.01406 39.6847 6.81081 39.9987 6.67991 40.3446Z" fill="#040A17"/>
</g>
<defs>
<linearGradient id="paint0_linear_1529_21" x1="-0.000244141" y1="15.9969" x2="27.9419" y2="15.9969" gradientUnits="userSpaceOnUse">
<stop stop-color="#00FAB2"/>
<stop offset="1" stop-color="#009BFF"/>
</linearGradient>
<linearGradient id="paint1_linear_1529_21" x1="23.7334" y1="16.0063" x2="43.2492" y2="16.0063" gradientUnits="userSpaceOnUse">
<stop stop-color="#00FAB2"/>
<stop offset="1" stop-color="#009BFF"/>
</linearGradient>
<linearGradient id="paint2_linear_1529_21" x1="24.2831" y1="39.4968" x2="149.724" y2="10.4171" gradientUnits="userSpaceOnUse">
<stop stop-color="#00FAB2"/>
<stop offset="1" stop-color="#009BFF"/>
</linearGradient>
<linearGradient id="paint3_linear_1529_21" x1="25.1426" y1="42.4729" x2="151.299" y2="18.9876" gradientUnits="userSpaceOnUse">
<stop stop-color="#00FAB2"/>
<stop offset="1" stop-color="#009BFF"/>
</linearGradient>
<linearGradient id="paint4_linear_1529_21" x1="25.9682" y1="45.3266" x2="151.092" y2="14.6416" gradientUnits="userSpaceOnUse">
<stop stop-color="#00FAB2"/>
<stop offset="1" stop-color="#009BFF"/>
</linearGradient>
<linearGradient id="paint5_linear_1529_21" x1="26.8602" y1="48.3912" x2="146.417" y2="1.70049" gradientUnits="userSpaceOnUse">
<stop stop-color="#00FAB2"/>
<stop offset="1" stop-color="#009BFF"/>
</linearGradient>
<linearGradient id="paint6_linear_1529_21" x1="27.5861" y1="51.1276" x2="152.477" y2="48.2359" gradientUnits="userSpaceOnUse">
<stop stop-color="#00FAB2"/>
<stop offset="1" stop-color="#009BFF"/>
</linearGradient>
<linearGradient id="paint7_linear_1529_21" x1="28.3639" y1="53.7251" x2="153.149" y2="21.0743" gradientUnits="userSpaceOnUse">
<stop stop-color="#00FAB2"/>
<stop offset="1" stop-color="#009BFF"/>
</linearGradient>
<linearGradient id="paint8_linear_1529_21" x1="29.3776" y1="57.0192" x2="148.913" y2="10.3493" gradientUnits="userSpaceOnUse">
<stop stop-color="#00FAB2"/>
<stop offset="1" stop-color="#009BFF"/>
</linearGradient>
<linearGradient id="paint9_linear_1529_21" x1="30.0755" y1="59.6314" x2="156.468" y2="38.5457" gradientUnits="userSpaceOnUse">
<stop stop-color="#00FAB2"/>
<stop offset="1" stop-color="#009BFF"/>
</linearGradient>
<clipPath id="clip0_1529_21">
<rect width="96" height="48" fill="white"/>
</clipPath>
</defs>
</svg>
