<svg width="316" height="278" viewBox="0 0 316 278" fill="none" xmlns="http://www.w3.org/2000/svg">
<path d="M59.2983 106.166C54.7029 102.564 49.1297 99.8386 43.5564 97.8918C37.201 95.6529 31.0411 97.8918 28.5967 104.219C25.5657 112.298 22.5346 120.767 21.8502 129.235C18.1347 175.18 34.2677 213.24 69.8581 242.832C71.1292 243.903 72.4003 244.779 73.5736 245.85C78.3646 250.327 78.9513 255.876 75.2358 260.548C71.6181 265.026 65.0671 266.291 60.4717 261.911C49.5208 251.593 37.5921 241.567 28.8901 229.496C3.95721 195.232 -5.03817 156.686 2.68612 114.829C3.95721 107.918 6.30382 101.007 9.6282 94.7769C18.3302 78.4236 34.8544 72.3885 52.5518 78.3263C66.9249 83.1934 78.4624 92.6354 88.1422 103.635C101.929 119.209 114.248 136.049 127.253 152.403C128.035 153.473 128.719 154.641 129.795 156.101C133.217 147.341 135.955 138.775 139.963 130.89C143.19 124.66 147.199 118.528 152.283 113.758C161.67 104.803 173.696 105.582 183.278 114.44C191.882 122.324 197.945 121.546 202.344 110.546C206.353 100.617 208.895 90.0072 212.024 79.7864C218.086 60.1236 225.322 41.0449 239.499 25.665C254.557 9.21448 272.939 -0.908958 296.014 0.0644481C300.316 0.259129 304.716 1.23254 308.822 2.59531C314.493 4.44478 317.231 9.89585 315.471 15.1522C313.711 20.7007 309.507 23.7182 303.836 22.5501C277.534 16.807 259.348 29.5587 247.712 50.3896C238.619 66.7428 233.926 85.6269 227.082 103.343C223.757 111.811 221.02 120.864 215.838 128.165C204.593 144.226 185.429 145.589 171.252 131.961C166.852 127.775 164.603 129.527 162.354 133.518C152.968 149.872 148.079 167.685 145.439 186.18C145.146 188.419 146.417 191.047 147.297 193.383C156.096 216.258 161.474 239.814 163.43 264.247C163.821 269.503 163.919 275.441 158.345 277.193C154.141 278.556 148.177 278.167 144.168 276.22C133.412 271.061 127.839 260.937 126.47 249.84C124.319 232.903 124.026 215.674 122.657 198.542" fill="#250F61"/>
</svg>
