<svg xmlns="http://www.w3.org/2000/svg" width="51" height="51" viewBox="0 0 51 51" fill="none">
  <g clip-path="url(#clip0_1861_158)">
    <path d="M13.4869 7.05653C13.6832 7.44225 13.8484 7.76108 14.009 8.07992C14.8213 9.70976 15.6448 11.3351 16.4414 12.9739C16.9391 13.9951 17.6978 14.6639 18.8069 14.9449C20.1235 15.2793 21.4379 15.6294 22.7478 15.9928C25.1735 16.6661 26.6954 18.2558 27.3292 20.6683C27.9384 22.9915 28.4985 25.3304 29.0542 27.6692C29.2974 28.6948 29.7817 29.522 30.7189 30.046C31.2478 30.3425 31.7566 30.7238 32.3257 30.8932C33.7673 31.3236 35.0995 30.7082 35.8047 29.3727C36.1796 28.6614 36.5433 27.9435 36.8847 27.2144C37.9559 24.938 39.6831 23.5378 42.1802 23.045C43.7669 22.7329 45.3245 22.2825 46.9 21.9079C47.1187 21.8566 47.1566 21.7719 47.1187 21.5646C46.8263 19.957 46.3331 18.4097 45.7128 16.9002C45.3446 16.0039 45.474 15.3172 46.0587 14.7264C46.7571 14.0218 47.9466 14.1021 48.5848 14.8958C48.7053 15.0452 48.8057 15.2169 48.8816 15.393C49.7921 17.5111 50.4214 19.7073 50.7494 21.9904C51.3586 26.2311 50.8364 30.3492 49.3926 34.3625C48.3393 37.29 46.7125 39.8741 44.6974 42.233C42.5931 44.6967 40.0625 46.6187 37.2128 48.1259C34.4613 49.5818 31.5156 50.4335 28.4249 50.8058C26.7245 51.011 25.0262 51.0667 23.3236 50.8973C18.4186 50.4112 13.9845 48.7189 10.0436 45.738C6.83236 43.3099 4.41558 40.242 2.59909 36.6768C1.51902 34.5565 0.862943 32.3024 0.416632 29.9769C0.0328043 27.9658 -0.0787736 25.9324 0.0528883 23.8945C0.242571 20.9648 0.907575 18.1421 2.09253 15.4443C3.53412 12.1623 5.52467 9.25938 8.16237 6.8358C11.2665 3.98636 14.8615 1.97526 18.9497 0.891669C21.0451 0.336497 23.1763 0.0332704 25.3431 0.00651517C26.2737 -0.00463286 27.0302 0.54162 27.2176 1.35097C27.4653 2.41449 26.6977 3.4624 25.5864 3.55382C24.9861 3.60287 24.3836 3.60287 23.781 3.64077C21.1054 3.80576 18.5637 4.49025 16.1513 5.64073C15.2609 6.06658 14.404 6.56379 13.4846 7.0543L13.4869 7.05653ZM25.1378 47.4302C25.2539 47.4414 25.3186 47.4525 25.3811 47.4503C26.1956 47.4146 27.0146 47.4235 27.8224 47.3299C30.4824 47.0289 33.0174 46.3132 35.4119 45.0802C38.0942 43.7001 40.4173 41.883 42.3498 39.5776C45.7284 35.5464 47.344 30.862 47.4601 25.6314C47.4645 25.4508 47.4333 25.3817 47.2235 25.4352C45.5923 25.8543 43.9588 26.2534 42.3297 26.6748C41.4639 26.9 40.8033 27.4128 40.3794 28.2066C40.1562 28.6235 39.9621 29.0516 39.7389 29.4685C39.2881 30.3069 38.9043 31.192 38.3553 31.9612C36.8089 34.1306 34.0373 35.0069 31.5803 34.3937C30.4333 34.1061 29.4804 33.4506 28.5231 32.7996C27.1507 31.8653 26.1978 30.6235 25.785 29.0159C25.1646 26.599 24.5844 24.171 24.002 21.7452C23.7007 20.4944 22.9397 19.6939 21.7146 19.3439C20.7283 19.063 19.7285 18.8266 18.7399 18.5479C17.9768 18.3339 17.1912 18.151 16.4682 17.8367C15.0311 17.2102 14.0715 16.0619 13.3731 14.6929C12.496 12.9806 11.6503 11.2549 10.7911 9.53362C10.7554 9.4645 10.7108 9.39984 10.6684 9.33073C10.6215 9.36194 10.5948 9.37309 10.5747 9.39093C8.71579 11.101 7.2452 13.1032 6.06247 15.3284C4.57402 18.1265 3.74165 21.1008 3.58991 24.2646C3.58098 24.4631 3.62561 24.579 3.80414 24.6882C6.00891 26.0505 8.21369 27.4128 10.4028 28.7996C11.2241 29.3191 12.0944 29.6268 13.0651 29.638C13.7145 29.6469 14.3616 29.6424 15.011 29.6536C17.5081 29.7004 19.7151 30.5008 21.4468 32.3291C22.6229 33.571 23.7543 34.8709 24.7785 36.2398C26.3228 38.3067 26.8472 40.6678 26.2893 43.2029C26.0014 44.5094 25.5841 45.7892 25.2271 47.0802C25.1981 47.1827 25.178 47.2898 25.1445 47.4258L25.1378 47.4302ZM21.5517 47.0802C21.5763 47.0066 21.6008 46.9464 21.6164 46.8862C21.9891 45.5618 22.3729 44.2397 22.7322 42.9108C23.2455 41.0067 22.8393 39.3055 21.5472 37.8162C20.7952 36.9488 20.0209 36.0994 19.2956 35.2098C18.3539 34.0526 17.1422 33.4105 15.6827 33.2589C14.9575 33.183 14.221 33.2209 13.4891 33.2232C11.6927 33.2276 10.0346 32.7483 8.51049 31.8051C7.02427 30.8843 5.54698 29.9457 4.06523 29.0181C3.99382 28.9735 3.91571 28.9379 3.81529 28.8844C4.89537 37.1941 11.8712 45.4436 21.5495 47.0824L21.5517 47.0802Z" fill="black"/>
    <path d="M37.6121 0C40.5243 0.209583 42.7514 1.46262 44.2934 3.87505C45.1124 5.15485 45.4985 6.57065 45.5141 8.08455C45.523 8.98308 45.2842 9.83925 44.9852 10.682C44.2778 12.6619 43.0839 14.352 41.8142 15.9952C40.839 17.2571 39.7946 18.4589 38.652 19.5737C38.1343 20.0776 37.5452 20.3452 36.8422 20.0687C36.5276 19.9438 36.2286 19.7209 35.9876 19.4756C34.363 17.8302 32.9259 16.0309 31.5892 14.1446C30.6385 12.8046 29.882 11.3732 29.458 9.78128C28.86 7.54053 29.342 5.48037 30.614 3.60304C32.1002 1.40911 34.2224 0.265323 36.8512 0.0445921C37.1279 0.0222961 37.4046 0.0133776 37.6121 0.00222961V0ZM37.3689 15.7722C37.4537 15.6808 37.5251 15.6117 37.5876 15.5381C37.9402 15.1212 38.2905 14.702 38.6409 14.2829C39.7723 12.9295 40.8144 11.5137 41.5196 9.88607C41.7182 9.42454 41.9079 8.92511 41.9436 8.43237C42.0641 6.76462 41.4236 5.42017 40.0512 4.44137C38.3396 3.22178 36.0835 3.27752 34.4589 4.61305C33.1245 5.71002 32.2252 7.59181 33.0553 9.56278C33.3677 10.3075 33.7805 11.0165 34.2023 11.7099C35.0905 13.1681 36.1817 14.4768 37.3667 15.7745L37.3689 15.7722Z" fill="black"/>
    <path d="M25.1382 47.4305C25.1694 47.2945 25.1917 47.1875 25.2208 47.0849C25.5778 45.794 25.9951 44.5142 26.283 43.2076C26.8409 40.6703 26.3165 38.3114 24.7722 36.2446C23.7502 34.8756 22.6165 33.5757 21.4405 32.3338C19.7088 30.5056 17.5018 29.7051 15.0047 29.6583C14.3553 29.6472 13.7082 29.6516 13.0588 29.6427C12.088 29.6293 11.2177 29.3239 10.3965 28.8044C8.20737 27.4176 6.00259 26.0553 3.79781 24.693C3.61929 24.5815 3.57242 24.4656 3.58358 24.2693C3.73533 21.1033 4.5677 18.1312 6.05615 15.3331C7.2411 13.1079 8.70947 11.1058 10.5684 9.39565C10.5884 9.37781 10.613 9.36666 10.6621 9.33545C10.7045 9.40457 10.7513 9.46923 10.7848 9.53834C11.644 11.2574 12.492 12.9853 13.3667 14.6977C14.0674 16.0644 15.0248 17.2149 16.4619 17.8414C17.1849 18.1558 17.9704 18.3386 18.7336 18.5526C19.7222 18.8313 20.7219 19.0654 21.7083 19.3486C22.9334 19.6987 23.6944 20.4991 23.9956 21.7499C24.5781 24.1757 25.1583 26.6037 25.7786 29.0206C26.1915 30.626 27.1444 31.8701 28.5168 32.8043C29.4763 33.4553 30.427 34.1131 31.574 34.3984C34.0309 35.0138 36.8025 34.1354 38.349 31.9659C38.898 31.1967 39.2818 30.3094 39.7326 29.4732C39.9557 29.0585 40.1521 28.6282 40.373 28.2113C40.797 27.4176 41.4553 26.9025 42.3234 26.6796C43.9524 26.2582 45.5882 25.8591 47.2172 25.4399C47.427 25.3864 47.456 25.4555 47.4538 25.6361C47.3399 30.8668 45.7221 35.5534 42.3435 39.5823C40.411 41.8877 38.0879 43.7048 35.4056 45.0849C33.0111 46.3179 30.4761 47.0336 27.8161 47.3346C27.0082 47.426 26.1893 47.4193 25.3747 47.455C25.3123 47.4572 25.2475 47.4439 25.1315 47.435L25.1382 47.4305Z" fill="#6440FB"/>
    <path d="M37.3703 15.7723C36.1854 14.4769 35.0942 13.1681 34.206 11.7077C33.7842 11.0143 33.3714 10.3053 33.059 9.56058C32.2311 7.58961 33.1282 5.70782 34.4626 4.61085C36.0872 3.27532 38.3433 3.21958 40.0549 4.43917C41.4273 5.41797 42.0678 6.76019 41.9473 8.43017C41.9116 8.92291 41.7241 9.42234 41.5233 9.88387C40.8181 11.5115 39.7737 12.9273 38.6446 14.2807C38.2942 14.6998 37.9439 15.119 37.5913 15.5359C37.5288 15.6117 37.4574 15.6808 37.3726 15.77L37.3703 15.7723Z" fill="white"/>
  </g>
  <defs>
    <clipPath id="clip0_1861_158">
      <rect width="51" height="51" fill="white"/>
    </clipPath>
  </defs>
</svg>