<svg width="41" height="27" viewBox="0 0 41 27" fill="none" xmlns="http://www.w3.org/2000/svg">
<path d="M31.0409 22.0921H24.8294L25.4325 25.3798C25.7094 25.3798 25.941 25.3798 26.1726 25.3798C26.4853 25.3798 26.74 25.4666 26.7332 25.8333C26.7265 26.2 26.4814 26.2791 26.1639 26.2781C24.399 26.2781 22.6331 26.2781 20.8682 26.2781C19.497 26.2781 18.1248 26.2733 16.7535 26.2781C16.4148 26.2781 16.0993 26.2338 16.1041 25.8227C16.1089 25.4116 16.437 25.3663 16.7671 25.373C16.9124 25.3868 17.059 25.3822 17.2032 25.3595C17.2997 25.3373 17.4271 25.2495 17.4425 25.1713C17.6355 24.1581 17.8189 23.1449 18.008 22.096H14.206C14.206 22.7917 14.206 23.4711 14.206 24.1514C14.209 24.4136 14.1903 24.6757 14.1501 24.9349C14.0925 25.3153 13.8979 25.6615 13.6029 25.9083C13.3079 26.1552 12.9328 26.2857 12.5482 26.2753C9.04667 26.2798 5.54512 26.2798 2.04357 26.2753C1.8237 26.2827 1.60466 26.2448 1.4001 26.1638C1.19555 26.0828 1.00988 25.9606 0.854683 25.8046C0.699485 25.6487 0.57809 25.4625 0.498073 25.2576C0.418057 25.0526 0.381137 24.8334 0.389618 24.6136C0.389618 19.6382 0.389618 14.6631 0.389618 9.68842C0.382957 9.46128 0.42381 9.23526 0.50956 9.02482C0.59531 8.81439 0.724065 8.62419 0.88758 8.46639C1.05109 8.3086 1.24576 8.1867 1.45912 8.1085C1.67247 8.0303 1.89981 7.99752 2.12656 8.01227C3.39549 8.00262 4.66539 8.01227 5.93432 8.01227H6.78639V7.51434C6.78639 6.06689 6.78639 4.62523 6.78639 3.18067C6.76114 2.86177 6.80562 2.5412 6.91673 2.24122C7.02783 1.94124 7.20291 1.66904 7.4298 1.44353C7.65669 1.21802 7.92995 1.0446 8.2306 0.935322C8.53125 0.826043 8.85209 0.783521 9.17083 0.81071H33.681C33.9955 0.784232 34.3119 0.826502 34.6084 0.934585C34.9049 1.04267 35.1744 1.21398 35.398 1.43662C35.6217 1.65926 35.7942 1.92791 35.9036 2.22391C36.013 2.51991 36.0567 2.83617 36.0317 3.15076C36.0317 5.55803 36.0317 7.96531 36.0317 10.3726V10.9303C36.1822 10.9429 36.3067 10.9622 36.4321 10.9631C37.0594 10.9631 37.6866 10.9631 38.3138 10.9631C38.5442 10.9464 38.7754 10.979 38.9921 11.0588C39.2088 11.1387 39.406 11.2638 39.5704 11.426C39.7348 11.5881 39.8628 11.7835 39.9456 11.9991C40.0284 12.2147 40.0643 12.4454 40.0508 12.676C40.0566 15.7253 40.0566 18.7746 40.0508 21.8239C40.0508 22.7425 40.0585 23.6621 40.0508 24.5817C40.0599 24.8085 40.0215 25.0346 39.9381 25.2456C39.8547 25.4566 39.7281 25.6479 39.5665 25.8071C39.4049 25.9664 39.2118 26.0901 38.9995 26.1704C38.7873 26.2507 38.5607 26.2857 38.3341 26.2733C36.4518 26.2733 34.5698 26.2733 32.6881 26.2733C32.4722 26.2788 32.2575 26.2408 32.0567 26.1616C31.8558 26.0825 31.6729 25.9638 31.5188 25.8125C31.3647 25.6613 31.2426 25.4807 31.1596 25.2814C31.0767 25.082 31.0347 24.8681 31.036 24.6522C31.0235 23.8098 31.036 22.9673 31.036 22.0892M31.036 16.1267C31.036 14.9996 31.036 13.9227 31.036 12.8458C31.0278 12.6422 31.0424 12.4383 31.0795 12.2379C31.1595 11.8709 31.3646 11.5432 31.6596 11.3109C31.9547 11.0785 32.3213 10.9559 32.6968 10.9641C33.4774 10.9583 34.259 10.9641 35.0407 10.9641C35.0522 10.8444 35.0629 10.7875 35.0629 10.7306C35.0629 8.17824 35.0696 5.6259 35.0629 3.0726C35.07 2.89259 35.0382 2.71316 34.9698 2.54651C34.9014 2.37987 34.7978 2.22992 34.6663 2.10686C34.5347 1.9838 34.3782 1.89053 34.2073 1.83338C34.0365 1.77623 33.8553 1.75655 33.6762 1.77568C25.5093 1.77568 17.3409 1.77568 9.17083 1.77568C8.9805 1.75473 8.7879 1.77723 8.60752 1.84148C8.42714 1.90573 8.26369 2.01005 8.12946 2.1466C7.99523 2.28316 7.89372 2.44838 7.83258 2.62983C7.77143 2.81128 7.75224 3.00424 7.77645 3.19418C7.77645 4.62362 7.77645 6.05306 7.77645 7.4825C7.77645 7.63979 7.79092 7.79708 7.80057 8.00937H12.2838C12.5432 7.97419 12.8071 7.99919 13.0553 8.08242C13.3034 8.16566 13.5291 8.3049 13.7147 8.48937C13.9004 8.67383 14.0411 8.89856 14.126 9.14615C14.2109 9.39373 14.2376 9.65754 14.2041 9.91711C14.2041 11.8136 14.2041 13.7098 14.2041 15.6056C14.2041 15.7745 14.2041 15.9424 14.2041 16.1305L31.036 16.1267ZM13.2459 22.2812C13.2546 22.1558 13.2681 22.0554 13.2681 21.9551C13.2681 17.9723 13.2681 13.9896 13.2681 10.0069C13.2681 9.12198 13.0751 8.92706 12.1941 8.92706H2.39C1.50898 8.92706 1.28028 9.15672 1.28028 10.0435C1.28028 12.8741 1.28028 15.7047 1.28028 18.5352C1.28028 19.7723 1.28028 21.0104 1.28028 22.2822L13.2459 22.2812ZM39.1427 17.5655C39.1427 15.9897 39.1427 14.4148 39.1427 12.8371C39.1427 12.1124 38.8947 11.8721 38.1652 11.8721C36.4457 11.8676 34.7261 11.8654 33.0065 11.8654C32.2065 11.8654 31.945 12.1086 31.945 12.9037C31.9402 16.0804 31.945 19.257 31.9364 22.4337C31.9364 22.7821 32.0695 22.8409 32.3745 22.839C34.4897 22.8284 36.6049 22.8236 38.7201 22.839C39.0945 22.839 39.1476 22.6933 39.1456 22.3758C39.1341 20.7711 39.1408 19.1663 39.1408 17.5616M14.2311 21.0866H31.01V17.1003H14.2311V21.0866ZM1.27932 23.2317C1.27932 23.6303 1.27932 23.9777 1.27932 24.3251C1.27932 25.1115 1.54854 25.3788 2.32631 25.3788C4.71621 25.3788 7.1058 25.3788 9.49506 25.3788C10.46 25.3788 11.4182 25.3788 12.3803 25.3788C12.8744 25.3788 13.2247 25.1472 13.2488 24.7583C13.2835 24.2565 13.2575 23.7499 13.2575 23.2327L1.27932 23.2317ZM24.4897 25.3209C24.2967 24.2855 24.124 23.2945 23.9242 22.317C23.897 22.2582 23.8554 22.2073 23.8033 22.1688C23.7512 22.1304 23.6902 22.1057 23.6261 22.0969C22.1548 22.0821 20.6832 22.0821 19.2113 22.0969C19.1477 22.1051 19.0872 22.1289 19.0351 22.1663C18.9831 22.2037 18.9412 22.2535 18.9131 22.3112C18.7144 23.3022 18.5416 24.299 18.3554 25.3219L24.4897 25.3209ZM31.973 23.7577C31.9605 23.887 31.9402 23.9989 31.9392 24.1118C31.9303 24.3011 31.9358 24.4908 31.9557 24.6792C31.9671 24.8722 32.054 25.053 32.1975 25.1826C32.341 25.3122 32.5296 25.3802 32.7228 25.372C34.6167 25.3823 36.5106 25.3804 38.4045 25.3663C38.5681 25.3817 38.7313 25.334 38.8608 25.233C38.9903 25.132 39.0764 24.9853 39.1012 24.823C39.1299 24.4699 39.1334 24.1151 39.1119 23.7615L31.973 23.7577Z" fill="white"/>
<path d="M35.4761 13.5656C35.2146 13.5656 34.953 13.5724 34.6915 13.5656C34.402 13.556 34.1685 13.4383 34.1714 13.1073C34.1743 12.7763 34.3741 12.6451 34.6858 12.647C35.2377 12.647 35.7897 12.647 36.3416 12.6537C36.4037 12.6457 36.4668 12.6516 36.5263 12.6709C36.5858 12.6902 36.6402 12.7225 36.6858 12.7655C36.7313 12.8084 36.7667 12.8609 36.7894 12.9192C36.8122 12.9774 36.8217 13.04 36.8174 13.1025C36.8214 13.1648 36.812 13.2273 36.7898 13.2858C36.7676 13.3442 36.7331 13.3972 36.6886 13.4411C36.6441 13.485 36.5907 13.5189 36.532 13.5404C36.4733 13.5619 36.4107 13.5705 36.3484 13.5656C36.0589 13.583 35.7694 13.5656 35.4799 13.5656H35.4761Z" fill="white"/>
<path d="M21.4202 19.7789C21.2227 19.7748 21.0346 19.6942 20.8954 19.5539C20.7563 19.4137 20.6771 19.2249 20.6746 19.0274C20.6721 18.8298 20.7465 18.6391 20.882 18.4953C21.0175 18.3516 21.2036 18.2662 21.4009 18.2572C21.5029 18.2525 21.6049 18.2683 21.7006 18.3038C21.7964 18.3393 21.884 18.3937 21.9583 18.4638C22.0326 18.5339 22.092 18.6181 22.133 18.7116C22.1741 18.8051 22.1959 18.9059 22.1972 19.008C22.1985 19.1102 22.1792 19.2115 22.1406 19.306C22.1019 19.4005 22.0446 19.4863 21.9722 19.5582C21.8997 19.6301 21.8134 19.6867 21.7186 19.7246C21.6238 19.7625 21.5223 19.781 21.4202 19.7789Z" fill="white"/>
<path d="M7.24893 23.7373C7.61369 23.7681 7.80379 23.9534 7.8009 24.268C7.8009 24.4028 7.74732 24.5322 7.65195 24.6276C7.55658 24.7229 7.42723 24.7765 7.29236 24.7765C7.15749 24.7765 7.02813 24.7229 6.93276 24.6276C6.83739 24.5322 6.78382 24.4028 6.78382 24.268C6.77321 23.9235 6.99032 23.7923 7.24893 23.7334" fill="white"/>
<path d="M35.5406 25.1846C35.3293 24.8874 35.1334 24.7301 35.1083 24.5496C35.0717 24.2785 35.2588 24.0913 35.5599 24.0932C35.6221 24.0857 35.6852 24.093 35.744 24.1144C35.8028 24.1359 35.8558 24.171 35.8985 24.2168C35.9412 24.2626 35.9724 24.3178 35.9897 24.378C36.007 24.4382 36.0099 24.5017 35.998 24.5631C35.9691 24.7426 35.7645 24.8932 35.5406 25.1846Z" fill="white"/>
</svg>
