<svg width="14" height="13" viewBox="0 0 14 13" fill="none" xmlns="http://www.w3.org/2000/svg">
<path d="M13.5945 4.37293C13.3356 3.69386 12.9615 3.05784 12.4863 2.48907C11.8541 1.73496 11.0692 1.16621 10.1758 0.714397C9.7383 0.492767 9.26535 0.347729 8.78452 0.225507C8.24542 0.0812319 7.68727 0.00800143 7.12634 0.00795067C6.71741 -0.0149802 6.30699 0.00676055 5.90349 0.0727286C4.14731 0.341618 2.68777 1.10429 1.54936 2.37744C0.690516 3.33974 0.190875 4.4487 0.0163069 5.68763C0.00274395 5.78582 -0.00906818 5.85671 0.151062 5.8563C1.91599 5.85168 3.68063 5.85168 5.44498 5.8563C5.57623 5.8563 5.59504 5.80945 5.59417 5.70434C5.58892 5.23745 5.59198 4.77015 5.59198 4.30326V3.90481C5.66155 3.95411 5.70442 3.98344 5.74599 4.014L7.09484 5.00359C7.70386 5.46234 8.31332 5.92067 8.92321 6.3786C9.09209 6.5049 9.09603 6.49878 8.92321 6.62916C8.33344 7.07024 7.74396 7.51187 7.15478 7.95405L5.59373 9.09479V8.91798C5.59373 8.38468 5.58804 7.85138 5.59723 7.31808C5.59986 7.1759 5.55348 7.14208 5.40604 7.1429C3.7553 7.1486 2.10456 7.14656 0.454258 7.14982C0.309441 7.14982 0.114311 7.08627 0.0333706 7.1816C-0.0475695 7.27693 0.0438701 7.44356 0.0736211 7.57679C0.612638 10.0119 2.1085 11.7095 4.60933 12.6132C5.42113 12.9073 6.29117 13.0361 7.1609 12.9908C8.28867 12.9783 9.39432 12.6978 10.3731 12.176C10.8217 11.9449 11.2437 11.6717 11.6327 11.3608C12.5968 10.577 13.3053 9.55704 13.6777 8.41686C14.1266 7.0663 14.113 5.71167 13.5945 4.37293Z" fill="white"/>
</svg>
