<svg xmlns="http://www.w3.org/2000/svg" width="51" height="59" viewBox="0 0 51 59" fill="none">
  <g clip-path="url(#clip0_1861_145)">
    <path d="M0.00245902 26.5208C0.00245902 21.0111 0 15.5038 0.00491803 9.99649C0.00737705 6.63394 1.36967 3.94932 4.0377 1.92045C5.80574 0.576907 7.81721 4.63128e-05 10.0156 4.63128e-05C17.7787 0.00251153 25.5443 -0.00981455 33.3074 0.00497674C37.8713 0.0148376 41.7467 3.04952 42.8607 7.48691C43.0475 8.23387 43.1361 9.02273 43.1434 9.79188C43.173 13.0484 43.1557 16.3025 43.1557 19.5591C43.1557 20.0398 43.0648 20.5008 42.7648 20.8878C42.2877 21.5041 41.668 21.8542 40.8738 21.689C40.0426 21.514 39.5041 20.9889 39.3049 20.1532C39.2484 19.9165 39.2361 19.6675 39.2361 19.4235C39.2311 16.2286 39.2434 13.0336 39.2287 9.84118C39.2189 7.53374 38.1738 5.82042 36.1844 4.66916C35.3041 4.15886 34.3623 3.93206 33.3467 3.93206C25.5123 3.937 17.6754 3.94193 9.84098 3.93206C6.51393 3.92713 4.45328 6.45398 4.02049 8.69486C3.96148 9.00301 3.93197 9.32349 3.93197 9.63904C3.92705 20.9322 3.90984 32.2253 3.94672 43.5185C3.9541 45.6016 5.02377 47.1867 6.77951 48.2911C7.77787 48.9198 8.88443 49.1515 10.05 49.1515C15.1475 49.1515 20.2451 49.1515 25.3426 49.1515C26.2107 49.1515 26.8918 49.4769 27.2754 50.2954C27.8189 51.454 27.1549 52.768 25.9008 53.017C25.682 53.0613 25.4557 53.0811 25.232 53.0835C20.0926 53.086 14.9557 53.0909 9.81639 53.0835C5.46885 53.0786 1.59098 50.1746 0.418033 46.0453C0.147541 45.0839 0 44.1077 0 43.1068C0.00737705 37.5773 0.00245902 32.0503 0.00245902 26.5208Z" fill="black"/>
    <path d="M31.3866 51.1262C31.3866 49.6002 31.3792 48.0767 31.394 46.5508C31.3965 46.2328 31.3178 46.0183 31.0792 45.7866C29.3407 44.1102 28.2243 42.0863 27.7227 39.7123C27.1719 37.1115 27.4497 34.5969 28.6424 32.2501C30.3366 28.9122 32.9702 26.6565 36.6907 25.875C41.1342 24.9432 44.9407 26.1807 47.9997 29.5285C50.1514 31.8827 51.1694 34.7276 50.9801 37.9127C50.7907 41.0484 49.6153 43.7823 47.2448 45.9295C47.144 46.0208 47.0874 46.2081 47.0874 46.3511C47.0776 49.4942 47.0825 52.6349 47.0801 55.7781C47.0801 56.848 46.7579 57.7823 45.8407 58.4109C44.8153 59.111 43.7186 59.2121 42.6465 58.5514C41.5792 57.8932 40.5538 57.1635 39.5235 56.4437C39.2973 56.2859 39.1645 56.3032 38.9456 56.4535C37.9473 57.1438 36.944 57.8341 35.9186 58.4824C34.0276 59.6756 31.7112 58.5638 31.4456 56.3401C31.3743 55.7337 31.394 55.1149 31.3891 54.5011C31.3817 53.3745 31.3891 52.2504 31.3891 51.1237L31.3866 51.1262ZM31.3866 37.2865C31.3866 41.783 34.8169 45.185 39.3366 45.2196C42.762 45.2442 47.1047 42.4733 47.0751 37.2273C47.0506 33.1745 43.8833 29.5433 39.2432 29.5013C34.8784 29.4619 31.3866 32.9551 31.3866 37.289V37.2865ZM35.3186 54.2028C35.4219 54.1387 35.4833 54.1067 35.5399 54.0672C36.3809 53.4904 37.2194 52.9061 38.0653 52.3366C38.8079 51.8387 39.5678 51.8066 40.3251 52.312C40.6227 52.5092 40.9153 52.7138 41.2129 52.9135C41.8424 53.3375 42.4743 53.764 43.1309 54.2053V48.4268C40.5169 49.4006 37.9227 49.3759 35.3186 48.4268V54.2028Z" fill="black"/>
    <path d="M19.9263 25.5595C17.2607 25.5595 14.5951 25.5595 11.9295 25.5595C11.123 25.5595 10.4713 25.2686 10.0631 24.5487C9.39675 23.3753 10.0804 21.9307 11.4107 21.6916C11.6394 21.6497 11.8779 21.6275 12.1115 21.6275C17.4131 21.625 22.7148 21.625 28.014 21.625C28.7541 21.625 29.3763 21.8641 29.7992 22.5051C30.5836 23.6933 29.932 25.2365 28.5328 25.4929C28.3041 25.5348 28.0656 25.5546 27.8345 25.5546C25.1984 25.5595 22.5648 25.557 19.9287 25.557L19.9263 25.5595Z" fill="black"/>
    <path d="M18.5763 15.7307C16.3608 15.7307 14.1427 15.7307 11.9272 15.7307C11.1206 15.7307 10.469 15.4374 10.0608 14.72C9.39437 13.5466 10.0804 12.1019 11.4108 11.8653C11.6419 11.8234 11.878 11.8012 12.1116 11.8012C16.5255 11.7963 20.937 11.7987 25.3509 11.8012C26.219 11.8012 26.9001 12.1315 27.2813 12.95C27.8222 14.1062 27.1509 15.4226 25.8968 15.6642C25.6681 15.7086 25.4321 15.7283 25.1985 15.7283C22.9927 15.7332 20.7845 15.7307 18.5788 15.7307H18.5763Z" fill="#6440FB"/>
    <path d="M17.1313 33.423C15.3854 33.423 13.637 33.4254 11.8911 33.423C10.8805 33.4205 10.1059 32.851 9.8698 31.9611C9.57964 30.8616 10.2583 29.7794 11.3772 29.5649C11.6059 29.5205 11.8444 29.4959 12.0755 29.4959C15.5378 29.491 19.0001 29.491 22.4624 29.4959C23.7928 29.4959 24.678 30.4918 24.5206 31.7885C24.4051 32.7352 23.5542 33.4205 22.46 33.4254C20.6821 33.4328 18.9042 33.4254 17.1288 33.4254L17.1313 33.423Z" fill="#6440FB"/>
    <path d="M16.6426 41.2877C15.059 41.2877 13.4779 41.2877 11.8943 41.2877C11.1 41.2877 10.4607 40.9845 10.0574 40.2795C9.39099 39.106 10.0746 37.6614 11.4025 37.4223C11.6311 37.3804 11.8697 37.3582 12.1008 37.3582C15.2139 37.3533 18.3295 37.3533 21.4426 37.3582C22.3377 37.3582 23.0705 37.6811 23.4689 38.5242C24.0172 39.6755 23.3213 40.9845 22.0525 41.2236C21.8238 41.2656 21.5877 41.2877 21.3541 41.2877C19.7828 41.2927 18.209 41.2902 16.6377 41.2902L16.6426 41.2877Z" fill="black"/>
    <path d="M31.3869 37.2889C31.3869 32.9551 34.8787 29.4619 39.2434 29.5013C43.8836 29.5432 47.0533 33.1769 47.0754 37.2273C47.1049 42.4757 42.7623 45.2466 39.3369 45.2195C34.8172 45.185 31.3869 41.783 31.3869 37.2865V37.2889Z" fill="#6440FB"/>
    <path d="M35.3184 54.2047V48.4287C37.9225 49.3778 40.5167 49.4 43.1307 48.4287V54.2072C42.4741 53.7659 41.8446 53.3419 41.2126 52.9154C40.9175 52.7157 40.6225 52.5111 40.3249 52.3139C39.5675 51.8085 38.8077 51.8406 38.0651 52.3385C37.2167 52.908 36.3807 53.4923 35.5397 54.0691C35.4831 54.1086 35.4216 54.1406 35.3184 54.2047Z" fill="white"/>
  </g>
  <defs>
    <clipPath id="clip0_1861_145">
      <rect width="51" height="59" fill="white"/>
    </clipPath>
  </defs>
</svg>