<svg width="21" height="21" viewBox="0 0 21 21" fill="none" xmlns="http://www.w3.org/2000/svg">
<path d="M9.75198 11.032C9.75198 13.6713 9.75198 16.311 9.75198 18.951C9.75198 20.376 9.13198 20.988 7.68898 20.989C6.09631 20.9877 4.50498 20.987 2.91498 20.987C2.65765 21.0165 2.39699 20.9878 2.15227 20.9029C1.90755 20.8181 1.68503 20.6793 1.50117 20.4969C1.3173 20.3145 1.1768 20.0931 1.09005 19.849C1.00329 19.605 0.972512 19.3446 0.999977 19.087C0.999977 13.693 0.999977 8.30001 0.999977 2.90801C0.972432 2.64931 1.00356 2.38772 1.09104 2.1427C1.17852 1.89768 1.3201 1.67554 1.50526 1.49278C1.69043 1.31001 1.9144 1.17134 2.16054 1.08707C2.40668 1.0028 2.66865 0.975091 2.92698 1.00601C4.55564 1.00068 6.18431 1.00068 7.81298 1.00601C8.07551 0.972187 8.34231 0.999024 8.59285 1.08446C8.84339 1.16989 9.07099 1.31164 9.25817 1.49882C9.44534 1.68599 9.5871 1.9136 9.67253 2.16414C9.75797 2.41468 9.7848 2.68148 9.75098 2.94401C9.75098 5.64001 9.75098 8.33601 9.75098 11.032M7.24098 3.49901C6.05098 3.49901 4.92998 3.48801 3.80998 3.51701C3.70098 3.51701 3.50998 3.77301 3.50998 3.91001C3.49398 8.62801 3.49998 13.345 3.49098 18.063C3.49098 18.422 3.63498 18.506 3.95998 18.501C4.93298 18.487 5.90698 18.501 6.87998 18.492C7.00303 18.4809 7.12485 18.4588 7.24398 18.426L7.24098 3.49901Z" fill="#E35C2E"/>
<path d="M12.2341 6.82701C12.2341 5.51701 12.2341 4.20601 12.2341 2.89601C12.2066 2.64259 12.2361 2.38624 12.3203 2.14563C12.4045 1.90503 12.5412 1.68623 12.7207 1.50517C12.9001 1.32411 13.1177 1.18536 13.3575 1.09901C13.5973 1.01266 13.8534 0.980887 14.1071 1.00601C15.7917 0.997345 17.4764 0.997345 19.1611 1.00601C19.4052 0.987875 19.6503 1.02268 19.8798 1.10803C20.1092 1.19339 20.3175 1.32729 20.4904 1.50058C20.6633 1.67386 20.7968 1.88245 20.8816 2.11207C20.9665 2.34169 21.0007 2.58693 20.9821 2.83101C20.9894 5.50768 20.9894 8.18435 20.9821 10.861C20.9988 11.1005 20.9641 11.3408 20.8804 11.5658C20.7968 11.7908 20.6661 11.9953 20.497 12.1657C20.3279 12.3362 20.1244 12.4685 19.9 12.5539C19.6757 12.6393 19.4357 12.6758 19.1961 12.661C17.4741 12.6757 15.7521 12.6757 14.0301 12.661C13.7899 12.677 13.549 12.6414 13.3237 12.5565C13.0984 12.4716 12.894 12.3395 12.7241 12.1689C12.5542 11.9983 12.4228 11.7934 12.3388 11.5677C12.2548 11.3421 12.2201 11.1012 12.2371 10.861C12.2261 9.51301 12.2371 8.16101 12.2371 6.81801M14.7201 10.175C15.9371 10.175 17.0571 10.186 18.1751 10.157C18.2841 10.157 18.4751 9.90401 18.4751 9.76701C18.4951 7.82201 18.4821 5.87701 18.4951 3.93201C18.4951 3.57701 18.3581 3.48501 18.0301 3.49001C17.0951 3.50501 16.1601 3.50901 15.2251 3.49001C14.8441 3.48101 14.6961 3.59001 14.7071 3.99001C14.7331 4.94301 14.7151 5.89701 14.7151 6.85101V10.171" fill="#E35C2E"/>
<path d="M16.67 15.156C17.513 15.156 18.355 15.156 19.198 15.156C19.4326 15.1397 19.668 15.1729 19.8889 15.2537C20.1097 15.3344 20.3111 15.4608 20.4798 15.6246C20.6485 15.7885 20.7808 15.986 20.868 16.2044C20.9552 16.4227 20.9955 16.657 20.986 16.892C21 17.678 21 18.4643 20.986 19.251C20.9938 19.4816 20.9539 19.7113 20.8688 19.9258C20.7838 20.1403 20.6554 20.335 20.4917 20.4976C20.3281 20.6603 20.1326 20.7874 19.9176 20.8711C19.7026 20.9548 19.4726 20.9932 19.242 20.984C17.482 21.0013 15.722 21.0013 13.962 20.984C13.7316 20.9923 13.5021 20.9527 13.2877 20.8678C13.0734 20.7829 12.879 20.6545 12.7167 20.4908C12.5545 20.327 12.4279 20.1314 12.345 19.9163C12.2621 19.7012 12.2247 19.4713 12.235 19.241C12.2257 18.455 12.2257 17.6687 12.235 16.882C12.2254 16.6518 12.2639 16.4221 12.3481 16.2077C12.4323 15.9932 12.5604 15.7987 12.724 15.6365C12.8877 15.4743 13.0834 15.3481 13.2987 15.2659C13.5139 15.1837 13.7439 15.1473 13.974 15.159C14.874 15.151 15.774 15.159 16.674 15.159" fill="#E35C2E"/>
</svg>
