<svg width="21" height="26" viewBox="0 0 21 26" fill="none" xmlns="http://www.w3.org/2000/svg">
<path d="M5.93598 2.03799C6.16498 2.05799 6.39398 2.06899 6.62198 2.09999C6.78158 2.13322 6.94772 2.11186 7.09371 2.03931C7.2397 1.96677 7.35708 1.84726 7.42698 1.69999C7.56735 1.44756 7.72576 1.2056 7.90098 0.975987C7.96621 0.864549 8.05297 0.76721 8.15619 0.689641C8.25942 0.612072 8.37706 0.555826 8.50224 0.52418C8.62743 0.492535 8.75766 0.486123 8.88535 0.505319C9.01304 0.524514 9.13563 0.568933 9.24598 0.635987C9.5157 0.760713 9.77517 0.906498 10.022 1.07199C10.1561 1.17849 10.322 1.23704 10.4933 1.23831C10.6645 1.23958 10.8313 1.18349 10.967 1.07899C11.1981 0.920079 11.4411 0.779325 11.694 0.657987C11.9134 0.516782 12.1799 0.468331 12.435 0.523252C12.6901 0.578173 12.9131 0.731987 13.055 0.950987C13.2405 1.17258 13.4055 1.41055 13.548 1.66199C13.6255 1.82389 13.7552 1.95502 13.9163 2.03429C14.0774 2.11355 14.2604 2.13634 14.436 2.09899C14.7561 2.05681 15.0792 2.04076 15.402 2.05099C15.6179 2.04798 15.8283 2.11852 15.9988 2.25101C16.1693 2.38349 16.2896 2.57004 16.34 2.77999C16.4296 3.07231 16.4827 3.37461 16.498 3.67999C16.4841 3.88073 16.5432 4.07972 16.6642 4.24045C16.7853 4.40118 16.9602 4.51286 17.157 4.55499C17.3848 4.62299 17.6063 4.71065 17.819 4.81699C17.9565 4.8607 18.0835 4.93238 18.1919 5.02753C18.3004 5.12269 18.388 5.23925 18.4492 5.36989C18.5104 5.50053 18.544 5.64243 18.5477 5.78666C18.5515 5.93089 18.5253 6.07434 18.471 6.20799C18.3994 6.48754 18.3116 6.76267 18.208 7.03199C18.1528 7.15719 18.1392 7.29675 18.1691 7.43026C18.199 7.56376 18.2708 7.68421 18.374 7.77399C18.6052 7.99934 18.8223 8.2388 19.024 8.49099C19.2016 8.67535 19.3017 8.9208 19.3038 9.17679C19.3058 9.43278 19.2096 9.67981 19.035 9.86699C18.825 10.1345 18.5982 10.3883 18.356 10.627C18.2613 10.7135 18.1955 10.8272 18.1676 10.9524C18.1397 11.0776 18.151 11.2084 18.2 11.327C18.3237 11.679 18.4292 12.0371 18.516 12.4C18.5727 12.5996 18.557 12.8129 18.4718 13.0021C18.3865 13.1913 18.2371 13.3443 18.05 13.434C17.7538 13.5997 17.4419 13.7356 17.119 13.84C16.9356 13.883 16.7733 13.9893 16.6606 14.1402C16.5479 14.2911 16.4921 14.477 16.503 14.665C16.4885 14.9197 16.4504 15.1724 16.389 15.42C16.3752 15.5592 16.3333 15.6942 16.2658 15.8167C16.1984 15.9393 16.1068 16.0469 15.9966 16.1331C15.8864 16.2193 15.7599 16.2822 15.6247 16.3181C15.4895 16.354 15.3484 16.3621 15.21 16.342C14.9122 16.3374 14.6148 16.3177 14.319 16.283C14.1757 16.2593 14.0286 16.2817 13.8989 16.3469C13.7691 16.4121 13.6634 16.5168 13.597 16.646C13.4456 16.9018 13.2766 17.1468 13.091 17.379C12.9469 17.606 12.7193 17.7672 12.4574 17.8278C12.1954 17.8884 11.9201 17.8436 11.691 17.703C11.4148 17.5708 11.1476 17.4209 10.891 17.254C10.784 17.1761 10.6554 17.1333 10.5231 17.1315C10.3907 17.1297 10.2611 17.169 10.152 17.244C9.89098 17.403 9.62798 17.562 9.35198 17.696C9.2412 17.7705 9.11671 17.8223 8.98574 17.8483C8.85478 17.8742 8.71995 17.8739 8.58912 17.8473C8.45828 17.8207 8.33404 17.7683 8.22363 17.6932C8.11322 17.6182 8.01884 17.5219 7.94598 17.41C7.75378 17.1831 7.58179 16.9398 7.43198 16.683C7.36484 16.5394 7.25189 16.4222 7.11088 16.3498C6.96987 16.2774 6.8088 16.2539 6.65298 16.283C6.42598 16.315 6.19598 16.325 5.96698 16.342C5.79868 16.3759 5.62497 16.3724 5.4582 16.3316C5.29142 16.2908 5.13567 16.2138 5.00203 16.106C4.86838 15.9983 4.76012 15.8624 4.68493 15.708C4.60974 15.5537 4.56946 15.3847 4.56698 15.213C4.52798 14.944 4.49698 14.674 4.46698 14.403C4.45763 14.2872 4.41318 14.177 4.33957 14.0871C4.26595 13.9972 4.16667 13.932 4.05498 13.9C3.74114 13.7952 3.43275 13.6747 3.13098 13.539C3.00467 13.4962 2.8882 13.4285 2.78842 13.34C2.68865 13.2515 2.60758 13.144 2.55 13.0237C2.49241 12.9034 2.45947 12.7728 2.45312 12.6396C2.44676 12.5064 2.46711 12.3732 2.51298 12.248C2.58624 11.9422 2.67944 11.6416 2.79198 11.348C2.84758 11.2232 2.86185 11.0839 2.8327 10.9504C2.80356 10.8169 2.73253 10.6963 2.62998 10.606C2.39834 10.3805 2.18187 10.14 1.98198 9.88599C1.79732 9.69577 1.69512 9.44041 1.69755 9.17532C1.69999 8.91022 1.80686 8.65678 1.99498 8.46999C2.19232 8.22405 2.40438 7.99029 2.62998 7.76999C2.73231 7.67956 2.80324 7.55896 2.83254 7.42558C2.86184 7.29221 2.84799 7.15297 2.79298 7.02799C2.67292 6.71052 2.57273 6.38589 2.49298 6.05599C2.41656 5.82978 2.42937 5.58294 2.5288 5.36587C2.62823 5.14879 2.80678 4.97786 3.02798 4.88799C3.32412 4.7403 3.63059 4.6143 3.94498 4.51099C4.09454 4.47501 4.22808 4.39077 4.32496 4.27129C4.42184 4.15181 4.47668 4.00375 4.48098 3.84999C4.49764 3.62092 4.52668 3.39292 4.56798 3.16699C4.71298 2.30299 5.06798 2.01099 5.93798 2.03499M10.476 15.173C11.6571 15.1742 12.8121 14.8249 13.7946 14.1694C14.7772 13.5139 15.5432 12.5816 15.9957 11.4905C16.4481 10.3995 16.5667 9.19872 16.3364 8.04023C16.1061 6.88174 15.5373 5.81762 14.702 4.98256C13.8666 4.1475 12.8023 3.57904 11.6438 3.34915C10.4852 3.11925 9.28448 3.23825 8.19358 3.69108C7.10268 4.14391 6.17065 4.91021 5.51546 5.89299C4.86028 6.87577 4.5114 8.03084 4.51298 9.21199C4.52321 10.7901 5.1548 12.3007 6.27092 13.4165C7.38705 14.5322 8.89783 15.1633 10.476 15.173Z" fill="#6440FB"/>
<path d="M9.21798 18.536C9.17498 18.642 9.14998 18.711 9.11798 18.777C8.13865 20.8977 7.15732 23.0173 6.17398 25.136C6.11291 25.273 6.01044 25.3873 5.88098 25.463C5.65398 25.576 5.42798 25.428 5.35698 25.143C5.13698 24.261 4.92398 23.378 4.70798 22.495C4.65798 22.289 4.60798 22.084 4.54698 21.854L3.60398 22.323C2.91998 22.664 2.23498 23.004 1.55298 23.349C1.35298 23.449 1.15298 23.512 0.963981 23.337C0.774981 23.162 0.848981 22.971 0.938981 22.776C1.92498 20.6486 2.90965 18.5213 3.89298 16.394C3.92398 16.327 3.96198 16.264 4.01298 16.169C4.1952 16.5102 4.48041 16.7852 4.82802 16.9549C5.17562 17.1245 5.56789 17.1802 5.94898 17.114C6.08505 17.111 6.22073 17.0983 6.35498 17.076C6.4596 17.0419 6.5733 17.0491 6.67277 17.0961C6.77224 17.1432 6.84995 17.2265 6.88998 17.329C6.98815 17.4982 7.10234 17.6576 7.23098 17.805C7.43226 18.1314 7.73727 18.3809 8.09717 18.5135C8.45707 18.646 8.85104 18.6539 9.21598 18.536" fill="#6440FB"/>
<path d="M16.4119 21.848L15.8429 24.168C15.7623 24.498 15.6809 24.8276 15.5989 25.157C15.5851 25.2433 15.5433 25.3227 15.4801 25.3831C15.4168 25.4434 15.3355 25.4813 15.2486 25.4911C15.1617 25.5008 15.0741 25.4819 14.999 25.4371C14.9239 25.3923 14.8656 25.3241 14.8329 25.243C13.8059 23.024 12.7809 20.805 11.7419 18.555C11.8219 18.566 11.8749 18.571 11.9259 18.581C12.1921 18.6465 12.4711 18.6391 12.7335 18.5596C12.9958 18.4801 13.2319 18.3313 13.4169 18.129C13.6663 17.8623 13.8944 17.5764 14.0989 17.274C14.1446 17.1954 14.2136 17.1329 14.2964 17.0952C14.3792 17.0576 14.4717 17.0467 14.5609 17.064C14.9235 17.1052 15.2892 17.1112 15.6529 17.082C16.2459 17.012 16.4589 16.841 16.9649 16.192C17.0059 16.274 17.0449 16.346 17.0799 16.421C18.0539 18.521 19.0299 20.627 19.9929 22.736C20.0615 22.8941 20.0711 23.0715 20.0199 23.236C19.9379 23.459 19.7079 23.494 19.4569 23.369C18.5369 22.9117 17.6179 22.4526 16.6999 21.992L16.4109 21.849" fill="#6440FB"/>
<path d="M10.487 4.01999C11.5126 4.02196 12.5147 4.32779 13.3666 4.89883C14.2186 5.46987 14.8822 6.28053 15.2738 7.22847C15.6654 8.17641 15.7673 9.21912 15.5668 10.2249C15.3662 11.2308 14.8721 12.1546 14.1469 12.8799C13.4216 13.6051 12.4978 14.0992 11.492 14.2998C10.4861 14.5003 9.44341 14.3984 8.49548 14.0068C7.54754 13.6152 6.73687 12.9516 6.16582 12.0996C5.59478 11.2477 5.28897 10.2456 5.28699 9.21999C5.29252 7.84257 5.84215 6.52314 6.81614 5.54914C7.79013 4.57515 9.10956 4.02551 10.487 4.01999ZM14.271 8.30499C14.281 8.2467 14.2782 8.18692 14.2628 8.12983C14.2473 8.07273 14.2196 8.01971 14.1814 7.97447C14.1433 7.92922 14.0958 7.89285 14.0422 7.86789C13.9886 7.84294 13.9301 7.83 13.871 7.82999C13.257 7.73899 12.643 7.64899 12.028 7.57199C11.949 7.5705 11.8722 7.54595 11.807 7.50135C11.7418 7.45676 11.691 7.39406 11.661 7.32099C11.395 6.75199 11.109 6.19199 10.839 5.62099C10.8118 5.53754 10.7589 5.46484 10.6878 5.41329C10.6168 5.36173 10.5313 5.33397 10.4435 5.33397C10.3557 5.33397 10.2702 5.36173 10.1992 5.41329C10.1281 5.46484 10.0752 5.53754 10.048 5.62099C9.77399 6.19599 9.49599 6.76899 9.20299 7.33399C9.17396 7.38567 9.13483 7.43098 9.08793 7.46723C9.04103 7.50348 8.98731 7.52992 8.92999 7.54499C8.31799 7.64499 7.70299 7.72898 7.08799 7.81298C6.89699 7.83898 6.71199 7.86999 6.63399 8.07999C6.54999 8.30599 6.68998 8.44899 6.83398 8.58799C7.29098 9.03299 7.75199 9.47399 8.19899 9.92899C8.23517 9.96957 8.2627 10.0171 8.27989 10.0687C8.29709 10.1203 8.30358 10.1748 8.29899 10.229C8.19899 10.875 8.08299 11.519 7.96299 12.162C7.93879 12.2483 7.94132 12.3398 7.97024 12.4246C7.99916 12.5094 8.05311 12.5835 8.12498 12.637C8.19444 12.687 8.27788 12.714 8.36349 12.714C8.44909 12.714 8.53253 12.687 8.60199 12.637C9.15799 12.344 9.71999 12.061 10.273 11.763C10.3364 11.7235 10.4097 11.7025 10.4845 11.7025C10.5593 11.7025 10.6325 11.7235 10.696 11.763C11.241 12.058 11.796 12.336 12.344 12.626C12.509 12.714 12.67 12.784 12.844 12.66C13.018 12.536 13.01 12.341 12.978 12.151C12.878 11.531 12.763 10.912 12.678 10.29C12.6669 10.1718 12.7029 10.0539 12.778 9.96199C13.219 9.47799 13.678 9.01099 14.126 8.53299C14.186 8.46025 14.2382 8.38149 14.282 8.29799" fill="#6440FB"/>
<path d="M12.12 11.624C11.639 11.378 11.206 11.163 10.78 10.936C10.6897 10.8806 10.5859 10.8513 10.48 10.8513C10.3741 10.8513 10.2703 10.8806 10.18 10.936C9.76701 11.167 9.345 11.38 8.88 11.623C8.968 11.108 9.04101 10.639 9.12901 10.174C9.15316 10.0662 9.14839 9.95393 9.1152 9.84857C9.08201 9.74321 9.02158 9.64849 8.94002 9.57399C8.61002 9.23199 8.29601 8.87399 7.98401 8.52999C8.24901 8.48899 8.58401 8.43799 8.92101 8.38499C9.87201 8.23299 9.61401 8.40599 10.021 7.59999C10.167 7.31299 10.305 7.02198 10.471 6.68198C10.549 6.83098 10.611 6.94299 10.671 7.05799C10.813 7.34799 10.971 7.63298 11.089 7.93098C11.1322 8.04644 11.2091 8.14627 11.3096 8.21758C11.4101 8.28889 11.5298 8.3284 11.653 8.33099C12.1 8.38299 12.544 8.45799 12.989 8.52399C13.02 8.52399 13.05 8.53999 13.02 8.53199C12.72 8.86499 12.408 9.22699 12.072 9.55899C11.9829 9.63665 11.9171 9.73746 11.8818 9.85025C11.8465 9.96304 11.8431 10.0834 11.872 10.198C11.962 10.655 12.034 11.115 12.122 11.621" fill="#6440FB"/>
</svg>
