<svg width="30" height="30" viewBox="0 0 30 30" fill="none" xmlns="http://www.w3.org/2000/svg">
<path d="M19.4839 10.774C16.8069 8.09798 15.1869 0.737976 15.1869 0.737976C14.3529 8.30298 10.9869 10.695 10.9869 10.695C7.34789 14.538 0.514893 15.969 0.514893 15.969C4.30592 15.9487 7.97842 17.2892 10.8649 19.747C13.5409 22.423 15.1649 29.782 15.1649 29.782C16.3439 22.766 19.3649 19.825 19.3649 19.825L19.3799 19.807C22.5629 15.956 29.8299 14.556 29.8299 14.556C26.0389 14.5763 22.3664 13.2357 19.4799 10.778M17.8529 18.069C17.8418 18.0789 17.8314 18.0896 17.8219 18.101L14.9929 21.009L9.55189 15.399L12.3599 12.588L12.4919 12.456L15.3529 9.51698L20.7979 15.124L17.8529 18.069Z" fill="#5A313D"/>
</svg>
