<svg width="38" height="40" viewBox="0 0 38 40" fill="none" xmlns="http://www.w3.org/2000/svg">
<path d="M25.1189 0L25.3417 0.0704308C25.8123 0.201451 26.2744 0.36099 26.7252 0.548143C29.1642 1.64673 31.3563 3.21742 33.1721 5.16759C34.9878 7.11775 36.3906 9.40792 37.2975 11.903C37.2418 9.18067 37.1768 6.45832 37.183 3.91664C37.183 3.18169 37.183 2.44369 37.183 1.70874V1.31065C37.183 0.860496 37.183 0.137801 37.183 0.137801" fill="white"/>
<path d="M37.536 29.4192V23.6713L37.5174 19.571C37.4793 17.9267 37.2467 16.2926 36.8241 14.702V14.6713C36.8087 14.6162 36.7994 14.5703 36.7839 14.5152C36.7189 14.2794 36.6477 14.0497 36.5797 13.82C35.7196 11.1969 34.3161 8.78004 32.459 6.7237C30.6019 4.66736 28.3318 3.01674 25.7937 1.8772C25.344 1.68985 24.883 1.5303 24.4134 1.39948V1.39948C20.7673 0.211564 16.8375 0.179106 13.1719 1.30664C9.50628 2.43417 6.28771 4.66547 3.96501 7.68938C2.30739 9.86273 1.12962 12.3563 0.507964 15.0087C-0.11369 17.6611 -0.165356 20.4131 0.356295 23.0864L3.59052 20.3304C3.61885 20.304 3.6523 20.2836 3.68884 20.2703C3.72539 20.2571 3.76426 20.2513 3.80313 20.2533C3.84199 20.2554 3.88004 20.2652 3.91496 20.2822C3.94988 20.2992 3.98095 20.323 4.0063 20.3523C4.03164 20.3815 4.05074 20.4155 4.06242 20.4522C4.07411 20.4889 4.07813 20.5276 4.07428 20.566C4.07042 20.6043 4.05874 20.6414 4.03996 20.6752C4.02118 20.7089 3.99568 20.7385 3.96501 20.7622L0.467709 23.7387C0.583254 24.247 0.71634 24.7503 0.866961 25.2484L4.02381 22.5689C4.05214 22.5425 4.08559 22.5221 4.12213 22.5088C4.15868 22.4956 4.19756 22.4898 4.23643 22.4918C4.27529 22.4939 4.31333 22.5037 4.34825 22.5207C4.38317 22.5377 4.41425 22.5616 4.43959 22.5908C4.46494 22.62 4.48403 22.654 4.49571 22.6907C4.5074 22.7275 4.51144 22.7662 4.50758 22.8045C4.50372 22.8428 4.49204 22.8799 4.47326 22.9137C4.45448 22.9474 4.42898 22.977 4.39831 23.0007L1.05885 25.8364C1.23216 26.3467 1.42612 26.85 1.6407 27.3461L4.50353 24.9146C4.56181 24.8655 4.63743 24.8413 4.71375 24.8473C4.79008 24.8533 4.86086 24.8891 4.91052 24.9468C4.96018 25.0044 4.98466 25.0793 4.97856 25.1548C4.97247 25.2303 4.9363 25.3003 4.87802 25.3495L1.88829 27.8881C2.9631 30.218 4.51067 32.3044 6.43484 34.0175C8.35902 35.7307 10.6187 37.034 13.0735 37.8466C17.7499 39.3777 22.2686 38.949 26.5087 36.3001C27.0348 35.9694 27.4372 35.6203 27.4155 34.8639C27.3722 33.4645 27.3598 32.065 27.3474 30.6656C26.6454 30.9754 25.8497 31.0061 25.1254 30.7512C24.4012 30.4964 23.8037 29.9756 23.457 29.2967C21.2596 30.4726 18.8146 30.7574 16.156 30.0654C12.0583 28.9966 9.375 26.2436 8.35366 22.0759C7.3478 17.9847 8.42484 14.3743 11.5384 11.5295C14.7757 8.57437 18.5577 7.89149 22.575 9.5053C26.5087 11.0885 28.8113 14.0803 29.161 18.4563C29.356 20.9061 29.3034 23.3559 29.291 25.8057C29.291 28.3535 29.291 30.8738 29.291 33.4216V36.8483C29.291 36.8483 29.291 39.0133 29.291 39.3165L37.5298 34.5853L37.536 29.4192Z" fill="white"/>
<path d="M26.1402 29.7681C27.1555 29.7681 27.9786 28.9537 27.9786 27.9491C27.9786 26.9445 27.1555 26.1301 26.1402 26.1301C25.1248 26.1301 24.3018 26.9445 24.3018 27.9491C24.3018 28.9537 25.1248 29.7681 26.1402 29.7681Z" fill="white"/>
</svg>
