<svg width="38" height="40" viewBox="0 0 38 40" fill="none" xmlns="http://www.w3.org/2000/svg">
<g id="Group 4486">
<path id="Vector" d="M25.2598 0L25.4826 0.0704308C25.9532 0.201451 26.4152 0.36099 26.866 0.548143C29.3051 1.64673 31.4972 3.21742 33.3129 5.16759C35.1287 7.11775 36.5314 9.40792 37.4384 11.903C37.3827 9.18067 37.3177 6.45832 37.3239 3.91664C37.3239 3.18169 37.3239 2.44369 37.3239 1.70874V1.31065C37.3239 0.860496 37.3239 0.137801 37.3239 0.137801" fill="white"/>
<path id="Vector_2" d="M37.6766 29.4195V23.6716L37.6581 19.5712C37.62 17.927 37.3873 16.2928 36.9648 14.7022V14.6716C36.9493 14.6165 36.94 14.5705 36.9246 14.5154C36.8596 14.2796 36.7884 14.0499 36.7203 13.8203C35.8602 11.1972 34.4568 8.78028 32.5996 6.72394C30.7425 4.66761 28.4724 3.01698 25.9344 1.87744C25.4847 1.69009 25.0237 1.53055 24.554 1.39973C20.9079 0.211808 16.9781 0.179351 13.3125 1.30688C9.64691 2.43441 6.42833 4.66572 4.10563 7.68962C2.44802 9.86297 1.27024 12.3566 0.648589 15.0089C0.0269346 17.6613 -0.0247311 20.4133 0.49692 23.0867L3.73114 20.3307C3.75947 20.3043 3.79292 20.2838 3.82947 20.2706C3.86601 20.2573 3.90489 20.2515 3.94375 20.2536C3.98262 20.2556 4.02066 20.2654 4.05558 20.2824C4.0905 20.2994 4.12158 20.3233 4.14692 20.3525C4.17227 20.3817 4.19136 20.4157 4.20305 20.4525C4.21473 20.4892 4.21876 20.5279 4.2149 20.5662C4.21104 20.6045 4.19937 20.6417 4.18059 20.6754C4.16181 20.7091 4.13631 20.7387 4.10563 20.7624L0.608334 23.739C0.723879 24.2473 0.856965 24.7505 1.00759 25.2487L4.16444 22.5692C4.19277 22.5428 4.22621 22.5223 4.26276 22.5091C4.2993 22.4958 4.33819 22.4901 4.37705 22.4921C4.41592 22.4941 4.45395 22.504 4.48887 22.521C4.52379 22.538 4.55487 22.5618 4.58022 22.591C4.60556 22.6202 4.62465 22.6542 4.63634 22.691C4.64802 22.7277 4.65206 22.7664 4.6482 22.8047C4.64434 22.843 4.63267 22.8802 4.61389 22.9139C4.59511 22.9476 4.56961 22.9772 4.53893 23.0009L1.19947 25.8366C1.37279 26.347 1.56674 26.8502 1.78133 27.3463L4.64416 24.9149C4.70244 24.8657 4.77805 24.8415 4.85438 24.8475C4.9307 24.8536 5.00149 24.8894 5.05115 24.947C5.10081 25.0047 5.12528 25.0795 5.11919 25.155C5.11309 25.2305 5.07693 25.3006 5.01865 25.3497L2.02892 27.8883C3.10372 30.2183 4.65129 32.3046 6.57547 34.0178C8.49964 35.7309 10.7593 37.0343 13.2141 37.8468C17.8906 39.3779 22.4092 38.9492 26.6493 36.3004C27.1754 35.9696 27.5778 35.6205 27.5561 34.8642C27.5128 33.4647 27.5004 32.0653 27.488 30.6658C26.786 30.9757 25.9904 31.0063 25.2661 30.7515C24.5418 30.4966 23.9444 29.9758 23.5977 29.297C21.4002 30.4729 18.9552 30.7577 16.2967 30.0656C12.1989 28.9969 9.51562 26.2439 8.49429 22.0761C7.48842 17.985 8.56546 14.3745 11.679 11.5297C14.9163 8.57461 18.6984 7.89173 22.7156 9.50554C26.6493 11.0887 28.9519 14.0806 29.3017 18.4565C29.4967 20.9064 29.444 23.3562 29.4317 25.806C29.4317 28.3538 29.4317 30.874 29.4317 33.4218V36.8485C29.4317 36.8485 29.4317 39.0135 29.4317 39.3167L37.6704 34.5855L37.6766 29.4195Z" fill="white"/>
<path id="Vector_3" d="M26.2818 29.7679C27.2971 29.7679 28.1202 28.9535 28.1202 27.9489C28.1202 26.9443 27.2971 26.1299 26.2818 26.1299C25.2664 26.1299 24.4434 26.9443 24.4434 27.9489C24.4434 28.9535 25.2664 29.7679 26.2818 29.7679Z" fill="white"/>
</g>
</svg>
