<svg width="170" height="170" viewBox="0 0 170 170" fill="none" xmlns="http://www.w3.org/2000/svg">
<g opacity="0.1">
<ellipse cx="81.5" cy="85.5" rx="81.5" ry="84.5" fill="#D9D9D9"/>
<path d="M80.4902 -45.4049L-48.8698 120.075" stroke="#6440FB" stroke-width="3.0006"/>
<path d="M86.7942 -40.4768L-42.5658 125.003" stroke="#6440FB" stroke-width="3.0006"/>
<path d="M93.0981 -35.5488L-36.2619 129.931" stroke="#6440FB" stroke-width="3.0006"/>
<path d="M99.4021 -30.6208L-29.9579 134.859" stroke="#6440FB" stroke-width="3.0006"/>
<path d="M105.706 -25.6929L-23.6539 139.787" stroke="#6440FB" stroke-width="3.0006"/>
<path d="M112.01 -20.7649L-17.3497 144.715" stroke="#6440FB" stroke-width="3.0006"/>
<path d="M118.314 -15.8369L-11.0458 149.643" stroke="#6440FB" stroke-width="3.0006"/>
<path d="M124.618 -10.9088L-4.74183 154.571" stroke="#6440FB" stroke-width="3.0006"/>
<path d="M130.922 -5.98083L1.56212 159.499" stroke="#6440FB" stroke-width="3.0006"/>
<path d="M137.226 -1.05286L7.86608 164.427" stroke="#6440FB" stroke-width="3.0006"/>
<path d="M143.53 3.87512L14.17 169.355" stroke="#6440FB" stroke-width="3.0006"/>
<path d="M149.834 8.8031L20.4742 174.283" stroke="#6440FB" stroke-width="3.0006"/>
<path d="M156.138 13.7311L26.7782 179.211" stroke="#6440FB" stroke-width="3.0006"/>
<path d="M162.442 18.6591L33.0821 184.139" stroke="#6440FB" stroke-width="3.0006"/>
<path d="M168.746 23.5872L39.3861 189.067" stroke="#6440FB" stroke-width="3.0006"/>
<path d="M193.962 43.2991L64.602 208.779" stroke="#6440FB" stroke-width="3.0006"/>
<path d="M175.05 28.5151L45.6901 193.995" stroke="#6440FB" stroke-width="3.0006"/>
<path d="M200.266 48.2272L70.9061 213.707" stroke="#6440FB" stroke-width="3.0006"/>
<path d="M181.354 33.4431L51.9941 198.923" stroke="#6440FB" stroke-width="3.0006"/>
<path d="M206.57 53.1552L77.2101 218.635" stroke="#6440FB" stroke-width="3.0006"/>
<path d="M187.658 38.3711L58.2981 203.851" stroke="#6440FB" stroke-width="3.0006"/>
<path d="M212.874 58.0831L83.5142 223.563" stroke="#6440FB" stroke-width="3.0006"/>
</g>
</svg>
