<svg width="326" height="355" viewBox="0 0 326 355" fill="none" xmlns="http://www.w3.org/2000/svg">
<path d="M306.048 0H19.4527C8.79394 0 0.15332 8.64062 0.15332 19.2994V334.844C0.15332 345.503 8.79394 354.143 19.4527 354.143H306.048C316.707 354.143 325.348 345.503 325.348 334.844V19.2994C325.348 8.64062 316.707 0 306.048 0Z" fill="#F6F7FA"/>
<g filter="url(#filter0_d_720_908)">
<path d="M39.7168 20.2642H23.3124C21.7136 20.2642 20.4175 21.5603 20.4175 23.1591V39.5635C20.4175 41.1623 21.7136 42.4584 23.3124 42.4584H39.7168C41.3157 42.4584 42.6117 41.1623 42.6117 39.5635V23.1591C42.6117 21.5603 41.3157 20.2642 39.7168 20.2642Z" fill="white"/>
</g>
<path d="M26.9636 35.3428H28.7295V31.0554L26.207 29.1641V34.5862C26.207 34.6856 26.2266 34.7839 26.2646 34.8757C26.3026 34.9675 26.3584 35.0509 26.4286 35.1212C26.4989 35.1914 26.5823 35.2471 26.6741 35.2852C26.7658 35.3232 26.8642 35.3428 26.9636 35.3428V35.3428Z" fill="#4285F4"/>
<path d="M34.7817 35.3428H36.5467C36.646 35.3428 36.7444 35.3232 36.8362 35.2852C36.928 35.2471 37.0114 35.1914 37.0816 35.1212C37.1519 35.0509 37.2076 34.9675 37.2456 34.8757C37.2836 34.7839 37.3032 34.6856 37.3032 34.5862V29.1641L34.7817 31.0554V35.3428Z" fill="#34A853"/>
<path d="M34.7817 27.7775V31.0584L37.3042 29.1671V28.1558C37.3043 27.945 37.2456 27.7383 37.1348 27.5589C37.024 27.3796 36.8654 27.2346 36.6769 27.1403C36.4883 27.046 36.2772 27.0061 36.0672 27.0251C35.8572 27.0441 35.6567 27.1212 35.4881 27.2478L34.7817 27.7775Z" fill="#FBBC04"/>
<path d="M28.7295 31.0563V27.7754L31.7556 30.045L34.7818 27.7754V31.0563L31.7556 33.3259L28.7295 31.0563Z" fill="#EA4335"/>
<path d="M26.207 28.1558V29.1652L28.7295 31.0565V27.7775L28.0231 27.2478C27.8545 27.1212 27.654 27.0441 27.444 27.0251C27.234 27.0061 27.0229 27.046 26.8343 27.1403C26.6458 27.2346 26.4872 27.3796 26.3764 27.5589C26.2656 27.7383 26.2069 27.945 26.207 28.1558V28.1558Z" fill="#C5221F"/>
<g filter="url(#filter1_d_720_908)">
<path d="M66.7364 20.2642H50.3319C48.7331 20.2642 47.437 21.5603 47.437 23.1591V39.5635C47.437 41.1623 48.7331 42.4584 50.3319 42.4584H66.7364C68.3352 42.4584 69.6313 41.1623 69.6313 39.5635V23.1591C69.6313 21.5603 68.3352 20.2642 66.7364 20.2642Z" fill="white"/>
</g>
<path d="M63.8616 31.7179C63.862 31.6733 63.8509 31.6293 63.8292 31.5902C63.8076 31.5511 63.7762 31.5183 63.7381 31.495H63.7333L59.7142 29.1154C59.6968 29.1038 59.6788 29.0932 59.6602 29.0836C59.5836 29.0441 59.4988 29.0234 59.4126 29.0234C59.3265 29.0234 59.2416 29.0441 59.1651 29.0836C59.1465 29.0931 59.1285 29.1038 59.1111 29.1154L55.092 31.495H55.0872C55.0487 31.5187 55.017 31.552 54.9952 31.5916C54.9735 31.6312 54.9623 31.6758 54.9629 31.721C54.9635 31.7662 54.9758 31.8105 54.9986 31.8495C55.0214 31.8886 55.0539 31.921 55.093 31.9437L59.1121 34.3233C59.1295 34.3349 59.1475 34.3455 59.1661 34.3552C59.2426 34.3947 59.3275 34.4153 59.4136 34.4153C59.4997 34.4153 59.5846 34.3947 59.6611 34.3552C59.6797 34.3455 59.6977 34.3349 59.7152 34.3233L63.7343 31.9437C63.7735 31.9206 63.8059 31.8876 63.8283 31.8479C63.8507 31.8083 63.8621 31.7634 63.8616 31.7179V31.7179Z" fill="#0A2767"/>
<path d="M55.559 30.1297H58.1972V32.5479H55.559V30.1297ZM63.3222 27.672V26.5661C63.3237 26.5003 63.3123 26.4349 63.2885 26.3736C63.2648 26.3122 63.2291 26.2561 63.1837 26.2085C63.1383 26.161 63.0839 26.1228 63.0237 26.0962C62.9635 26.0697 62.8987 26.0552 62.8329 26.0537H55.9884C55.9226 26.0552 55.8578 26.0697 55.7976 26.0962C55.7374 26.1228 55.6831 26.161 55.6376 26.2085C55.5922 26.2561 55.5566 26.3122 55.5328 26.3736C55.5091 26.4349 55.4976 26.5003 55.4992 26.5661V27.672L59.5453 28.7556L63.3222 27.672Z" fill="#0364B8"/>
<path d="M55.499 27.6719H58.2009V30.0997H55.499V27.6719Z" fill="#0078D4"/>
<path d="M60.8943 27.6719H58.1924V30.0997L60.8943 32.5276H63.3222V30.0997L60.8943 27.6719Z" fill="#28A8EA"/>
<path d="M58.1963 30.1001H60.8982V32.5279H58.1963V30.1001Z" fill="#0078D4"/>
<path d="M58.1963 32.5278H60.8982V34.9557H58.1963V32.5278Z" fill="#0364B8"/>
<path d="M55.5591 32.5479H58.1963V34.746H55.5591V32.5479Z" fill="#14447D"/>
<path d="M60.894 32.5278H63.3219V34.9557H60.894V32.5278Z" fill="#0078D4"/>
<path d="M63.7383 31.9301H63.7335L59.7144 34.191C59.697 34.2016 59.6787 34.2122 59.6604 34.2209C59.5921 34.2535 59.5179 34.2718 59.4423 34.2749L59.2223 34.1466C59.2037 34.1373 59.1857 34.127 59.1682 34.1157L55.0951 31.7911L54.9619 31.7168V36.2927C54.9624 36.3653 54.9772 36.4371 55.0055 36.504C55.0338 36.5709 55.0749 36.6315 55.1266 36.6825C55.1783 36.7335 55.2395 36.7738 55.3068 36.8011C55.3741 36.8285 55.4461 36.8423 55.5187 36.8418H63.3166H63.3301C63.396 36.838 63.461 36.8246 63.5231 36.8022C63.5495 36.791 63.575 36.7778 63.5994 36.7626C63.6177 36.752 63.6486 36.7298 63.6486 36.7298C63.7167 36.6795 63.7722 36.614 63.8106 36.5384C63.8489 36.4628 63.8691 36.3794 63.8696 36.2946V31.7187C63.8696 31.7618 63.8582 31.804 63.8365 31.8411C63.8147 31.8783 63.7835 31.909 63.746 31.9301H63.7383Z" fill="url(#paint0_linear_720_908)"/>
<path opacity="0.5" d="M63.6453 31.7005V31.9812L59.4429 34.8761L55.0919 31.796L54.6924 31.5557V31.353H54.8574L55.2057 31.5528H55.2134L55.2434 31.5721L59.3435 33.9112L59.4998 34.0077L59.5433 33.9913L63.6029 31.7062L63.6453 31.7005Z" fill="#0A2767"/>
<path d="M63.7368 31.9306H63.732L59.7129 34.1915C59.6955 34.2021 59.6772 34.2127 59.6588 34.2214C59.5818 34.2591 59.4971 34.2787 59.4113 34.2787C59.3255 34.2787 59.2409 34.2591 59.1638 34.2214C59.1453 34.2124 59.1272 34.2024 59.1098 34.1915L55.0907 31.9306H55.0859C55.0477 31.9099 55.0158 31.8794 54.9934 31.8423C54.971 31.8051 54.9589 31.7626 54.9585 31.7192V36.2951C54.9595 36.4416 55.0186 36.5817 55.1228 36.6846C55.227 36.7875 55.3678 36.8449 55.5143 36.8442H63.3035C63.45 36.8449 63.5908 36.7875 63.695 36.6846C63.7992 36.5817 63.8583 36.4416 63.8594 36.2951V36.2951V31.7192C63.8595 31.7622 63.8482 31.8044 63.8267 31.8415C63.8051 31.8786 63.7741 31.9094 63.7368 31.9306V31.9306Z" fill="#1490DF"/>
<path opacity="0.1" d="M59.772 34.1606L59.7121 34.1945C59.6947 34.2054 59.6766 34.2153 59.6581 34.2244C59.5917 34.2569 59.5196 34.2759 59.4458 34.2803L60.9752 36.0887L63.6434 36.7313C63.7164 36.6759 63.7745 36.6033 63.8123 36.5199L59.772 34.1606Z" fill="black"/>
<path opacity="0.05" d="M60.044 34.0068L59.7112 34.1941C59.6937 34.2051 59.6756 34.215 59.6571 34.224C59.5907 34.2566 59.5186 34.2756 59.4448 34.28L60.1609 36.2553L63.6415 36.73C63.7091 36.6792 63.7641 36.6133 63.8019 36.5376C63.8398 36.4619 63.8595 36.3786 63.8596 36.2939V36.235L60.044 34.0068Z" fill="black"/>
<path d="M55.5235 36.8441H63.305C63.4247 36.8446 63.5414 36.8067 63.6379 36.736L59.2223 34.149C59.2037 34.1397 59.1856 34.1294 59.1682 34.1181L55.0951 31.7935L54.9619 31.7183V36.2787C54.9619 36.4282 55.0213 36.5717 55.1269 36.6775C55.2326 36.7833 55.3759 36.8429 55.5255 36.8432L55.5235 36.8441Z" fill="#28A8EA"/>
<path opacity="0.1" d="M58.7369 28.7055V34.4596C58.7366 34.5581 58.707 34.6543 58.6518 34.736C58.5967 34.8176 58.5184 34.881 58.4271 34.918C58.3692 34.9428 58.3068 34.9556 58.2438 34.9556H54.9629V28.4807H55.5023V28.2104H58.2457C58.3763 28.2117 58.501 28.2644 58.593 28.3571C58.6849 28.4498 58.7366 28.5749 58.7369 28.7055V28.7055Z" fill="black"/>
<path opacity="0.2" d="M58.4662 28.9765V34.7306C58.4674 34.7972 58.4535 34.8632 58.4256 34.9236C58.389 35.014 58.3264 35.0915 58.2456 35.1462C58.1648 35.2008 58.0696 35.2301 57.9721 35.2305H54.9585V28.4863H57.9721C58.0504 28.4856 58.1275 28.5052 58.196 28.5433C58.2765 28.5837 58.3443 28.6455 58.3919 28.722C58.4396 28.7984 58.4653 28.8865 58.4662 28.9765V28.9765Z" fill="black"/>
<path opacity="0.2" d="M58.4662 28.9764V34.1873C58.4657 34.3183 58.4135 34.4439 58.321 34.5368C58.2285 34.6296 58.1031 34.6823 57.9721 34.6833H54.9585V28.4785H57.9721C58.0504 28.4778 58.1275 28.4974 58.196 28.5355C58.2776 28.5765 58.3462 28.6395 58.394 28.7174C58.4417 28.7953 58.4667 28.8851 58.4662 28.9764V28.9764Z" fill="black"/>
<path opacity="0.2" d="M58.1969 28.9755V34.1863C58.1969 34.3175 58.1449 34.4434 58.0523 34.5363C57.9597 34.6293 57.8341 34.6818 57.7029 34.6823H54.9595V28.4775H57.7029C57.8339 28.4775 57.9596 28.5296 58.0522 28.6222C58.1449 28.7149 58.1969 28.8406 58.1969 28.9716V28.9755Z" fill="black"/>
<path d="M52.7558 28.4814H57.7022C57.8332 28.4814 57.9589 28.5335 58.0516 28.6262C58.1442 28.7188 58.1963 28.8445 58.1963 28.9755V33.921C58.1963 34.052 58.1442 34.1777 58.0516 34.2703C57.9589 34.363 57.8332 34.415 57.7022 34.415H52.7558C52.6249 34.415 52.4994 34.3631 52.4068 34.2707C52.3141 34.1782 52.262 34.0528 52.2617 33.9219V28.9765C52.2616 28.9115 52.2743 28.8472 52.2991 28.7871C52.3238 28.7271 52.3602 28.6725 52.4061 28.6265C52.452 28.5805 52.5065 28.544 52.5665 28.5191C52.6265 28.4943 52.6908 28.4814 52.7558 28.4814V28.4814Z" fill="url(#paint1_linear_720_908)"/>
<path d="M53.8077 30.555C53.9295 30.2956 54.1261 30.0785 54.3722 29.9316C54.6449 29.7755 54.9555 29.6977 55.2696 29.7068C55.5609 29.7004 55.8483 29.7741 56.1004 29.92C56.3373 30.0615 56.528 30.2687 56.6495 30.5164C56.7821 30.7894 56.8483 31.09 56.8425 31.3935C56.8493 31.7107 56.7816 32.0251 56.6447 32.3113C56.5201 32.5677 56.3232 32.782 56.0782 32.9278C55.8164 33.0782 55.5184 33.1539 55.2165 33.1469C54.919 33.1539 54.6253 33.0792 54.3674 32.9307C54.1283 32.7892 53.935 32.5818 53.8106 32.3334C53.6776 32.0635 53.6115 31.7657 53.6176 31.465C53.6117 31.1512 53.6767 30.8402 53.8077 30.555V30.555ZM54.4098 32.0198C54.4748 32.1838 54.5849 32.3259 54.7273 32.4299C54.8724 32.5315 55.0462 32.5839 55.2233 32.5795C55.412 32.587 55.598 32.5328 55.7531 32.4251C55.8939 32.3215 56.0012 32.1789 56.0618 32.015C56.1288 31.8318 56.1615 31.6378 56.1583 31.4428C56.1591 31.2457 56.1265 31.05 56.0618 30.8638C56.0056 30.6953 55.9017 30.5468 55.7627 30.4363C55.6115 30.3236 55.4262 30.2663 55.2378 30.2742C55.0569 30.2695 54.8792 30.3222 54.7302 30.4247C54.5854 30.5293 54.4732 30.6729 54.4069 30.8387C54.2602 31.2194 54.2602 31.641 54.4069 32.0217L54.4098 32.0198Z" fill="white"/>
<path d="M60.894 27.6719H63.3219V30.0997H60.894V27.6719Z" fill="#50D9FF"/>
<g filter="url(#filter2_d_720_908)">
<path d="M93.7554 20.2642H77.351C75.7521 20.2642 74.4561 21.5603 74.4561 23.1591V39.5635C74.4561 41.1623 75.7521 42.4584 77.351 42.4584H93.7554C95.3542 42.4584 96.6503 41.1623 96.6503 39.5635V23.1591C96.6503 21.5603 95.3542 20.2642 93.7554 20.2642Z" fill="white"/>
</g>
<path d="M90.1101 34.4624C89.9531 34.8289 89.7591 35.1784 89.5312 35.5056C89.3164 35.8333 89.0659 36.1362 88.7843 36.4088C88.5271 36.6659 88.1826 36.8168 87.8193 36.8314C87.5129 36.8177 87.2119 36.7456 86.9325 36.6191C86.6307 36.4876 86.3063 36.4158 85.9772 36.4078C85.6392 36.4145 85.3057 36.4863 84.9948 36.6191C84.7262 36.7403 84.4392 36.8156 84.1457 36.8421C83.9611 36.8398 83.7789 36.8002 83.61 36.7256C83.4412 36.6509 83.2892 36.5428 83.1633 36.4078C82.8693 36.1257 82.6072 35.8121 82.3817 35.4728C82.0294 34.9681 81.7509 34.4157 81.5547 33.8323C81.3325 33.2036 81.2164 32.5422 81.2112 31.8754C81.194 31.2224 81.3562 30.5772 81.6802 30.0101C81.915 29.5985 82.252 29.2545 82.6587 29.0113C83.0605 28.7707 83.5191 28.6412 83.9874 28.636C84.3411 28.657 84.6886 28.7379 85.0151 28.8753C85.2755 28.9898 85.5495 29.0703 85.8305 29.1146C86.1404 29.0499 86.4432 28.9552 86.7347 28.8319C87.1253 28.6739 87.5449 28.6002 87.966 28.6157C88.3665 28.6256 88.7594 28.7277 89.114 28.9142C89.4687 29.1006 89.7755 29.3663 90.0108 29.6907C89.6379 29.889 89.3276 30.1872 89.1147 30.552C88.9019 30.9167 88.7948 31.3335 88.8055 31.7557C88.8014 32.0785 88.866 32.3985 88.9949 32.6944C89.1238 32.9904 89.3142 33.2556 89.5534 33.4724C89.7703 33.68 90.0234 33.8462 90.3002 33.9626C90.2404 34.1363 90.1761 34.3029 90.1072 34.4624H90.1101ZM88.0277 26.2699C88.0205 26.8282 87.8106 27.3649 87.4372 27.78C87.2458 28.0419 86.994 28.2536 86.7032 28.3971C86.4123 28.5406 86.0911 28.6116 85.7668 28.6041C85.7585 28.5362 85.7543 28.4679 85.7543 28.3995C85.7733 27.8319 85.9959 27.29 86.3815 26.873C86.595 26.6334 86.8542 26.4389 87.1438 26.3007C87.4151 26.1607 87.7118 26.0767 88.0162 26.0537C88.024 26.1255 88.0279 26.1977 88.0277 26.2699Z" fill="black"/>
<g filter="url(#filter3_d_720_908)">
<path d="M120.774 20.2642H104.37C102.771 20.2642 101.475 21.5603 101.475 23.1591V39.5635C101.475 41.1623 102.771 42.4584 104.37 42.4584H120.774C122.373 42.4584 123.669 41.1623 123.669 39.5635V23.1591C123.669 21.5603 122.373 20.2642 120.774 20.2642Z" fill="white"/>
</g>
<path d="M113.759 26.0537L108.23 28.0975V34.3524L110.153 33.511V28.5781L113.759 27.7366V35.1013L108.23 34.4354L113.759 36.4233L116.764 35.5172V27.1036L113.759 26.0537Z" fill="#CA3E0F"/>
<g filter="url(#filter4_d_720_908)">
<path d="M147.794 20.2642H131.389C129.79 20.2642 128.494 21.5603 128.494 23.1591V39.5635C128.494 41.1623 129.79 42.4584 131.389 42.4584H147.794C149.392 42.4584 150.688 41.1623 150.688 39.5635V23.1591C150.688 21.5603 149.392 20.2642 147.794 20.2642Z" fill="white"/>
</g>
<path d="M132.354 29.9764H133.26L133.788 31.3274L134.323 29.9764H135.205L133.878 33.1705H132.99L133.354 32.3242L132.354 29.9764ZM136.117 29.9224C135.964 29.9292 135.814 29.9661 135.676 30.0311C135.537 30.096 135.412 30.1876 135.309 30.3008C135.206 30.4139 135.126 30.5463 135.074 30.6903C135.022 30.8344 134.999 30.9872 135.007 31.1402C134.996 31.2932 135.017 31.4468 135.067 31.5918C135.117 31.7369 135.195 31.8705 135.297 31.9847C135.4 32.099 135.524 32.1917 135.663 32.2573C135.801 32.3229 135.952 32.36 136.105 32.3666C136.227 32.376 136.35 32.3549 136.462 32.3052C136.575 32.2556 136.673 32.1789 136.748 32.082V32.3039H137.539V29.9764H136.748V30.1877C136.67 30.0994 136.572 30.0297 136.463 29.9838C136.354 29.9379 136.237 29.9169 136.118 29.9224H136.117ZM136.285 30.6702C136.348 30.6687 136.41 30.6798 136.468 30.703C136.527 30.7261 136.58 30.7608 136.624 30.805C136.669 30.8492 136.704 30.902 136.727 30.96C136.751 31.0181 136.762 31.0804 136.761 31.1431C136.763 31.2065 136.753 31.2696 136.73 31.3288C136.706 31.3879 136.672 31.4416 136.627 31.4868C136.583 31.532 136.529 31.5676 136.47 31.5914C136.412 31.6153 136.349 31.6269 136.285 31.6256C136.161 31.6244 136.041 31.575 135.952 31.4877C135.863 31.4005 135.811 31.2822 135.808 31.1575C135.804 31.0931 135.814 31.0286 135.837 30.9682C135.86 30.9078 135.895 30.8529 135.941 30.8071C135.986 30.7612 136.041 30.7254 136.101 30.702C136.161 30.6786 136.226 30.6681 136.29 30.6712L136.285 30.6702ZM137.81 32.3039V28.9487H138.636V30.1964C138.71 30.1081 138.803 30.0377 138.908 29.9904C139.013 29.9432 139.128 29.9202 139.243 29.9234C139.357 29.9233 139.471 29.9478 139.575 29.995C139.679 30.0423 139.772 30.1114 139.848 30.1975C139.923 30.2837 139.98 30.385 140.013 30.4947C140.046 30.6043 140.055 30.7198 140.04 30.8333V32.3049H139.22V31.035C139.22 30.8536 139.134 30.6789 138.938 30.6789C138.894 30.6813 138.852 30.6925 138.812 30.7119C138.773 30.7314 138.738 30.7586 138.71 30.7919C138.682 30.8252 138.66 30.8639 138.647 30.9057C138.635 30.9475 138.63 30.9915 138.635 31.035V32.3049L137.81 32.3039ZM141.45 29.9224C141.286 29.917 141.124 29.9449 140.971 30.0045C140.819 30.064 140.68 30.154 140.564 30.2688C140.448 30.3837 140.356 30.521 140.294 30.6725C140.233 30.8239 140.203 30.9864 140.206 31.1498C140.204 31.3127 140.235 31.4744 140.297 31.6249C140.36 31.7755 140.452 31.9118 140.568 32.0256C140.685 32.1394 140.823 32.2283 140.976 32.2869C141.128 32.3456 141.29 32.3727 141.453 32.3666C141.614 32.373 141.776 32.3466 141.927 32.2888C142.078 32.2311 142.216 32.1433 142.332 32.0307C142.449 31.9181 142.541 31.7831 142.603 31.6339C142.666 31.4846 142.698 31.3242 142.697 31.1624C142.701 30.9983 142.673 30.8349 142.612 30.6824C142.551 30.5299 142.46 30.3915 142.343 30.2758C142.227 30.16 142.088 30.0693 141.935 30.0094C141.782 29.9494 141.619 29.9215 141.455 29.9272L141.45 29.9224ZM141.458 30.677C141.519 30.6774 141.58 30.6899 141.637 30.714C141.694 30.738 141.746 30.7731 141.789 30.8171C141.832 30.8611 141.866 30.9132 141.89 30.9705C141.913 31.0278 141.924 31.089 141.924 31.1508C141.921 31.2736 141.871 31.3905 141.784 31.4774C141.697 31.5642 141.58 31.6142 141.458 31.6169C141.396 31.617 141.336 31.6049 141.279 31.5814C141.223 31.5579 141.171 31.5233 141.128 31.4797C141.085 31.4362 141.051 31.3845 141.029 31.3277C141.006 31.2709 140.994 31.2101 140.995 31.1489C140.992 31.0866 141.002 31.0245 141.025 30.9663C141.047 30.9082 141.081 30.8553 141.125 30.811C141.169 30.7667 141.221 30.732 141.279 30.7091C141.337 30.6862 141.399 30.6756 141.461 30.678L141.458 30.677ZM144.074 29.9224C143.91 29.917 143.747 29.9449 143.595 30.0045C143.443 30.064 143.304 30.154 143.188 30.2688C143.071 30.3837 142.98 30.521 142.918 30.6725C142.857 30.8239 142.826 30.9864 142.83 31.1498C142.828 31.3127 142.859 31.4744 142.921 31.6249C142.983 31.7755 143.076 31.9118 143.192 32.0256C143.309 32.1394 143.447 32.2283 143.599 32.2869C143.751 32.3456 143.914 32.3727 144.076 32.3666C144.238 32.373 144.399 32.3466 144.551 32.2888C144.702 32.2311 144.84 32.1433 144.956 32.0307C145.072 31.9181 145.165 31.7831 145.227 31.6339C145.29 31.4846 145.321 31.3242 145.32 31.1624C145.325 30.9982 145.296 30.8348 145.235 30.6822C145.175 30.5296 145.083 30.3912 144.967 30.2754C144.85 30.1596 144.711 30.069 144.558 30.0091C144.405 29.9492 144.242 29.9213 144.077 29.9272L144.074 29.9224ZM144.081 30.677C144.143 30.6774 144.204 30.6899 144.261 30.714C144.318 30.738 144.369 30.7731 144.413 30.8171C144.456 30.8611 144.49 30.9132 144.513 30.9705C144.536 31.0278 144.548 31.089 144.547 31.1508C144.545 31.2736 144.495 31.3905 144.408 31.4774C144.321 31.5642 144.204 31.6142 144.081 31.6169C144.02 31.617 143.959 31.6049 143.903 31.5814C143.846 31.5579 143.795 31.5233 143.752 31.4797C143.709 31.4362 143.675 31.3845 143.652 31.3277C143.629 31.2709 143.618 31.2101 143.619 31.1489C143.616 31.0868 143.626 31.0248 143.648 30.9668C143.67 30.9088 143.704 30.856 143.748 30.8117C143.792 30.7675 143.844 30.7327 143.902 30.7097C143.959 30.6867 144.021 30.6759 144.083 30.678L144.081 30.677Z" fill="#5F01D1"/>
<path d="M145.977 32.3555C146.281 32.3555 146.526 32.1096 146.526 31.8064C146.526 31.5031 146.281 31.2573 145.977 31.2573C145.674 31.2573 145.428 31.5031 145.428 31.8064C145.428 32.1096 145.674 32.3555 145.977 32.3555Z" fill="#5F01D1"/>
<path d="M146.706 31.0553H145.718L146.595 28.9497H147.579L146.706 31.0553Z" fill="#5F01D1"/>
<path d="M111.506 329.011H21.0014C20.6789 329.011 20.4175 329.227 20.4175 329.493C20.4175 329.76 20.6789 329.976 21.0014 329.976H111.506C111.828 329.976 112.089 329.76 112.089 329.493C112.089 329.227 111.828 329.011 111.506 329.011Z" fill="#6440FB"/>
<path d="M97.374 318.155H111.366" stroke="black" stroke-linecap="round"/>
<path d="M110.024 316.034L112.2 318.209L110.024 320.385" stroke="black" stroke-linecap="round" stroke-linejoin="round"/>
<path d="M22.9805 322.112C22.1205 322.112 21.4472 321.895 20.9605 321.462C20.4738 321.022 20.2305 320.409 20.2305 319.622H21.8505C21.8505 320.002 21.9505 320.299 22.1505 320.512C22.3572 320.725 22.6372 320.832 22.9905 320.832C23.2905 320.832 23.5205 320.765 23.6805 320.632C23.8472 320.499 23.9305 320.309 23.9305 320.062C23.9305 319.849 23.8672 319.679 23.7405 319.552C23.6205 319.419 23.4005 319.289 23.0805 319.162L21.8205 318.672C20.8738 318.319 20.4005 317.682 20.4005 316.762C20.4005 316.142 20.6238 315.645 21.0705 315.272C21.5238 314.899 22.1305 314.712 22.8905 314.712C23.6638 314.712 24.2838 314.915 24.7505 315.322C25.2172 315.722 25.4505 316.259 25.4505 316.932H23.8305C23.8305 316.605 23.7472 316.355 23.5805 316.182C23.4138 316.009 23.1738 315.922 22.8605 315.922C22.6005 315.922 22.3938 315.985 22.2405 316.112C22.0938 316.232 22.0205 316.399 22.0205 316.612C22.0205 316.805 22.0938 316.972 22.2405 317.112C22.3872 317.245 22.6338 317.382 22.9805 317.522L24.1405 317.982C25.0805 318.349 25.5505 319.005 25.5505 319.952C25.5505 320.605 25.3138 321.129 24.8405 321.522C24.3738 321.915 23.7538 322.112 22.9805 322.112ZM28.3903 322.042C27.6903 322.042 27.137 321.805 26.7303 321.332C26.3237 320.859 26.1203 320.249 26.1203 319.502C26.1203 318.769 26.3303 318.162 26.7503 317.682C27.1703 317.202 27.7237 316.962 28.4103 316.962C28.7503 316.962 29.0537 317.035 29.3203 317.182C29.587 317.329 29.787 317.529 29.9203 317.782V317.092H31.4403V321.912H29.9203V321.232C29.787 321.472 29.5803 321.669 29.3003 321.822C29.027 321.969 28.7237 322.042 28.3903 322.042ZM28.8303 320.772C29.197 320.772 29.4803 320.652 29.6803 320.412C29.8803 320.172 29.9803 319.869 29.9803 319.502C29.9803 319.142 29.8803 318.842 29.6803 318.602C29.4803 318.362 29.197 318.242 28.8303 318.242C28.4837 318.242 28.2037 318.359 27.9903 318.592C27.7837 318.825 27.6803 319.129 27.6803 319.502C27.6803 319.875 27.7837 320.182 27.9903 320.422C28.2037 320.655 28.4837 320.772 28.8303 320.772ZM34.1306 321.912L32.0506 317.092H33.7406L34.8206 320.122L35.9006 317.092H37.6006L35.5106 321.912H34.1306ZM42.7142 319.252C42.7142 319.452 42.7009 319.675 42.6742 319.922H39.1142C39.1276 320.235 39.2342 320.479 39.4342 320.652C39.6342 320.825 39.9042 320.912 40.2442 320.912C40.7109 320.912 41.0109 320.762 41.1442 320.462H42.6442C42.5709 320.935 42.3109 321.322 41.8642 321.622C41.4242 321.915 40.8842 322.062 40.2442 322.062C39.4242 322.062 38.7776 321.835 38.3042 321.382C37.8309 320.929 37.5942 320.302 37.5942 319.502C37.5942 318.715 37.8309 318.095 38.3042 317.642C38.7776 317.182 39.4076 316.952 40.1942 316.952C40.9409 316.952 41.5476 317.165 42.0142 317.592C42.4809 318.019 42.7142 318.572 42.7142 319.252ZM39.1142 318.972H41.2042C41.1976 318.652 41.1076 318.405 40.9342 318.232C40.7609 318.059 40.5109 317.972 40.1842 317.972C39.8576 317.972 39.5976 318.065 39.4042 318.252C39.2176 318.432 39.1209 318.672 39.1142 318.972ZM47.9411 322.042C47.2411 322.042 46.6878 321.805 46.2811 321.332C45.8744 320.859 45.6711 320.249 45.6711 319.502C45.6711 318.769 45.8811 318.162 46.3011 317.682C46.7211 317.202 47.2744 316.962 47.9611 316.962C48.3011 316.962 48.6044 317.035 48.8711 317.182C49.1378 317.329 49.3378 317.529 49.4711 317.782V317.092H50.9911V321.912H49.4711V321.232C49.3378 321.472 49.1311 321.669 48.8511 321.822C48.5778 321.969 48.2744 322.042 47.9411 322.042ZM48.3811 320.772C48.7478 320.772 49.0311 320.652 49.2311 320.412C49.4311 320.172 49.5311 319.869 49.5311 319.502C49.5311 319.142 49.4311 318.842 49.2311 318.602C49.0311 318.362 48.7478 318.242 48.3811 318.242C48.0344 318.242 47.7544 318.359 47.5411 318.592C47.3344 318.825 47.2311 319.129 47.2311 319.502C47.2311 319.875 47.3344 320.182 47.5411 320.422C47.7544 320.655 48.0344 320.772 48.3811 320.772ZM54.1913 322.062C53.498 322.062 52.9447 321.912 52.5313 321.612C52.118 321.312 51.9113 320.929 51.9113 320.462H53.4313C53.4313 320.629 53.5047 320.765 53.6513 320.872C53.798 320.979 53.988 321.032 54.2213 321.032C54.388 321.032 54.5213 320.992 54.6213 320.912C54.728 320.832 54.7813 320.722 54.7813 320.582C54.7813 320.362 54.6647 320.225 54.4313 320.172L53.2513 319.872C52.858 319.772 52.558 319.602 52.3513 319.362C52.1447 319.122 52.0413 318.829 52.0413 318.482C52.0413 318.029 52.228 317.662 52.6013 317.382C52.9747 317.095 53.4747 316.952 54.1013 316.952C54.7947 316.952 55.3247 317.085 55.6913 317.352C56.0647 317.619 56.2513 317.985 56.2513 318.452H54.7413C54.7413 318.285 54.6813 318.155 54.5613 318.062C54.448 317.969 54.288 317.922 54.0813 317.922C53.9147 317.922 53.7813 317.959 53.6813 318.032C53.5813 318.105 53.5313 318.202 53.5313 318.322C53.5313 318.535 53.668 318.679 53.9413 318.752L55.0813 319.062C55.4613 319.162 55.758 319.329 55.9713 319.562C56.1913 319.789 56.3013 320.069 56.3013 320.402C56.3013 320.902 56.1113 321.305 55.7313 321.612C55.358 321.912 54.8447 322.062 54.1913 322.062ZM63.1232 314.912H64.6532V321.912H63.1332V321.232C62.9999 321.472 62.7932 321.669 62.5132 321.822C62.2399 321.969 61.9366 322.042 61.6032 322.042C60.9032 322.042 60.3499 321.805 59.9432 321.332C59.5366 320.859 59.3332 320.249 59.3332 319.502C59.3332 318.769 59.5432 318.162 59.9632 317.682C60.3832 317.202 60.9366 316.962 61.6232 316.962C61.9632 316.962 62.2666 317.035 62.5332 317.182C62.7999 317.329 62.9999 317.529 63.1332 317.782V317.372H63.1232V314.912ZM62.0432 320.772C62.4099 320.772 62.6932 320.652 62.8932 320.412C63.0932 320.172 63.1932 319.869 63.1932 319.502C63.1932 319.142 63.0932 318.842 62.8932 318.602C62.6932 318.362 62.4099 318.242 62.0432 318.242C61.6966 318.242 61.4166 318.359 61.2032 318.592C60.9966 318.825 60.8932 319.129 60.8932 319.502C60.8932 319.875 60.9966 320.182 61.2032 320.422C61.4166 320.655 61.6966 320.772 62.0432 320.772ZM65.9235 321.912V317.092H67.4535V318.102C67.5335 317.755 67.6968 317.489 67.9435 317.302C68.1968 317.109 68.4768 317.012 68.7835 317.012C68.9435 317.012 69.0768 317.025 69.1835 317.052V318.472C69.0035 318.452 68.8501 318.442 68.7235 318.442C67.8768 318.442 67.4535 318.979 67.4535 320.052V321.912H65.9235ZM71.7985 322.042C71.0985 322.042 70.5452 321.805 70.1385 321.332C69.7319 320.859 69.5285 320.249 69.5285 319.502C69.5285 318.769 69.7385 318.162 70.1585 317.682C70.5785 317.202 71.1319 316.962 71.8185 316.962C72.1585 316.962 72.4619 317.035 72.7285 317.182C72.9952 317.329 73.1952 317.529 73.3285 317.782V317.092H74.8485V321.912H73.3285V321.232C73.1952 321.472 72.9885 321.669 72.7085 321.822C72.4352 321.969 72.1319 322.042 71.7985 322.042ZM72.2385 320.772C72.6052 320.772 72.8885 320.652 73.0885 320.412C73.2885 320.172 73.3885 319.869 73.3885 319.502C73.3885 319.142 73.2885 318.842 73.0885 318.602C72.8885 318.362 72.6052 318.242 72.2385 318.242C71.8919 318.242 71.6119 318.359 71.3985 318.592C71.1919 318.825 71.0885 319.129 71.0885 319.502C71.0885 319.875 71.1919 320.182 71.3985 320.422C71.6119 320.655 71.8919 320.772 72.2385 320.772ZM78.7488 315.992C78.2821 315.992 78.0488 316.195 78.0488 316.602V317.092H79.1688V318.302H78.0488V321.912H76.5188V318.302H75.6588V317.092H76.5188V316.622C76.5188 316.269 76.5754 315.969 76.6888 315.722C76.8021 315.469 76.9521 315.282 77.1388 315.162C77.3254 315.042 77.5121 314.955 77.6988 314.902C77.8854 314.849 78.0821 314.822 78.2888 314.822C78.6421 314.822 78.9354 314.859 79.1688 314.932V316.022C79.1354 316.022 79.0688 316.019 78.9688 316.012C78.8754 315.999 78.8021 315.992 78.7488 315.992ZM82.6917 320.722C82.9051 320.722 83.0817 320.712 83.2217 320.692V321.912C82.9284 321.965 82.5884 321.992 82.2017 321.992C82.0284 321.992 81.8751 321.982 81.7417 321.962C81.6084 321.942 81.4584 321.899 81.2917 321.832C81.1251 321.759 80.9884 321.662 80.8817 321.542C80.7751 321.422 80.6817 321.249 80.6017 321.022C80.5284 320.795 80.4917 320.529 80.4917 320.222V318.302H79.7317V317.092H80.4917V315.662H82.0217V317.092H83.1117V318.302H82.0217V319.902C82.0217 320.229 82.0784 320.449 82.1917 320.562C82.3051 320.669 82.4717 320.722 82.6917 320.722Z" fill="black"/>
<path d="M229.816 317.519C229.816 315.339 231.535 313.571 233.656 313.571H301.243C303.364 313.571 305.083 315.339 305.083 317.519V326.993C305.083 329.173 303.364 330.941 301.243 330.941H233.656C231.535 330.941 229.816 329.173 229.816 326.993V317.519Z" fill="#20104B"/>
<path d="M248.421 323.887C247.744 323.887 247.208 323.677 246.813 323.258C246.418 322.839 246.221 322.294 246.221 321.624C246.221 320.954 246.418 320.41 246.813 319.99C247.208 319.571 247.744 319.361 248.421 319.361C248.989 319.361 249.457 319.509 249.823 319.805C250.19 320.097 250.405 320.477 250.47 320.946H249.708C249.64 320.65 249.495 320.418 249.273 320.249C249.056 320.081 248.773 319.996 248.427 319.996C247.964 319.996 247.601 320.144 247.339 320.44C247.081 320.732 246.952 321.127 246.952 321.624C246.952 322.122 247.081 322.518 247.339 322.814C247.601 323.106 247.964 323.252 248.427 323.252C248.773 323.252 249.056 323.168 249.273 322.999C249.495 322.831 249.64 322.598 249.708 322.302H250.47C250.405 322.771 250.19 323.153 249.823 323.449C249.457 323.741 248.989 323.887 248.421 323.887Z" fill="white"/>
<path d="M253.435 323.431C253.169 323.714 252.808 323.856 252.353 323.856C251.898 323.856 251.535 323.714 251.265 323.431C250.999 323.143 250.866 322.781 250.866 322.346C250.866 321.91 250.999 321.55 251.265 321.267C251.535 320.979 251.898 320.835 252.353 320.835C252.808 320.835 253.169 320.979 253.435 321.267C253.705 321.55 253.84 321.91 253.84 322.346C253.84 322.781 253.705 323.143 253.435 323.431ZM251.743 323.005C251.892 323.174 252.095 323.258 252.353 323.258C252.611 323.258 252.813 323.174 252.958 323.005C253.107 322.837 253.181 322.617 253.181 322.346C253.181 322.074 253.107 321.854 252.958 321.686C252.813 321.517 252.611 321.433 252.353 321.433C252.095 321.433 251.892 321.517 251.743 321.686C251.598 321.854 251.525 322.074 251.525 322.346C251.525 322.617 251.598 322.837 251.743 323.005Z" fill="white"/>
<path d="M256.074 320.835C256.477 320.835 256.801 320.975 257.047 321.254C257.293 321.53 257.416 321.893 257.416 322.346C257.416 322.79 257.287 323.153 257.029 323.437C256.771 323.717 256.438 323.856 256.031 323.856C255.846 323.856 255.671 323.815 255.505 323.733C255.34 323.647 255.215 323.534 255.131 323.394V325.077H254.472V320.909H255.131V321.297C255.215 321.158 255.344 321.047 255.518 320.964C255.691 320.878 255.876 320.835 256.074 320.835ZM255.935 323.258C256.176 323.258 256.374 323.174 256.527 323.005C256.68 322.833 256.757 322.613 256.757 322.346C256.757 322.078 256.68 321.861 256.527 321.692C256.374 321.519 256.176 321.433 255.935 321.433C255.685 321.433 255.483 321.517 255.33 321.686C255.177 321.854 255.1 322.074 255.1 322.346C255.1 322.617 255.177 322.837 255.33 323.005C255.483 323.174 255.685 323.258 255.935 323.258Z" fill="white"/>
<path d="M259.965 320.909H260.624V323.795C260.624 324.234 260.501 324.576 260.255 324.818C260.017 325.04 259.699 325.151 259.3 325.151C258.885 325.151 258.563 325.052 258.333 324.855C258.132 324.674 258.027 324.426 258.019 324.109H258.684C258.7 324.274 258.752 324.395 258.841 324.473C258.933 324.555 259.083 324.596 259.288 324.596C259.498 324.596 259.663 324.526 259.784 324.387C259.905 324.251 259.965 324.037 259.965 323.745V323.382C259.784 323.698 259.481 323.856 259.058 323.856C258.724 323.856 258.466 323.747 258.285 323.529C258.107 323.308 258.019 323.018 258.019 322.66V320.909H258.678V322.518C258.678 323.016 258.881 323.264 259.288 323.264C259.51 323.264 259.677 323.184 259.79 323.024C259.907 322.864 259.965 322.654 259.965 322.395V320.909Z" fill="white"/>
<path d="M264.283 323.887C263.792 323.887 263.411 323.756 263.141 323.493C262.875 323.229 262.742 322.855 262.742 322.37H263.437C263.437 322.65 263.512 322.87 263.661 323.03C263.81 323.19 264.015 323.271 264.277 323.271C264.507 323.271 264.682 323.219 264.803 323.116C264.928 323.01 264.99 322.859 264.99 322.666C264.99 322.502 264.944 322.37 264.851 322.272C264.763 322.173 264.6 322.074 264.362 321.976L263.673 321.692C263.133 321.478 262.863 321.096 262.863 320.545C262.863 320.196 262.988 319.912 263.238 319.694C263.491 319.472 263.818 319.361 264.217 319.361C264.636 319.361 264.972 319.485 265.226 319.731C265.484 319.978 265.613 320.305 265.613 320.712H264.918C264.918 320.473 264.855 320.29 264.731 320.163C264.606 320.031 264.426 319.966 264.193 319.966C263.995 319.966 263.84 320.015 263.727 320.114C263.618 320.208 263.564 320.338 263.564 320.502C263.564 320.65 263.618 320.777 263.727 320.884C263.836 320.991 264.015 321.096 264.265 321.199L264.888 321.458C265.42 321.68 265.686 322.076 265.686 322.648C265.686 323.018 265.557 323.318 265.299 323.548C265.041 323.774 264.702 323.887 264.283 323.887Z" fill="white"/>
<path d="M267.002 320.354C266.909 320.449 266.792 320.496 266.651 320.496C266.51 320.496 266.393 320.449 266.301 320.354C266.208 320.255 266.162 320.136 266.162 319.996C266.162 319.857 266.208 319.74 266.301 319.645C266.393 319.546 266.51 319.497 266.651 319.497C266.792 319.497 266.909 319.546 267.002 319.645C267.094 319.74 267.141 319.857 267.141 319.996C267.141 320.136 267.094 320.255 267.002 320.354ZM266.319 323.782V320.909H266.978V323.782H266.319Z" fill="white"/>
<path d="M269.897 320.909H270.556V323.659C270.556 324.234 270.387 324.648 270.048 324.898C269.827 325.067 269.504 325.151 269.081 325.151C268.67 325.151 268.34 325.065 268.09 324.892C267.804 324.695 267.655 324.434 267.643 324.109H268.332C268.392 324.434 268.64 324.596 269.075 324.596C269.353 324.596 269.559 324.526 269.692 324.387C269.829 324.251 269.897 324.025 269.897 323.708V323.394C269.817 323.534 269.69 323.647 269.516 323.733C269.347 323.815 269.174 323.856 268.997 323.856C268.569 323.856 268.231 323.714 267.981 323.431C267.735 323.143 267.612 322.781 267.612 322.346C267.612 321.914 267.741 321.554 267.999 321.267C268.261 320.979 268.6 320.835 269.015 320.835C269.204 320.835 269.377 320.876 269.535 320.958C269.692 321.041 269.813 321.154 269.897 321.297V320.909ZM269.093 323.258C269.351 323.258 269.555 323.172 269.704 322.999C269.853 322.822 269.927 322.605 269.927 322.346C269.927 322.087 269.853 321.871 269.704 321.698C269.555 321.521 269.351 321.433 269.093 321.433C268.848 321.433 268.648 321.519 268.495 321.692C268.346 321.861 268.271 322.078 268.271 322.346C268.271 322.613 268.346 322.833 268.495 323.005C268.648 323.174 268.848 323.258 269.093 323.258Z" fill="white"/>
<path d="M271.401 323.782V320.909H272.06V321.31C272.241 320.993 272.548 320.835 272.979 320.835C273.664 320.835 274.006 321.215 274.006 321.976V323.782H273.347V322.284C273.347 321.972 273.301 321.748 273.208 321.612C273.116 321.476 272.957 321.408 272.731 321.408C272.517 321.408 272.352 321.478 272.235 321.618C272.118 321.754 272.06 321.949 272.06 322.204V323.782H271.401Z" fill="white"/>
<path d="M275.997 323.856C275.558 323.856 275.218 323.714 274.976 323.431C274.734 323.147 274.613 322.785 274.613 322.346C274.613 321.91 274.74 321.55 274.994 321.267C275.248 320.979 275.588 320.835 276.015 320.835C276.205 320.835 276.378 320.876 276.535 320.958C276.692 321.041 276.813 321.154 276.898 321.297V320.909H277.557V323.782H276.898V323.394C276.817 323.534 276.69 323.647 276.517 323.733C276.348 323.815 276.175 323.856 275.997 323.856ZM276.094 323.258C276.364 323.258 276.57 323.172 276.711 322.999C276.856 322.827 276.928 322.609 276.928 322.346C276.928 322.083 276.856 321.865 276.711 321.692C276.57 321.519 276.364 321.433 276.094 321.433C275.84 321.433 275.639 321.519 275.49 321.692C275.345 321.861 275.272 322.078 275.272 322.346C275.272 322.613 275.345 322.833 275.49 323.005C275.639 323.174 275.84 323.258 276.094 323.258Z" fill="white"/>
<path d="M279.677 323.215C279.81 323.215 279.921 323.207 280.01 323.19V323.782C279.873 323.807 279.709 323.819 279.52 323.819C279.411 323.819 279.317 323.811 279.236 323.795C279.155 323.778 279.061 323.741 278.952 323.684C278.843 323.622 278.758 323.517 278.698 323.369C278.638 323.221 278.607 323.034 278.607 322.808V321.47H278.13V320.909H278.607V320.04H279.266V320.909H279.913V321.47H279.266V322.654C279.266 322.884 279.298 323.036 279.363 323.11C279.427 323.18 279.532 323.215 279.677 323.215Z" fill="white"/>
<path d="M281.631 323.856C281.312 323.856 281.059 323.76 280.869 323.566C280.68 323.373 280.585 323.09 280.585 322.716V320.909H281.244V322.549C281.244 322.792 281.288 322.975 281.377 323.098C281.466 323.221 281.613 323.283 281.818 323.283C282.056 323.283 282.229 323.215 282.338 323.079C282.447 322.94 282.501 322.757 282.501 322.531V320.909H283.16V323.782H282.501V323.382C282.328 323.698 282.038 323.856 281.631 323.856Z" fill="white"/>
<path d="M284.004 323.782V320.909H284.662V321.464C284.711 321.271 284.805 321.125 284.946 321.026C285.088 320.923 285.243 320.872 285.412 320.872C285.521 320.872 285.607 320.88 285.672 320.897V321.513C285.603 321.505 285.517 321.501 285.412 321.501C285.178 321.501 284.995 321.589 284.862 321.766C284.729 321.939 284.662 322.187 284.662 322.512V323.782H284.004Z" fill="white"/>
<path d="M288.679 322.198C288.679 322.272 288.673 322.395 288.661 322.568H286.57C286.578 322.794 286.65 322.968 286.787 323.092C286.924 323.211 287.114 323.271 287.356 323.271C287.666 323.271 287.875 323.162 287.984 322.944H288.649C288.605 323.211 288.462 323.431 288.22 323.603C287.982 323.772 287.694 323.856 287.356 323.856C286.912 323.856 286.562 323.721 286.304 323.449C286.046 323.178 285.917 322.81 285.917 322.346C285.917 321.885 286.044 321.519 286.298 321.248C286.556 320.973 286.9 320.835 287.331 320.835C287.734 320.835 288.059 320.962 288.305 321.217C288.554 321.468 288.679 321.795 288.679 322.198ZM286.57 322.056H288.033C288.029 321.834 287.964 321.663 287.839 321.544C287.718 321.425 287.545 321.365 287.319 321.365C287.09 321.365 286.908 321.429 286.775 321.556C286.642 321.684 286.574 321.85 286.57 322.056Z" fill="white"/>
<defs>
<filter id="filter0_d_720_908" x="14.4175" y="17.2642" width="34.1943" height="34.1943" filterUnits="userSpaceOnUse" color-interpolation-filters="sRGB">
<feFlood flood-opacity="0" result="BackgroundImageFix"/>
<feColorMatrix in="SourceAlpha" type="matrix" values="0 0 0 0 0 0 0 0 0 0 0 0 0 0 0 0 0 0 127 0" result="hardAlpha"/>
<feOffset dy="3"/>
<feGaussianBlur stdDeviation="3"/>
<feColorMatrix type="matrix" values="0 0 0 0 0.458824 0 0 0 0 0.482353 0 0 0 0 0.592157 0 0 0 0.051 0"/>
<feBlend mode="normal" in2="BackgroundImageFix" result="effect1_dropShadow_720_908"/>
<feBlend mode="normal" in="SourceGraphic" in2="effect1_dropShadow_720_908" result="shape"/>
</filter>
<filter id="filter1_d_720_908" x="41.437" y="17.2642" width="34.1943" height="34.1943" filterUnits="userSpaceOnUse" color-interpolation-filters="sRGB">
<feFlood flood-opacity="0" result="BackgroundImageFix"/>
<feColorMatrix in="SourceAlpha" type="matrix" values="0 0 0 0 0 0 0 0 0 0 0 0 0 0 0 0 0 0 127 0" result="hardAlpha"/>
<feOffset dy="3"/>
<feGaussianBlur stdDeviation="3"/>
<feColorMatrix type="matrix" values="0 0 0 0 0.458824 0 0 0 0 0.482353 0 0 0 0 0.592157 0 0 0 0.051 0"/>
<feBlend mode="normal" in2="BackgroundImageFix" result="effect1_dropShadow_720_908"/>
<feBlend mode="normal" in="SourceGraphic" in2="effect1_dropShadow_720_908" result="shape"/>
</filter>
<filter id="filter2_d_720_908" x="68.4561" y="17.2642" width="34.1943" height="34.1943" filterUnits="userSpaceOnUse" color-interpolation-filters="sRGB">
<feFlood flood-opacity="0" result="BackgroundImageFix"/>
<feColorMatrix in="SourceAlpha" type="matrix" values="0 0 0 0 0 0 0 0 0 0 0 0 0 0 0 0 0 0 127 0" result="hardAlpha"/>
<feOffset dy="3"/>
<feGaussianBlur stdDeviation="3"/>
<feColorMatrix type="matrix" values="0 0 0 0 0.458824 0 0 0 0 0.482353 0 0 0 0 0.592157 0 0 0 0.051 0"/>
<feBlend mode="normal" in2="BackgroundImageFix" result="effect1_dropShadow_720_908"/>
<feBlend mode="normal" in="SourceGraphic" in2="effect1_dropShadow_720_908" result="shape"/>
</filter>
<filter id="filter3_d_720_908" x="95.4751" y="17.2642" width="34.1943" height="34.1943" filterUnits="userSpaceOnUse" color-interpolation-filters="sRGB">
<feFlood flood-opacity="0" result="BackgroundImageFix"/>
<feColorMatrix in="SourceAlpha" type="matrix" values="0 0 0 0 0 0 0 0 0 0 0 0 0 0 0 0 0 0 127 0" result="hardAlpha"/>
<feOffset dy="3"/>
<feGaussianBlur stdDeviation="3"/>
<feColorMatrix type="matrix" values="0 0 0 0 0.458824 0 0 0 0 0.482353 0 0 0 0 0.592157 0 0 0 0.051 0"/>
<feBlend mode="normal" in2="BackgroundImageFix" result="effect1_dropShadow_720_908"/>
<feBlend mode="normal" in="SourceGraphic" in2="effect1_dropShadow_720_908" result="shape"/>
</filter>
<filter id="filter4_d_720_908" x="122.494" y="17.2642" width="34.1943" height="34.1943" filterUnits="userSpaceOnUse" color-interpolation-filters="sRGB">
<feFlood flood-opacity="0" result="BackgroundImageFix"/>
<feColorMatrix in="SourceAlpha" type="matrix" values="0 0 0 0 0 0 0 0 0 0 0 0 0 0 0 0 0 0 127 0" result="hardAlpha"/>
<feOffset dy="3"/>
<feGaussianBlur stdDeviation="3"/>
<feColorMatrix type="matrix" values="0 0 0 0 0.458824 0 0 0 0 0.482353 0 0 0 0 0.592157 0 0 0 0.051 0"/>
<feBlend mode="normal" in2="BackgroundImageFix" result="effect1_dropShadow_720_908"/>
<feBlend mode="normal" in="SourceGraphic" in2="effect1_dropShadow_720_908" result="shape"/>
</filter>
<linearGradient id="paint0_linear_720_908" x1="59.4157" y1="31.1889" x2="59.4157" y2="26.0639" gradientUnits="userSpaceOnUse">
<stop stop-color="#35B8F1"/>
<stop offset="1" stop-color="#28A8EA"/>
</linearGradient>
<linearGradient id="paint1_linear_720_908" x1="53.2943" y1="34.8126" x2="57.1627" y2="28.1071" gradientUnits="userSpaceOnUse">
<stop stop-color="#1784D9"/>
<stop offset="0.5" stop-color="#107AD5"/>
<stop offset="1" stop-color="#0A63C9"/>
</linearGradient>
</defs>
</svg>
