<svg xmlns="http://www.w3.org/2000/svg" width="245" height="69" viewBox="0 0 245 69" fill="none">
  <g clip-path="url(#clip0_1837_1588)">
    <path d="M97.807 23.6408V29.0549H83.0088V6.396H97.5368V11.7893H89.2371V15.1221H96.6916V20.2458H89.2371V23.6408H97.814H97.807Z" fill="white"/>
    <path d="M127.868 18.0955V29.0619H121.834V18.8422C121.834 17.0168 121.161 16.1387 119.88 16.1387C118.224 16.1387 117.372 17.2796 117.372 19.4784V29.0619H111.497V18.8422C111.497 17.0721 110.832 16.1387 109.564 16.1387C107.929 16.1387 107.035 17.3072 107.035 19.4784V29.0619H101.001V11.582H105.241L106.1 13.4627C107.368 11.9899 109.204 11.0703 111.22 11.0703C113.354 11.0703 115.155 12.0245 116.243 13.6425C117.503 12.0591 119.443 11.0703 121.619 11.0703C125.374 11.0703 127.861 13.9882 127.861 18.1024L127.868 18.0955Z" fill="white"/>
    <path d="M150.093 11.5612V29.0411H145.431L144.911 27.8034C143.477 28.9651 141.662 29.6289 139.625 29.6289C134.27 29.6289 130.438 25.7291 130.438 20.2943C130.438 14.8595 134.27 11.0288 139.625 11.0288C141.69 11.0288 143.532 11.7133 144.973 12.9096L145.59 11.5543H150.086L150.093 11.5612ZM144.357 20.315C144.357 18.047 142.694 16.3392 140.436 16.3392C138.177 16.3392 136.514 18.0401 136.514 20.315C136.514 22.5899 138.177 24.3047 140.436 24.3047C142.694 24.3047 144.357 22.6037 144.357 20.315Z" fill="white"/>
    <path d="M153.896 11.5751H159.931V27.1258L153.896 29.0481V11.5682V11.5751ZM153.945 4.28027H159.882V9.3901H153.945V4.28027Z" fill="white"/>
    <path d="M163.72 5.26221H169.754V29.0551H163.72V5.26221Z" fill="white"/>
    <path d="M81.9004 54.6873H88.3504C88.3504 56.3053 89.6043 57.0936 91.0246 57.0936C92.334 57.0936 93.5879 56.3952 93.5879 55.1575C93.5879 53.7331 91.8213 53.3252 89.6598 52.7997C86.3759 51.9838 82.1914 50.9812 82.1914 45.8229C82.1914 41.3631 85.4752 38.8047 90.8306 38.8047C96.1859 38.8047 99.3936 41.5912 99.3936 46.2032H93.1238C93.1238 44.7719 92.0499 44.1012 90.7544 44.1012C89.639 44.1012 88.5721 44.5852 88.5721 45.6432C88.5721 46.9293 90.2833 47.358 92.424 47.8904C95.7633 48.7478 100.135 49.8679 100.135 55.04C100.135 60.212 96.3245 62.5561 91.0523 62.5561C85.496 62.5561 81.9073 59.6243 81.9073 54.6873H81.9004Z" fill="white"/>
    <path d="M103.107 44.5228H109.142V60.0736L103.107 61.9958V44.5159V44.5228ZM103.156 37.228H109.093V42.3379H103.156V37.228Z" fill="white"/>
    <path d="M131.048 44.5229V60.0598C131.048 65.5499 127.446 68.9588 121.661 68.9588C116.693 68.9588 113.208 66.4557 112.405 62.314H118.224C118.64 63.4825 120.136 64.1117 121.605 64.1117C123.628 64.1117 125.249 62.8325 125.249 60.7513V60.2327C123.933 61.0693 122.367 61.5464 120.677 61.5464C115.654 61.5464 111.927 57.8195 111.927 52.7581C111.927 47.6967 115.661 43.9697 120.677 43.9697C122.797 43.9697 124.716 44.7303 126.198 45.9957L126.961 44.5298H131.041L131.048 44.5229ZM121.681 56.5818C123.85 56.5818 125.409 54.9776 125.409 52.7512C125.409 50.5247 123.857 48.9413 121.681 48.9413C119.506 48.9413 117.94 50.5454 117.94 52.7512C117.94 54.9569 119.492 56.5818 121.681 56.5818Z" fill="white"/>
    <path d="M152.172 51.3407V61.996H146.137V52.1704C146.137 50.1376 145.368 49.1281 143.851 49.1281C141.967 49.1281 140.886 50.4418 140.886 52.6614V61.996H134.852V44.5161H139.085L139.916 46.3208C141.218 44.8687 143.165 44.0044 145.431 44.0044C149.497 44.0044 152.172 46.8878 152.172 51.3407Z" fill="white"/>
    <path d="M174.417 44.5021V61.9821H169.755L169.235 60.7444C167.801 61.906 165.986 62.5698 163.949 62.5698C158.594 62.5698 154.763 58.67 154.763 53.2352C154.763 47.8004 158.594 43.9697 163.949 43.9697C166.014 43.9697 167.857 44.6543 169.298 45.8505L169.914 44.4952H174.411L174.417 44.5021ZM168.681 53.2559C168.681 50.988 167.018 49.2801 164.76 49.2801C162.501 49.2801 160.839 50.981 160.839 53.2559C160.839 55.5308 162.501 57.2456 164.76 57.2456C167.018 57.2456 168.681 55.5446 168.681 53.2559Z" fill="white"/>
    <path d="M190.026 56.7271V62.0029H185.876C182.004 62.0029 179.648 59.6381 179.648 55.7522V49.1557H176.44V47.7452L184.29 39.4062H185.53V44.5161H189.929V49.1557H185.682V54.7219C185.682 55.9734 186.438 56.7271 187.712 56.7271H190.026Z" fill="white"/>
    <path d="M192.617 54.5006V44.5229H198.651V54.2379C198.651 56.084 199.642 57.1696 201.256 57.1696C202.871 57.1696 203.841 56.0633 203.841 54.2379V44.5229H209.875V54.5006C209.875 59.3892 206.432 62.5768 201.256 62.5768C196.081 62.5768 192.617 59.3892 192.617 54.5006Z" fill="white"/>
    <path d="M224.839 44.4399V49.9508H222.497C220.364 49.9508 219.47 50.8843 219.47 53.1177V60.0806L213.436 62.0028V44.5229H217.475L218.417 46.4659C219.65 45.0415 221.153 44.4399 223.239 44.4399H224.839Z" fill="white"/>
    <path d="M244.875 53.0967C244.875 53.6222 244.826 54.1477 244.75 54.6871H231.746C232.141 56.6923 233.416 57.7294 235.321 57.7294C236.727 57.7294 237.905 57.1141 238.487 56.0907H244.487C243.253 60.0804 239.713 62.5696 235.314 62.5696C229.848 62.5696 225.802 58.5799 225.802 53.2419C225.802 47.9039 229.82 43.9419 235.314 43.9419C240.808 43.9419 244.868 47.9592 244.868 53.0898L244.875 53.0967ZM231.85 51.3543H238.93C238.404 49.6049 237.136 48.6645 235.321 48.6645C233.506 48.6645 232.342 49.6187 231.85 51.3543Z" fill="white"/>
    <path d="M55.8401 58.5911L43.3558 51.4C42.9194 51.1441 42.3721 51.4622 42.3721 51.967V66.3561C42.3721 66.8608 42.9194 67.1789 43.3558 66.9231L55.8401 59.732C56.2766 59.4761 56.2766 58.8469 55.8401 58.598V58.5911Z" fill="#E35C2E"/>
    <path d="M33.9681 62.9128C26.6798 63.4245 19.1006 61.6267 12.4151 56.6137C2.5288 49.2013 -1.98826 36.3611 1.07392 24.2814C4.10839 12.2916 14.3133 3.12989 26.569 1.3736C45.3786 -1.31615 61.9296 12.831 62.1513 31.7906C62.179 34.1553 62.1859 36.5201 62.1513 38.8849C62.0751 43.2618 59.4493 47.0025 55.438 48.4891C51.4475 49.9689 47.1383 48.9939 44.2562 45.7303C43.2932 44.6378 42.8152 44.5617 41.6374 45.4744C35.8387 49.9688 28.1971 50.3561 22.0797 46.6291C16.0038 42.923 12.8308 36.0084 13.9669 28.9556C15.0754 22.0895 20.4446 16.5233 27.4696 14.9606C37.7231 12.6858 47.9419 20.513 48.3368 30.9885C48.4269 33.4224 48.3368 35.8632 48.3784 38.2971C48.413 40.6757 49.7293 42.1969 51.7315 42.2522C53.803 42.3076 55.2718 40.731 55.251 38.2626C55.2163 34.833 55.4588 31.3964 54.9115 27.9668C53.1241 16.7307 43.1062 8.03228 31.6611 7.87325C19.8488 7.7073 9.52609 16.0324 7.46847 27.3722C4.73884 42.4528 15.8929 55.8877 31.2593 56.026C34.4877 56.0536 41.6444 56.0052 44.8797 56.0398C47.353 56.0605 48.9118 57.4849 48.8426 59.58C48.7802 61.5922 47.2768 62.8713 44.8797 62.9059C42.8706 62.9336 36.9333 62.9059 33.975 62.9059L33.9681 62.9128ZM20.8118 31.6592C20.6802 37.3775 25.2319 42.1416 30.9544 42.273C36.5453 42.3974 41.3534 37.82 41.4712 32.2608C41.5889 26.5217 37.0234 21.7507 31.3285 21.6539C25.703 21.5571 20.9435 26.093 20.8118 31.6592Z" fill="#E35C2E"/>
    <g filter="url(#filter0_d_1837_1588)">
      <path d="M56.401 59.4072L42.8083 67.2413C42.6143 67.3519 42.3718 67.2137 42.3718 66.9924V62.9197C39.7322 62.9197 36.0881 62.9128 33.9681 62.9128C26.6798 63.4245 19.1006 61.6267 12.4151 56.6137C2.5288 49.2013 -1.98826 36.3611 1.07392 24.2814C4.10839 12.2916 14.3133 3.12988 26.569 1.3805C34.8272 0.198118 42.6489 2.25865 48.8495 6.55256L48.9049 6.59405C44.0899 41.1183 10.5376 36.8243 7.44769 36.3541C7.44769 36.3541 7.44769 36.3541 7.46155 36.4371C9.67851 47.445 19.066 55.9222 31.2454 56.026C33.7949 56.0467 38.7831 56.026 42.3649 56.026V51.3241C42.3649 51.1028 42.6073 50.9645 42.8013 51.0752L56.3941 58.9093C56.5881 59.0199 56.5881 59.2965 56.3941 59.4072H56.401Z" fill="#6440FB"/>
    </g>
    <path d="M17.0708 17.809C16.7452 17.5531 16.3503 17.3595 15.9554 17.2212C15.5051 17.0622 15.0686 17.2212 14.8954 17.6707C14.6806 18.2446 14.4659 18.8462 14.4174 19.4477C14.1541 22.7114 15.2972 25.415 17.819 27.517C17.9091 27.593 17.9991 27.6553 18.0823 27.7313C18.4217 28.0494 18.4633 28.4435 18.2001 28.7754C17.9437 29.0935 17.4795 29.1834 17.1539 28.8722C16.378 28.1393 15.5328 27.4271 14.9162 26.5697C13.1495 24.1358 12.5122 21.3976 13.0595 18.4244C13.1495 17.9334 13.3158 17.4425 13.5514 17C14.1679 15.8383 15.3388 15.4096 16.5928 15.8314C17.6112 16.1772 18.4287 16.8479 19.1146 17.6292C20.0914 18.7355 20.9643 19.9317 21.8858 21.0934C21.9412 21.1694 21.9897 21.2524 22.0659 21.3561C22.3084 20.7338 22.5023 20.1253 22.7864 19.5653C23.015 19.1227 23.2991 18.6871 23.6593 18.3483C24.3244 17.7122 25.1766 17.7675 25.8555 18.3967C26.4652 18.9568 26.8947 18.9015 27.2065 18.1201C27.4905 17.4149 27.6706 16.6612 27.8923 15.9351C28.3219 14.5384 28.8345 13.1832 29.8391 12.0907C30.906 10.9221 32.2085 10.203 33.8435 10.2722C34.1483 10.286 34.4601 10.3551 34.7511 10.4519C35.1529 10.5833 35.3469 10.9705 35.2222 11.3439C35.0975 11.738 34.7996 11.9524 34.3977 11.8694C32.5341 11.4615 31.2455 12.3673 30.4211 13.847C29.7768 15.0086 29.4442 16.35 28.9593 17.6085C28.7237 18.21 28.5297 18.8531 28.1625 19.3717C27.3658 20.5126 26.0079 20.6094 25.0034 19.6413C24.6916 19.344 24.5323 19.4685 24.3729 19.752C23.7078 20.9136 23.3614 22.179 23.1744 23.4927C23.1536 23.6518 23.2436 23.8384 23.306 24.0044C23.9295 25.6293 24.3106 27.3026 24.4491 29.0382C24.4768 29.4115 24.4838 29.8333 24.0889 29.9578C23.791 30.0546 23.3683 30.0269 23.0843 29.8886C22.3222 29.5222 21.9273 28.8031 21.8303 28.0148C21.6779 26.8117 21.6571 25.5878 21.5601 24.3709" fill="white"/>
  </g>
  <defs>
    <filter id="filter0_d_1837_1588" x="0.126953" y="1.05078" width="58.4131" height="69.2295" filterUnits="userSpaceOnUse" color-interpolation-filters="sRGB">
      <feFlood flood-opacity="0" result="BackgroundImageFix"/>
      <feColorMatrix in="SourceAlpha" type="matrix" values="0 0 0 0 0 0 0 0 0 0 0 0 0 0 0 0 0 0 127 0" result="hardAlpha"/>
      <feOffset dx="2" dy="3"/>
      <feColorMatrix type="matrix" values="0 0 0 0 0 0 0 0 0 0 0 0 0 0 0 0 0 0 0.2 0"/>
      <feBlend mode="normal" in2="BackgroundImageFix" result="effect1_dropShadow_1837_1588"/>
      <feBlend mode="normal" in="SourceGraphic" in2="effect1_dropShadow_1837_1588" result="shape"/>
    </filter>
    <clipPath id="clip0_1837_1588">
      <rect width="245" height="69" fill="white"/>
    </clipPath>
  </defs>
</svg>