<svg width="156" height="156" viewBox="0 0 156 156" fill="none" xmlns="http://www.w3.org/2000/svg">
<path d="M77.886 154.934C120.426 154.934 154.912 120.448 154.912 77.9084C154.912 35.3683 120.426 0.882812 77.886 0.882812C35.346 0.882812 0.860474 35.3683 0.860474 77.9084C0.860474 120.448 35.346 154.934 77.886 154.934Z" stroke="#323334" stroke-dasharray="3 3"/>
<path d="M77.8871 142.722C113.682 142.722 142.7 113.704 142.7 77.9093C142.7 42.1143 113.682 13.0967 77.8871 13.0967C42.0921 13.0967 13.0745 42.1143 13.0745 77.9093C13.0745 113.704 42.0921 142.722 77.8871 142.722Z" fill="#303030"/>
<path d="M71.2984 90.494C71.6501 87.2357 72.8951 84.1379 74.896 81.5425C76.8969 78.947 79.5759 76.9547 82.6374 75.7855C82.6756 77.7456 82.6121 79.7063 82.4471 81.6598C82.308 83.3807 82.0404 85.0888 81.6467 86.7698C81.5824 87.1478 81.4336 87.5064 81.2113 87.8189C80.9891 88.1314 80.6992 88.3897 80.3632 88.5745C79.569 89.0151 79.5493 89.0864 79.8958 89.9138C80.011 90.1792 80.0594 90.4688 80.0369 90.7572C80.0144 91.0457 79.9215 91.3242 79.7665 91.5685C79.0321 93.1441 78.1512 94.6472 77.1355 96.058C76.0648 97.4556 74.684 98.5854 73.1021 99.3581C72.8936 99.4981 72.6478 99.572 72.3967 99.5702C72.3513 99.5624 72.3047 99.5706 72.2647 99.5934C72.2247 99.6162 72.1938 99.6522 72.1775 99.6953C71.982 100.063 71.7762 100.425 71.5487 100.833H74.0784C75.216 100.833 76.3484 100.833 77.483 100.833C77.7484 100.819 78.0139 100.86 78.2621 100.955C78.5104 101.05 78.7359 101.197 78.9239 101.384C79.112 101.572 79.2584 101.798 79.3537 102.046C79.4489 102.294 79.4909 102.559 79.4769 102.825C79.4817 104.884 79.4817 106.942 79.4769 109C79.4884 109.262 79.4455 109.523 79.351 109.767C79.2564 110.011 79.1122 110.232 78.9275 110.418C78.7428 110.603 78.5216 110.749 78.278 110.844C78.0343 110.94 77.7735 110.984 77.5119 110.973C72.9063 110.977 68.3006 110.977 63.6949 110.973C63.437 110.982 63.18 110.938 62.9399 110.843C62.6997 110.749 62.4814 110.606 62.2985 110.424C62.1156 110.242 61.9719 110.024 61.8762 109.784C61.7806 109.545 61.735 109.288 61.7423 109.03C61.7361 108.331 61.7186 107.63 61.7506 106.933C61.7661 106.585 61.6472 106.537 61.3369 106.538C55.504 106.548 49.6711 106.538 43.8382 106.556C43.4245 106.556 43.3624 106.433 43.3635 106.06C43.3766 101.402 43.3766 96.7437 43.3635 92.0856C43.3585 91.9638 43.3805 91.8425 43.4279 91.7302C43.4753 91.6179 43.5469 91.5175 43.6375 91.4361C44.952 90.1382 46.251 88.8248 47.5675 87.5258C47.6488 87.4521 47.7127 87.3612 47.7545 87.2598C47.7964 87.1584 47.8152 87.049 47.8095 86.9394C47.8002 84.2081 47.8095 81.4767 47.7982 78.7454C47.7935 78.6364 47.8129 78.5276 47.8551 78.427C47.8973 78.3263 47.9612 78.2362 48.0422 78.1631C50.1196 76.0947 52.1915 74.0236 54.2578 71.9496C54.3303 71.8666 54.4203 71.8006 54.5213 71.7566C54.6224 71.7126 54.732 71.6917 54.8421 71.6952C59.1313 71.7042 63.4202 71.7042 67.7087 71.6952C68.0272 71.6952 68.0882 71.7862 68.0872 72.0851C68.0775 77.0334 68.0738 81.9818 68.0758 86.9301C68.0698 87.0393 68.0881 87.1484 68.1295 87.2496C68.1708 87.3509 68.2341 87.4417 68.3147 87.5155C69.3107 88.4938 70.2932 89.4804 71.3036 90.495M60.4744 79.8551V79.3763C60.4744 77.3709 60.4651 75.3656 60.4837 73.3613C60.4837 73.0211 60.3906 72.959 60.07 72.9631C58.6325 72.9818 57.1946 72.9818 55.7564 72.9631C55.4461 72.9631 55.3965 73.0511 55.3985 73.3344C55.412 75.2074 55.3985 77.0803 55.414 78.9533C55.414 79.2635 55.3303 79.3142 55.0438 79.3121C53.1822 79.2987 51.3207 79.3121 49.4591 79.2956C49.123 79.2956 49.0578 79.3825 49.0589 79.7093C49.0706 84.4976 49.0706 89.286 49.0589 94.0744C49.0492 94.1948 49.0757 94.3154 49.1351 94.4206C49.1944 94.5258 49.2838 94.6109 49.3919 94.6649C52.1415 96.4017 54.8852 98.1467 57.6231 99.9001C57.7111 99.9732 57.822 100.013 57.9365 100.013C58.0509 100.013 58.1618 99.9732 58.2498 99.9001C60.987 98.144 63.7304 96.3979 66.48 94.6618C66.5876 94.6072 66.6764 94.5217 66.7352 94.4163C66.7939 94.311 66.82 94.1905 66.81 94.0703C66.8003 87.3431 66.7979 80.6156 66.8027 73.8877C66.8027 72.9694 66.8027 72.9818 65.8957 72.9652C65.6051 72.96 65.5255 73.0252 65.5275 73.3262C65.5431 75.3573 65.5368 77.3885 65.5327 79.4207C65.5327 79.5428 65.5844 79.6782 65.4717 79.8117C64.7353 79.3225 63.9969 78.8447 63.275 78.3431C63.2 78.2738 63.1016 78.2354 62.9994 78.2354C62.8973 78.2354 62.7989 78.2738 62.7238 78.3431C61.9999 78.8436 61.2666 79.3214 60.4672 79.8541M69.382 102.106C67.4398 102.106 65.5668 102.106 63.6939 102.106C63.5979 102.096 63.5009 102.109 63.4104 102.142C63.3198 102.176 63.2381 102.229 63.1715 102.299C63.1048 102.369 63.055 102.453 63.0258 102.545C62.9967 102.637 62.9889 102.735 63.003 102.83C62.9989 104.875 62.9989 106.92 63.003 108.964C62.9875 109.063 62.9954 109.164 63.0262 109.26C63.0569 109.355 63.1095 109.442 63.1799 109.514C63.2503 109.585 63.3364 109.639 63.4314 109.671C63.5264 109.704 63.6277 109.713 63.727 109.699C68.3051 109.699 72.8828 109.699 77.4602 109.699C77.9566 109.699 78.2007 109.465 78.2017 108.98C78.2066 106.922 78.2066 104.864 78.2017 102.806C78.2135 102.71 78.2031 102.612 78.1712 102.521C78.1394 102.429 78.087 102.346 78.0181 102.278C77.9492 102.21 77.8656 102.159 77.7737 102.128C77.6819 102.097 77.5842 102.088 77.4881 102.101C75.3515 102.101 73.2138 102.101 71.0761 102.095C70.9992 102.087 70.9221 102.105 70.8561 102.145C70.79 102.185 70.7384 102.245 70.7089 102.316C70.3852 102.919 70.0522 103.517 69.7181 104.113C69.5713 104.376 69.4637 104.773 69.2445 104.854C68.9932 104.946 68.7139 104.599 68.4285 104.483C68.1886 104.384 68.1617 104.276 68.2951 104.049C68.6602 103.429 68.9983 102.792 69.381 102.1M72.527 93.7579C72.5994 93.5666 72.6305 93.4828 72.6636 93.398C73.9512 89.8862 75.6761 86.5504 77.7974 83.4696C78.3227 82.6981 78.3207 82.7136 79.087 83.2721C79.3207 83.4428 79.2939 83.5462 79.1501 83.7592C76.8376 87.0466 74.9916 90.6384 73.6647 94.4322C73.2411 95.6471 72.9075 96.8915 72.6667 98.1554C73.2365 97.8847 73.7748 97.5521 74.2717 97.1636C75.863 95.8491 77.1302 94.1858 77.9752 92.3028C78.3207 91.8085 78.5744 91.256 78.724 90.6719C78.6602 90.0729 78.4911 89.49 78.2245 88.9499C78.2175 88.9109 78.2064 88.8728 78.1914 88.8361C78.059 88.6096 78.1666 88.4907 78.361 88.3666C78.8729 88.0419 79.3631 87.684 79.8792 87.3686C80.0016 87.295 80.1072 87.1966 80.1894 87.0798C80.2715 86.963 80.3282 86.8302 80.356 86.6902C80.9118 84.4102 81.2293 82.0786 81.3033 79.7331C81.3585 79.0945 81.3768 78.4532 81.3581 77.8125C78.47 79.2959 76.0888 81.6055 74.5181 84.4471C72.9474 87.2887 72.2582 90.5336 72.5384 93.7683M63.8077 100.824C63.0889 100.299 62.428 99.8256 61.7775 99.3385C61.6089 99.2123 61.5159 99.3251 61.4 99.3985C60.3338 100.076 59.2623 100.743 58.2033 101.437C58.1292 101.498 58.0358 101.531 57.9397 101.53C57.8435 101.529 57.7508 101.494 57.6779 101.432C56.652 100.764 55.6095 100.119 54.5877 99.4481C54.4991 99.3675 54.3831 99.3237 54.2633 99.3258C54.1435 99.3279 54.0291 99.3758 53.9434 99.4595C52.1749 100.768 50.3899 102.054 48.611 103.348L45.9573 105.274H48.4663C52.7665 105.274 57.0667 105.276 61.3669 105.281C61.6772 105.281 61.761 105.201 61.7496 104.895C61.7248 104.25 61.7413 103.603 61.7423 102.957C61.716 102.676 61.7508 102.392 61.8445 102.126C61.9382 101.859 62.0884 101.616 62.285 101.414C62.4816 101.211 62.7197 101.053 62.9831 100.951C63.2465 100.849 63.5288 100.805 63.8108 100.823M44.6604 104.649L53.1057 98.506L44.6604 93.1281V104.649ZM62.79 98.507C63.8573 99.2826 64.8801 100.023 65.8999 100.77C66.0017 100.83 66.1211 100.853 66.238 100.836C67.4388 100.836 68.6384 100.836 69.8391 100.841C69.9215 100.851 70.0046 100.833 70.0758 100.79C70.1469 100.748 70.2022 100.683 70.2332 100.606C70.5072 100.082 70.7968 99.566 71.0947 99.0551C71.2017 98.8751 71.2561 98.6688 71.2519 98.4594C71.2446 97.0353 71.2519 95.6112 71.2519 94.1861V93.1281L62.7931 98.506M64.2751 77.4868C64.2751 76.0172 64.2699 74.622 64.2803 73.2258C64.2803 73.0066 64.2069 72.9673 64.0114 72.9704C63.3526 72.9807 62.6938 72.988 62.0361 72.9704C61.7848 72.9631 61.7341 73.0386 61.7361 73.2806C61.7486 74.5713 61.7361 75.8662 61.7444 77.1527C61.7444 77.2468 61.6948 77.3596 61.8044 77.4537C62.1322 77.2354 62.4663 77.0265 62.7828 76.7959C62.8449 76.7386 62.9263 76.7067 63.0108 76.7067C63.0953 76.7067 63.1767 76.7386 63.2388 76.7959C63.5563 77.0234 63.8883 77.2334 64.2731 77.4909M54.1378 74.0687L50.1603 78.037C51.3507 78.037 52.6424 78.0318 53.93 78.037C54.1616 78.037 54.1368 77.916 54.1368 77.766C54.1368 76.4991 54.1368 75.2332 54.1368 74.0553M47.793 89.1857L45.0792 91.9046L47.793 93.6286V89.1857ZM68.0903 93.6328L70.7979 91.9088L68.0903 89.1836V93.6328Z" fill="white"/>
<path d="M55.4079 83.0952L64.6299 83.1076C65.5431 83.1076 65.5441 83.1076 65.542 84.0177C65.542 84.1367 65.5348 84.2546 65.5307 84.3735H50.3506V83.1107L55.4079 83.0952" fill="white"/>
<path d="M50.3506 85.6401H65.5307C65.5307 86.0607 65.5307 86.4816 65.5307 86.9029H50.3506C50.3506 86.4823 50.3506 86.0614 50.3506 85.6401Z" fill="white"/>
<path d="M50.3506 88.1743H65.5307V89.436H50.3506V88.1743Z" fill="white"/>
<path d="M50.3506 90.708C54.4626 90.708 58.5746 90.7052 62.6866 90.6997C62.94 90.6997 63.0165 90.7597 63.0165 91.0224C63.0165 91.9728 63.0237 91.9728 62.094 91.9728H50.3516V90.708" fill="white"/>
<path d="M52.8753 94.4949C52.8753 94.2187 52.8949 93.9395 52.867 93.6675C52.8329 93.3355 52.9187 93.2279 53.2807 93.23C56.2437 93.2486 59.2067 93.2404 62.1748 93.2404H65.5329C65.5329 93.6468 65.6787 94.166 65.4822 94.4287C65.2857 94.6913 64.7448 94.501 64.3549 94.5021C60.6739 94.5083 56.9928 94.5083 53.3117 94.5021C53.1669 94.5021 53.0221 94.4949 52.8773 94.4907" fill="white"/>
<path d="M65.5308 91.9709H65.2206C64.265 91.9709 64.2743 91.9709 64.2722 91.0236C64.2722 90.7723 64.3312 90.6782 64.5938 90.6978C64.9041 90.7216 65.2206 90.7051 65.5339 90.7061V91.9678" fill="white"/>
<path d="M76.9444 107.762C76.9444 108.521 76.841 108.583 76.1749 108.271C75.82 108.068 75.5072 107.799 75.2534 107.478C74.8511 107.05 74.6019 107.051 74.2006 107.486C73.9152 107.868 73.5322 108.165 73.092 108.348C72.7656 108.46 72.4138 108.476 72.0786 108.393C71.7434 108.311 71.4392 108.133 71.2024 107.882C71.0318 107.718 70.8839 107.529 70.7112 107.365C70.6618 107.302 70.5986 107.251 70.5265 107.216C70.4544 107.18 70.3752 107.162 70.2949 107.162C70.2147 107.162 70.1355 107.18 70.0634 107.216C69.9913 107.251 69.9281 107.302 69.8787 107.365C69.707 107.528 69.5581 107.715 69.3874 107.882C69.1992 108.097 68.9585 108.26 68.6888 108.354C68.4191 108.448 68.1296 108.471 67.8484 108.42C67.5672 108.369 67.304 108.247 67.0844 108.064C66.8648 107.881 66.6962 107.645 66.5951 107.377C66.4517 107.067 66.3505 106.738 66.2941 106.4C66.2445 106.126 66.1255 105.916 65.8215 105.911C65.4916 105.911 65.3778 106.145 65.323 106.428C65.2041 107.035 65.0789 107.641 64.9724 108.249C64.93 108.489 64.8359 108.598 64.5877 108.512C64.55 108.5 64.5117 108.49 64.4729 108.483C63.6579 108.307 63.6559 108.307 63.8151 107.507C63.9123 107.016 64.0106 106.526 64.1182 106.038C64.1964 105.648 64.4068 105.296 64.7139 105.042C65.0211 104.789 65.4063 104.649 65.8046 104.646C66.2029 104.643 66.5899 104.778 66.9006 105.027C67.2113 105.276 67.4267 105.625 67.5103 106.014C67.5575 106.326 67.6491 106.63 67.7823 106.916C67.953 107.226 68.1557 107.267 68.4225 107.042C68.6025 106.89 68.7545 106.705 68.92 106.535C69.0911 106.337 69.3029 106.178 69.5408 106.069C69.7788 105.96 70.0374 105.904 70.2991 105.904C70.5607 105.904 70.8193 105.96 71.0573 106.069C71.2953 106.178 71.507 106.337 71.6782 106.535C71.825 106.686 71.9605 106.845 72.1126 106.994C72.1619 107.052 72.2234 107.1 72.2929 107.132C72.3624 107.164 72.4382 107.181 72.5149 107.181C72.5915 107.181 72.6673 107.164 72.7368 107.132C72.8063 107.1 72.8679 107.052 72.9172 106.994C73.0888 106.83 73.2388 106.645 73.4084 106.477C73.5781 106.296 73.783 106.151 74.0105 106.052C74.238 105.953 74.4833 105.902 74.7314 105.902C74.9795 105.901 75.225 105.951 75.453 106.049C75.681 106.147 75.8865 106.29 76.057 106.47C76.2836 106.76 76.5612 107.005 76.8761 107.194C77.083 107.287 76.8761 107.608 76.9485 107.76" fill="white"/>
</svg>
