<svg width="40" height="40" viewBox="0 0 40 40" fill="none" xmlns="http://www.w3.org/2000/svg">
<path d="M28.2984 19.494C28.6501 16.2357 29.8951 13.1379 31.896 10.5425C33.8969 7.947 36.5759 5.95474 39.6374 4.78549C39.6756 6.74556 39.6121 8.70629 39.4471 10.6598C39.308 12.3807 39.0405 14.0888 38.6467 15.7698C38.5824 16.1478 38.4336 16.5064 38.2113 16.8189C37.9891 17.1314 37.6992 17.3897 37.3632 17.5745C36.569 18.0151 36.5493 18.0864 36.8958 18.9138C37.011 19.1792 37.0594 19.4688 37.0369 19.7572C37.0144 20.0457 36.9215 20.3242 36.7665 20.5685C36.0321 22.1441 35.1512 23.6472 34.1355 25.058C33.0648 26.4556 31.684 27.5854 30.1021 28.3581C29.8936 28.4981 29.6478 28.572 29.3967 28.5702C29.3513 28.5624 29.3047 28.5706 29.2647 28.5934C29.2247 28.6162 29.1938 28.6522 29.1775 28.6953C28.982 29.0635 28.7762 29.4254 28.5487 29.8329H31.0784C32.216 29.8329 33.3484 29.8329 34.483 29.8329C34.7484 29.8186 35.0139 29.8603 35.2621 29.9554C35.5104 30.0504 35.7359 30.1966 35.9239 30.3844C36.112 30.5723 36.2584 30.7976 36.3537 31.0458C36.4489 31.2939 36.4909 31.5594 36.4769 31.8248C36.4817 33.8836 36.4817 35.942 36.4769 38C36.4884 38.2615 36.4455 38.5226 36.351 38.7666C36.2564 39.0107 36.1122 39.2325 35.9275 39.418C35.7428 39.6034 35.5216 39.7486 35.278 39.8442C35.0343 39.9397 34.7735 39.9837 34.5119 39.9733C29.9063 39.9774 25.3006 39.9774 20.6949 39.9733C20.437 39.9819 20.18 39.9376 19.9399 39.8431C19.6997 39.7486 19.4814 39.6059 19.2985 39.4238C19.1156 39.2418 18.9719 39.0242 18.8762 38.7845C18.7806 38.5448 18.735 38.288 18.7423 38.03C18.7361 37.3309 18.7186 36.6297 18.7506 35.9327C18.7661 35.5852 18.6472 35.5366 18.3369 35.5376C12.504 35.5479 6.6711 35.5376 0.838181 35.5562C0.424499 35.5562 0.362447 35.4331 0.363481 35.0598C0.376581 30.4017 0.376581 25.7437 0.363481 21.0856C0.358513 20.9639 0.380504 20.8425 0.427881 20.7302C0.475258 20.6179 0.546852 20.5175 0.637545 20.4361C1.95202 19.1382 3.25098 17.8248 4.56753 16.5258C4.64879 16.4521 4.71265 16.3612 4.7545 16.2598C4.79636 16.1584 4.81515 16.049 4.80953 15.9394C4.80022 13.2081 4.80953 10.4767 4.79815 7.74539C4.79348 7.63636 4.81294 7.52764 4.85513 7.42699C4.89732 7.32634 4.9612 7.23625 5.04223 7.16313C7.1196 5.09472 9.19146 3.02355 11.2578 0.949625C11.3303 0.866562 11.4203 0.800645 11.5213 0.756644C11.6224 0.712643 11.732 0.691659 11.8421 0.69521C16.1313 0.704173 20.4202 0.704173 24.7087 0.69521C25.0272 0.69521 25.0882 0.78622 25.0872 1.08511C25.0775 6.03344 25.0738 10.9818 25.0758 15.9301C25.0698 16.0393 25.0881 16.1484 25.1295 16.2496C25.1708 16.3509 25.2341 16.4417 25.3147 16.5155C26.3107 17.4938 27.2932 18.4804 28.3036 19.495M17.4744 8.85509V8.37626C17.4744 6.37093 17.4651 4.36561 17.4837 2.36132C17.4837 2.02106 17.3906 1.95901 17.07 1.96315C15.6325 1.98176 14.1946 1.98176 12.7564 1.96315C12.4461 1.96315 12.3965 2.05105 12.3985 2.33443C12.412 4.20737 12.3985 6.08032 12.414 7.95327C12.414 8.26353 12.3303 8.3142 12.0438 8.31213C10.1822 8.29869 8.32066 8.31214 6.45909 8.29559C6.12297 8.29559 6.05782 8.38246 6.05885 8.70927C6.07057 13.4976 6.07057 18.286 6.05885 23.0744C6.04918 23.1948 6.07572 23.3154 6.13506 23.4206C6.1944 23.5258 6.28382 23.6109 6.39187 23.6649C9.14147 25.4017 11.8852 27.1467 14.6231 28.9001C14.7111 28.9732 14.822 29.0133 14.9365 29.0133C15.0509 29.0133 15.1618 28.9732 15.2498 28.9001C17.987 27.144 20.7304 25.3979 23.48 23.6618C23.5876 23.6072 23.6764 23.5217 23.7352 23.4163C23.7939 23.311 23.82 23.1905 23.81 23.0703C23.8003 16.3431 23.7979 9.61558 23.8027 2.88773C23.8027 1.96935 23.8027 1.98176 22.8957 1.96521C22.6051 1.96004 22.5255 2.0252 22.5275 2.32615C22.5431 4.35733 22.5368 6.38851 22.5327 8.42073C22.5327 8.54276 22.5844 8.67824 22.4717 8.81166C21.7353 8.32248 20.9969 7.84467 20.275 7.34308C20.2 7.27382 20.1016 7.23536 19.9994 7.23536C19.8973 7.23536 19.7989 7.27382 19.7238 7.34308C18.9999 7.84364 18.2666 8.32144 17.4672 8.85406M26.382 31.106C24.4398 31.106 22.5668 31.106 20.6939 31.106C20.5979 31.0963 20.5009 31.1087 20.4104 31.1421C20.3198 31.1756 20.2381 31.2293 20.1715 31.2991C20.1048 31.3689 20.055 31.4531 20.0258 31.5451C19.9967 31.6371 19.9889 31.7345 20.003 31.83C19.9989 33.8749 19.9989 35.9196 20.003 37.9638C19.9875 38.063 19.9954 38.1643 20.0262 38.2598C20.0569 38.3553 20.1095 38.4423 20.1799 38.5138C20.2503 38.5852 20.3364 38.6392 20.4314 38.6714C20.5264 38.7036 20.6277 38.7131 20.727 38.6992C25.3051 38.6992 29.8828 38.6992 34.4602 38.6992C34.9566 38.6992 35.2007 38.4654 35.2017 37.9804C35.2066 35.9223 35.2066 33.8643 35.2017 31.8062C35.2135 31.71 35.2031 31.6124 35.1712 31.5209C35.1394 31.4294 35.087 31.3464 35.0181 31.2783C34.9492 31.2102 34.8656 31.1588 34.7737 31.128C34.6819 31.0973 34.5842 31.088 34.4881 31.1009C32.3515 31.1009 30.2138 31.1009 28.0761 31.0947C27.9992 31.0875 27.9221 31.1051 27.8561 31.1449C27.79 31.1847 27.7384 31.2447 27.7089 31.316C27.3852 31.9189 27.0522 32.5167 26.7181 33.1134C26.5713 33.3761 26.4637 33.7732 26.2445 33.8539C25.9932 33.946 25.7139 33.5995 25.4285 33.4826C25.1886 33.3844 25.1617 33.2758 25.2951 33.0493C25.6602 32.4288 25.9983 31.7917 26.381 31.0998M29.527 22.7579C29.5994 22.5666 29.6305 22.4828 29.6636 22.398C30.9512 18.8862 32.6761 15.5504 34.7974 12.4696C35.3227 11.6981 35.3207 11.7136 36.087 12.2721C36.3207 12.4428 36.2939 12.5462 36.1501 12.7592C33.8376 16.0466 31.9916 19.6384 30.6647 23.4322C30.2411 24.6471 29.9075 25.8915 29.6667 27.1554C30.2365 26.8847 30.7748 26.5521 31.2717 26.1636C32.863 24.8491 34.1302 23.1858 34.9752 21.3028C35.3207 20.8085 35.5744 20.256 35.724 19.6719C35.6602 19.0729 35.4911 18.49 35.2245 17.9499C35.2175 17.9109 35.2064 17.8728 35.1914 17.8361C35.059 17.6096 35.1666 17.4907 35.361 17.3666C35.8729 17.0419 36.3631 16.684 36.8792 16.3686C37.0016 16.295 37.1072 16.1966 37.1894 16.0798C37.2715 15.963 37.3282 15.8302 37.356 15.6902C37.9118 13.4102 38.2293 11.0786 38.3033 8.73306C38.3585 8.09447 38.3768 7.45323 38.3581 6.81254C35.47 8.29589 33.0888 10.6055 31.5181 13.4471C29.9474 16.2887 29.2582 19.5336 29.5384 22.7683M20.8077 29.8236C20.0889 29.2993 19.428 28.8256 18.7775 28.3385C18.6089 28.2123 18.5159 28.3251 18.4 28.3985C17.3338 29.0759 16.2623 29.7429 15.2033 30.4369C15.1292 30.4982 15.0358 30.5312 14.9397 30.5303C14.8435 30.5293 14.7508 30.4944 14.6779 30.4317C13.652 29.7636 12.6095 29.1193 11.5877 28.4481C11.4991 28.3675 11.3831 28.3237 11.2633 28.3258C11.1435 28.3279 11.0291 28.3758 10.9434 28.4595C9.17491 29.7678 7.38987 31.0543 5.61104 32.3481L2.95727 34.2738H5.46625C9.76648 34.2738 14.0667 34.2762 18.3669 34.281C18.6772 34.281 18.761 34.2014 18.7496 33.8953C18.7248 33.2499 18.7413 32.6025 18.7423 31.9572C18.716 31.676 18.7508 31.3924 18.8445 31.1259C18.9382 30.8594 19.0884 30.6164 19.285 30.4136C19.4816 30.2107 19.7197 30.0529 19.9831 29.9508C20.2465 29.8488 20.5288 29.8051 20.8108 29.8226M1.66037 33.6491L10.1057 27.506L1.66037 22.1281V33.6491ZM19.79 27.507C20.8573 28.2826 21.8801 29.0231 22.8999 29.7698C23.0017 29.8299 23.1211 29.8533 23.238 29.836C24.4388 29.836 25.6384 29.836 26.8391 29.8412C26.9215 29.8506 27.0046 29.8327 27.0758 29.7903C27.1469 29.7479 27.2022 29.6833 27.2332 29.6064C27.5072 29.0821 27.7968 28.566 28.0947 28.0551C28.2017 27.8751 28.2561 27.6688 28.2519 27.4594C28.2446 26.0353 28.2519 24.6112 28.2519 23.1861V22.1281L19.7931 27.506M21.2751 6.48676C21.2751 5.01716 21.2699 3.62201 21.2803 2.22583C21.2803 2.00658 21.2069 1.96728 21.0114 1.97039C20.3526 1.98073 19.6938 1.98797 19.0361 1.97039C18.7848 1.96315 18.7341 2.03864 18.7361 2.28065C18.7486 3.57134 18.7361 4.86616 18.7444 6.15271C18.7444 6.24683 18.6948 6.35955 18.8044 6.45367C19.1322 6.23545 19.4663 6.02654 19.7828 5.79591C19.8449 5.73857 19.9263 5.70672 20.0108 5.70672C20.0953 5.70672 20.1768 5.73857 20.2388 5.79591C20.5563 6.02344 20.8883 6.23338 21.2731 6.4909M11.1378 3.06871L7.16028 7.03696C8.35065 7.03696 9.64237 7.03179 10.93 7.03696C11.1616 7.03696 11.1368 6.91596 11.1368 6.766C11.1368 5.4991 11.1368 4.23323 11.1368 3.05527M4.79298 18.1857L2.07923 20.9046L4.79298 22.6286V18.1857ZM25.0903 22.6328L27.7979 20.9088L25.0903 18.1836V22.6328Z" fill="white"/>
<path d="M12.4079 12.0952L21.6299 12.1076C22.5431 12.1076 22.5441 12.1076 22.542 13.0177C22.542 13.1367 22.5348 13.2546 22.5307 13.3735H7.35059V12.1107L12.4079 12.0952Z" fill="white"/>
<path d="M7.35059 14.6401H22.5307C22.5307 15.0607 22.5307 15.4816 22.5307 15.9029H7.35059C7.35059 15.4823 7.35059 15.0614 7.35059 14.6401Z" fill="white"/>
<path d="M7.35059 17.1743H22.5307V18.436H7.35059V17.1743Z" fill="white"/>
<path d="M7.35059 19.708C11.4626 19.708 15.5746 19.7052 19.6866 19.6997C19.94 19.6997 20.0165 19.7597 20.0165 20.0224C20.0165 20.9728 20.0237 20.9728 19.094 20.9728H7.35162V19.708" fill="white"/>
<path d="M9.87526 23.4949C9.87526 23.2187 9.89492 22.9395 9.86699 22.6675C9.83286 22.3355 9.9187 22.2279 10.2807 22.23C13.2437 22.2486 16.2067 22.2404 19.1748 22.2404H22.5329C22.5329 22.6468 22.6787 23.166 22.4822 23.4287C22.2857 23.6913 21.7448 23.501 21.3549 23.5021C17.6739 23.5083 13.9928 23.5083 10.3117 23.5021C10.1669 23.5021 10.0221 23.4949 9.87733 23.4907" fill="white"/>
<path d="M22.5308 20.9709H22.2206C21.265 20.9709 21.2743 20.9709 21.2722 20.0236C21.2722 19.7723 21.3312 19.6782 21.5938 19.6978C21.9041 19.7216 22.2206 19.7051 22.5339 19.7061V20.9678" fill="white"/>
<path d="M33.9444 36.7622C33.9444 37.5213 33.841 37.5833 33.1749 37.271C32.82 37.0678 32.5072 36.7985 32.2534 36.4777C31.8511 36.0496 31.6019 36.0506 31.2006 36.486C30.9152 36.8676 30.5322 37.1652 30.092 37.3475C29.7656 37.46 29.4138 37.4759 29.0786 37.3934C28.7434 37.3108 28.4392 37.1333 28.2024 36.8821C28.0318 36.7177 27.8839 36.5295 27.7112 36.365C27.6618 36.3018 27.5986 36.2507 27.5265 36.2156C27.4544 36.1804 27.3752 36.1621 27.2949 36.1621C27.2147 36.1621 27.1355 36.1804 27.0634 36.2156C26.9913 36.2507 26.9281 36.3018 26.8787 36.365C26.707 36.5284 26.5581 36.7146 26.3874 36.8821C26.1992 37.097 25.9585 37.2595 25.6888 37.3538C25.4191 37.4481 25.1296 37.471 24.8484 37.4202C24.5672 37.3693 24.304 37.2466 24.0844 37.0639C23.8648 36.8811 23.6962 36.6446 23.5951 36.3774C23.4517 36.0665 23.3505 35.7378 23.2941 35.4001C23.2445 35.126 23.1255 34.9161 22.8215 34.9109C22.4916 34.9109 22.3778 35.1447 22.323 35.428C22.2041 36.0351 22.0789 36.6411 21.9724 37.2493C21.93 37.4892 21.8359 37.5978 21.5877 37.5119C21.55 37.5 21.5117 37.4903 21.4729 37.483C20.6579 37.3072 20.6559 37.3072 20.8151 36.5067C20.9123 36.0165 21.0106 35.5263 21.1182 35.0381C21.1964 34.6476 21.4068 34.2959 21.7139 34.0424C22.0211 33.7888 22.4063 33.6488 22.8046 33.646C23.2029 33.6432 23.5899 33.7778 23.9006 34.027C24.2113 34.2762 24.4267 34.6249 24.5103 35.0144C24.5575 35.3264 24.6491 35.6301 24.7823 35.9162C24.953 36.2264 25.1557 36.2668 25.4225 36.0423C25.6025 35.8903 25.7545 35.7052 25.92 35.5345C26.0911 35.3366 26.3029 35.1779 26.5408 35.069C26.7788 34.9602 27.0374 34.9039 27.2991 34.9039C27.5607 34.9039 27.8193 34.9602 28.0573 35.069C28.2953 35.1779 28.507 35.3366 28.6782 35.5345C28.825 35.6855 28.9605 35.8448 29.1126 35.9937C29.1619 36.0525 29.2234 36.0997 29.2929 36.132C29.3624 36.1644 29.4382 36.1812 29.5149 36.1812C29.5915 36.1812 29.6673 36.1644 29.7368 36.132C29.8063 36.0997 29.8679 36.0525 29.9172 35.9937C30.0888 35.8303 30.2388 35.6452 30.4084 35.4766C30.5781 35.2956 30.783 35.1513 31.0105 35.0524C31.238 34.9535 31.4833 34.9022 31.7314 34.9016C31.9795 34.901 32.225 34.9512 32.453 35.049C32.681 35.1468 32.8865 35.2902 33.057 35.4704C33.2836 35.7596 33.5612 36.005 33.8761 36.1944C34.083 36.2875 33.8761 36.6081 33.9485 36.7601" fill="white"/>
</svg>
