<svg width="131" height="131" viewBox="0 0 131 131" fill="none" xmlns="http://www.w3.org/2000/svg">
<path d="M65.6528 129.518C101.093 129.518 129.823 100.787 129.823 65.3471C129.823 29.9068 101.093 1.17676 65.6528 1.17676C30.2125 1.17676 1.48242 29.9068 1.48242 65.3471C1.48242 100.787 30.2125 129.518 65.6528 129.518Z" stroke="#323334" stroke-dasharray="3 3"/>
<path d="M65.653 119.386C95.4974 119.386 119.691 95.1918 119.691 65.3473C119.691 35.5028 95.4974 11.3091 65.653 11.3091C35.8085 11.3091 11.6147 35.5028 11.6147 65.3473C11.6147 95.1918 35.8085 119.386 65.653 119.386Z" fill="#303030"/>
<path d="M76.0409 74.0921H69.8294L70.4325 77.3798C70.7094 77.3798 70.941 77.3798 71.1726 77.3798C71.4853 77.3798 71.74 77.4666 71.7332 77.8333C71.7265 78.2 71.4814 78.2791 71.1639 78.2781C69.399 78.2781 67.6331 78.2781 65.8682 78.2781C64.497 78.2781 63.1248 78.2733 61.7535 78.2781C61.4148 78.2781 61.0993 78.2338 61.1041 77.8227C61.1089 77.4116 61.437 77.3663 61.7671 77.373C61.9124 77.3868 62.059 77.3822 62.2032 77.3595C62.2997 77.3373 62.4271 77.2495 62.4425 77.1713C62.6355 76.1581 62.8189 75.1449 63.008 74.096H59.206C59.206 74.7917 59.206 75.4711 59.206 76.1514C59.209 76.4136 59.1903 76.6757 59.1501 76.9349C59.0925 77.3153 58.8979 77.6615 58.6029 77.9083C58.3079 78.1552 57.9328 78.2857 57.5482 78.2753C54.0467 78.2798 50.5451 78.2798 47.0436 78.2753C46.8237 78.2827 46.6047 78.2448 46.4001 78.1638C46.1956 78.0828 46.0099 77.9606 45.8547 77.8046C45.6995 77.6487 45.5781 77.4625 45.4981 77.2576C45.4181 77.0526 45.3811 76.8334 45.3896 76.6136C45.3896 71.6382 45.3896 66.6631 45.3896 61.6884C45.383 61.4613 45.4238 61.2353 45.5096 61.0248C45.5953 60.8144 45.7241 60.6242 45.8876 60.4664C46.0511 60.3086 46.2458 60.1867 46.4591 60.1085C46.6725 60.0303 46.8998 59.9975 47.1266 60.0123C48.3955 60.0026 49.6654 60.0123 50.9343 60.0123H51.7864V59.5143C51.7864 58.0669 51.7864 56.6252 51.7864 55.1807C51.7611 54.8618 51.8056 54.5412 51.9167 54.2412C52.0278 53.9412 52.2029 53.669 52.4298 53.4435C52.6567 53.218 52.9299 53.0446 53.2306 52.9353C53.5313 52.826 53.8521 52.7835 54.1708 52.8107H78.681C78.9955 52.7842 79.3119 52.8265 79.6084 52.9346C79.9049 53.0427 80.1744 53.214 80.398 53.4366C80.6217 53.6593 80.7942 53.9279 80.9036 54.2239C81.013 54.5199 81.0567 54.8362 81.0317 55.1508C81.0317 57.558 81.0317 59.9653 81.0317 62.3726V62.9303C81.1822 62.9429 81.3067 62.9622 81.4321 62.9631C82.0594 62.9631 82.6866 62.9631 83.3138 62.9631C83.5442 62.9464 83.7754 62.979 83.9921 63.0588C84.2088 63.1387 84.406 63.2638 84.5704 63.426C84.7348 63.5881 84.8628 63.7835 84.9456 63.9991C85.0284 64.2147 85.0643 64.4454 85.0508 64.676C85.0566 67.7253 85.0566 70.7746 85.0508 73.8239C85.0508 74.7425 85.0585 75.6621 85.0508 76.5817C85.0599 76.8085 85.0215 77.0346 84.9381 77.2456C84.8547 77.4566 84.7281 77.6479 84.5665 77.8071C84.4049 77.9664 84.2118 78.0901 83.9995 78.1704C83.7873 78.2507 83.5607 78.2857 83.3341 78.2733C81.4518 78.2733 79.5698 78.2733 77.6881 78.2733C77.4722 78.2788 77.2575 78.2408 77.0567 78.1616C76.8558 78.0825 76.6729 77.9638 76.5188 77.8125C76.3647 77.6613 76.2426 77.4807 76.1596 77.2814C76.0767 77.082 76.0347 76.8681 76.036 76.6522C76.0235 75.8098 76.036 74.9673 76.036 74.0892M76.036 68.1267C76.036 66.9996 76.036 65.9227 76.036 64.8458C76.0278 64.6422 76.0424 64.4383 76.0795 64.2379C76.1595 63.8709 76.3646 63.5432 76.6596 63.3109C76.9547 63.0785 77.3213 62.9559 77.6968 62.9641C78.4774 62.9583 79.259 62.9641 80.0407 62.9641C80.0522 62.8444 80.0629 62.7875 80.0629 62.7306C80.0629 60.1782 80.0696 57.6259 80.0629 55.0726C80.07 54.8926 80.0382 54.7132 79.9698 54.5465C79.9014 54.3799 79.7978 54.2299 79.6663 54.1069C79.5347 53.9838 79.3782 53.8905 79.2073 53.8334C79.0365 53.7762 78.8553 53.7566 78.6762 53.7757C70.5093 53.7757 62.3409 53.7757 54.1708 53.7757C53.9805 53.7547 53.7879 53.7772 53.6075 53.8415C53.4271 53.9057 53.2637 54.0101 53.1295 54.1466C52.9952 54.2832 52.8937 54.4484 52.8326 54.6298C52.7714 54.8113 52.7522 55.0042 52.7764 55.1942C52.7764 56.6236 52.7764 58.0531 52.7764 59.4825C52.7764 59.6398 52.7909 59.7971 52.8006 60.0094H57.2838C57.5432 59.9742 57.8071 59.9992 58.0553 60.0824C58.3034 60.1657 58.5291 60.3049 58.7147 60.4894C58.9004 60.6738 59.0411 60.8986 59.126 61.1461C59.2109 61.3937 59.2376 61.6575 59.2041 61.9171C59.2041 63.8136 59.2041 65.7098 59.2041 67.6056C59.2041 67.7745 59.2041 67.9424 59.2041 68.1305L76.036 68.1267ZM58.2459 74.2812C58.2546 74.1558 58.2681 74.0554 58.2681 73.9551C58.2681 69.9723 58.2681 65.9896 58.2681 62.0069C58.2681 61.122 58.0751 60.9271 57.1941 60.9271H47.39C46.509 60.9271 46.2803 61.1567 46.2803 62.0435C46.2803 64.8741 46.2803 67.7047 46.2803 70.5352C46.2803 71.7723 46.2803 73.0104 46.2803 74.2822L58.2459 74.2812ZM84.1427 69.5655C84.1427 67.9897 84.1427 66.4148 84.1427 64.8371C84.1427 64.1124 83.8947 63.8721 83.1652 63.8721C81.4457 63.8676 79.7261 63.8654 78.0065 63.8654C77.2065 63.8654 76.945 64.1086 76.945 64.9037C76.9402 68.0804 76.945 71.257 76.9364 74.4337C76.9364 74.7821 77.0695 74.8409 77.3745 74.839C79.4897 74.8284 81.6049 74.8236 83.7201 74.839C84.0945 74.839 84.1476 74.6933 84.1456 74.3758C84.1341 72.7711 84.1408 71.1663 84.1408 69.5616M59.2311 73.0866H76.01V69.1003H59.2311V73.0866ZM46.2793 75.2317C46.2793 75.6303 46.2793 75.9777 46.2793 76.3251C46.2793 77.1115 46.5485 77.3788 47.3263 77.3788C49.7162 77.3788 52.1058 77.3788 54.4951 77.3788C55.46 77.3788 56.4182 77.3788 57.3803 77.3788C57.8744 77.3788 58.2247 77.1472 58.2488 76.7583C58.2835 76.2565 58.2575 75.7499 58.2575 75.2327L46.2793 75.2317ZM69.4897 77.3209C69.2967 76.2855 69.124 75.2945 68.9242 74.317C68.897 74.2582 68.8554 74.2073 68.8033 74.1688C68.7512 74.1304 68.6902 74.1057 68.6261 74.0969C67.1548 74.0821 65.6832 74.0821 64.2113 74.0969C64.1477 74.1051 64.0872 74.1289 64.0351 74.1663C63.9831 74.2037 63.9412 74.2535 63.9131 74.3112C63.7144 75.3022 63.5416 76.299 63.3554 77.3219L69.4897 77.3209ZM76.973 75.7577C76.9605 75.887 76.9402 75.9989 76.9392 76.1118C76.9303 76.3011 76.9358 76.4908 76.9557 76.6792C76.9671 76.8722 77.054 77.053 77.1975 77.1826C77.341 77.3122 77.5296 77.3802 77.7228 77.372C79.6167 77.3823 81.5106 77.3804 83.4045 77.3663C83.5681 77.3817 83.7313 77.334 83.8608 77.233C83.9903 77.132 84.0764 76.9853 84.1012 76.823C84.1299 76.4699 84.1334 76.1151 84.1119 75.7615L76.973 75.7577Z" fill="white"/>
<path d="M80.4761 65.5656C80.2146 65.5656 79.953 65.5724 79.6915 65.5656C79.402 65.556 79.1685 65.4383 79.1714 65.1073C79.1743 64.7763 79.3741 64.6451 79.6858 64.647C80.2377 64.647 80.7897 64.647 81.3416 64.6537C81.4037 64.6457 81.4668 64.6516 81.5263 64.6709C81.5858 64.6902 81.6402 64.7225 81.6858 64.7655C81.7313 64.8084 81.7667 64.8609 81.7894 64.9192C81.8122 64.9774 81.8217 65.04 81.8174 65.1025C81.8214 65.1648 81.812 65.2273 81.7898 65.2858C81.7676 65.3442 81.7331 65.3972 81.6886 65.4411C81.6441 65.485 81.5907 65.5189 81.532 65.5404C81.4733 65.5619 81.4107 65.5705 81.3484 65.5656C81.0589 65.583 80.7694 65.5656 80.4799 65.5656H80.4761Z" fill="white"/>
<path d="M66.4202 71.7789C66.2227 71.7748 66.0346 71.6942 65.8954 71.5539C65.7563 71.4137 65.6771 71.2249 65.6746 71.0274C65.6721 70.8298 65.7465 70.6391 65.882 70.4953C66.0175 70.3516 66.2036 70.2662 66.4009 70.2572C66.5029 70.2525 66.6049 70.2683 66.7006 70.3038C66.7964 70.3393 66.884 70.3937 66.9583 70.4638C67.0326 70.5339 67.092 70.6181 67.133 70.7116C67.1741 70.8051 67.1959 70.9059 67.1972 71.008C67.1985 71.1102 67.1792 71.2115 67.1406 71.306C67.1019 71.4005 67.0446 71.4863 66.9722 71.5582C66.8997 71.6301 66.8134 71.6867 66.7186 71.7246C66.6238 71.7625 66.5223 71.781 66.4202 71.7789Z" fill="white"/>
<path d="M52.2489 75.7373C52.6137 75.7681 52.8038 75.9534 52.8009 76.268C52.8009 76.4028 52.7473 76.5322 52.6519 76.6276C52.5566 76.7229 52.4272 76.7765 52.2924 76.7765C52.1575 76.7765 52.0281 76.7229 51.9328 76.6276C51.8374 76.5322 51.7838 76.4028 51.7838 76.268C51.7732 75.9235 51.9903 75.7923 52.2489 75.7334" fill="white"/>
<path d="M80.5406 77.1846C80.3293 76.8874 80.1334 76.7301 80.1083 76.5496C80.0717 76.2785 80.2588 76.0913 80.5599 76.0932C80.6221 76.0857 80.6852 76.093 80.744 76.1144C80.8028 76.1359 80.8558 76.171 80.8985 76.2168C80.9412 76.2626 80.9724 76.3178 80.9897 76.378C81.007 76.4382 81.0099 76.5017 80.998 76.5631C80.9691 76.7426 80.7645 76.8932 80.5406 77.1846Z" fill="white"/>
</svg>
