<svg width="24" height="24" viewBox="0 0 24 24" fill="none" xmlns="http://www.w3.org/2000/svg">
<path fill-rule="evenodd" clip-rule="evenodd" d="M7.08712 0.154508C8.35787 0.0960078 8.76304 0.0830078 12 0.0830078C15.237 0.0830078 15.6422 0.0970911 16.9119 0.154508C18.1815 0.211924 19.0482 0.414508 19.8065 0.708091C20.6006 1.00817 21.321 1.47726 21.9169 2.08392C22.5235 2.67867 22.9915 3.39801 23.2905 4.19317C23.5852 4.95151 23.7867 5.81817 23.8452 7.08567C23.9037 8.35859 23.9167 8.76376 23.9167 11.9997C23.9167 15.2367 23.9026 15.6418 23.8452 16.9126C23.7878 18.1801 23.5852 19.0468 23.2905 19.8051C22.9915 20.6004 22.5228 21.3209 21.9169 21.9165C21.321 22.5232 20.6006 22.9912 19.8065 23.2902C19.0482 23.5848 18.1815 23.7863 16.914 23.8448C15.6422 23.9033 15.237 23.9163 12 23.9163C8.76304 23.9163 8.35787 23.9023 7.08712 23.8448C5.81962 23.7874 4.95296 23.5848 4.19462 23.2902C3.39937 22.9911 2.67885 22.5224 2.08321 21.9165C1.47695 21.3214 1.0078 20.6012 0.708457 19.8062C0.414874 19.0478 0.213374 18.1812 0.154874 16.9137C0.096374 15.6408 0.083374 15.2356 0.083374 11.9997C0.083374 8.76268 0.0974573 8.35751 0.154874 7.08784C0.212291 5.81817 0.414874 4.95151 0.708457 4.19317C1.00824 3.3981 1.47775 2.67793 2.08429 2.08284C2.67908 1.47672 3.39889 1.00757 4.19354 0.708091C4.95187 0.414508 5.81854 0.213008 7.08604 0.154508H7.08712ZM16.8155 2.29951C15.5588 2.24209 15.1818 2.23017 12 2.23017C8.81829 2.23017 8.44129 2.24209 7.18462 2.29951C6.02221 2.35259 5.39171 2.54651 4.97137 2.71009C4.41562 2.92676 4.01804 3.18351 3.60096 3.60059C3.20559 3.98523 2.90132 4.45348 2.71046 4.97101C2.54687 5.39134 2.35296 6.02184 2.29987 7.18426C2.24246 8.44092 2.23054 8.81792 2.23054 11.9997C2.23054 15.1814 2.24246 15.5584 2.29987 16.8151C2.35296 17.9775 2.54687 18.608 2.71046 19.0283C2.90112 19.5451 3.20554 20.0142 3.60096 20.3988C3.98554 20.7942 4.45462 21.0986 4.97137 21.2893C5.39171 21.4528 6.02221 21.6468 7.18462 21.6998C8.44129 21.7573 8.81721 21.7692 12 21.7692C15.1829 21.7692 15.5588 21.7573 16.8155 21.6998C17.9779 21.6468 18.6084 21.4528 19.0287 21.2893C19.5845 21.0726 19.982 20.8158 20.3991 20.3988C20.7945 20.0142 21.099 19.5451 21.2896 19.0283C21.4532 18.608 21.6471 17.9775 21.7002 16.8151C21.7576 15.5584 21.7695 15.1814 21.7695 11.9997C21.7695 8.81792 21.7576 8.44092 21.7002 7.18426C21.6471 6.02184 21.4532 5.39134 21.2896 4.97101C21.073 4.41526 20.8162 4.01767 20.3991 3.60059C20.0145 3.20525 19.5462 2.90099 19.0287 2.71009C18.6084 2.54651 17.9779 2.35259 16.8155 2.29951ZM10.478 15.6733C11.328 16.0271 12.2745 16.0749 13.1559 15.8084C14.0372 15.5419 14.7987 14.9777 15.3103 14.2121C15.8219 13.4465 16.0518 12.5271 15.9608 11.6109C15.8698 10.6946 15.4635 9.8384 14.8113 9.18842C14.3955 8.77294 13.8929 8.4548 13.3394 8.25692C12.7859 8.05903 12.1955 7.98632 11.6106 8.04401C11.0257 8.1017 10.4608 8.28837 9.95666 8.59057C9.45253 8.89277 9.02168 9.30298 8.69512 9.79168C8.36856 10.2804 8.15441 10.8354 8.0681 11.4168C7.98179 11.9982 8.02545 12.5915 8.19596 13.154C8.36646 13.7165 8.65956 14.2342 9.05416 14.6698C9.44875 15.1054 9.93502 15.4481 10.478 15.6733ZM7.66887 7.66851C8.23765 7.09973 8.91289 6.64855 9.65603 6.34073C10.3992 6.03291 11.1957 5.87448 12 5.87448C12.8044 5.87448 13.6009 6.03291 14.3441 6.34073C15.0872 6.64855 15.7624 7.09973 16.3312 7.66851C16.9 8.23728 17.3512 8.91252 17.659 9.65566C17.9668 10.3988 18.1252 11.1953 18.1252 11.9997C18.1252 12.804 17.9668 13.6005 17.659 14.3437C17.3512 15.0868 16.9 15.7621 16.3312 16.3308C15.1825 17.4795 13.6245 18.1249 12 18.1249C10.3755 18.1249 8.81757 17.4795 7.66887 16.3308C6.52018 15.1821 5.87485 13.6242 5.87485 11.9997C5.87485 10.3752 6.52018 8.8172 7.66887 7.66851ZM19.4837 6.78667C19.6247 6.65372 19.7375 6.49383 19.8155 6.31648C19.8936 6.13913 19.9353 5.94792 19.9381 5.75418C19.9409 5.56044 19.9048 5.3681 19.832 5.18855C19.7591 5.009 19.651 4.84589 19.514 4.70888C19.377 4.57187 19.2139 4.46375 19.0343 4.3909C18.8548 4.31806 18.6624 4.28198 18.4687 4.28481C18.275 4.28763 18.0838 4.3293 17.9064 4.40735C17.7291 4.48539 17.5692 4.59823 17.4362 4.73917C17.1776 5.01329 17.0361 5.37739 17.0416 5.75418C17.047 6.13097 17.1992 6.49079 17.4656 6.75725C17.7321 7.02372 18.0919 7.17584 18.4687 7.18133C18.8455 7.18683 19.2096 7.04526 19.4837 6.78667Z" fill="white"/>
</svg>
