<svg width="28" height="21" viewBox="0 0 28 21" fill="none" xmlns="http://www.w3.org/2000/svg">
<path d="M27.55 10.0594V10.7064C27.5421 10.7394 27.5365 10.7728 27.533 10.8064C27.49 11.6244 27.458 12.4434 27.403 13.2594C27.3623 13.8714 27.3057 14.4821 27.233 15.0914C27.155 15.7464 27.059 16.3994 26.958 17.0524C26.8339 17.9106 26.3769 18.6855 25.686 19.2094C25.1555 19.6081 24.524 19.8506 23.863 19.9094C23.151 19.9934 22.44 20.0954 21.727 20.1764C21.0737 20.2504 20.4197 20.3151 19.765 20.3704C19.113 20.4244 18.465 20.4704 17.808 20.4994C17.03 20.5394 16.252 20.5854 15.473 20.5924C14.256 20.6024 13.038 20.5924 11.82 20.5734C11.311 20.5674 10.802 20.5384 10.294 20.5084C9.55401 20.4631 8.81401 20.4114 8.07401 20.3534C7.55701 20.3124 7.04001 20.2624 6.52401 20.2054C5.87068 20.1328 5.21835 20.0538 4.56701 19.9684C4.22181 19.9357 3.87909 19.8806 3.54101 19.8034C2.94884 19.6691 2.4062 19.3714 1.97471 18.9442C1.54322 18.5169 1.24019 17.9773 1.10001 17.3864C0.979392 16.8786 0.893857 16.363 0.844015 15.8434C0.754015 15.1584 0.681015 14.4714 0.631015 13.7824C0.575015 13.0164 0.531015 12.2484 0.515015 11.4824C0.485015 10.3154 0.501015 9.14844 0.575015 7.98244C0.609015 7.43944 0.647015 6.89844 0.700015 6.35744C0.762015 5.77244 0.836015 5.18644 0.919015 4.59844C0.958721 4.22678 1.02828 3.85893 1.12701 3.49844C1.28196 2.94174 1.58324 2.43673 1.99952 2.03593C2.41579 1.63513 2.93185 1.35319 3.49401 1.21944C3.92645 1.11419 4.36593 1.04033 4.80901 0.998438C5.75101 0.887438 6.70002 0.776437 7.64201 0.693437C8.65901 0.598437 9.67801 0.527438 10.7 0.476438C11.6827 0.427771 12.6667 0.401771 13.652 0.398438C14.727 0.398438 15.803 0.427437 16.879 0.455438C17.4 0.469438 17.917 0.498438 18.435 0.538438C19.0737 0.583104 19.712 0.634438 20.35 0.692437C20.9167 0.743104 21.48 0.800437 22.04 0.864437C22.599 0.928437 23.156 1.00744 23.714 1.07744C24.1779 1.11601 24.6321 1.23159 25.058 1.41944C25.5175 1.62853 25.9226 1.94061 26.242 2.33149C26.5615 2.72237 26.7866 3.18154 26.9 3.67344C26.9731 3.98473 27.0285 4.2999 27.066 4.61744C27.192 5.58944 27.329 6.56044 27.419 7.53644C27.491 8.31844 27.499 9.10544 27.536 9.88944C27.536 9.94644 27.546 10.0024 27.552 10.0594M19.396 10.5044L11.296 5.78044V15.2294L19.396 10.5044Z" fill="white"/>
</svg>
