<svg width="16" height="20" viewBox="0 0 16 20" fill="none" xmlns="http://www.w3.org/2000/svg">
<path d="M-1.17756e-05 9.855C-1.17756e-05 7.32167 -1.17756e-05 4.78567 -1.17756e-05 2.247C-0.0193328 1.94734 0.0253777 1.647 0.131146 1.36596C0.236913 1.08492 0.401314 0.829623 0.61341 0.617054C0.825506 0.404485 1.08044 0.239516 1.36124 0.133123C1.64204 0.0267292 1.94228 -0.0186504 2.24199 3.11062e-06C4.98399 3.11062e-06 7.72499 3.11062e-06 10.467 3.11062e-06C10.8227 -0.0107246 11.1759 0.0626574 11.4979 0.21418C11.8199 0.365703 12.1015 0.591088 12.32 0.872003C13.1807 1.91934 14.0477 2.962 14.921 4C15.293 4.43026 15.4937 4.9823 15.485 5.551C15.4803 9.531 15.4803 13.511 15.485 17.491C15.5006 17.7869 15.4537 18.0827 15.3475 18.3592C15.2412 18.6358 15.078 18.8869 14.8683 19.0962C14.6586 19.3055 14.4072 19.4683 14.1305 19.5741C13.8537 19.6798 13.5578 19.7261 13.262 19.71H2.22099C1.92491 19.7254 1.6289 19.6784 1.35218 19.572C1.07545 19.4656 0.824204 19.3022 0.614751 19.0924C0.405298 18.8825 0.242324 18.631 0.136412 18.3541C0.0304995 18.0771 -0.0159811 17.7811 -1.17756e-05 17.485C-1.17756e-05 14.9417 -1.17756e-05 12.3983 -1.17756e-05 9.855ZM1.40799 9.855C1.40799 12.413 1.40799 14.971 1.40799 17.529C1.39777 17.6301 1.40968 17.7322 1.4429 17.8283C1.47612 17.9243 1.52986 18.012 1.60037 18.0851C1.67088 18.1583 1.75648 18.2153 1.85122 18.252C1.94596 18.2888 2.04757 18.3045 2.14899 18.298C5.88232 18.298 9.61332 18.298 13.342 18.298C13.4395 18.3026 13.5369 18.2867 13.6279 18.2514C13.7189 18.2161 13.8016 18.1622 13.8705 18.0931C13.9394 18.024 13.9932 17.9412 14.0282 17.8501C14.0632 17.7589 14.0788 17.6615 14.074 17.564C14.074 13.6427 14.0757 9.72134 14.079 5.8C14.079 5.64 14.018 5.629 13.89 5.63C13.267 5.635 12.644 5.63 12.021 5.63C11.7347 5.63796 11.4498 5.58756 11.1836 5.48187C10.9175 5.37617 10.6756 5.2174 10.4728 5.01522C10.2699 4.81305 10.1104 4.57169 10.0038 4.30587C9.89728 4.04004 9.84596 3.7553 9.85299 3.469C9.85299 2.853 9.84699 2.238 9.85299 1.622C9.85299 1.456 9.81899 1.405 9.64199 1.406C7.17199 1.41267 4.70165 1.41267 2.23099 1.406C1.66499 1.406 1.40399 1.67 1.40299 2.243C1.40299 4.77634 1.40299 7.31234 1.40299 9.851M11.264 1.81C11.264 2.444 11.249 3.027 11.27 3.61C11.2857 3.77655 11.3624 3.93143 11.4853 4.04492C11.6082 4.15842 11.7687 4.22254 11.936 4.225C12.104 4.232 12.273 4.225 12.442 4.225H13.274L11.264 1.81Z" fill="white"/>
<path d="M1.4082 9.855C1.4082 7.32167 1.4082 4.78567 1.4082 2.247C1.4082 1.675 1.6692 1.41 2.2352 1.41C4.70587 1.41 7.1762 1.41 9.6462 1.41C9.8232 1.41 9.8592 1.46 9.8572 1.626C9.8472 2.242 9.8512 2.857 9.8572 3.473C9.84989 3.75947 9.90101 4.04442 10.0074 4.31048C10.1139 4.57655 10.2734 4.81814 10.4762 5.02054C10.6791 5.22293 10.9211 5.38188 11.1874 5.4877C11.4537 5.59351 11.7388 5.64397 12.0252 5.636C12.6482 5.636 13.2712 5.636 13.8942 5.636C14.0222 5.636 14.0832 5.646 14.0832 5.806C14.0779 9.72734 14.0762 13.6487 14.0782 17.57C14.0831 17.6675 14.0675 17.7649 14.0324 17.8561C13.9974 17.9472 13.9437 18.0299 13.8747 18.0991C13.8058 18.1682 13.7232 18.2221 13.6321 18.2574C13.5411 18.2927 13.4437 18.3086 13.3462 18.304C9.61287 18.304 5.88187 18.304 2.1532 18.304C2.05179 18.3105 1.95018 18.2948 1.85544 18.258C1.7607 18.2213 1.6751 18.1643 1.60459 18.0911C1.53407 18.018 1.48034 17.9303 1.44711 17.8343C1.41389 17.7382 1.40198 17.6361 1.4122 17.535C1.4122 14.977 1.4122 12.419 1.4122 9.861" fill="#2B1A58"/>
<path d="M11.264 1.81001L13.273 4.22601H12.441C12.272 4.22601 12.104 4.23101 11.935 4.22601C11.7677 4.22355 11.6073 4.15942 11.4843 4.04593C11.3614 3.93243 11.2848 3.77755 11.269 3.611C11.248 3.029 11.263 2.446 11.263 1.811" fill="#2B1A58"/>
<path d="M8.44604 11.667V9.35701C8.44604 8.38234 8.44604 7.408 8.44604 6.43401C8.46034 6.33369 8.45302 6.23148 8.42455 6.13424C8.39607 6.037 8.34711 5.94697 8.28096 5.87022C8.21481 5.79347 8.13299 5.73177 8.04101 5.68926C7.94903 5.64675 7.84902 5.62443 7.7477 5.62378C7.64637 5.62313 7.54608 5.64417 7.45357 5.6855C7.36105 5.72683 7.27846 5.78748 7.21133 5.86338C7.1442 5.93928 7.09409 6.02867 7.06437 6.12554C7.03465 6.22241 7.02602 6.32452 7.03904 6.425C7.03904 8.08767 7.03904 9.75067 7.03904 11.414V11.654C6.49404 11.112 5.97604 10.598 5.46004 10.083C5.39662 10.0135 5.31995 9.95746 5.23453 9.91808C5.14911 9.8787 5.05666 9.85682 4.96265 9.85371C4.86864 9.85061 4.77497 9.86635 4.68713 9.9C4.5993 9.93365 4.51909 9.98454 4.45123 10.0497C4.38336 10.1148 4.32921 10.1929 4.29198 10.2792C4.25474 10.3656 4.23516 10.4586 4.2344 10.5526C4.23364 10.6467 4.2517 10.7399 4.28754 10.8269C4.32337 10.9139 4.37624 10.9928 4.44304 11.059C5.17404 11.799 5.91304 12.531 6.64804 13.267C6.84804 13.467 7.03904 13.667 7.23904 13.857C7.30304 13.9256 7.38045 13.9802 7.46646 14.0176C7.55248 14.055 7.64526 14.0743 7.73904 14.0743C7.83283 14.0743 7.92561 14.055 8.01162 14.0176C8.09763 13.9802 8.17505 13.9256 8.23904 13.857C9.18038 12.9237 10.118 11.986 11.052 11.044C11.1166 10.9779 11.1675 10.8997 11.2018 10.8139C11.2361 10.7281 11.2532 10.6364 11.2521 10.544C11.251 10.4516 11.2317 10.3604 11.1953 10.2754C11.1589 10.1905 11.1062 10.1135 11.04 10.049C10.9739 9.98446 10.8957 9.93357 10.8099 9.89925C10.7242 9.86492 10.6324 9.84782 10.5401 9.84894C10.4477 9.85005 10.3564 9.86935 10.2715 9.90574C10.1865 9.94213 10.1096 9.99488 10.045 10.061C9.77704 10.322 9.51704 10.589 9.25304 10.854L8.44404 11.664" fill="white"/>
</svg>
