<svg width="19" height="19" viewBox="0 0 19 19" fill="none" xmlns="http://www.w3.org/2000/svg">
<path d="M0 15.257V2.90901C0.068 2.87001 0.049 2.79501 0.062 2.73801C0.181155 2.10179 0.482555 1.51388 0.929568 1.04574C1.37658 0.577601 1.94996 0.249393 2.58 0.101007C2.70639 0.0882427 2.82975 0.0544438 2.945 0.00100708L15.151 0.00100708C15.158 0.0290071 15.18 0.0320071 15.204 0.0340071C16.0156 0.129987 16.7642 0.518972 17.3092 1.1279C17.8542 1.73683 18.1582 2.5238 18.164 3.34101C18.1727 7.16567 18.1727 10.99 18.164 14.814C18.1614 15.7022 17.8072 16.5532 17.1788 17.181C16.5505 17.8087 15.6992 18.1622 14.811 18.164C10.9923 18.1727 7.17367 18.1727 3.355 18.164C2.60219 18.1595 1.87259 17.9029 1.28262 17.4353C0.692643 16.9677 0.276293 16.3159 0.1 15.584C0.073 15.475 0.086 15.351 0 15.257ZM9.091 5.72801C6.549 5.72801 4.007 5.72801 1.465 5.72801C1.303 5.72801 1.247 5.75401 1.247 5.93501C1.25367 8.85501 1.25367 11.7753 1.247 14.696C1.23488 14.991 1.28402 15.2853 1.39132 15.5604C1.49862 15.8354 1.66175 16.0853 1.87043 16.2941C2.07911 16.503 2.3288 16.6664 2.60376 16.7739C2.87873 16.8815 3.17299 16.9309 3.468 16.919C7.21 16.919 10.9523 16.919 14.695 16.919C14.8608 16.9206 15.0263 16.9055 15.189 16.874C15.6838 16.7779 16.1285 16.5094 16.4439 16.1163C16.7594 15.7231 16.9253 15.2309 16.912 14.727C16.912 11.7937 16.912 8.86034 16.912 5.92701C16.912 5.76501 16.872 5.72701 16.712 5.72701C14.17 5.73234 11.628 5.73234 9.086 5.72701M11.4 1.25101C11.4 1.33301 11.449 1.37001 11.482 1.41401C12.143 2.31401 12.819 3.20101 13.462 4.11401C13.5363 4.23894 13.6448 4.33999 13.7747 4.40521C13.9046 4.47042 14.0504 4.49707 14.195 4.48201C15.051 4.45501 15.909 4.47401 16.766 4.47101C16.824 4.47101 16.923 4.51801 16.919 4.39101C16.9442 3.91892 16.9291 3.44554 16.874 2.97601C16.7803 2.48367 16.5153 2.04042 16.1259 1.72484C15.7366 1.40926 15.2481 1.24175 14.747 1.25201C13.671 1.25201 12.596 1.25201 11.52 1.25201L11.4 1.25101ZM6.764 4.47201C6.773 4.45001 6.779 4.44201 6.777 4.44001C6.01033 3.39867 5.24367 2.35734 4.477 1.31601C4.46007 1.29253 4.43708 1.27408 4.41049 1.26263C4.38389 1.25118 4.3547 1.24717 4.326 1.25101C4.001 1.25101 3.676 1.24501 3.351 1.25101C2.86293 1.25892 2.39249 1.43478 2.01891 1.74898C1.64534 2.06318 1.39145 2.49651 1.3 2.97601C1.25229 3.4106 1.23624 3.84809 1.252 4.28501C1.244 4.44501 1.293 4.47701 1.446 4.47601C3.166 4.47001 4.886 4.47601 6.607 4.47601L6.764 4.47201ZM6 1.25101C6.029 1.30201 6.038 1.32401 6.052 1.34201C6.8 2.35301 7.55 3.36401 8.292 4.37901C8.31724 4.4141 8.35175 4.44147 8.39166 4.45807C8.43157 4.47467 8.47532 4.47985 8.518 4.47301H12.172C12.145 4.43201 12.134 4.41401 12.121 4.39701C11.3737 3.37967 10.624 2.36234 9.872 1.34501C9.84694 1.30916 9.81252 1.28089 9.77249 1.26325C9.73246 1.24562 9.68837 1.23931 9.645 1.24501C8.53967 1.24501 7.43433 1.24501 6.329 1.24501L6 1.25101Z" fill="white"/>
<path d="M9.0908 5.728C11.6328 5.728 14.1748 5.728 16.7168 5.728C16.8798 5.728 16.9168 5.76999 16.9168 5.92799C16.9115 8.86133 16.9115 11.7947 16.9168 14.728C16.9301 15.2319 16.7642 15.7241 16.4488 16.1172C16.1333 16.5104 15.6886 16.7789 15.1938 16.875C15.0311 16.9066 14.8656 16.9216 14.6998 16.92C10.9578 16.92 7.21547 16.92 3.4728 16.92C3.17779 16.9319 2.88353 16.8825 2.60857 16.7749C2.3336 16.6674 2.08391 16.504 1.87523 16.2951C1.66656 16.0863 1.50342 15.8364 1.39612 15.5614C1.28882 15.2863 1.23968 14.992 1.2518 14.697C1.2518 11.777 1.2518 8.85666 1.2518 5.936C1.2518 5.755 1.3078 5.729 1.4698 5.729C4.0118 5.73433 6.5538 5.73433 9.0958 5.729M6.5328 11.315C6.5328 12.2483 6.5328 13.1817 6.5328 14.115C6.51918 14.2367 6.54141 14.3598 6.59676 14.4691C6.6521 14.5784 6.73816 14.6691 6.84436 14.7302C6.95056 14.7913 7.07229 14.82 7.19458 14.8129C7.31688 14.8057 7.43443 14.763 7.5328 14.69C9.1428 13.764 10.7515 12.836 12.3588 11.906C12.4751 11.8577 12.5745 11.7759 12.6442 11.671C12.7139 11.5661 12.7509 11.4428 12.7503 11.3168C12.7498 11.1909 12.7118 11.0679 12.6412 10.9636C12.5706 10.8593 12.4706 10.7783 12.3538 10.731C10.7465 9.801 9.1378 8.873 7.5278 7.947C7.42889 7.87326 7.31048 7.83024 7.18731 7.82329C7.06414 7.81633 6.94164 7.84575 6.83506 7.90789C6.72848 7.97003 6.64252 8.06213 6.58789 8.17274C6.53326 8.28336 6.51236 8.4076 6.5278 8.53C6.5278 9.458 6.5278 10.386 6.5278 11.314" fill="#2B1A58"/>
<path d="M11.3972 1.25H11.5172C12.5932 1.25 13.6682 1.25 14.7442 1.25C15.2447 1.24074 15.7324 1.40883 16.1209 1.72452C16.5095 2.04021 16.7738 2.48316 16.8672 2.975C16.9223 3.44453 16.9374 3.91791 16.9122 4.39C16.9122 4.516 16.8122 4.469 16.7592 4.47C15.9022 4.47 15.0442 4.454 14.1882 4.481C14.0436 4.49606 13.8978 4.46941 13.7679 4.4042C13.638 4.33898 13.5295 4.23793 13.4552 4.113C12.8122 3.201 12.1372 2.313 11.4752 1.413C11.4422 1.369 11.3902 1.332 11.3932 1.25" fill="#2B1A58"/>
<path d="M6.76114 4.472H6.59914C4.87914 4.472 3.15914 4.472 1.43814 4.472C1.28514 4.472 1.23814 4.441 1.24414 4.281C1.22838 3.84408 1.24442 3.40659 1.29214 2.972C1.38441 2.49206 1.63944 2.05866 2.01419 1.74494C2.38894 1.43122 2.86045 1.25641 3.34914 1.25C3.67414 1.241 3.99914 1.25 4.32414 1.25C4.35283 1.24616 4.38203 1.25018 4.40862 1.26163C4.43522 1.27307 4.4582 1.29152 4.47514 1.315C5.24047 2.357 6.00714 3.39833 6.77514 4.439C6.77514 4.439 6.77514 4.449 6.76214 4.471" fill="#2B1A58"/>
<path d="M6.00298 1.251H6.32898C7.43431 1.251 8.53964 1.251 9.64497 1.251C9.68834 1.2453 9.73243 1.25161 9.77246 1.26925C9.81249 1.28688 9.84691 1.31516 9.87198 1.351C10.6186 2.37033 11.3683 3.38733 12.121 4.402C12.134 4.419 12.145 4.437 12.172 4.478H8.51698C8.4743 4.48484 8.43055 4.47967 8.39064 4.46307C8.35073 4.44647 8.31621 4.41909 8.29097 4.384C7.54897 3.369 6.79998 2.359 6.05298 1.347C6.03898 1.328 6.02998 1.307 6.00098 1.256" fill="#2B1A58"/>
<path d="M6.52789 11.314C6.52789 10.386 6.52789 9.45801 6.52789 8.53001C6.51246 8.40761 6.53335 8.28337 6.58798 8.17275C6.64262 8.06214 6.72857 7.97003 6.83515 7.90789C6.94172 7.84576 7.06422 7.81634 7.18739 7.8233C7.31057 7.83025 7.42898 7.87326 7.52789 7.947C9.13723 8.87367 10.7459 9.80166 12.3539 10.731C12.4706 10.7783 12.5707 10.8593 12.6413 10.9636C12.7119 11.0679 12.7499 11.1909 12.7504 11.3168C12.751 11.4428 12.714 11.5661 12.6443 11.671C12.5746 11.7759 12.4752 11.8577 12.3589 11.906C10.7509 12.836 9.14222 13.764 7.53288 14.69C7.43452 14.763 7.31697 14.8057 7.19467 14.8129C7.07237 14.82 6.95065 14.7913 6.84445 14.7302C6.73825 14.6692 6.6522 14.5784 6.59685 14.4691C6.5415 14.3598 6.51926 14.2367 6.53288 14.115C6.53288 13.1817 6.53288 12.2483 6.53288 11.315M7.7889 13.099L10.8669 11.321L7.7889 9.544V13.099Z" fill="white"/>
<path d="M7.78418 13.098V9.543L10.8622 11.32L7.78418 13.098Z" fill="#2B1A58"/>
</svg>
