<svg width="16" height="20" viewBox="0 0 16 20" fill="none" xmlns="http://www.w3.org/2000/svg">
<path d="M-1.17756e-05 9.85499C-1.17756e-05 7.32166 -1.17756e-05 4.78566 -1.17756e-05 2.247C-0.0193328 1.94733 0.0253777 1.64699 0.131146 1.36595C0.236913 1.08491 0.401314 0.829616 0.61341 0.617047C0.825506 0.404477 1.08044 0.239509 1.36124 0.133115C1.64204 0.0267215 1.94228 -0.018658 2.24199 -4.51878e-06C4.98399 -4.51878e-06 7.72499 -4.51878e-06 10.467 -4.51878e-06C10.8227 -0.0107322 11.1759 0.0626498 11.4979 0.214173C11.8199 0.365696 12.1015 0.591081 12.32 0.871995C13.1807 1.91933 14.0477 2.962 14.921 4C15.293 4.43025 15.4937 4.9823 15.485 5.551C15.4803 9.531 15.4803 13.511 15.485 17.491C15.5006 17.7868 15.4537 18.0827 15.3475 18.3592C15.2412 18.6358 15.078 18.8869 14.8683 19.0962C14.6586 19.3055 14.4072 19.4683 14.1305 19.5741C13.8537 19.6798 13.5578 19.7261 13.262 19.71H2.22099C1.92491 19.7254 1.6289 19.6784 1.35218 19.572C1.07545 19.4656 0.824204 19.3022 0.614751 19.0923C0.405298 18.8825 0.242324 18.631 0.136412 18.3541C0.0304995 18.0771 -0.0159811 17.781 -1.17756e-05 17.485C-1.17756e-05 14.9417 -1.17756e-05 12.3983 -1.17756e-05 9.85499ZM1.40799 9.85499C1.40799 12.413 1.40799 14.971 1.40799 17.529C1.39777 17.6301 1.40968 17.7322 1.4429 17.8283C1.47612 17.9243 1.52986 18.012 1.60037 18.0851C1.67088 18.1583 1.75648 18.2153 1.85122 18.252C1.94596 18.2888 2.04757 18.3045 2.14899 18.298C5.88232 18.298 9.61332 18.298 13.342 18.298C13.4395 18.3026 13.5369 18.2867 13.6279 18.2514C13.7189 18.2161 13.8016 18.1622 13.8705 18.0931C13.9394 18.0239 13.9932 17.9412 14.0282 17.85C14.0632 17.7589 14.0788 17.6615 14.074 17.564C14.074 13.6427 14.0757 9.72133 14.079 5.8C14.079 5.64 14.018 5.629 13.89 5.63C13.267 5.635 12.644 5.63 12.021 5.63C11.7347 5.63795 11.4498 5.58755 11.1836 5.48186C10.9175 5.37617 10.6756 5.21739 10.4728 5.01522C10.2699 4.81304 10.1104 4.57168 10.0038 4.30586C9.89728 4.04003 9.84596 3.7553 9.85299 3.469C9.85299 2.853 9.84699 2.238 9.85299 1.622C9.85299 1.456 9.81899 1.405 9.64199 1.406C7.17199 1.41266 4.70165 1.41266 2.23099 1.406C1.66499 1.406 1.40399 1.67 1.40299 2.243C1.40299 4.77633 1.40299 7.31233 1.40299 9.851M11.264 1.81C11.264 2.444 11.249 3.027 11.27 3.61C11.2857 3.77655 11.3624 3.93142 11.4853 4.04491C11.6082 4.15841 11.7687 4.22254 11.936 4.225C12.104 4.232 12.273 4.225 12.442 4.225H13.274L11.264 1.81Z" fill="white"/>
<path d="M1.4082 9.855C1.4082 7.32167 1.4082 4.78567 1.4082 2.247C1.4082 1.675 1.6692 1.41 2.2352 1.41C4.70587 1.41 7.1762 1.41 9.6462 1.41C9.8232 1.41 9.8592 1.46 9.8572 1.626C9.8472 2.242 9.8512 2.857 9.8572 3.473C9.84989 3.75947 9.90101 4.04442 10.0074 4.31048C10.1139 4.57655 10.2734 4.81814 10.4762 5.02054C10.6791 5.22293 10.9211 5.38188 11.1874 5.4877C11.4537 5.59351 11.7388 5.64397 12.0252 5.636C12.6482 5.636 13.2712 5.636 13.8942 5.636C14.0222 5.636 14.0832 5.646 14.0832 5.806C14.0779 9.72734 14.0762 13.6487 14.0782 17.57C14.0831 17.6675 14.0675 17.7649 14.0324 17.8561C13.9974 17.9472 13.9437 18.0299 13.8747 18.0991C13.8058 18.1682 13.7232 18.2221 13.6321 18.2574C13.5411 18.2927 13.4437 18.3086 13.3462 18.304C9.61287 18.304 5.88187 18.304 2.1532 18.304C2.05179 18.3105 1.95018 18.2948 1.85544 18.258C1.7607 18.2213 1.6751 18.1643 1.60459 18.0911C1.53407 18.018 1.48034 17.9303 1.44711 17.8343C1.41389 17.7382 1.40198 17.6361 1.4122 17.535C1.4122 14.977 1.4122 12.419 1.4122 9.861M8.4502 8.039L9.2592 8.849C9.5232 9.114 9.7842 9.381 10.0512 9.642C10.1816 9.77554 10.3596 9.85182 10.5462 9.85407C10.7328 9.85633 10.9127 9.78436 11.0462 9.654C11.1797 9.52365 11.256 9.34559 11.2583 9.15899C11.2605 8.97239 11.1886 8.79254 11.0582 8.659C10.1249 7.71767 9.1872 6.78 8.2452 5.846C8.18121 5.77745 8.1038 5.72279 8.01778 5.68541C7.93177 5.64804 7.83899 5.62875 7.7452 5.62875C7.65142 5.62875 7.55864 5.64804 7.47262 5.68541C7.38661 5.72279 7.3092 5.77745 7.2452 5.846C7.0452 6.039 6.8512 6.239 6.6542 6.436C5.9182 7.172 5.1802 7.904 4.4492 8.644C4.37491 8.70809 4.31482 8.78698 4.27276 8.87563C4.23071 8.96427 4.20762 9.06072 4.20498 9.1588C4.20233 9.25688 4.22019 9.35443 4.2574 9.44522C4.29462 9.536 4.35037 9.61802 4.4211 9.68602C4.49182 9.75402 4.57597 9.80651 4.66814 9.84013C4.76032 9.87375 4.85849 9.88776 4.95639 9.88126C5.05429 9.87477 5.14976 9.84791 5.23668 9.8024C5.32361 9.7569 5.40008 9.69375 5.4612 9.617C5.9772 9.101 6.4952 8.588 7.0402 8.046V8.286C7.0402 9.94867 7.0402 11.6117 7.0402 13.275C7.02718 13.3755 7.03582 13.4776 7.06553 13.5745C7.09525 13.6713 7.14536 13.7607 7.21249 13.8366C7.27962 13.9125 7.36221 13.9732 7.45473 14.0145C7.54724 14.0558 7.64753 14.0769 7.74886 14.0762C7.85018 14.0756 7.95019 14.0533 8.04217 14.0107C8.13415 13.9682 8.21596 13.9065 8.28212 13.8298C8.34827 13.753 8.39723 13.663 8.4257 13.5658C8.45418 13.4685 8.46151 13.3663 8.4472 13.266C8.4472 12.292 8.4472 11.3177 8.4472 10.343L8.4502 8.039Z" fill="#2B1A58"/>
<path d="M11.264 1.81L13.273 4.226H12.441C12.272 4.226 12.104 4.231 11.935 4.226C11.7677 4.22354 11.6073 4.15941 11.4843 4.04592C11.3614 3.93242 11.2848 3.77755 11.269 3.611C11.248 3.029 11.263 2.446 11.263 1.811" fill="#2B1A58"/>
<path d="M8.44604 8.03399V10.347C8.44604 11.321 8.44604 12.2953 8.44604 13.27C8.46034 13.3703 8.45302 13.4725 8.42455 13.5698C8.39607 13.667 8.34711 13.757 8.28096 13.8338C8.21481 13.9105 8.13299 13.9722 8.04101 14.0147C7.94903 14.0572 7.84902 14.0796 7.7477 14.0802C7.64637 14.0809 7.54608 14.0598 7.45357 14.0185C7.36105 13.9772 7.27846 13.9165 7.21133 13.8406C7.1442 13.7647 7.09409 13.6753 7.06437 13.5785C7.03465 13.4816 7.02602 13.3795 7.03904 13.279C7.03904 11.6163 7.03904 9.95333 7.03904 8.28999V8.04699C6.49404 8.58899 5.97604 9.10299 5.46004 9.61799C5.39662 9.68746 5.31995 9.74353 5.23453 9.78291C5.14911 9.82229 5.05666 9.84418 4.96265 9.84728C4.86864 9.85039 4.77497 9.83466 4.68713 9.801C4.5993 9.76735 4.51909 9.71646 4.45123 9.65133C4.38336 9.5862 4.32921 9.50814 4.29198 9.42177C4.25474 9.33539 4.23516 9.24244 4.2344 9.14838C4.23364 9.05433 4.2517 8.96107 4.28754 8.8741C4.32337 8.78713 4.37624 8.70821 4.44304 8.64199C5.17404 7.90199 5.91304 7.16999 6.64804 6.43399C6.84804 6.23399 7.03904 6.03399 7.23904 5.84399C7.30304 5.77544 7.38045 5.72078 7.46646 5.6834C7.55248 5.64603 7.64526 5.62674 7.73904 5.62674C7.83283 5.62674 7.92561 5.64603 8.01162 5.6834C8.09763 5.72078 8.17505 5.77544 8.23904 5.84399C9.18038 6.77733 10.118 7.71499 11.052 8.65699C11.1166 8.72311 11.1675 8.8013 11.2018 8.88708C11.2361 8.97287 11.2532 9.06458 11.2521 9.15697C11.251 9.24937 11.2317 9.34064 11.1953 9.42558C11.1589 9.51051 11.1062 9.58745 11.04 9.65199C10.9739 9.71654 10.8957 9.76742 10.8099 9.80175C10.7242 9.83608 10.6324 9.85318 10.5401 9.85207C10.4477 9.85095 10.3564 9.83165 10.2715 9.79526C10.1865 9.75887 10.1096 9.70611 10.045 9.63999C9.77704 9.37899 9.51704 9.11199 9.25304 8.84699L8.44404 8.03699" fill="white"/>
</svg>
