<svg width="16" height="16" viewBox="0 0 16 16" fill="none" xmlns="http://www.w3.org/2000/svg">
<path d="M7.849 15.683C6.29782 15.6846 4.78102 15.226 3.4905 14.3654C2.19998 13.5047 1.19373 12.2806 0.599067 10.8479C0.00440258 9.41527 -0.151959 7.8384 0.149765 6.31684C0.451489 4.79528 1.19774 3.3974 2.2941 2.30006C3.39047 1.20271 4.78768 0.455214 6.30897 0.152132C7.83026 -0.150951 9.40726 0.00400168 10.8405 0.597386C12.2737 1.19077 13.4987 2.19592 14.3605 3.48567C15.2223 4.77542 15.6822 6.29181 15.682 7.843C15.6828 9.92133 14.858 11.9149 13.3891 13.3851C11.9201 14.8554 9.92733 15.6819 7.849 15.683ZM7.849 14.12C9.09104 14.1186 10.3048 13.7489 11.3367 13.0576C12.3686 12.3664 13.1722 11.3846 13.6461 10.2365C14.1199 9.08838 14.2426 7.82554 13.9987 6.60769C13.7547 5.38985 13.1551 4.27171 12.2755 3.39472C11.396 2.51773 10.2762 1.92127 9.05765 1.68081C7.83911 1.44034 6.57662 1.56666 5.42989 2.0438C4.28315 2.52093 3.30368 3.32744 2.61537 4.36131C1.92706 5.39518 1.56083 6.60996 1.563 7.852C1.56961 9.51511 2.2343 11.108 3.41181 12.2825C4.58931 13.457 6.18388 14.1176 7.847 14.12" fill="white"/>
<path d="M7.84704 14.12C6.60491 14.1214 5.39029 13.7543 4.35681 13.0653C3.32334 12.3762 2.51745 11.3961 2.04111 10.249C1.56476 9.1018 1.43936 7.83913 1.68076 6.62069C1.92217 5.40225 2.51953 4.28278 3.39729 3.40391C4.27504 2.52504 5.39375 1.92625 6.61188 1.68329C7.83001 1.44033 9.09283 1.56413 10.2406 2.03901C11.3884 2.51389 12.3695 3.31853 13.0599 4.35112C13.7502 5.38372 14.1188 6.59788 14.119 7.84C14.1156 9.50313 13.454 11.0973 12.2787 12.274C11.1035 13.4508 9.51015 14.1145 7.84704 14.12ZM7.96004 7.527C10.186 7.44 8.16004 9.845 8.09204 7.718C8.01904 5.518 9.87004 7.769 7.71404 7.843C5.51404 7.918 8.39704 5.828 8.47304 7.974C8.55104 10.174 5.82504 7.582 7.96004 7.528" fill="#2B1A58"/>
<path d="M7.93204 10.839C7.33881 10.8585 6.75312 10.7016 6.2491 10.3881C5.74507 10.0746 5.34537 9.61868 5.10056 9.07797C4.85575 8.53725 4.77683 7.93607 4.87381 7.35049C4.97078 6.76491 5.23928 6.22126 5.64533 5.78833C6.05138 5.35539 6.57673 5.05264 7.1549 4.91838C7.73307 4.78411 8.33807 4.82438 8.89334 5.03407C9.44862 5.24376 9.92923 5.61346 10.2743 6.09638C10.6194 6.5793 10.8135 7.15373 10.832 7.747C10.8568 8.54141 10.5654 9.31319 10.0217 9.89291C9.47795 10.4726 8.72641 10.8129 7.93204 10.839Z" fill="white"/>
</svg>
