<svg xmlns="http://www.w3.org/2000/svg" xmlns:xlink="http://www.w3.org/1999/xlink" viewBox="0,0,256,256" width="30px" height="30px"><g transform=""><g fill="#03a9f4" fill-rule="nonzero" stroke="none" stroke-width="1" stroke-linecap="butt" stroke-linejoin="miter" stroke-miterlimit="10" stroke-dasharray="" stroke-dashoffset="0" font-family="none" font-weight="none" font-size="none" text-anchor="none" style="mix-blend-mode: normal"><path d="M128,256c-70.69245,0 -128,-57.30755 -128,-128v0c0,-70.69245 57.30755,-128 128,-128v0c70.69245,0 128,57.30755 128,128v0c0,70.69245 -57.30755,128 -128,128z" id="shape"></path></g><g fill="none" fill-rule="nonzero" stroke="none" stroke-width="1" stroke-linecap="butt" stroke-linejoin="miter" stroke-miterlimit="10" stroke-dasharray="" stroke-dashoffset="0" font-family="none" font-weight="none" font-size="none" text-anchor="none" style="mix-blend-mode: normal"><g transform="scale(5.33333,5.33333)"><path d="M24,4c-11.04569,0 -20,8.95431 -20,20c0,11.04569 8.95431,20 20,20c11.04569,0 20,-8.95431 20,-20c0,-11.04569 -8.95431,-20 -20,-20z" fill="#03a9f4"></path><path d="M33.5,22c-6.35127,0 -11.5,5.14873 -11.5,11.5c0,6.35127 5.14873,11.5 11.5,11.5c6.35127,0 11.5,-5.14873 11.5,-11.5c0,-6.35127 -5.14873,-11.5 -11.5,-11.5zM14.5,3c-6.35127,0 -11.5,5.14873 -11.5,11.5c0,6.35127 5.14873,11.5 11.5,11.5c6.35127,0 11.5,-5.14873 11.5,-11.5c0,-6.35127 -5.14873,-11.5 -11.5,-11.5z" fill="#03a9f4"></path><path d="M24.602,36c-6.602,0 -9.602,-3.301 -9.602,-5.801c0,-1.301 0.898,-2.199 2.199,-2.199c2.801,0 2.102,4.102 7.402,4.102c2.699,0 4.199,-1.5 4.199,-3c0,-0.902 -0.402,-1.902 -2.199,-2.402l-5.902,-1.5c-4.699,-1.2 -5.597,-3.802 -5.597,-6.302c0,-5.098 4.699,-6.898 9.098,-6.898c4.101,0 8.8,2.199 8.8,5.199c0,1.301 -1,2.102 -2.301,2.102c-2.398,0 -2,-3.402 -6.801,-3.402c-2.398,0 -3.797,1.102 -3.797,2.703c0,1.598 1.898,2.098 3.598,2.5l4.402,1c4.797,1.097 5.899,3.898 5.899,6.597c-0.102,4.199 -3.102,7.301 -9.398,7.301z" fill="#ffffff"></path></g></g></g></svg>