<svg width="54" height="55" viewBox="0 0 54 55" fill="none" xmlns="http://www.w3.org/2000/svg">
<g clip-path="url(#clip0_129_52)">
<path d="M53.9253 4.42521C53.8706 4.40158 53.8594 4.36551 53.8469 4.24734C53.8429 4.19647 53.8341 4.14609 53.8208 4.09683C53.1987 2.13898 51.6396 0.967262 49.6526 0.959799C46.1003 0.948604 42.8093 0.942383 39.5904 0.942383C36.3716 0.942383 33.1913 0.942382 30.1815 0.96104C27.7614 0.970991 25.9361 2.75345 25.8391 5.20138C25.8254 5.54967 25.7669 5.57454 25.4372 5.57454C21.8015 5.56584 18.243 5.56459 15.2419 5.56459H8.69471C6.70393 5.56459 5.66125 6.61069 5.66125 8.58843V23.9639C5.66125 26.5536 6.44762 27.3634 9.02817 27.4293C9.26209 27.4293 9.26832 27.4728 9.26458 27.6992C9.24841 28.601 9.24841 29.5016 9.26458 30.3797C9.27578 31.09 9.59181 31.5204 10.2027 31.6559C10.2884 31.6756 10.3761 31.6856 10.464 31.6858C10.8983 31.6858 11.2106 31.4246 11.4706 31.1696L12.4959 30.1471C13.281 29.3647 14.0922 28.5562 14.8798 27.7502C14.9772 27.6421 15.0977 27.5573 15.2323 27.5019C15.3669 27.4466 15.5122 27.4222 15.6575 27.4305C19.2894 27.4305 23.1528 27.4392 28.1857 27.4392H35.7059C37.5723 27.4392 38.651 26.3621 38.6573 24.4851C38.6573 24.2798 38.6573 24.0758 38.6573 23.8718C38.6573 23.3133 38.6697 22.7374 38.6411 22.1702C38.6311 21.9899 38.6485 21.8816 38.6958 21.8331C38.7431 21.7846 38.8476 21.761 39.0355 21.761H39.0517C40.974 21.7722 42.8665 21.7734 44.4629 21.7734H49.4473C51.0262 21.7734 52.2891 21.1515 53.2036 19.9337C53.3977 19.6513 53.5541 19.3448 53.669 19.022C53.7546 18.7916 53.8582 18.5682 53.9788 18.354L53.9962 18.3242V4.45506L53.9253 4.42521ZM12.0952 27.2377L11.6087 27.7228C11.6087 27.6184 11.6087 27.5188 11.6087 27.4206C11.6087 27.03 11.6087 26.6929 11.6025 26.3521C11.5764 25.5511 11.1347 25.1157 10.3259 25.0958C10.1169 25.0958 9.90661 25.0958 9.69633 25.0958H9.2285H8.76191H8.59145C8.03776 25.0958 8.01162 25.0672 8.01038 24.5273C8.01038 23.6152 8.01038 22.7005 8.01038 21.7834V8.56729C8.01038 7.9155 8.01038 7.9155 8.66734 7.9155H14.9346C18.2766 7.9155 21.8662 7.9155 25.4733 7.90679C25.645 7.90679 25.7346 7.92297 25.7744 7.96277C25.8142 8.00257 25.8329 8.09711 25.8316 8.25757C25.8142 10.958 25.8117 13.8276 25.8242 17.2856C25.8316 19.4113 27.0336 21.0271 29.0405 21.6092C29.4918 21.7282 29.9576 21.7826 30.4241 21.7709H30.673H32.0342H33.3954C34.4156 21.7709 35.2007 21.7709 35.9386 21.7548H35.9647C36.0679 21.7411 36.1725 21.7649 36.2596 21.8219C36.3044 21.8692 36.3218 21.9712 36.3143 22.1516C36.2944 22.6727 36.2994 23.2014 36.3031 23.7126C36.3031 23.9614 36.3031 24.2102 36.3031 24.4589C36.3031 25.0473 36.2646 25.0809 35.6611 25.0809H26.7026C23.5385 25.0809 19.3691 25.0809 15.1735 25.0684C14.4755 25.0684 13.9641 25.2849 13.5161 25.7675C13.0682 26.2501 12.5979 26.7352 12.0952 27.2352V27.2377ZM28.1708 17.1326C28.1708 13.2865 28.1708 9.44048 28.1708 5.59445C28.1708 4.07195 28.9435 3.29951 30.4652 3.29951H49.3527C50.8769 3.29951 51.6496 4.07071 51.6508 5.59071C51.6508 9.43675 51.6508 13.2832 51.6508 17.1301C51.6508 18.6513 50.8782 19.4238 49.3552 19.425H30.4689C28.9472 19.4213 28.1708 18.6501 28.1708 17.1301V17.1326Z" fill="#6440FB"/>
<path d="M32.68 37.1874C31.7369 36.8043 31.59 36.308 31.6199 35.3427C31.6672 33.7904 31.656 32.2107 31.6448 30.6832C31.6448 30.2068 31.6386 29.7304 31.6373 29.254C31.6373 28.4542 31.1857 27.938 30.4939 27.938C30.284 27.942 30.0765 27.9841 29.8817 28.0624C29.8145 28.0873 29.7473 28.1159 29.6801 28.1457L29.542 28.2042L26.2485 29.5289C21.6034 31.3988 16.9619 33.2688 12.3242 35.1387C12.0812 35.237 11.8211 35.286 11.559 35.283L10.1393 35.2756C9.51474 35.2706 8.89014 35.2677 8.26553 35.2669C7.39456 35.2669 6.67041 35.2743 5.99355 35.2917C5.07007 35.3125 4.16331 35.5422 3.34138 35.9636C2.51946 36.385 1.80374 36.9871 1.24802 37.7247C0.687884 38.4651 0.302843 39.3226 0.121822 40.2331C-0.0591986 41.1435 -0.0314952 42.0831 0.202853 42.9813C0.910825 45.7327 3.37567 47.5836 6.33571 47.5836C6.52359 47.5836 6.62188 47.6035 6.66792 47.6495C6.72373 47.7425 6.74531 47.8521 6.7289 47.9593C6.71521 48.7827 6.71769 49.6173 6.71894 50.4259C6.71894 51.2854 6.71894 52.1747 6.7065 53.0479C6.6953 53.6823 6.73761 54.4013 7.39456 54.9137L7.42816 54.9398H12.43L12.4524 54.9311C13.087 54.6724 13.3794 54.1923 13.3707 53.4211C13.3557 52.1374 13.3582 50.8799 13.3607 49.5489C13.3607 49.0875 13.3607 48.6247 13.3607 48.1583L14.7057 48.6994L18.1734 50.0937L20.5922 51.0652C23.5684 52.2601 26.5442 53.4572 29.5196 54.6562C29.5676 54.6748 29.6166 54.6906 29.6665 54.7035C29.8058 54.7421 29.8867 54.7682 29.929 54.8652L29.9613 54.9398H30.6954L30.7166 54.9324C31.3586 54.6948 31.6535 54.2196 31.646 53.4397C31.6323 52.1474 31.6336 50.8338 31.6336 49.5626C31.6336 48.5675 31.6336 47.5314 31.6336 46.5151C31.6336 46.2116 31.6784 46.1022 31.972 46.0176C32.8853 45.7304 33.6906 45.1747 34.2831 44.4229C34.8755 43.6711 35.2274 42.7582 35.2929 41.8034C35.4584 39.7796 34.3821 37.8852 32.68 37.1874ZM31.656 43.5945V39.2783C32.3764 39.6005 32.9152 40.4065 32.9624 41.2623C32.9965 41.7367 32.8904 42.2108 32.6573 42.6254C32.4241 43.0401 32.0742 43.3771 31.651 43.5945H31.656ZM13.352 45.2613C13.3731 42.6193 13.3657 39.9537 13.3594 37.6016C13.3594 37.3429 13.3831 37.2284 13.6319 37.1277C16.4589 36.0082 19.3293 34.8477 22.104 33.7294L24.5489 32.7455C24.5618 32.74 24.5751 32.7355 24.5887 32.7318V40.8518C24.5887 41.0496 24.5887 41.2474 24.5887 41.4439C24.5887 41.9228 24.58 42.4166 24.6024 42.903C24.6323 43.5535 24.9906 43.9901 25.5866 44.1008C25.649 44.1122 25.7123 44.118 25.7757 44.1182C25.9996 44.1142 26.2177 44.047 26.4051 43.9244C26.5924 43.8018 26.7413 43.6288 26.8346 43.4254C26.9276 43.1848 26.9642 42.9261 26.9416 42.6691V40.6789C26.9416 37.9063 26.9416 35.0392 26.9304 32.2206C26.9304 31.8636 27.0187 31.7293 27.3298 31.6211C27.8275 31.4469 28.3065 31.2479 28.8117 31.0389L29.2733 30.8486V52.0193L28.1622 51.5715C27.2928 51.2207 26.4265 50.8716 25.563 50.5241L23.607 49.738C20.372 48.4369 17.02 47.0923 13.7215 45.7788C13.4416 45.6693 13.3445 45.5748 13.347 45.2613H13.352ZM2.34543 41.368C2.40018 39.3032 4.0289 37.6986 6.13664 37.6364C6.63434 37.6202 7.1905 37.614 7.86986 37.614H8.95235H10.0348H10.81C10.922 37.614 10.9643 37.6327 10.9805 37.6489C11.0102 37.7125 11.0218 37.7831 11.0141 37.8528C11.0053 38.7236 11.0066 39.6191 11.0141 40.4799C11.0141 40.7933 11.0141 42.2064 11.0141 42.2064C11.0141 43.1318 11.0141 44.0577 11.0141 44.9839C11.0141 45.0113 11.0141 45.0387 11.0141 45.066C11.0216 45.1169 11.0174 45.1688 11.0016 45.2178C11.0016 45.2178 10.973 45.2414 10.8772 45.2414H10.3795C9.98258 45.2414 9.58318 45.2414 9.18503 45.2489C8.78687 45.2563 8.39119 45.2576 7.99428 45.2576C7.15815 45.2576 6.51612 45.2389 5.90893 45.1991C4.93378 45.1477 4.01683 44.7192 3.35186 44.0043C2.68689 43.2894 2.32599 42.344 2.34543 41.368ZM9.05687 47.7839C9.05687 47.6595 9.07304 47.6234 9.08673 47.6085C9.10041 47.5936 9.12654 47.5836 9.21115 47.5836H9.24101C9.50106 47.5936 9.76608 47.5973 10.0299 47.5973C10.2936 47.5973 10.5574 47.5973 10.8212 47.5836H10.8498C10.8952 47.5783 10.941 47.5879 10.9805 47.611C10.9954 47.6259 11.0116 47.6682 11.0103 47.7864C11.0004 48.3548 11.0016 48.932 11.0029 49.4892C11.0029 49.7081 11.0029 49.9271 11.0029 50.1447C11.0029 50.3624 11.0029 50.5664 11.0029 50.7766C11.0029 51.3078 11.0029 51.8575 11.0103 52.3937C11.0103 52.5081 10.9954 52.5504 10.9817 52.5641C10.9414 52.5884 10.8941 52.5984 10.8473 52.5927H10.8175C10.5425 52.584 10.2725 52.579 10.0149 52.579C9.75737 52.579 9.48861 52.579 9.23728 52.5939H9.20741C9.12156 52.5939 9.09294 52.579 9.08299 52.569C9.05558 52.5136 9.04519 52.4513 9.05313 52.3899C9.06682 50.8301 9.06682 49.279 9.05687 47.7839Z" fill="#6440FB"/>
<path d="M45.0539 40.2983C44.684 40.2983 44.3144 40.2983 43.9453 40.2983H42.2955H40.5722C40.1956 40.2983 39.8177 40.2983 39.4387 40.2983C38.6287 40.3046 38.116 40.7412 38.1024 41.4365C38.0955 41.5864 38.1192 41.7362 38.172 41.8767C38.2249 42.0171 38.3057 42.1454 38.4097 42.2537C38.5478 42.3835 38.7103 42.4845 38.8878 42.5509C39.0653 42.6173 39.2543 42.6478 39.4436 42.6405C40.454 42.6405 41.3872 42.6505 42.2967 42.6505C43.2473 42.6505 44.1767 42.6505 45.0564 42.6405C45.849 42.6343 46.3604 42.1716 46.3604 41.4614C46.3604 40.7511 45.8602 40.307 45.0539 40.2983Z" fill="#6440FB"/>
<path d="M38.5503 46.5923L38.4085 46.453C38.2878 46.3304 38.1427 46.2346 37.9826 46.1716C37.8225 46.1086 37.6509 46.0799 37.479 46.0873C37.4504 46.0873 37.4205 46.0873 37.3845 46.0873C37.1902 46.1089 37.0054 46.1824 36.8495 46.3002C36.6936 46.418 36.5723 46.5756 36.4985 46.7565C36.3917 46.9772 36.3582 47.2262 36.403 47.4672C36.4478 47.7082 36.5684 47.9286 36.7474 48.0962C37.428 48.794 38.0962 49.4744 38.7867 50.1349C39.0229 50.3781 39.3448 50.5196 39.6838 50.5292C39.8383 50.5272 39.9907 50.4936 40.1317 50.4305C40.2728 50.3674 40.3994 50.2761 40.5038 50.1622C40.9554 49.6871 40.9305 48.9992 40.444 48.4905C39.8269 47.8462 39.1787 47.2143 38.5503 46.5923Z" fill="#6440FB"/>
<path d="M37.54 36.6875C37.7753 36.688 38.0032 36.6052 38.1833 36.4536C39.0317 35.7423 39.8177 34.9595 40.5324 34.1139C40.8211 33.7756 40.8435 33.3303 40.5934 32.8912C40.5033 32.7169 40.3672 32.5705 40.1999 32.4678C40.0325 32.3652 39.8403 32.3103 39.644 32.3091C39.3952 32.3091 39.1239 32.3414 38.9149 32.5292C38.095 33.2454 37.3259 34.0176 36.613 34.8404C36.4396 35.059 36.355 35.3349 36.3759 35.6132C36.3969 35.8914 36.522 36.1515 36.7263 36.3417C36.9422 36.5584 37.2341 36.6825 37.54 36.6875Z" fill="#6440FB"/>
<path d="M35.2531 11.3238C35.2531 11.7243 35.2531 12.1253 35.2531 12.5266C35.2531 13.4396 35.2531 14.3837 35.2531 15.3117C35.2531 16.1351 35.6923 16.6662 36.3604 16.6662C36.646 16.658 36.9244 16.5753 37.1679 16.4262C39.4623 15.1126 41.7716 13.7829 44.0113 12.4756C44.5015 12.1908 44.784 11.7828 44.784 11.3562C44.784 10.9295 44.5152 10.5389 44.0274 10.2541C41.6746 8.88584 39.3553 7.54371 37.1356 6.27372C36.903 6.13257 36.6374 6.05493 36.3654 6.04858C35.7035 6.04858 35.2543 6.58593 35.2456 7.38574C35.2456 8.29874 35.2456 9.22791 35.2456 10.1222C35.2514 10.5244 35.2539 10.925 35.2531 11.3238ZM37.6171 13.4546V9.26523L41.2478 11.3587L37.6171 13.4546Z" fill="#6440FB"/>
<path d="M12.4076 14.3177H22.374C22.6151 14.3304 22.8563 14.2944 23.0832 14.212C23.2556 14.1394 23.408 14.0264 23.5273 13.8824C23.6467 13.7384 23.7295 13.5677 23.7688 13.3848C23.8091 13.2038 23.805 13.0157 23.7569 12.8366C23.7088 12.6575 23.6181 12.4926 23.4925 12.3561C23.1715 12.0116 22.746 11.9668 22.3964 11.9668C21.6208 11.9668 20.8452 11.9668 20.0696 11.9668H17.4182H15.9251H14.432C13.717 11.9668 13.0015 11.9689 12.2857 11.973C12.0769 11.9658 11.8693 12.0076 11.6795 12.095C11.4898 12.1825 11.3233 12.3133 11.1932 12.4768C11.0857 12.6227 11.0147 12.7923 10.9864 12.9713C10.958 13.1503 10.973 13.3335 11.0302 13.5055C11.1472 13.8786 11.4769 14.3165 12.4076 14.3177Z" fill="#6440FB"/>
<path d="M18.5878 20.1963C18.7626 20.2047 18.9373 20.1758 19.1002 20.1114C19.263 20.0471 19.4102 19.9488 19.5321 19.8232C19.8768 19.45 19.9589 19.0196 19.7698 18.5793C19.5657 18.1041 19.1676 17.8516 18.6176 17.8479C18.1647 17.8479 17.711 17.8479 17.2564 17.8479H13.5349C13.1156 17.8479 12.6975 17.8479 12.2782 17.8541C11.4968 17.8616 10.9767 18.338 10.9842 19.0383C10.9917 19.7386 11.5006 20.1913 12.2496 20.1951C13.1878 20.2001 14.1263 20.2021 15.0653 20.2013L18.5878 20.1963Z" fill="#6440FB"/>
<path d="M22.6999 17.8591H22.6327C22.3295 17.8658 22.0405 17.9894 21.8263 18.204C21.612 18.4187 21.4891 18.7078 21.483 19.011C21.4832 19.3138 21.5993 19.6051 21.8076 19.8251C22.0158 20.0451 22.3004 20.177 22.6028 20.1939H22.6364C22.9351 20.1863 23.2198 20.0661 23.4333 19.8572C23.6468 19.6484 23.7733 19.3665 23.7874 19.0682C23.7959 18.7656 23.6878 18.4714 23.4854 18.2463C23.283 18.0213 23.0017 17.8826 22.6999 17.8591Z" fill="#6440FB"/>
<path d="M25.7657 48.417H25.7881C26.0922 48.4036 26.3795 48.2741 26.5909 48.0552C26.8023 47.8362 26.9215 47.5446 26.9241 47.2403C26.9234 46.9339 26.8015 46.6402 26.5849 46.4235C26.3683 46.2067 26.0747 46.0845 25.7682 46.0835H25.7172C25.4115 46.098 25.1234 46.2311 24.9143 46.4546C24.7052 46.678 24.5915 46.9742 24.5974 47.2801C24.6174 47.5804 24.7478 47.8626 24.9635 48.0725C25.1792 48.2824 25.465 48.4051 25.7657 48.417Z" fill="#6440FB"/>
</g>
<defs>
<clipPath id="clip0_129_52">
<rect width="54" height="54" fill="white" transform="translate(0 0.939941)"/>
</clipPath>
</defs>
</svg>
