<svg width="21" height="20" viewBox="0 0 21 20" fill="none" xmlns="http://www.w3.org/2000/svg">
<path d="M19.4541 6.79998C20.2126 9.04453 20.1474 11.4858 19.2701 13.6866C18.3929 15.8875 16.761 17.7043 14.6665 18.8117C12.5719 19.9191 10.1516 20.2448 7.83888 19.7306C5.52612 19.2163 3.47192 17.8956 2.04406 16.005C0.631059 14.1406 -0.0812969 11.8387 0.0316535 9.50215C0.144604 7.16556 1.07567 4.94311 2.6619 3.22374C4.24814 1.50436 6.38851 0.397578 8.70844 0.0970774C11.0284 -0.203423 13.3801 0.321499 15.3521 1.57998L14.0381 3.29998C13.6441 3.11598 13.2781 2.92798 12.8991 2.77098C11.3259 2.13974 9.58969 2.03933 7.95427 2.48501C6.31884 2.9307 4.87362 3.89811 3.83826 5.24023C2.80289 6.58235 2.23399 8.22579 2.21801 9.92078C2.20202 11.6158 2.73984 13.2696 3.74971 14.631C4.75958 15.9924 6.18629 16.9869 7.81302 17.4634C9.43976 17.9398 11.1776 17.8722 12.7623 17.2707C14.3471 16.6693 15.6922 15.5669 16.5932 14.1311C17.4941 12.6953 17.9018 11.0046 17.7541 9.31598C17.7433 9.21956 17.7525 9.12196 17.7811 9.02924C17.8096 8.93652 17.8569 8.85066 17.9201 8.77698C18.3801 8.19298 18.8271 7.59798 19.2801 7.00798C19.3281 6.94498 19.3801 6.88498 19.4531 6.79798" fill="#6440FB"/>
<path d="M20.4991 2.354C20.4979 2.74302 20.3614 3.11951 20.1131 3.419L15.2601 9.757L11.4511 14.729C11.2994 14.9728 11.0887 15.1745 10.8385 15.3155C10.5883 15.4564 10.3066 15.532 10.0194 15.5354C9.73226 15.5388 9.44888 15.4698 9.19541 15.3348C8.94194 15.1998 8.72655 15.0032 8.56911 14.763C7.31211 13.21 6.04811 11.663 4.79411 10.107C4.64115 9.93763 4.52417 9.73897 4.45026 9.52306C4.37634 9.30714 4.34703 9.07847 4.3641 8.85089C4.38116 8.62332 4.44425 8.40158 4.54954 8.1991C4.65484 7.99663 4.80014 7.81764 4.97665 7.67298C5.15315 7.52832 5.35719 7.421 5.5764 7.35752C5.79561 7.29404 6.02543 7.27572 6.25192 7.30368C6.47842 7.33164 6.69688 7.40528 6.89407 7.52016C7.09126 7.63504 7.26308 7.78876 7.39912 7.972C8.18112 8.918 8.95011 9.872 9.72411 10.827C9.95211 11.107 9.96611 11.106 10.1871 10.817C12.6004 7.66566 15.0141 4.51466 17.4281 1.364C17.6362 1.07088 17.9323 0.85175 18.2735 0.738451C18.6146 0.625151 18.983 0.623583 19.3251 0.733975C19.6672 0.844367 19.9652 1.06097 20.1758 1.3523C20.3864 1.64364 20.4986 1.99453 20.4961 2.354" fill="#6440FB"/>
</svg>
