<svg width="229" height="31" viewBox="0 0 229 31" fill="none" xmlns="http://www.w3.org/2000/svg">
<g id="Isolation_Mode" clip-path="url(#clip0_1861_136)">
<path id="Vector" d="M221.803 26.8659C220.819 26.732 219.834 26.5981 218.854 26.4764C200.767 24.5696 182.608 25.1417 162.518 23.8272C148.481 22.533 132.34 23.0928 118.245 23.0279C151.598 24.3262 186.71 24.0057 218.724 28.3873C215.43 29.8519 211.5 31.0122 206.977 31.0041C196.105 30.3996 185.372 29.9614 174.729 29.649C174.757 29.0202 174.81 27.795 174.839 27.1783C144.469 28.9512 116.552 23.8515 86.1017 26.805C87.1535 27.1418 86.4746 27.6449 86.2212 28.0465C85.9917 28.3995 86.0969 28.6713 87.9807 28.6835C86.0969 28.6754 85.9965 28.3995 86.2212 28.0465C116.036 27.5962 143.814 28.3143 173.505 29.6166C127.386 28.3021 82.8027 29.3042 35.4603 28.9999C33.4475 28.9877 29.4075 28.9593 27.3899 28.9472C19.4963 27.0241 11.4927 26.3466 3.4318 26.2898C5.75541 23.1902 -1.6505 16.9099 14.3136 18.269C14.3757 17.6483 14.5 16.4027 14.5574 15.778C-1.21064 12.5485 -6.26426 3.7934 9.98668 1.41597C28.217 -0.945243 51.9695 1.69996 74.0677 0.576155C90.113 0.04468 106.134 -0.498966 122.041 0.815521C143.919 2.7832 167.954 2.24766 189.856 4.79955C197.845 5.44463 211.921 3.61084 215.865 5.48925C218.715 6.38992 218.787 7.71658 218.304 9.19335C205.132 8.94587 191.993 8.84444 179.013 8.53205C163.106 7.78555 147.214 6.95385 131.379 5.64748C146.836 7.42042 162.805 8.14257 179.013 8.53205C191.95 9.14061 204.902 9.69237 217.854 10.3861C217.343 11.656 216.841 12.9826 217.596 14.2119C217.596 14.2119 221.612 14.22 223.62 14.2241C231.566 17.3562 229.448 21.7094 225.332 24.813C224.285 25.4419 223.113 26.1559 221.803 26.8618V26.8659Z" fill="#000000" fill-opacity="1"/>
</g>
<defs>
<clipPath id="clip0_1861_136">
<rect width="229" height="31" fill="white"/>
</clipPath>
</defs>
</svg>
