<svg width="52" height="50" viewBox="0 0 52 50" fill="none" xmlns="http://www.w3.org/2000/svg">
<path fill-rule="evenodd" clip-rule="evenodd" d="M0 11.5493L0.215757 11.7119L9.85291 22.1883C9.85291 22.1883 9.85291 22.2967 10.0147 22.387H9.67311H7.11998C6.986 22.3912 6.85287 22.3641 6.73116 22.3076C6.60944 22.2512 6.50249 22.167 6.41877 22.0619L0.467474 15.3064L0.0898991 14.9451L0 11.5493Z" fill="#3E3E3E"/>
<path fill-rule="evenodd" clip-rule="evenodd" d="M26.7178 20.9963C29.0438 20.4644 31.2211 19.4139 33.0884 17.9225C34.9557 16.4311 36.4654 14.537 37.5056 12.3804H37.5955C40.2935 13.8104 42.6589 15.7989 44.5357 18.2147C45.5667 19.5425 46.1914 21.1427 46.3337 22.8207C46.4618 23.7868 46.3612 24.7696 46.0401 25.6893C45.719 26.609 45.1865 27.4396 44.4857 28.1137C43.785 28.7877 42.9359 29.2862 42.0073 29.5686C41.0788 29.8509 40.097 29.9092 39.1418 29.7387L36.9483 29.4317C35.8495 29.3007 34.7356 29.4487 33.7085 29.8621C32.6813 30.2755 31.7738 30.941 31.0689 31.7979C29.8927 33.1913 28.9569 34.7725 28.3 36.4761C27.3048 38.9375 26.5052 41.4743 25.9087 44.0625L25.8008 44.4418L23.1758 44.2793C23.2837 43.5387 23.3915 42.8342 23.5174 42.1298C24.0253 39.106 24.9702 36.1729 26.3222 33.4235C27.4908 30.9189 29.3666 28.8146 31.7162 27.3725C33.0253 26.6341 34.4046 26.029 35.8335 25.5662C36.6995 25.2916 37.5464 24.9598 38.3687 24.5728C38.7443 24.4004 39.0494 24.1035 39.2328 23.7318C39.4161 23.3601 39.4665 22.9363 39.3755 22.5317C39.3632 22.2503 39.2626 21.98 39.0883 21.7594C38.9139 21.5388 38.6746 21.3792 38.4046 21.3034C37.6028 20.9904 36.7618 20.7898 35.9054 20.7073C34.1075 20.7073 32.4174 20.7073 30.6733 20.8157C29.3428 20.8338 28.0303 20.9241 26.7178 20.9963Z" fill="url(#paint0_linear_631_96)"/>
<path fill-rule="evenodd" clip-rule="evenodd" d="M4.8186 23.3623H30.3858V23.4707L30.0622 23.7055L26.664 26.7581C26.5538 26.8701 26.4221 26.9583 26.2768 27.0173C26.1314 27.0764 25.9757 27.1049 25.819 27.1013H19.544V44.3874C19.4242 44.3183 19.31 44.2398 19.2024 44.1526C18.0337 43.2675 16.883 42.3463 15.7143 41.4974C15.614 41.4268 15.5333 41.3317 15.4798 41.2211C15.4263 41.1105 15.4019 40.988 15.4087 40.8651C15.4087 36.4819 15.4087 32.0806 15.4087 27.6612V27.0832H9.27758C9.09085 27.0872 8.90788 27.0301 8.75617 26.9207L4.96244 23.5429C4.91803 23.48 4.87 23.4197 4.8186 23.3623V23.3623Z" fill="url(#paint1_linear_631_96)"/>
<path d="M51.3501 39.2032C50.9518 37.5688 50.4103 35.973 49.7319 34.4346C50.1804 35.567 50.541 36.7325 50.8107 37.9207C51.3404 39.7795 51.3961 41.7424 50.9725 43.6285C50.6814 44.8126 50.0192 45.8713 49.0836 46.6485C48.1481 47.4258 46.9887 47.8805 45.7764 47.9455C43.3247 48.1069 40.8681 47.7182 38.5845 46.8076C34.9352 45.4736 31.4819 43.6509 28.318 41.3888L28.1562 41.2262L28.5698 40.4314H28.4799L27.2393 42.7615L27.4191 42.9241C30.7848 45.3393 34.4548 47.2952 38.3328 48.7403C40.7748 49.695 43.3951 50.1019 46.0101 49.9325C47.2987 49.865 48.5314 49.3823 49.5256 48.5559C50.5198 47.7296 51.2226 46.6035 51.5299 45.3445C51.9896 43.3152 51.9277 41.2018 51.3501 39.2032V39.2032Z" fill="#009CE6"/>
<path d="M28.3 41.3535C31.4639 43.6157 34.9172 45.4384 38.5664 46.7724C40.85 47.683 43.3067 48.0717 45.7583 47.9103C46.9706 47.8452 48.13 47.3906 49.0656 46.6133C50.0011 45.836 50.6633 44.7773 50.9545 43.5933C51.3778 41.7202 51.3283 39.7706 50.8107 37.9216C50.5351 36.7329 50.1684 35.5673 49.7139 34.4355C48.9429 32.6971 48.0663 31.0081 47.0889 29.3779C47.0445 29.2939 46.9833 29.2201 46.9091 29.1611V29.1611C47.5024 30.4255 48.1497 31.6719 48.707 32.9724L48.9947 33.7852V33.9478C49.9953 36.2174 50.4392 38.6952 50.2892 41.1729C50.2402 42.3149 49.8329 43.412 49.1257 44.3074C48.4185 45.2029 47.4475 45.8507 46.3517 46.1582C45.3878 46.4313 44.3841 46.5352 43.385 46.4653C41.8059 46.3592 40.2468 46.0496 38.7462 45.5441C35.2626 44.3408 31.9595 42.6634 28.9293 40.5588L28.5517 40.4504L28.1382 41.2451L28.3 41.3535Z" fill="#2CBAFD"/>
<path fill-rule="evenodd" clip-rule="evenodd" d="M10.4101 44.2248V31.8518H9.33135C9.25759 31.8555 9.18391 31.8429 9.11555 31.8148C9.04719 31.7867 8.98582 31.7438 8.9358 31.6893C8.10873 30.5694 7.29964 29.4133 6.45459 28.2212H14.4016V40.8651C14.4149 40.9938 14.3936 41.1237 14.3398 41.2413C14.286 41.3589 14.2018 41.4598 14.096 41.5335L10.7697 43.99L10.4101 44.2248Z" fill="url(#paint2_linear_631_96)"/>
<path d="M4.96244 13.5181C3.90293 11.0195 3.54236 8.27776 3.91962 5.58849C4.12862 4.31754 4.76607 3.15737 5.72516 2.30237C6.68425 1.44737 7.90671 0.949487 9.18769 0.892158C11.6367 0.71688 14.0939 1.09332 16.3796 1.99399C20.1711 3.40569 23.7523 5.33222 27.0236 7.7199V7.7199C23.3837 4.99528 19.3759 2.80573 15.121 1.21729C12.6984 0.261068 10.094 -0.140034 7.49759 0.0432111C6.12827 0.103898 4.82146 0.636145 3.79667 1.55055C2.77187 2.46495 2.09153 3.70581 1.86992 5.06467C1.47184 7.93188 1.85716 10.8539 2.98467 13.5181C3.04373 13.6222 3.14022 13.6998 3.25437 13.7348H5.28608C5.21812 13.7297 5.15261 13.7071 5.09591 13.6692C5.03921 13.6312 4.99323 13.5791 4.96244 13.5181V13.5181Z" fill="#009CE6"/>
<path d="M4.94445 6.9074C4.98012 5.77064 5.37092 4.67397 6.06148 3.77274C6.75205 2.87151 7.70736 2.21141 8.79212 1.88595C9.50056 1.68241 10.2312 1.56714 10.9677 1.54275C12.9053 1.5115 14.8319 1.84225 16.6493 2.51814C20.2079 3.76191 23.578 5.49429 26.664 7.66603L27.1854 7.99117C27.1854 7.88279 27.1854 7.86473 27.1854 7.84667H27.0955C23.8242 5.45898 20.243 3.53246 16.4515 2.12076C14.1658 1.22009 11.7087 0.843647 9.25959 1.01893C7.97861 1.07625 6.75615 1.57414 5.79706 2.42914C4.83797 3.28414 4.20052 4.44431 3.99152 5.71526C3.61426 8.40453 3.97483 11.1462 5.03435 13.6448C5.0602 13.6937 5.09596 13.7367 5.1393 13.7709C5.18265 13.8051 5.23264 13.8298 5.28606 13.8435H6.13111C6.13111 13.5906 6.00525 13.4461 5.95131 13.2836C5.18006 11.2511 4.8372 9.07989 4.94445 6.9074V6.9074Z" fill="#2CBAFD"/>
<path fill-rule="evenodd" clip-rule="evenodd" d="M34.9885 11.5487C34.9884 12.352 34.7503 13.137 34.3045 13.8039C33.8587 14.4707 33.2254 14.9892 32.4852 15.2932C31.7451 15.5972 30.9317 15.673 30.1485 15.5109C29.3654 15.3488 28.648 14.9562 28.0877 14.3831C27.5274 13.81 27.1496 13.0823 27.0024 12.2928C26.8552 11.5032 26.9453 10.6875 27.2612 9.94958C27.5771 9.21164 28.1045 8.58486 28.7762 8.14908C29.4479 7.71331 30.2335 7.48825 31.033 7.5026C32.0886 7.52154 33.0946 7.95617 33.8344 8.71291C34.5743 9.46965 34.9887 10.488 34.9885 11.5487V11.5487Z" fill="#3E3E3E"/>
<defs>
<linearGradient id="paint0_linear_631_96" x1="43.3491" y1="16.8058" x2="19.5064" y2="40.5388" gradientUnits="userSpaceOnUse">
<stop stop-color="#2CB2F0"/>
<stop offset="1" stop-color="#076C9C"/>
</linearGradient>
<linearGradient id="paint1_linear_631_96" x1="17.6382" y1="44.3693" x2="17.6382" y2="23.3623" gradientUnits="userSpaceOnUse">
<stop/>
<stop offset="1" stop-color="#3E3E3E"/>
</linearGradient>
<linearGradient id="paint2_linear_631_96" x1="161.02" y1="875.134" x2="90.3639" y2="910.237" gradientUnits="userSpaceOnUse">
<stop stop-color="#2CB2F0"/>
<stop offset="1" stop-color="#076C9C"/>
</linearGradient>
</defs>
</svg>
