<svg width="53" height="50" viewBox="0 0 53 50" fill="none" xmlns="http://www.w3.org/2000/svg">
<path fill-rule="evenodd" clip-rule="evenodd" d="M0.146973 11.5791L0.363034 11.7416L10.0138 22.2182C10.0138 22.2182 10.0138 22.3266 10.1758 22.4169H9.8337H7.277C7.14283 22.4212 7.00952 22.394 6.88763 22.3375C6.76575 22.2811 6.65864 22.197 6.5748 22.0918L0.615106 15.3362L0.236999 14.9749L0.146973 11.5791Z" fill="white"/>
<path fill-rule="evenodd" clip-rule="evenodd" d="M26.9026 21.026C29.2319 20.4941 31.4122 19.4436 33.2822 17.9522C35.1521 16.4607 36.6639 14.5667 37.7056 12.4099H37.7957C40.4974 13.8399 42.8662 15.8285 44.7456 18.2443C45.7781 19.5722 46.4036 21.1724 46.5461 22.8503C46.6744 23.8165 46.5737 24.7993 46.2521 25.719C45.9306 26.6387 45.3973 27.4693 44.6956 28.1434C43.9939 28.8175 43.1435 29.3159 42.2136 29.5983C41.2838 29.8806 40.3006 29.9389 39.3441 29.7685L37.1475 29.4614C36.0472 29.3305 34.9317 29.4785 33.9031 29.8919C32.8745 30.3053 31.9657 30.9708 31.2598 31.8277C30.082 33.2211 29.1449 34.8023 28.487 36.506C27.4905 38.9674 26.6897 41.5042 26.0924 44.0924L25.9843 44.4718L23.3556 44.3092C23.4636 43.5686 23.5717 42.8641 23.6977 42.1597C24.2063 39.1358 25.1526 36.2028 26.5065 33.4533C27.6767 30.9486 29.5551 28.8444 31.908 27.4022C33.219 26.6638 34.6002 26.0587 36.0312 25.5959C36.8983 25.3214 37.7465 24.9895 38.5699 24.6025C38.9461 24.4301 39.2516 24.1332 39.4352 23.7615C39.6188 23.3898 39.6693 22.966 39.5782 22.5614C39.5658 22.28 39.4651 22.0097 39.2905 21.7892C39.1159 21.5685 38.8763 21.4089 38.6059 21.3331C37.8029 21.02 36.9608 20.8194 36.1032 20.737C34.3027 20.737 32.6102 20.737 30.8637 20.8454C29.5313 20.8635 28.217 20.9537 26.9026 21.026Z" fill="white"/>
<path fill-rule="evenodd" clip-rule="evenodd" d="M4.97229 23.3918H30.5756V23.5002L30.2515 23.735L26.8485 26.7877C26.7382 26.8996 26.6063 26.9879 26.4607 27.0469C26.3152 27.106 26.1592 27.1345 26.0023 27.1308H19.7185V44.4172C19.5985 44.348 19.4841 44.2695 19.3764 44.1823C18.2061 43.2972 17.0538 42.3761 15.8834 41.5271C15.7829 41.4566 15.7021 41.3615 15.6485 41.2508C15.595 41.1402 15.5704 41.0177 15.5773 40.8949C15.5773 36.5116 15.5773 32.1103 15.5773 27.6909V27.1128H9.43752C9.25056 27.1168 9.06734 27.0597 8.91541 26.9502L5.11633 23.5725C5.07185 23.5095 5.02376 23.4492 4.97229 23.3918Z" fill="white"/>
<path d="M51.5696 39.2329C51.1706 37.5986 50.6284 36.0028 49.9491 34.4644C50.3982 35.5967 50.7594 36.7622 51.0294 37.9505C51.5599 39.8094 51.6156 41.7723 51.1915 43.6583C50.8998 44.8424 50.2368 45.9011 49.2999 46.6784C48.363 47.4556 47.202 47.9104 45.9879 47.9754C43.5329 48.1368 41.0727 47.748 38.7859 46.8374C35.1315 45.5035 31.6733 43.6808 28.505 41.4186L28.3429 41.256L28.7571 40.4612H28.667L27.4247 42.7913L27.6047 42.954C30.9752 45.3692 34.6504 47.3251 38.5338 48.7702C40.9793 49.7249 43.6033 50.1317 46.2221 49.9624C47.5124 49.8948 48.7469 49.4122 49.7424 48.5858C50.7381 47.7595 51.4418 46.6334 51.7496 45.3743C52.2099 43.3451 52.148 41.2316 51.5696 39.2329Z" fill="white"/>
<path d="M28.4871 41.3832C31.6555 43.6454 35.1136 45.4681 38.768 46.8022C41.0548 47.7128 43.515 48.1014 45.97 47.9401C47.1841 47.8751 48.3452 47.4203 49.282 46.6431C50.2189 45.8658 50.882 44.8071 51.1736 43.6231C51.5975 41.7499 51.548 39.8003 51.0296 37.9512C50.7536 36.7625 50.3864 35.597 49.9313 34.4651C49.1592 32.7267 48.2812 31.0377 47.3025 29.4074C47.258 29.3235 47.1968 29.2497 47.1225 29.1907C47.7166 30.4551 48.3648 31.7015 48.923 33.002L49.2111 33.8149V33.9774C50.2131 36.2471 50.6575 38.7248 50.5074 41.2026C50.4582 42.3446 50.0504 43.4417 49.3422 44.3372C48.634 45.2326 47.6616 45.8804 46.5643 46.1879C45.5989 46.4611 44.5939 46.565 43.5934 46.4951C42.012 46.389 40.4508 46.0793 38.9481 45.5738C35.4594 44.3705 32.1518 42.6931 29.1173 40.5885L28.7392 40.48L28.3251 41.2749L28.4871 41.3832Z" fill="white"/>
<path fill-rule="evenodd" clip-rule="evenodd" d="M10.5719 44.2548V31.8816H9.49163C9.41779 31.8854 9.34405 31.8727 9.27557 31.8446C9.2071 31.8165 9.14564 31.7737 9.09554 31.7191C8.26731 30.5992 7.45708 29.4431 6.61084 28.251H14.5691V40.895C14.5824 41.0237 14.561 41.1536 14.5071 41.2712C14.4533 41.3887 14.369 41.4897 14.263 41.5634L10.932 44.02L10.5719 44.2548Z" fill="white"/>
<path d="M5.11643 13.5475C4.05543 11.0489 3.69435 8.30715 4.07214 5.61784C4.28143 4.34688 4.91979 3.1867 5.88023 2.33169C6.84067 1.47668 8.06486 0.978791 9.34761 0.921465C11.8001 0.746184 14.2607 1.12263 16.5497 2.02331C20.3465 3.43503 23.9328 5.36157 27.2087 7.74928C23.5637 5.02463 19.5502 2.83505 15.2894 1.2466C12.8633 0.290368 10.2552 -0.110738 7.65516 0.0725083C6.28391 0.133195 4.97526 0.665448 3.94901 1.57986C2.92277 2.49428 2.24147 3.73515 2.01955 5.09402C1.62091 7.96127 2.00678 10.8833 3.13588 13.5475C3.19502 13.6516 3.29165 13.7292 3.40595 13.7642H5.44052C5.37247 13.7592 5.30687 13.7366 5.25009 13.6986C5.19331 13.6606 5.14727 13.6086 5.11643 13.5475Z" fill="white"/>
<path d="M5.09834 6.93701C5.13407 5.80023 5.52542 4.70355 6.21696 3.80231C6.90849 2.90108 7.86516 2.24097 8.95144 1.9155C9.66089 1.71196 10.3926 1.59669 11.13 1.5723C13.0705 1.54105 14.9998 1.8718 16.8196 2.5477C20.3833 3.79148 23.7582 5.52389 26.8486 7.69565L27.3707 8.02078C27.3707 7.91241 27.3707 7.89435 27.3707 7.87628H27.2807C24.0048 5.48857 20.4185 3.56203 16.6216 2.15032C14.3327 1.24963 11.8721 0.873189 9.41955 1.04847C8.13678 1.1058 6.91261 1.60369 5.95216 2.4587C4.99172 3.31371 4.35337 4.47389 4.14407 5.74485C3.76627 8.43415 4.12736 11.1759 5.18837 13.6745C5.21426 13.7234 5.25006 13.7664 5.29347 13.8005C5.33688 13.8348 5.38694 13.8596 5.44044 13.8732H6.28668C6.28668 13.6203 6.16064 13.4758 6.10663 13.3133C5.33428 11.2807 4.99094 9.10951 5.09834 6.93701Z" fill="white"/>
<path fill-rule="evenodd" clip-rule="evenodd" d="M35.1849 11.5785C35.1848 12.3818 34.9463 13.1669 34.4999 13.8337C34.0535 14.5006 33.4192 15.019 32.6781 15.323C31.9369 15.6271 31.1223 15.7028 30.3381 15.5407C29.5539 15.3787 28.8354 14.9861 28.2743 14.413C27.7133 13.8399 27.335 13.1122 27.1876 12.3226C27.0402 11.533 27.1304 10.7174 27.4467 9.97938C27.763 9.24148 28.2912 8.61466 28.9638 8.17887C29.6365 7.74309 30.4232 7.51804 31.2238 7.53238C32.2809 7.55133 33.2884 7.98596 34.0292 8.74271C34.7701 9.49947 35.1851 10.5178 35.1849 11.5785Z" fill="white"/>
</svg>
