<svg width="53" height="50" viewBox="0 0 53 50" fill="none" xmlns="http://www.w3.org/2000/svg">
<path fill-rule="evenodd" clip-rule="evenodd" d="M0.146484 11.5791L0.362545 11.7416L10.0133 22.2182C10.0133 22.2182 10.0133 22.3266 10.1753 22.4169H9.83322H7.27651C7.14234 22.4212 7.00903 22.394 6.88714 22.3375C6.76526 22.2811 6.65815 22.197 6.57432 22.0918L0.614618 15.3362L0.23651 14.9749L0.146484 11.5791Z" fill="white"/>
<path fill-rule="evenodd" clip-rule="evenodd" d="M26.9025 21.0262C29.2318 20.4943 31.4121 19.4438 33.2821 17.9524C35.152 16.461 36.6638 14.5669 37.7055 12.4102H37.7955C40.4973 13.8402 42.8661 15.8288 44.7455 18.2445C45.778 19.5724 46.4035 21.1726 46.546 22.8506C46.6743 23.8168 46.5736 24.7996 46.252 25.7193C45.9305 26.639 45.3972 27.4696 44.6955 28.1437C43.9937 28.8177 43.1434 29.3162 42.2135 29.5986C41.2837 29.8809 40.3005 29.9392 39.344 29.7687L37.1474 29.4616C36.047 29.3308 34.9315 29.4787 33.903 29.8922C32.8744 30.3055 31.9656 30.971 31.2597 31.8279C30.0819 33.2213 29.1447 34.8026 28.4869 36.5062C27.4904 38.9676 26.6896 41.5044 26.0922 44.0926L25.9842 44.472L23.3555 44.3094C23.4635 43.5689 23.5715 42.8644 23.6976 42.16C24.2062 39.1361 25.1524 36.203 26.5064 33.4535C27.6766 30.9489 29.5549 28.8446 31.9079 27.4025C33.2189 26.664 34.6001 26.059 36.031 25.5961C36.8982 25.3216 37.7463 24.9897 38.5698 24.6027C38.946 24.4304 39.2515 24.1334 39.4351 23.7617C39.6187 23.3901 39.6692 22.9663 39.578 22.5616C39.5657 22.2802 39.465 22.01 39.2904 21.7894C39.1158 21.5687 38.8762 21.4092 38.6058 21.3334C37.8028 21.0203 36.9607 20.8197 36.1031 20.7372C34.3026 20.7372 32.6101 20.7372 30.8636 20.8456C29.5312 20.8637 28.2168 20.954 26.9025 21.0262Z" fill="white"/>
<path fill-rule="evenodd" clip-rule="evenodd" d="M4.97266 23.3916H30.5759V23.4999L30.2518 23.7348L26.8489 26.7874C26.7386 26.8994 26.6066 26.9877 26.4611 27.0467C26.3156 27.1057 26.1596 27.1342 26.0026 27.1306H19.7189V44.4169C19.5988 44.3478 19.4844 44.2693 19.3768 44.1821C18.2065 43.297 17.0541 42.3758 15.8838 41.5269C15.7833 41.4563 15.7025 41.3612 15.6489 41.2505C15.5954 41.1399 15.5708 41.0174 15.5777 40.8947C15.5777 36.5114 15.5777 32.11 15.5777 27.6906V27.1125H9.43789C9.25093 27.1165 9.0677 27.0594 8.91578 26.95L5.1167 23.5722C5.07222 23.5093 5.02413 23.449 4.97266 23.3916Z" fill="white"/>
<path d="M51.5687 39.2324C51.1698 37.5981 50.6276 36.0023 49.9483 34.4639C50.3973 35.5962 50.7585 36.7618 51.0286 37.95C51.559 39.8089 51.6147 41.7718 51.1906 43.6579C50.899 44.8419 50.2359 45.9006 49.299 46.6779C48.3622 47.4552 47.2011 47.9099 45.9871 47.9749C43.532 48.1363 41.0719 47.7476 38.785 46.8369C35.1306 45.503 31.6725 43.6803 28.5041 41.4181L28.3421 41.2555L28.7562 40.4607H28.6662L27.4238 42.7908L27.6039 42.9535C30.9744 45.3687 34.6495 47.3246 38.533 48.7697C40.9785 49.7244 43.6025 50.1313 46.2212 49.9619C47.5116 49.8943 48.746 49.4117 49.7416 48.5854C50.7372 47.759 51.441 46.6329 51.7488 45.3738C52.2091 43.3446 52.1472 41.2311 51.5687 39.2324Z" fill="white"/>
<path d="M28.4863 41.383C31.6546 43.6452 35.1128 45.4679 38.7672 46.8019C41.054 47.7125 43.5141 48.1012 45.9692 47.9398C47.1833 47.8748 48.3443 47.42 49.2811 46.6428C50.218 45.8655 50.8811 44.8069 51.1728 43.6228C51.5966 41.7497 51.5471 39.8 51.0287 37.951C50.7527 36.7622 50.3855 35.5967 49.9304 34.4649C49.1584 32.7265 48.2804 31.0375 47.3017 29.4072C47.2572 29.3233 47.1959 29.2495 47.1216 29.1904C47.7158 30.4548 48.364 31.7013 48.9221 33.0017L49.2102 33.8146V33.9772C50.2122 36.2468 50.6567 38.7246 50.5066 41.2024C50.4574 42.3444 50.0495 43.4415 49.3413 44.3369C48.6331 45.2324 47.6608 45.8801 46.5635 46.1877C45.5981 46.4608 44.5931 46.5647 43.5925 46.4948C42.0112 46.3887 40.4499 46.0791 38.9472 45.5736C35.4586 44.3703 32.1509 42.6929 29.1164 40.5882L28.7383 40.4798L28.3242 41.2746L28.4863 41.383Z" fill="white"/>
<path fill-rule="evenodd" clip-rule="evenodd" d="M10.5705 44.2548V31.8816H9.49017C9.41633 31.8854 9.34258 31.8727 9.27411 31.8446C9.20563 31.8165 9.14417 31.7737 9.09408 31.7191C8.26584 30.5992 7.45561 29.4431 6.60938 28.251H14.5676V40.895C14.581 41.0237 14.5595 41.1536 14.5057 41.2712C14.4518 41.3887 14.3675 41.4897 14.2615 41.5634L10.9306 44.02L10.5705 44.2548Z" fill="white"/>
<path d="M5.11668 13.5475C4.05567 11.0489 3.69459 8.30715 4.07238 5.61784C4.28168 4.34688 4.92003 3.1867 5.88047 2.33169C6.84092 1.47668 8.0651 0.978791 9.34785 0.921465C11.8004 0.746184 14.261 1.12263 16.55 2.02331C20.3468 3.43503 23.9331 5.36157 27.209 7.74928C23.564 5.02463 19.5505 2.83505 15.2896 1.2466C12.8636 0.290368 10.2555 -0.110738 7.6554 0.0725083C6.28415 0.133195 4.9755 0.665448 3.94926 1.57986C2.92301 2.49428 2.24171 3.73515 2.0198 5.09402C1.62116 7.96127 2.00702 10.8833 3.13612 13.5475C3.19526 13.6516 3.29189 13.7292 3.4062 13.7642H5.44077C5.37271 13.7592 5.30711 13.7366 5.25033 13.6986C5.19355 13.6606 5.14751 13.6086 5.11668 13.5475Z" fill="white"/>
<path d="M5.09785 6.93725C5.13358 5.80048 5.52493 4.70379 6.21647 3.80256C6.908 2.90132 7.86467 2.24121 8.95095 1.91574C9.6604 1.7122 10.3921 1.59693 11.1295 1.57254C13.07 1.5413 14.9993 1.87204 16.8191 2.54794C20.3828 3.79172 23.7577 5.52413 26.8481 7.69589L27.3702 8.02102C27.3702 7.91265 27.3702 7.89459 27.3702 7.87653H27.2802C24.0043 5.48882 20.418 3.56227 16.6211 2.15056C14.3322 1.24988 11.8716 0.873433 9.41906 1.04871C8.13629 1.10605 6.91212 1.60393 5.95168 2.45894C4.99123 3.31395 4.35288 4.47413 4.14358 5.74509C3.76579 8.4344 4.12687 11.1762 5.18788 13.6747C5.21378 13.7237 5.24958 13.7666 5.29298 13.8008C5.33639 13.835 5.38645 13.8598 5.43995 13.8734H6.28619C6.28619 13.6205 6.16015 13.476 6.10614 13.3135C5.33379 11.281 4.99045 9.10975 5.09785 6.93725Z" fill="white"/>
<path fill-rule="evenodd" clip-rule="evenodd" d="M35.1854 11.578C35.1853 12.3813 34.9468 13.1664 34.5004 13.8332C34.054 14.5001 33.4197 15.0185 32.6786 15.3226C31.9374 15.6266 31.1228 15.7023 30.3386 15.5402C29.5544 15.3782 28.8359 14.9856 28.2748 14.4125C27.7138 13.8394 27.3355 13.1117 27.1881 12.3221C27.0407 11.5325 27.1309 10.7169 27.4472 9.9789C27.7635 9.24099 28.2917 8.61417 28.9643 8.17838C29.6369 7.74261 30.4237 7.51755 31.2243 7.5319C32.2814 7.55084 33.2889 7.98547 34.0297 8.74222C34.7706 9.49898 35.1856 10.5173 35.1854 11.578Z" fill="white"/>
</svg>
