<svg width="41" height="50" viewBox="0 0 41 50" fill="none" xmlns="http://www.w3.org/2000/svg">
<g id="Group 4487">
<path id="Path 2729" d="M4.11573 30.9426C3.35443 30.9099 2.59467 31.0356 1.88567 31.3116C1.17667 31.5876 0.534244 32.0077 0 32.5447V50H9.1649V37.1582C9.1649 32.9021 7.33343 30.9426 4.11573 30.9426Z" fill="#F5F5F5"/>
<path id="Path 2730" d="M10.6359 25.0938V0H0V26.0121C1.89496 24.876 4.07782 24.296 6.29376 24.3399C7.77594 24.3227 9.2484 24.5784 10.6359 25.0938Z" fill="#F5F5F5"/>
<path id="Path 2731" d="M15.0574 28.646C16.2194 27.2518 17.6887 26.139 19.353 25.3926C21.0172 24.6462 22.8322 24.2862 24.659 24.34C25.7713 24.3328 26.8802 24.4595 27.9615 24.7174L38.8677 13.7451H26.1847L12.8086 26.2697C13.6979 26.9204 14.4599 27.7257 15.0574 28.646Z" fill="#F5F5F5"/>
<path id="Path 2733" d="M40.2341 50.0021L35.5508 44.1289V50.0021H40.2341Z" fill="#F5F5F5"/>
<path id="Path 2734" d="M27.2145 33.6556L25.6985 31.7555C24.8351 31.193 23.8158 30.9102 22.7823 30.9465C19.4745 30.9465 17.1204 32.9452 16.9102 37.2025L27.3454 49.9996H27.8325V37.1579C27.8683 35.9612 27.6581 34.7697 27.2145 33.6556Z" fill="#F5F5F5"/>
</g>
</svg>
