<svg width="41" height="51" viewBox="0 0 41 51" fill="none" xmlns="http://www.w3.org/2000/svg">
<path d="M4.80103 30.9426C4.03973 30.9099 3.27997 31.0356 2.57097 31.3116C1.86197 31.5876 1.21955 32.0077 0.685303 32.5447V50H9.8502V37.1582C9.8502 32.9021 8.01873 30.9426 4.80103 30.9426Z" fill="white"/>
<path d="M11.3212 25.0938V0H0.685303V26.0121C2.58026 24.876 4.76312 24.296 6.97906 24.3399C8.46124 24.3227 9.9337 24.5784 11.3212 25.0938Z" fill="white"/>
<path d="M15.7428 28.646C16.9047 27.2518 18.374 26.139 20.0383 25.3926C21.7025 24.6462 23.5175 24.2862 25.3443 24.34C26.4566 24.3328 27.5655 24.4595 28.6468 24.7174L39.553 13.7451H26.87L13.4939 26.2697C14.3832 26.9204 15.1452 27.7257 15.7428 28.646Z" fill="white"/>
<path d="M40.9186 50.0021L36.2354 44.1289V50.0021H40.9186Z" fill="white"/>
<path d="M27.8988 33.6561L26.3828 31.756C25.5194 31.1934 24.5001 30.9107 23.4666 30.9469C20.1588 30.9469 17.8048 32.9457 17.5945 37.2029L28.0297 50.0001H28.5169V37.1584C28.5526 35.9617 28.3424 34.7702 27.8988 33.6561Z" fill="white"/>
</svg>
