<svg width="40" height="50" viewBox="0 0 40 50" fill="none" xmlns="http://www.w3.org/2000/svg">
<path d="M4.06726 30.9416C3.31493 30.9089 2.56411 31.0347 1.86346 31.3107C1.16281 31.5866 0.527953 32.0067 0 32.5437V49.9982H9.05697V37.157C9.05697 32.901 7.24707 30.9416 4.06726 30.9416Z" fill="#FABA24"/>
<path d="M10.5106 25.0928V0H0V26.011C1.87264 24.8749 4.0298 24.295 6.21965 24.3389C7.68437 24.3217 9.13949 24.5773 10.5106 25.0928Z" fill="black"/>
<path d="M14.8801 28.6449C16.0283 27.2508 17.4804 26.138 19.125 25.3916C20.7697 24.6453 22.5633 24.2852 24.3686 24.339C25.4677 24.3319 26.5637 24.4586 27.6321 24.7165L38.41 13.7446H25.8763L12.6577 26.2687C13.5365 26.9194 14.2896 27.7246 14.8801 28.6449V28.6449Z" fill="#EB231F"/>
<path d="M25.395 31.7554L26.8932 33.6554C26.584 32.8929 26.0644 32.2339 25.395 31.7554V31.7554Z" fill="#EB231F"/>
<path d="M39.7597 50.0004L35.1316 44.1274V50.0004H39.7597Z" fill="#FABA24"/>
<path d="M26.8932 33.6545L25.395 31.7545C24.5418 31.192 23.5345 30.9092 22.5132 30.9455C19.2443 30.9455 16.918 32.9442 16.7102 37.2012L27.0226 49.9978H27.504V37.1567C27.5393 35.96 27.3315 34.7686 26.8932 33.6545V33.6545Z" fill="#EB231F"/>
</svg>
