<svg width="32" height="20" viewBox="0 0 32 20" fill="none" xmlns="http://www.w3.org/2000/svg">
<path d="M7.89478 2.78113H31.5508C31.5668 2.92513 31.4508 2.95613 31.3908 3.01013C27.7401 6.13879 24.0878 9.26546 20.4338 12.3901C20.3552 12.4932 20.2539 12.5767 20.1378 12.6341C20.0217 12.6916 19.8938 12.7215 19.7643 12.7215C19.6347 12.7215 19.5069 12.6916 19.3908 12.6341C19.2746 12.5767 19.1734 12.4932 19.0948 12.3901C15.4681 9.28813 11.8424 6.18513 8.21778 3.08113C8.12778 3.00613 8.04378 2.92113 7.89478 2.78113Z" fill="#E8E4F9"/>
<path d="M7.88379 19.1662L10.2068 17.1662C12.1401 15.5062 14.0735 13.8445 16.0068 12.1812C16.2218 11.9952 16.3498 11.9732 16.5678 12.1752C17.1288 12.6942 17.7148 13.1872 18.2938 13.6862C18.6881 14.0561 19.2076 14.2636 19.7483 14.2669C20.2889 14.2702 20.8109 14.0693 21.2098 13.7042C21.8231 13.1888 22.4275 12.6632 23.0228 12.1272C23.1768 11.9892 23.2658 11.9652 23.4378 12.1132C26.1045 14.4118 28.7751 16.7048 31.4498 18.9922C31.499 19.0277 31.5512 19.0588 31.6058 19.0852L31.5618 19.1622L7.88379 19.1662Z" fill="#E8E4F9"/>
<path d="M6.49289 15.411L8.49789 13.693C10.3012 12.1477 12.1052 10.6033 13.9099 9.06001C14.0259 8.96001 14.1299 8.90501 13.9449 8.74701C11.4996 6.66034 9.05822 4.56934 6.62089 2.47401C6.58926 2.45187 6.55581 2.43246 6.52089 2.41601C6.44969 2.57247 6.42073 2.74486 6.43689 2.91601C6.42889 3.23601 6.44589 3.55801 6.41589 3.87601C6.39596 4.03808 6.31744 4.18726 6.19514 4.29545C6.07283 4.40365 5.91518 4.46337 5.75189 4.46337C5.5886 4.46337 5.43094 4.40365 5.30864 4.29545C5.18633 4.18726 5.10781 4.03808 5.08789 3.87601C5.0415 3.381 5.04888 2.88242 5.10989 2.38901C5.20144 1.72551 5.53634 1.11972 6.04953 0.689314C6.56273 0.25891 7.21758 0.0346189 7.88689 0.0600068C11.9869 0.0560068 16.0869 0.0560068 20.1869 0.0600068C23.0489 0.0600068 25.9109 0.0600068 28.7729 0.0600068C29.4083 0.0409149 30.03 0.247317 30.5278 0.642658C31.0257 1.038 31.3675 1.59677 31.4929 2.22001C31.5372 2.45867 31.5563 2.70134 31.5499 2.94401C31.5499 6.90067 31.5499 10.857 31.5499 14.813C31.5777 15.201 31.5217 15.5904 31.3858 15.9549C31.2499 16.3193 31.0373 16.6503 30.7622 16.9253C30.4872 17.2004 30.1562 17.4131 29.7917 17.549C29.4273 17.6849 29.0379 17.7408 28.6499 17.713H7.99589C7.60533 17.7424 7.21302 17.6874 6.84564 17.5516C6.47825 17.4159 6.1444 17.2026 5.86679 16.9263C5.58918 16.65 5.37431 16.3172 5.2368 15.9505C5.09929 15.5837 5.04236 15.1917 5.06989 14.801C5.06989 14.536 5.06389 14.27 5.06989 14.001C5.06737 13.8215 5.13628 13.6483 5.26146 13.5195C5.38664 13.3908 5.55784 13.317 5.73739 13.3145C5.91694 13.312 6.09014 13.3809 6.21888 13.5061C6.34762 13.6313 6.42137 13.8025 6.42389 13.982C6.41153 14.4576 6.43359 14.9336 6.48989 15.406M7.51689 1.42901C7.65289 1.55701 7.72989 1.62901 7.81189 1.70301C11.1099 4.52501 14.4082 7.34667 17.7069 10.168C17.7784 10.2617 17.8705 10.3376 17.9761 10.3899C18.0818 10.4422 18.198 10.4694 18.3159 10.4694C18.4337 10.4694 18.55 10.4422 18.6556 10.3899C18.7613 10.3376 18.8534 10.2617 18.9249 10.168C22.2482 7.32601 25.5706 4.48267 28.8919 1.63801C28.9499 1.58801 29.0519 1.56001 29.0369 1.42901H7.51689ZM7.50989 16.335H29.0499L29.0899 16.265C29.0401 16.2409 28.9926 16.2125 28.9479 16.18C26.5166 14.096 24.0869 12.01 21.6589 9.92201C21.5019 9.78701 21.4209 9.80901 21.2819 9.93401C20.7392 10.42 20.1892 10.8983 19.6319 11.369C19.2692 11.701 18.7945 11.8839 18.3028 11.8809C17.811 11.8779 17.3386 11.6894 16.9799 11.353C16.4529 10.899 15.9199 10.453 15.4099 9.97801C15.2099 9.79401 15.0939 9.81501 14.8989 9.98401C13.1456 11.502 11.3869 13.0137 9.62289 14.519L7.50989 16.335ZM30.1609 2.34301C27.6179 4.52201 25.1559 6.63701 22.6869 8.74301C22.4669 8.93101 22.6469 8.99101 22.7519 9.08101C25.0812 11.081 27.4116 13.0793 29.7429 15.076C29.8629 15.176 29.9889 15.276 30.1609 15.417V2.34301Z" fill="#6440FB"/>
<path d="M4.71089 11.27C3.71689 11.27 2.72189 11.27 1.72789 11.27C1.57701 11.2816 1.42669 11.2416 1.30151 11.1565C1.17634 11.0715 1.08375 10.9465 1.03889 10.802C0.991853 10.6763 0.985267 10.539 1.02005 10.4094C1.05483 10.2798 1.12924 10.1643 1.23289 10.079C1.37791 9.95621 1.56408 9.89297 1.75389 9.902C3.74289 9.902 5.73089 9.897 7.71989 9.902C7.81501 9.89509 7.91054 9.90808 8.00036 9.94016C8.09018 9.97224 8.17232 10.0227 8.24155 10.0883C8.31077 10.1539 8.36555 10.2332 8.40239 10.3212C8.43923 10.4092 8.45732 10.5039 8.4555 10.5993C8.45369 10.6946 8.43201 10.7885 8.39185 10.8751C8.35169 10.9616 8.29393 11.0387 8.22226 11.1017C8.15059 11.1646 8.06658 11.2119 7.97561 11.2405C7.88463 11.2692 7.78868 11.2785 7.69389 11.268C6.69989 11.274 5.70489 11.268 4.71089 11.268" fill="#6440FB"/>
<path d="M5.76796 7.87599H3.94896C3.84878 7.87912 3.7485 7.87477 3.64896 7.86299C3.4767 7.84565 3.31734 7.76391 3.20275 7.63413C3.08817 7.50434 3.02681 7.33607 3.03096 7.16299C3.03537 6.98912 3.10722 6.82378 3.23132 6.70192C3.35542 6.58006 3.52204 6.51123 3.69596 6.50999C5.06263 6.49732 6.42929 6.49732 7.79596 6.50999C7.88481 6.50951 7.97283 6.52706 8.05471 6.56157C8.13658 6.59608 8.21061 6.64684 8.27231 6.71078C8.334 6.77472 8.38209 6.85051 8.41365 6.93356C8.44522 7.01662 8.45961 7.10522 8.45596 7.19399C8.45651 7.28556 8.43831 7.37628 8.40248 7.46055C8.36665 7.54482 8.31395 7.62087 8.24763 7.68401C8.1813 7.74715 8.10276 7.79604 8.01682 7.82768C7.93089 7.85933 7.83939 7.87304 7.74796 7.86799C7.08696 7.88399 6.42496 7.86799 5.76396 7.86799" fill="#6440FB"/>
</svg>
