<svg width="48" height="40" viewBox="0 0 48 40" fill="none" xmlns="http://www.w3.org/2000/svg">
<g clip-path="url(#clip0_344_369)">
<path d="M0 9.67552C0.150333 9.61727 0.115248 9.46279 0.149073 9.35389C0.672732 7.6647 2.00944 6.57824 3.76457 6.4934C4.17423 6.47314 4.24188 6.34018 4.22309 5.9755C4.19303 5.3601 4.20806 4.74342 4.22309 4.12802C4.23312 3.48476 4.59893 3.07322 5.23284 3.06689C6.77876 3.04916 8.32384 3.04916 9.8681 3.06689C10.4945 3.07449 10.8641 3.49109 10.8703 4.13562C10.8766 4.78015 10.8816 5.4614 10.8703 6.12492C10.8703 6.37184 10.9104 6.46428 11.1898 6.48454C11.6558 6.51873 11.9001 6.37184 12.103 5.92105C12.8773 4.20273 13.7179 2.51607 14.5058 0.802812C14.7564 0.248188 15.1222 -0.00126147 15.7373 4.79566e-06C21.3773 0.0126674 27.0173 0.0126674 32.6573 4.79566e-06C33.2473 4.79566e-06 33.6157 0.224133 33.8662 0.759763C34.6855 2.5262 35.5399 4.27617 36.3605 6.04388C36.5046 6.35538 36.6624 6.47821 37.0157 6.47567C39.2807 6.45668 41.5457 6.46428 43.8107 6.46555C46.3463 6.46555 47.9987 8.14081 47.9987 10.705C47.9987 19.0623 47.9987 27.4155 47.9987 35.7644C47.9987 38.3374 46.3601 39.9937 43.812 39.9937H4.30076C2.05329 39.9937 0.760426 39.0326 0.086434 36.866C0.075159 36.828 0.0300666 36.8002 0 36.7685V9.67552ZM23.9881 38.017H43.8132C45.2765 38.017 46.0356 37.2509 46.0356 35.7783V10.7215C46.0356 9.2222 45.2727 8.45231 43.7807 8.45231C41.2501 8.45231 38.7195 8.43965 36.1889 8.45991C35.5737 8.45991 35.2067 8.22439 34.9499 7.66723C34.1268 5.8856 33.2686 4.12169 32.4443 2.34006C32.4055 2.22438 32.3286 2.12567 32.2265 2.06043C32.1243 1.9952 32.0031 1.96741 31.8831 1.98171C26.7592 1.99184 21.6354 1.99184 16.5115 1.98171C16.2209 1.98171 16.0706 2.06654 15.9453 2.33499C15.1172 4.11409 14.2578 5.88053 13.4398 7.66343C13.1829 8.22059 12.8134 8.46371 12.2045 8.45991C9.50227 8.44092 6.80005 8.44725 4.09656 8.45231C2.76737 8.45231 1.96685 9.26652 1.96685 10.605C1.96685 19.0374 1.96685 27.4691 1.96685 35.8998C1.96121 36.1044 1.97972 36.3088 2.02198 36.5089C2.25625 37.4751 3.01041 38.017 4.11912 38.0183L23.9881 38.017ZM7.57677 6.47061C7.96012 6.42629 8.49004 6.63649 8.85459 6.37944C9.02747 6.25281 8.90095 5.70072 8.91098 5.3411C8.90973 5.32551 8.90973 5.30984 8.91098 5.29425C8.94355 5.07646 8.83455 5.0334 8.64163 5.041C7.90875 5.05113 7.17713 5.041 6.44426 5.041C6.3265 5.041 6.17491 5.00174 6.17992 5.20435C6.18744 5.61082 6.09599 6.06287 6.24758 6.40476C6.33778 6.60863 6.82135 6.44529 7.12452 6.46935C7.2498 6.47948 7.37507 6.47061 7.57677 6.47061Z" fill="#020202"/>
<path d="M23.9881 38.0171H4.11786C3.00915 38.0171 2.25499 37.4738 2.02072 36.5077C1.97846 36.3076 1.95995 36.1031 1.96559 35.8986C1.96559 27.4661 1.96559 19.0345 1.96559 10.6037C1.96559 9.26655 2.76611 8.45108 4.0953 8.45108C6.79879 8.45108 9.50103 8.43968 12.2033 8.45868C12.8184 8.45868 13.1817 8.21935 13.4385 7.66219C14.2591 5.8793 15.1185 4.11666 15.944 2.33376C16.0693 2.06531 16.2196 1.98047 16.5103 1.98047C21.6341 1.9906 26.758 1.9906 31.8818 1.98047C32.0018 1.96618 32.123 1.99397 32.2252 2.0592C32.3274 2.12443 32.4043 2.22314 32.4431 2.33882C33.2724 4.11792 34.1305 5.88436 34.9486 7.66599C35.1992 8.22315 35.575 8.46374 36.1876 8.45868C38.7182 8.43842 41.2488 8.44855 43.7794 8.45108C45.2664 8.45108 46.0344 9.22096 46.0344 10.7202V35.777C46.0344 37.2497 45.2752 38.0158 43.812 38.0158L23.9881 38.0171ZM23.9881 36.9952C27.5963 36.9986 31.0581 35.5532 33.612 32.9769C36.166 30.4007 37.603 26.9046 37.607 23.2575C37.6126 19.6112 36.1861 16.1117 33.6408 13.5278C31.0954 10.9438 27.6394 9.48681 24.0319 9.47675C20.4248 9.46969 16.9623 10.9099 14.4048 13.4811C11.8474 16.0524 10.404 19.5444 10.3917 23.1904C10.3855 25 10.7325 26.7931 11.413 28.467C12.0934 30.1408 13.094 31.6625 14.3572 32.9449C15.6205 34.2273 17.1216 35.2451 18.7747 35.9402C20.4277 36.6352 22.2002 36.9937 23.9906 36.9952H23.9881ZM20.2674 8.45108C21.5778 8.45108 22.8894 8.45108 24.2011 8.45108C24.9126 8.45108 25.3286 8.09146 25.3348 7.48365C25.3411 6.87584 24.9151 6.47064 24.2299 6.47064C21.5915 6.46473 18.9532 6.46473 16.3149 6.47064C15.6634 6.47064 15.2249 6.88091 15.2149 7.45073C15.2049 8.02055 15.6584 8.44601 16.3336 8.44728C17.6466 8.45361 18.9582 8.45108 20.2699 8.45108H20.2674ZM42.3162 13.5427C42.3155 13.3339 42.2741 13.1273 42.1943 12.9348C42.1145 12.7422 41.9978 12.5674 41.8511 12.4205C41.7043 12.2736 41.5303 12.1574 41.339 12.0785C41.1478 11.9997 40.943 11.9598 40.7364 11.9612C40.3197 11.9714 39.9237 12.1469 39.6338 12.4496C39.3439 12.7523 39.1833 13.1581 39.1867 13.5794C39.1986 13.9925 39.3676 14.3851 39.6586 14.6755C39.9496 14.9658 40.3401 15.1315 40.7489 15.1382C40.9558 15.1381 41.1607 15.0966 41.3517 15.0163C41.5427 14.9359 41.7161 14.8183 41.8621 14.6701C42.008 14.5219 42.1236 14.346 42.2022 14.1525C42.2807 13.9591 42.3207 13.7518 42.3199 13.5427H42.3162ZM27.7978 8.45108C28.2488 8.4954 28.6484 8.34091 28.8664 7.85973C28.921 7.73729 28.9498 7.60473 28.9512 7.47044C28.9525 7.33615 28.9262 7.20304 28.8741 7.07952C28.8219 6.956 28.745 6.84475 28.6482 6.75281C28.5513 6.66087 28.4366 6.59023 28.3114 6.54535C27.5911 6.2769 26.8081 6.56181 26.6126 7.16329C26.3846 7.88379 26.8857 8.45108 27.8015 8.45108H27.7978Z" fill="#FDFDFD"/>
<path d="M7.57678 6.47071C7.37508 6.47071 7.24981 6.47958 7.12579 6.47071C6.82136 6.44665 6.33779 6.61 6.24884 6.40614C6.09726 6.06425 6.18871 5.61219 6.18119 5.20572C6.18119 5.00312 6.32776 5.04237 6.44552 5.04237C7.1784 5.04237 7.91002 5.04237 8.64289 5.04237C8.83582 5.04237 8.94481 5.08289 8.91224 5.29562C8.91099 5.31121 8.91099 5.32688 8.91224 5.34247C8.90222 5.70209 9.02874 6.25798 8.85586 6.38081C8.49005 6.63659 7.96013 6.42639 7.57678 6.47071Z" fill="#FCFCFC"/>
<path d="M23.9907 36.9952C22.2005 36.9937 20.4282 36.6353 18.7753 35.9404C17.1224 35.2455 15.6214 34.2279 14.3582 32.9458C13.0949 31.6637 12.0944 30.1423 11.4138 28.4687C10.7331 26.7952 10.3859 25.0023 10.3918 23.1929C10.4041 19.5469 11.8474 16.0549 14.4049 13.4837C16.9623 10.9124 20.4248 9.47221 24.032 9.47927C27.639 9.48934 31.0947 10.946 33.6399 13.5294C36.1852 16.1128 37.612 19.6116 37.607 23.2575C37.6031 26.9041 36.1664 30.3998 33.613 32.976C31.0595 35.5522 27.5984 36.9979 23.9907 36.9952ZM24.0082 35.0173C27.096 35.0139 30.0562 33.7717 32.2385 31.5636C34.4207 29.3555 35.6464 26.3621 35.6464 23.241C35.6479 21.6918 35.3467 20.1575 34.76 18.7262C34.1733 17.295 33.3127 15.9949 32.2276 14.9007C31.1425 13.8065 29.8543 12.9397 28.4369 12.3501C27.0195 11.7605 25.5008 11.4596 23.9681 11.4648C20.8808 11.4722 17.9227 12.7186 15.7445 14.9301C13.5662 17.1415 12.3461 20.1369 12.3524 23.2575C12.3567 26.3788 13.5868 29.3706 15.7724 31.5757C17.9579 33.7808 20.9202 35.0186 24.0082 35.0173Z" fill="#020202"/>
<path d="M20.2698 8.45104C18.9582 8.45104 17.6465 8.45104 16.3361 8.45104C15.6609 8.45104 15.2086 8.03951 15.2174 7.45449C15.2262 6.86948 15.6659 6.47694 16.3173 6.4744C18.9557 6.46849 21.594 6.46849 24.2324 6.4744C24.9176 6.4744 25.3448 6.88087 25.3373 7.48741C25.3298 8.09395 24.9151 8.45231 24.2035 8.45484C22.8919 8.45357 21.5802 8.45104 20.2698 8.45104Z" fill="#020202"/>
<path d="M42.3199 13.5428C42.3207 13.7516 42.2809 13.9585 42.2025 14.1517C42.1242 14.3449 42.009 14.5206 41.8634 14.6688C41.7179 14.817 41.5449 14.9347 41.3543 15.0152C41.1637 15.0958 40.9593 15.1376 40.7527 15.1383C40.3439 15.1316 39.9533 14.9658 39.6624 14.6755C39.3714 14.3852 39.2024 13.9926 39.1905 13.5795C39.1871 13.1582 39.3476 12.7524 39.6375 12.4497C39.9274 12.1469 40.3235 11.9715 40.7402 11.9612C40.9467 11.9599 41.1515 11.9998 41.3428 12.0786C41.5341 12.1574 41.7081 12.2736 41.8548 12.4205C42.0016 12.5675 42.1182 12.7422 42.198 12.9348C42.2778 13.1274 42.3193 13.334 42.3199 13.5428Z" fill="#6440FB"/>
<path d="M27.8016 8.45092C26.8858 8.45092 26.3847 7.88364 26.6165 7.16313C26.8119 6.56166 27.5949 6.27675 28.3152 6.54519C28.4405 6.59007 28.5551 6.66071 28.652 6.75265C28.7488 6.8446 28.8258 6.95584 28.8779 7.07936C28.9301 7.20288 28.9563 7.33599 28.955 7.47028C28.9537 7.60458 28.9248 7.73713 28.8702 7.85958C28.6522 8.34076 28.2526 8.49524 27.8016 8.45092Z" fill="#020202"/>
<path d="M24.0081 35.0173C20.9214 35.0173 17.9608 33.7792 15.7764 31.5749C13.592 29.3705 12.3623 26.38 12.3573 23.2601C12.351 20.1395 13.5711 17.1441 15.7494 14.9327C17.9276 12.7212 20.8857 11.4747 23.973 11.4674C25.5058 11.4622 27.0244 11.763 28.4418 12.3527C29.8592 12.9423 31.1474 13.8091 32.2325 14.9033C33.3176 15.9975 34.1782 17.2975 34.7649 18.7288C35.3516 20.1601 35.6529 21.6944 35.6514 23.2436C35.6507 26.3651 34.424 29.3586 32.2407 31.5663C30.0575 33.7741 27.0964 35.0153 24.0081 35.0173ZM24.0081 14.9192C21.8293 14.9275 19.7418 15.8047 18.1994 17.3602C16.657 18.9157 15.7843 21.0236 15.7711 23.2259C15.7751 25.4284 16.64 27.5402 18.1774 29.1011C19.7148 30.6619 21.8003 31.5455 23.9793 31.5592C26.1667 31.5598 28.265 30.6833 29.8138 29.1219C31.3625 27.5605 32.2351 25.4419 32.2401 23.2309C32.2282 21.0276 31.356 18.9181 29.8131 17.3615C28.2703 15.8049 26.1817 14.9272 24.0018 14.9192H24.0081Z" fill="#FCFCFC"/>
<path d="M24.0019 14.9192C26.1807 14.9288 28.2676 15.8073 29.8091 17.3638C31.3506 18.9202 32.222 21.0287 32.2338 23.2309C32.2289 25.4419 31.3563 27.5606 29.8075 29.1219C28.2588 30.6833 26.1605 31.5598 23.9731 31.5592C21.794 31.5455 19.7086 30.6619 18.1712 29.1011C16.6337 27.5402 15.7688 25.4284 15.7649 23.2259C15.7781 21.0236 16.6507 18.9157 18.1931 17.3602C19.7356 15.8047 21.8231 14.9275 24.0019 14.9192ZM23.9868 29.5737C25.6528 29.5743 27.2508 28.9063 28.4296 27.7165C29.6085 26.5266 30.2716 24.9123 30.2733 23.2284C30.2641 21.5521 29.6011 19.9471 28.4284 18.7618C27.2557 17.5764 25.6678 16.9064 24.0094 16.8971C22.3425 16.9008 20.7451 17.5724 19.5674 18.7647C18.3897 19.957 17.7277 21.5727 17.7267 23.2575C17.736 24.9318 18.3988 26.5346 19.5712 27.7174C20.7435 28.9002 22.3304 29.5673 23.9868 29.5737Z" fill="#020202"/>
<path d="M23.9869 29.5735C22.3287 29.5682 20.7399 28.9006 19.5666 27.7163C18.3933 26.5321 17.7306 24.927 17.723 23.251C17.726 21.5671 18.3891 19.953 19.5672 18.7622C20.7452 17.5715 22.3422 16.9012 24.0082 16.8982C25.6666 16.9075 27.2545 17.5775 28.4272 18.7629C29.5999 19.9482 30.2628 21.5532 30.2721 23.2295C30.2701 24.913 29.607 26.5267 28.4284 27.7163C27.2499 28.9058 25.6524 29.5738 23.9869 29.5735ZM23.7539 28.2464C25.6406 28.2464 27.1539 27.4386 28.0935 26.0609C29.4101 24.1311 29.1759 21.3757 27.5585 19.7549C27.1977 19.394 26.7167 19.313 26.3221 19.5447C26.1335 19.6594 25.9879 19.8342 25.9081 20.0416C25.8283 20.249 25.8188 20.4772 25.8811 20.6907C25.95 20.9262 26.1316 21.0883 26.2719 21.2706C26.9647 22.1279 27.179 23.0915 26.8507 24.1501C26.1943 26.2736 23.6787 26.9422 21.9649 25.4594C21.4325 25.001 20.865 24.9846 20.4729 25.4176C20.0807 25.8507 20.1496 26.4585 20.6808 26.946C21.5192 27.7356 22.609 28.1968 23.7539 28.2464Z" fill="#6440FB"/>
<path d="M23.7539 28.2466C22.6099 28.1963 21.5211 27.7352 20.6833 26.9461C20.1522 26.4586 20.072 25.8622 20.4754 25.4177C20.8788 24.9733 21.435 25.0011 21.9674 25.4595C23.685 26.9423 26.2006 26.2737 26.8532 24.1502C27.1815 23.0916 26.9673 22.1242 26.2745 21.2707C26.1279 21.0884 25.9525 20.9263 25.8836 20.6908C25.8213 20.4774 25.8308 20.2491 25.9106 20.0417C25.9904 19.8343 26.136 19.6596 26.3246 19.5448C26.7192 19.3131 27.2015 19.3941 27.5611 19.755C29.1784 21.372 29.4127 24.1312 28.096 26.061C27.1539 27.4362 25.6406 28.2466 23.7539 28.2466Z" fill="#6440FB"/>
</g>
<defs>
<clipPath id="clip0_344_369">
<rect width="48" height="40" fill="white"/>
</clipPath>
</defs>
</svg>
