<svg width="50" height="50" viewBox="0 0 50 50" fill="none" xmlns="http://www.w3.org/2000/svg">
<g clip-path="url(#clip0_1529_2)">
<path fill-rule="evenodd" clip-rule="evenodd" d="M45.0212 13.7837V5.4479H4.58325C4.58325 10.0516 8.31531 13.7837 12.919 13.7837H45.0212Z" fill="url(#paint0_linear_1529_2)"/>
<path fill-rule="evenodd" clip-rule="evenodd" d="M21.4496 16.1675V35.7096C21.4496 40.3625 17.7087 44.1507 13.0562 44.2092V16.1675H21.4496Z" fill="#162839"/>
<path fill-rule="evenodd" clip-rule="evenodd" d="M45.3669 5.41824L45.5186 5.41699C34.703 5.41699 25.9352 14.0916 25.9352 24.7923C25.9352 35.4428 34.621 44.0862 45.3667 44.167L45.3669 35.7553L45.3353 35.7551C39.2994 35.6583 34.4365 30.7871 34.4365 24.7923C34.4365 18.7871 39.3162 13.9095 45.3666 13.829L45.3669 5.41824Z" fill="url(#paint1_linear_1529_2)"/>
</g>
<defs>
<linearGradient id="paint0_linear_1529_2" x1="-1388.13" y1="-380.836" x2="3176.37" y2="-896.288" gradientUnits="userSpaceOnUse">
<stop stop-color="#FFAE51"/>
<stop offset="0.575244" stop-color="#F68F1C"/>
<stop offset="1" stop-color="#DB6108"/>
</linearGradient>
<linearGradient id="paint1_linear_1529_2" x1="-511.302" y1="-482.471" x2="-2497.32" y2="2856.92" gradientUnits="userSpaceOnUse">
<stop stop-color="#FFAE51"/>
<stop offset="0.338505" stop-color="#F68F1C"/>
<stop offset="1" stop-color="#F36700"/>
</linearGradient>
<clipPath id="clip0_1529_2">
<rect width="50" height="50" fill="white"/>
</clipPath>
</defs>
</svg>
