<svg width="85" height="15" viewBox="0 0 85 15" fill="none" xmlns="http://www.w3.org/2000/svg">
<path d="M6.19996 2.39298C5.58896 3.61398 5.06896 4.61998 5.05096 4.65598C5.01496 4.69198 3.91896 4.87198 2.60796 5.06898C1.72968 5.15899 0.863068 5.33962 0.0219634 5.60799C-0.104037 5.73399 0.421963 6.36298 1.69296 7.60198L3.54296 9.40199L3.12996 11.902C2.95228 12.7648 2.86779 13.6442 2.87796 14.525C3.72249 14.2846 4.53176 13.9343 5.28496 13.483L7.56196 12.293L9.84296 13.479C10.5915 13.9393 11.4021 14.2901 12.25 14.521C12.2483 13.6333 12.1521 12.7483 11.963 11.881L11.55 9.36698L13.274 7.73299C13.9655 7.18099 14.555 6.51223 15.016 5.75698C15.016 5.57698 14.98 5.41599 14.926 5.41599C14.8 5.41599 11.28 4.89499 10.562 4.78699C10.005 4.67899 9.91496 4.55398 8.90996 2.43398C8.22696 0.994983 7.75996 0.204987 7.57996 0.204987C7.39996 0.204987 6.89996 0.992983 6.19996 2.39298Z" fill="#E8B200"/>
<path d="M24.77 0.417988C24.662 0.543988 24.124 1.54999 23.57 2.66399C22.654 4.51399 22.528 4.67499 21.989 4.78399C21.665 4.83799 20.589 4.99999 19.6 5.14299C18.9246 5.21669 18.2609 5.37354 17.624 5.60999C17.517 5.71799 18.091 6.41799 19.276 7.62099L21.09 9.45299L20.659 11.878C20.4119 12.7162 20.3267 13.5939 20.408 14.464C20.534 14.59 21.324 14.264 22.833 13.494L25.079 12.327L27.325 13.494C28.762 14.23 29.625 14.594 29.732 14.482C29.8027 13.6073 29.7178 12.727 29.481 11.882L29.05 9.45699L30.882 7.62499C32.175 6.29499 32.643 5.72499 32.517 5.59499C31.6725 5.31759 30.8009 5.13088 29.917 5.03799C29.0839 4.94979 28.2602 4.78748 27.456 4.55299C26.7813 3.06874 26.0131 1.62884 25.156 0.241993C25.0821 0.236972 25.0081 0.250428 24.9407 0.281155C24.8733 0.311882 24.8146 0.358908 24.77 0.417988Z" fill="#E8B200"/>
<path d="M41.4049 2.395C40.7939 3.616 40.2729 4.622 40.2559 4.658C40.2199 4.694 39.1239 4.87399 37.8129 5.07099C36.9346 5.16086 36.068 5.34149 35.2269 5.60999C35.1009 5.73599 35.6269 6.365 36.8979 7.604L38.7659 9.41799L38.3529 11.897C38.1541 12.7567 38.0634 13.6378 38.0829 14.52C38.9269 14.2786 39.7355 13.9272 40.4879 13.475L42.7689 12.289L45.0499 13.475C45.7985 13.9352 46.609 14.2861 47.4569 14.517C47.4553 13.6293 47.359 12.7443 47.1699 11.877L46.7569 9.36299L48.4809 7.729C49.1722 7.17675 49.7617 6.50804 50.2229 5.75299C50.2229 5.57299 50.1869 5.41199 50.1329 5.41199C50.0069 5.41199 46.4869 4.912 45.7859 4.783C45.2469 4.693 45.1389 4.53099 44.1339 2.44799C43.4339 0.99299 42.9669 0.201996 42.7869 0.201996C42.6069 0.201996 42.1049 0.992997 41.4049 2.395Z" fill="#E8B200"/>
<path d="M59.4929 0.598004C59.3489 0.831004 58.8459 1.819 58.3789 2.807C57.9119 3.795 57.5169 4.621 57.4989 4.639C57.4809 4.675 56.3989 4.839 55.0739 5.039C54.1944 5.13295 53.3272 5.31966 52.4869 5.596C52.3609 5.722 52.829 6.296 54.122 7.626L55.955 9.453L55.5059 11.878C55.259 12.7159 55.1738 13.5932 55.2549 14.463C55.3809 14.589 56.1709 14.263 57.6799 13.493L59.9259 12.326L62.1719 13.493C63.6809 14.266 64.4719 14.593 64.5969 14.463C64.6783 13.5928 64.5927 12.7151 64.3449 11.877L63.8959 9.452L65.7289 7.62C66.9499 6.381 67.489 5.72 67.364 5.59C66.521 5.32865 65.6551 5.14816 64.778 5.051C63.9188 4.98587 63.0751 4.7861 62.278 4.459C61.6221 2.9944 60.853 1.58313 59.9779 0.238003C59.8709 0.202003 59.6549 0.363004 59.4929 0.598004Z" fill="#E8B200"/>
<path d="M76.0729 2.44901C75.0669 4.53201 74.9589 4.695 74.4209 4.784C74.0979 4.838 73.0019 5.00001 71.9599 5.14301C71.2549 5.21454 70.5612 5.37135 69.8939 5.61C69.7869 5.718 70.3429 6.4 71.5829 7.604L73.4329 9.41801L73.0199 11.897C72.8211 12.7567 72.7304 13.6378 72.7499 14.52C73.5945 14.2797 74.4037 13.9293 75.1569 13.478L77.4379 12.292L79.7189 13.478C80.4721 13.9293 81.2814 14.2797 82.1259 14.52C82.1463 13.6378 82.0556 12.7566 81.856 11.897L81.4429 9.436L83.2929 7.604C84.5859 6.365 85.1069 5.736 84.9819 5.61C84.1408 5.34163 83.2742 5.16101 82.3959 5.07101C81.0839 4.87101 79.9709 4.694 79.9349 4.658C79.8989 4.622 79.3959 3.598 78.8029 2.395C78.0849 0.958004 77.6169 0.203003 77.4379 0.203003C77.2399 0.203003 76.7729 0.958005 76.0729 2.44901Z" fill="#E8B200"/>
</svg>
