<svg width="46" height="46" viewBox="0 0 46 46" fill="none" xmlns="http://www.w3.org/2000/svg">
<path d="M27.9054 40.7823C28.307 40.562 29.3628 39.8625 30.7036 37.5176L30.7943 37.2715H25.0488L25.1589 40.3806C25.1784 41.294 26.9338 41.3134 27.9054 40.7823Z" fill="white"/>
<path d="M32.1029 37.271H32.064C28.78 42.9452 24.8352 44.0853 24.4336 44.2472C23.313 44.7071 21.4605 44.2925 20.5278 42.589C20.2622 42.1032 20.327 41.8376 20.2946 41.2935L20.3399 37.2645H11.1484L17.2437 43.3533C18.74 44.8496 20.7286 45.6722 22.8467 45.6722C24.9648 45.6722 26.9534 44.8496 28.4496 43.3533L32.8025 39.0005L33.1846 38.6183L33.3142 38.4888L35.0566 36.7334C34.1498 37.0961 33.1717 37.271 32.1029 37.271Z" fill="white"/>
<path d="M20.3197 26.2074H13.9653C11.5687 26.2074 9.58658 25.307 8.01257 23.5127C6.51629 21.8286 5.7649 19.7688 5.7649 17.3398C5.7649 15.5779 6.1665 13.9974 6.9697 12.5918L2.31892 17.2426C0.822634 18.7389 0 20.7275 0 22.8456C0 24.9572 0.822634 26.9458 2.31892 28.4421L4.41112 30.5343H20.2679L20.3197 26.2074Z" fill="white"/>
<path d="M13.9134 19.4708H20.4038L20.4556 15.1504H13.9134C12.9742 15.1504 12.5078 15.8823 12.5078 17.3398C12.5078 18.7583 12.9742 19.4708 13.9134 19.4708Z" fill="white"/>
<path d="M32.1023 26.207H24.582L24.7375 30.5339H32.1023C32.2513 30.5339 32.3873 30.508 32.5104 30.4692L33.482 27.9235C33.3978 26.7835 32.9379 26.207 32.1023 26.207Z" fill="white"/>
<path d="M43.3736 17.2358L41.2814 15.1436H24.1875L24.343 19.464H32.09C34.4931 19.464 36.4817 20.3644 38.0557 22.1521C39.5196 23.8686 40.2515 25.9414 40.2515 28.3705C40.2515 29.8279 39.9859 31.1493 39.4613 32.3541L43.3736 28.4417C46.4569 25.352 46.4569 20.3255 43.3736 17.2358Z" fill="white"/>
<path d="M28.4486 2.31893C26.9523 0.822644 24.9637 0 22.8456 0C20.7275 0 18.7389 0.822644 17.2426 2.31893L10.2988 9.26273C11.3806 8.69272 12.6048 8.4077 13.9651 8.4077H34.5373L28.4486 2.31893ZM22.3533 7.39074C20.6174 7.39074 19.2118 5.98514 19.2118 4.24919C19.2118 2.51324 20.6174 1.10765 22.3533 1.10765C24.0893 1.10765 25.4949 2.51324 25.4949 4.24919C25.4949 5.98514 24.0893 7.39074 22.3533 7.39074Z" fill="white"/>
</svg>
