<svg width="54" height="39" viewBox="0 0 54 39" fill="none" xmlns="http://www.w3.org/2000/svg">
<path d="M21.4196 0.99995L21.8406 1.04895C19.9941 2.59924 18.3737 4.40039 17.0266 6.39995C15.7031 8.40359 14.706 10.6047 14.0726 12.921C14.4136 12.985 14.7326 13.052 15.0546 13.104C17.6684 13.4934 20.0862 14.7172 21.9476 16.593C23.8813 18.4694 25.146 20.9285 25.5476 23.593C25.8741 25.4978 25.74 27.4532 25.1565 29.2957C24.573 31.1381 23.5571 32.8142 22.1936 34.184C20.4279 36.0557 18.112 37.3166 15.5816 37.784C14.3086 38.0254 13.0057 38.0679 11.7196 37.91C9.46024 37.6712 7.31267 36.8052 5.51962 35.41C3.44884 33.8101 1.9385 31.595 1.20562 29.083C0.821308 27.806 0.6269 26.4795 0.628624 25.146C0.613527 23.9459 0.667278 22.7459 0.789619 21.552C1.06781 18.81 1.81928 16.1371 3.01063 13.652C4.44659 10.6917 6.49114 8.06787 9.01063 5.95195C11.4631 3.87543 14.3594 2.38961 17.4766 1.60895C18.4456 1.36195 19.4406 1.21495 20.4236 1.02095C20.4533 1.01278 20.4824 1.00242 20.5106 0.989952L21.4196 0.99995Z" fill="#6440FB"/>
<path d="M49.4944 0.999767L49.9484 1.04777C46.1979 4.10962 43.4854 8.25583 42.1824 12.9188C42.4514 12.9688 42.7144 13.0188 42.9824 13.0668C45.4394 13.4181 47.7383 14.4866 49.5909 16.1384C51.4435 17.7902 52.7676 19.9519 53.3974 22.3528C53.7857 23.7556 53.9135 25.2178 53.7744 26.6668C53.4682 29.9585 51.8694 32.9945 49.3286 35.1095C46.7877 37.2245 43.512 38.2459 40.2194 37.9498C37.6295 37.763 35.1671 36.7536 33.1914 35.0688C31.1615 33.3483 29.7365 31.0225 29.1254 28.4328C28.8641 27.3653 28.7298 26.2707 28.7254 25.1718C28.7069 23.9361 28.7643 22.7004 28.8974 21.4718C29.1767 18.7882 29.912 16.172 31.0714 13.7358C32.5204 10.7243 34.5984 8.0587 37.1654 5.91877C39.5695 3.89396 42.3994 2.43748 45.4444 1.65777C46.4444 1.39877 47.4674 1.24277 48.4804 1.03877C48.5145 1.02879 48.5479 1.01643 48.5804 1.00177L49.4944 0.999767Z" fill="#6440FB"/>
</svg>
