<svg width="50" height="50" viewBox="0 0 50 50" fill="none" xmlns="http://www.w3.org/2000/svg">
<g clip-path="url(#clip0_344_356)">
<path d="M0 25.5277C0.212621 15.7823 4.28656 8.2003 12.7835 3.23706C21.1833 -1.67237 32.1556 -0.920202 39.915 4.95273C40.2693 5.22183 40.5633 5.34654 41.0411 5.21527C42.1729 4.91717 43.3729 5.01966 44.4377 5.50536C44.7078 5.62877 45.006 5.67772 45.3014 5.64714C45.6689 5.61038 46.039 5.59725 46.4065 5.59594C46.9031 5.58912 47.3875 5.75034 47.7811 6.05342C48.1747 6.35651 48.4543 6.78369 48.5747 7.26567C48.6962 7.73748 48.6566 8.2364 48.4621 8.68309C48.2676 9.12978 47.9293 9.49859 47.5011 9.73089C46.9971 10.0118 46.4839 10.2835 45.955 10.5185C45.6164 10.6655 45.5612 10.781 45.7817 11.1053C47.6589 13.8256 48.9395 16.9123 49.5393 20.1628C50.9201 27.7934 49.2427 34.7059 44.3839 40.7627C40.7681 45.2704 36.0602 48.1137 30.4245 49.3909C17.0714 52.4206 3.54764 43.8094 0.645759 30.4489C0.302513 28.8279 0.0865866 27.1824 0 25.5277ZM39.0277 6.08295C33.1216 1.97426 26.76 0.55919 19.7987 2.0819C17.7105 2.5374 17.6987 2.60697 17.62 4.77289C17.5845 5.69177 17.7329 6.59489 17.742 7.50852C17.7565 8.84614 17.1842 9.84378 15.9938 10.4568C15.4032 10.7613 14.7876 11.0173 14.1773 11.2825C12.2651 12.1134 11.0852 13.5009 10.7505 15.6038C10.572 16.7275 10.3055 17.8433 9.65062 18.8133C9.0482 19.7086 8.28303 20.361 7.16481 20.4962C6.04658 20.6314 5.12128 20.1352 4.24061 19.53C3.66575 19.1362 3.13812 18.6689 2.52388 18.3316C2.49593 18.3604 2.47171 18.3926 2.45172 18.4274C2.41629 18.5272 2.38479 18.6269 2.35723 18.7293C1.35185 22.3306 1.23116 26.1215 2.00546 29.7795C3.08957 34.8989 5.60297 39.173 9.50758 42.6437C9.64671 42.7671 9.73858 42.9732 10.0326 42.8931C10.6888 42.712 10.8292 42.8078 11.1495 43.4182C11.3424 43.7858 11.4566 44.2058 11.8346 44.4552C13.0733 45.284 14.3799 46.0064 15.7405 46.6146C16.0424 46.7459 16.0936 46.6316 16.1343 46.3901C16.4086 44.79 17.3155 43.6059 18.5991 42.6779C19.9509 41.7038 21.4694 41.0672 23.0352 40.5474C23.8739 40.2691 24.3976 39.7204 24.7034 38.9249C25.0453 37.9818 25.2203 36.9864 25.2205 35.9832C25.2783 33.2594 25.2875 30.5356 25.3518 27.8131C25.4331 24.5484 27.2365 22.964 30.4376 23.325C31.5637 23.4563 32.594 23.9157 33.6413 24.32C34.8436 24.7834 36.0707 25.1431 37.3845 24.8805C38.4124 24.6533 39.4049 24.2881 40.3349 23.7949C42.7092 22.6004 45.1911 21.7852 47.8567 21.6015C48.2977 21.5713 48.2505 21.3389 48.1993 21.0475C47.6311 17.7132 46.3518 14.5403 44.4483 11.7445C44.2671 11.482 44.1411 11.419 43.8353 11.5778C42.375 12.3383 40.9041 13.0791 39.4228 13.8002C39.0829 13.9656 38.9516 14.1625 38.9227 14.5484C38.7613 16.755 38.5618 18.9603 38.3794 21.1656C38.3781 21.368 38.3127 21.5648 38.1927 21.7277C38.0727 21.8907 37.9042 22.0114 37.7113 22.0727C36.9763 22.3549 36.2597 22.6857 35.5326 22.9916C34.7819 23.3027 34.4236 23.1229 34.207 22.351C33.7835 20.8327 33.3618 19.313 32.9418 17.7921C32.7698 17.1712 32.7699 17.1712 32.2173 17.4494C29.2301 18.9547 26.2429 20.4607 23.2557 21.9677C22.0351 22.5833 20.8067 22.5925 19.737 21.738C18.3392 20.6209 17.0267 19.3935 15.6906 18.2003C15.3271 17.8734 15.3074 17.4468 15.6368 17.1318C16.549 16.2588 17.6134 15.802 18.8983 16.0685C19.5401 16.1998 20.0966 16.5529 20.6807 16.8312C20.7678 16.883 20.8681 16.9085 20.9694 16.9045C21.0707 16.9005 21.1688 16.8673 21.2516 16.8089C23.9483 15.1706 26.6511 13.5412 29.3601 11.9204C29.6436 11.7511 29.6344 11.6579 29.3929 11.4557C28.3114 10.5303 27.2457 9.5878 26.1773 8.64661C25.6143 8.15042 25.6169 7.75399 26.1773 7.25123C26.7377 6.74848 27.331 6.27328 27.8691 5.74427C28.2956 5.32553 28.7169 5.2914 29.2524 5.50143C31.3078 6.30479 33.3723 7.07665 35.4355 7.86426C35.6022 7.92726 35.7597 8.05853 35.9736 7.92595C36.9606 7.32343 37.9528 6.73273 39.0277 6.08426V6.08295ZM48.5484 24.9855C48.5195 24.4421 48.4828 23.8986 48.4644 23.3552C48.4552 23.1032 48.3988 22.985 48.0983 23.0257C47.3331 23.1281 46.5692 23.2279 45.8093 23.3696C43.8209 23.7424 42.0149 24.597 40.2208 25.4699C37.7809 26.6618 35.3463 26.7065 32.8709 25.6012C31.6897 25.0761 30.4625 24.6324 29.1159 24.7663C28.0069 24.8766 27.3047 25.4489 27.016 26.5214C26.8165 27.2762 26.8243 28.0507 26.8112 28.8238C26.7666 31.65 26.8755 34.4828 26.5934 37.3011C26.3545 39.6718 25.4187 41.5017 22.8659 42.1935C21.3842 42.5893 20.0158 43.327 18.8708 44.3476C18.1438 44.9702 17.666 45.8344 17.5255 46.7813C17.4717 47.1397 17.5583 47.2985 17.9192 47.4127C21.7018 48.6194 25.7301 48.8386 29.6212 48.0493C34.9504 46.9761 39.7452 44.0943 43.1942 39.8917C46.6432 35.6891 48.5347 30.4239 48.5484 24.9869V24.9855ZM6.85114 19.043C7.40106 19.0234 7.84859 18.7464 8.20427 18.2974C8.78833 17.5584 9.06658 16.6881 9.19651 15.7823C9.60469 12.9325 11.0957 10.9386 13.7679 9.83984C14.285 9.62587 14.8008 9.40272 15.3021 9.15462C15.6113 9.0202 15.8704 8.792 16.0428 8.50226C16.2152 8.21252 16.2922 7.87591 16.2629 7.54002C16.248 7.2066 16.2274 6.87406 16.2012 6.54239C16.1102 5.63263 16.1203 4.71559 16.2314 3.80807C16.255 3.64005 16.3626 3.42477 16.2209 3.30794C16.0476 3.16748 15.8573 3.35126 15.6959 3.42345C12.902 4.63276 10.3703 6.37474 8.24234 8.5521C6.00771 10.822 4.26012 13.5245 3.10665 16.4938C3.04627 16.6474 2.8717 16.8246 3.15519 16.9782C3.95974 17.4153 4.64093 18.0349 5.4061 18.5324C5.83135 18.812 6.28809 19.0299 6.85114 19.043ZM39.1249 12.2946C39.7168 11.9992 40.247 11.7393 40.7733 11.4728C42.7132 10.4962 44.6525 9.51823 46.5915 8.53897C46.9721 8.34732 47.2477 8.08085 47.1257 7.6306C47.0036 7.18035 46.6676 7.04121 46.2306 7.07271C45.7935 7.10421 45.3538 7.11997 44.9181 7.1541C44.6555 7.17563 44.3922 7.12287 44.1582 7.00182C42.7342 6.29429 41.3547 6.39274 40.0016 7.21579C37.605 8.67287 35.2041 10.1234 32.7987 11.5673C29.0914 13.8041 25.3846 16.0431 21.6782 18.2843C21.2398 18.5469 20.8578 18.5967 20.4077 18.3447C19.9575 18.0927 19.4653 17.8787 18.9915 17.6529C18.5894 17.4654 18.1344 17.4246 17.7053 17.5374C17.4809 17.5912 17.2853 17.6687 17.5832 17.922C18.5532 18.7608 19.5021 19.6285 20.4707 20.4594C21.077 20.9779 21.77 21.0514 22.4827 20.6944C25.6772 19.0916 28.8652 17.477 32.0637 15.8769C32.2987 15.7587 32.3695 15.6445 32.2869 15.3938C32.1648 15.0276 32.0742 14.6521 31.9706 14.2806C31.8524 13.854 31.9706 13.5219 32.3643 13.3001C34.2726 12.2237 36.1705 11.1381 38.0919 10.0748C38.7167 9.72695 39.264 10.0866 39.2416 10.8086C39.2325 11.2785 39.1747 11.7445 39.1249 12.2946ZM37.6706 12.0071C36.3148 12.7724 35.0457 13.5009 33.7555 14.2098C33.4786 14.3633 33.5823 14.5327 33.64 14.7348C34.165 16.6225 34.69 18.511 35.215 20.4004C35.4945 21.4072 35.4893 21.3901 36.471 20.9989C36.8097 20.8677 36.9606 20.6996 36.9632 20.3229C36.9632 19.8162 37.0485 19.3095 37.0945 18.8028C37.2874 16.5713 37.4711 14.3358 37.6706 12.0071ZM34.2149 8.98791L29.868 7.32999C28.7301 6.89681 28.7366 6.90337 27.852 7.7448C27.6591 7.92726 27.667 8.00734 27.8625 8.17405C28.8364 9.00804 29.8015 9.85122 30.7578 10.7036C30.9442 10.869 31.0781 10.8992 31.3025 10.7587C32.237 10.1693 33.1872 9.60487 34.2149 8.98791Z" fill="#040404"/>
<path d="M39.0277 6.08428C37.9528 6.73275 36.9606 7.32345 35.9776 7.92204C35.7636 8.0533 35.6061 7.92204 35.4394 7.86034C33.3762 7.07929 31.3117 6.30087 29.2564 5.49751C28.7209 5.28748 28.2996 5.32162 27.873 5.74036C27.3349 6.26543 26.7456 6.74456 26.1812 7.24732C25.6169 7.75007 25.6142 8.1465 26.1812 8.6427C27.2496 9.58389 28.3153 10.5264 29.3968 11.4518C29.6383 11.6579 29.6475 11.7472 29.364 11.9165C26.6559 13.5372 23.9531 15.1667 21.2556 16.8049C21.1727 16.8634 21.0747 16.8966 20.9734 16.9006C20.8721 16.9045 20.7718 16.8791 20.6846 16.8273C20.1006 16.549 19.5441 16.1985 18.9023 16.0646C17.6173 15.8021 16.553 16.2549 15.6408 17.1279C15.3114 17.4429 15.331 17.8695 15.6946 18.1964C17.0307 19.3896 18.3432 20.617 19.741 21.7341C20.8106 22.5886 22.0391 22.5794 23.2597 21.9638C26.246 20.4568 29.2332 18.9507 32.2212 17.4455C32.7738 17.1672 32.7738 17.1672 32.9457 17.7881C33.3675 19.3082 33.7892 20.8279 34.211 22.3471C34.4275 23.1242 34.7858 23.2988 35.5366 22.9877C36.2637 22.6858 36.9803 22.355 37.7153 22.0688C37.9081 22.0075 38.0766 21.8868 38.1967 21.7238C38.3167 21.5609 38.382 21.3641 38.3833 21.1617C38.5658 18.9564 38.7653 16.7511 38.9267 14.5445C38.9556 14.1586 39.0868 13.9617 39.4267 13.7963C40.9072 13.0743 42.378 12.3335 43.8393 11.5739C44.1451 11.4151 44.2711 11.4728 44.4522 11.7406C46.354 14.5325 47.6332 17.7007 48.2032 21.0305C48.2544 21.3232 48.3017 21.5555 47.8607 21.5844C45.1964 21.7682 42.7132 22.5834 40.3389 23.7779C39.4088 24.2711 38.4164 24.6362 37.3885 24.8635C36.076 25.126 34.8475 24.7664 33.6453 24.303C32.5953 23.8987 31.5677 23.434 30.4416 23.308C27.2404 22.947 25.4371 24.5314 25.3557 27.796C25.2888 30.5185 25.2796 33.2423 25.2245 35.9661C25.2232 36.9728 25.046 37.9715 24.7008 38.917C24.395 39.7125 23.8713 40.2612 23.0326 40.5395C21.4668 41.0646 19.9483 41.696 18.5965 42.67C17.3076 43.5981 16.406 44.7821 16.1316 46.3823C16.0896 46.6238 16.0385 46.7446 15.7379 46.6067C14.3751 45.9989 13.0662 45.2765 11.8254 44.4474C11.4474 44.1927 11.3332 43.7779 11.1403 43.4104C10.8201 42.8039 10.6796 42.7081 10.0234 42.8853C9.73333 42.9654 9.64146 42.754 9.4984 42.6359C5.59379 39.1704 3.08041 34.8911 1.99631 29.7716C1.222 26.1136 1.34266 22.3227 2.34804 18.7215C2.37561 18.6191 2.4071 18.5193 2.44254 18.4195C2.46253 18.3847 2.48678 18.3525 2.51473 18.3237C3.12897 18.6611 3.65656 19.1271 4.23143 19.5222C5.1121 20.1273 6.02952 20.6235 7.15562 20.4883C8.28172 20.3531 9.03905 19.7007 9.64147 18.8055C10.2977 17.8354 10.5602 16.7196 10.7413 15.596C11.076 13.4957 12.2559 12.1055 14.1682 11.2746C14.7785 11.0121 15.394 10.7495 15.9846 10.4489C17.175 9.83592 17.7473 8.83829 17.7329 7.50067C17.7237 6.58179 17.5754 5.6826 17.6108 4.76504C17.6935 2.59781 17.7013 2.53348 19.7895 2.07405C26.76 0.560525 33.1203 1.97559 39.0277 6.08428ZM8.47598 38.0756C8.52979 38.9945 8.56261 39.853 8.74504 40.6931C8.8356 41.1158 9.12435 41.3376 9.54041 41.2864C9.98271 41.2326 10.236 40.9333 10.1783 40.4805C10.0401 39.4754 9.96601 38.4626 9.95645 37.4482C9.95645 37.0084 9.66901 36.7669 9.25689 36.7485C9.16864 36.74 9.07957 36.749 8.99478 36.7749C8.91 36.8009 8.83118 36.8433 8.76279 36.8997C8.69441 36.9562 8.63782 37.0256 8.59627 37.1039C8.55471 37.1822 8.529 37.268 8.52061 37.3563C8.49048 37.5949 8.47557 37.8351 8.47598 38.0756ZM13.9556 26.0121C13.9424 25.5238 13.7705 25.2809 13.4306 25.168C13.0565 25.0368 12.7743 25.1982 12.5722 25.5014C12.0112 26.3282 11.5057 27.1912 11.0589 28.0848C10.8056 28.5954 10.8909 29.0037 11.2925 29.215C11.6942 29.4264 12.0919 29.278 12.3583 28.7674C12.7873 27.9437 13.2573 27.1419 13.7666 26.3652C13.8514 26.2605 13.9155 26.1407 13.9556 26.0121ZM8.87103 34.282C8.86053 34.7506 9.04166 35.0315 9.4354 35.1168C9.82915 35.2022 10.1664 35.0551 10.2675 34.6626C10.53 33.6125 10.8371 32.5781 11.1298 31.5385C11.2374 31.1539 11.0077 30.8533 10.6284 30.7325C10.2491 30.6117 9.9302 30.7404 9.78845 31.0803C9.38074 32.1139 9.07351 33.1843 8.87103 34.2767V34.282ZM44.9929 15.6301C44.8722 15.6238 44.7517 15.6472 44.6421 15.6982C44.5325 15.7493 44.4371 15.8265 44.3643 15.923C44.2915 16.0196 44.2435 16.1325 44.2245 16.252C44.2055 16.3714 44.2161 16.4937 44.2553 16.608C44.5178 17.3865 44.8105 18.157 45.1045 18.9249C45.2725 19.3686 45.6715 19.5655 46.0718 19.4027C46.5036 19.2255 46.6322 18.8632 46.4957 18.4497C46.2332 17.67 45.9432 16.9008 45.6479 16.1315C45.6004 15.9922 45.513 15.8698 45.3965 15.7797C45.2801 15.6896 45.1397 15.6358 44.9929 15.6248V15.6301ZM16.8955 22.3773C16.8916 22.2535 16.8541 22.1332 16.787 22.0292C16.72 21.9251 16.6259 21.8413 16.5149 21.7866C16.2524 21.6474 15.9545 21.6369 15.7274 21.8417C15.3079 22.2147 14.908 22.609 14.5291 23.0231C14.4319 23.1283 14.3726 23.2629 14.3607 23.4056C14.3488 23.5483 14.385 23.6909 14.4635 23.8107C14.5236 23.9283 14.6158 24.0264 14.7294 24.0938C14.843 24.1612 14.9733 24.195 15.1053 24.1914C15.5594 24.1796 16.8915 22.8761 16.8955 22.3773Z" fill="#FDFDFD"/>
<path d="M48.5484 24.987C48.535 30.424 46.6439 35.6894 43.1951 39.8923C39.7463 44.0951 34.9517 46.9772 29.6225 48.0508C25.7314 48.84 21.7031 48.6209 17.9205 47.4141C17.5543 47.2999 17.4677 47.1411 17.5267 46.7827C17.6673 45.8358 18.145 44.9716 18.872 44.349C20.0159 43.3306 21.3824 42.5942 22.862 42.1988C25.4147 41.507 26.3505 39.6772 26.5894 37.3065C26.8716 34.4881 26.7626 31.6554 26.8072 28.8292C26.8204 28.056 26.8072 27.2815 27.012 26.5267C27.2981 25.4543 28.0003 24.8819 29.1119 24.7717C30.4585 24.6404 31.6818 25.0762 32.867 25.6065C35.3488 26.7158 37.7835 26.6711 40.2168 25.4753C42.011 24.5984 43.8169 23.7439 45.8053 23.375C46.5652 23.2332 47.3291 23.1335 48.0943 23.0311C48.3948 22.9904 48.4512 23.1085 48.4604 23.3605C48.4827 23.9001 48.5195 24.4435 48.5484 24.987Z" fill="#6440FB"/>
<path d="M6.85109 19.0431C6.28804 19.0299 5.8313 18.812 5.40737 18.5324C4.6422 18.0349 3.96363 17.4153 3.15646 16.9782C2.87296 16.8246 3.04754 16.6474 3.10791 16.4938C4.26138 13.5245 6.00897 10.822 8.24361 8.55211C10.3716 6.37475 12.9033 4.63277 15.6972 3.42346C15.8638 3.35127 16.0541 3.16093 16.2221 3.30795C16.3665 3.42478 16.2563 3.64005 16.2327 3.80808C16.1216 4.7156 16.1114 5.63264 16.2025 6.54239C16.2287 6.87406 16.2493 7.20661 16.2641 7.54003C16.2935 7.87592 16.2165 8.21253 16.0441 8.50226C15.8717 8.792 15.6126 9.02021 15.3034 9.15463C14.802 9.40272 14.2863 9.62588 13.7691 9.83985C11.0969 10.9386 9.60596 12.9325 9.19778 15.7824C9.06653 16.6881 8.78959 17.5584 8.20554 18.2975C7.84855 18.7464 7.40102 19.0234 6.85109 19.0431Z" fill="#6440FB"/>
<path d="M39.1249 12.2945C39.1695 11.7458 39.2272 11.2785 39.2416 10.8086C39.264 10.0866 38.7167 9.72691 38.0919 10.0748C36.1757 11.138 34.2726 12.2236 32.3643 13.3C31.9706 13.5219 31.8511 13.854 31.9706 14.2806C32.0742 14.6521 32.1648 15.0275 32.2869 15.3938C32.3695 15.6445 32.2987 15.7587 32.0637 15.8768C28.8692 17.477 25.6812 19.0916 22.4827 20.6944C21.77 21.0514 21.077 20.9779 20.4707 20.4594C19.4968 19.6245 18.5479 18.7608 17.5832 17.922C17.2853 17.6594 17.4809 17.5912 17.7053 17.5374C18.1344 17.4245 18.5894 17.4654 18.9915 17.6529C19.4653 17.8787 19.9496 18.0887 20.4076 18.3447C20.8657 18.6006 21.2398 18.5508 21.6781 18.2843C25.3793 16.0343 29.0862 13.7953 32.7987 11.5673C35.2006 10.1181 37.6015 8.66758 40.0016 7.21575C41.3547 6.3927 42.7342 6.29688 44.1582 7.00179C44.3922 7.12283 44.6555 7.1756 44.9181 7.15406C45.3565 7.11993 45.7948 7.10418 46.2306 7.07267C46.6663 7.04117 47.0181 7.19081 47.1257 7.63056C47.2333 8.07031 46.9721 8.34728 46.5915 8.53893C44.6508 9.51469 42.7114 10.4926 40.7733 11.4728C40.2523 11.7445 39.722 11.9992 39.1249 12.2945Z" fill="#FDFDFD"/>
<path d="M37.6705 12.0071C37.471 14.3318 37.2768 16.5673 37.0891 18.8041C37.0458 19.3108 36.9644 19.8175 36.9579 20.3242C36.9579 20.701 36.8043 20.865 36.4657 21.0003C35.484 21.3941 35.4892 21.4085 35.2097 20.4017C34.6847 18.5123 34.1597 16.6238 33.6347 14.7361C33.5769 14.5327 33.4733 14.3633 33.7502 14.2111C35.0404 13.5048 36.3148 12.7763 37.6705 12.0071Z" fill="#FDFDFD"/>
<path d="M34.2148 8.98793C33.1872 9.61014 32.2369 10.1693 31.3024 10.7587C31.078 10.8992 30.9441 10.869 30.7578 10.7036C29.8014 9.85211 28.8363 9.00893 27.8624 8.17406C27.6669 8.00735 27.659 7.92728 27.852 7.74482C28.7366 6.90339 28.73 6.89683 29.8679 7.33001L34.2148 8.98793Z" fill="#FDFDFD"/>
<path d="M8.47596 38.0756C8.47555 37.8351 8.49046 37.5948 8.5206 37.3562C8.52898 37.268 8.55469 37.1822 8.59625 37.1039C8.6378 37.0255 8.69439 36.9561 8.76278 36.8997C8.83116 36.8433 8.90998 36.8008 8.99477 36.7749C9.07955 36.7489 9.16862 36.74 9.25688 36.7485C9.66899 36.7669 9.95775 37.011 9.95643 37.4481C9.96599 38.4626 10.0401 39.4754 10.1782 40.4804C10.236 40.9333 9.98269 41.2326 9.54039 41.2864C9.12434 41.3376 8.83558 41.1158 8.74502 40.6931C8.56259 39.853 8.52977 38.9958 8.47596 38.0756Z" fill="#040404"/>
<path d="M13.9556 26.0122C13.9168 26.1405 13.854 26.2603 13.7706 26.3653C13.2613 27.142 12.7913 27.9437 12.3623 28.7675C12.0998 29.2781 11.706 29.433 11.2965 29.2151C10.887 28.9972 10.8096 28.5955 11.0629 28.0849C11.5097 27.1913 12.0152 26.3282 12.5762 25.5015C12.7796 25.1983 13.0605 25.0421 13.4346 25.1681C13.7705 25.281 13.9425 25.5278 13.9556 26.0122Z" fill="#040404"/>
<path d="M8.87102 34.2768C9.0736 33.1825 9.38127 32.1103 9.78975 31.0751C9.9315 30.7351 10.2688 30.6118 10.6297 30.7273C10.9907 30.8428 11.2387 31.1486 11.1311 31.5333C10.8384 32.5729 10.5379 33.6099 10.2688 34.6574C10.1677 35.0512 9.8252 35.1956 9.43671 35.1116C9.04821 35.0276 8.86052 34.7454 8.87102 34.2768Z" fill="#040404"/>
<path d="M44.993 15.6248C45.1394 15.6351 45.2796 15.6881 45.3962 15.7772C45.5128 15.8663 45.6008 15.9877 45.6492 16.1263C45.9445 16.8955 46.2385 17.6648 46.497 18.4445C46.6283 18.858 46.5049 19.2203 46.0731 19.3975C45.6794 19.5603 45.2738 19.3634 45.1058 18.9197C44.8118 18.1518 44.5231 17.3812 44.2567 16.6028C44.2175 16.4885 44.2069 16.3664 44.2258 16.2471C44.2448 16.1277 44.2926 16.0149 44.3653 15.9184C44.438 15.8219 44.5332 15.7446 44.6426 15.6935C44.752 15.6423 44.8723 15.6187 44.993 15.6248Z" fill="#040404"/>
<path d="M16.8955 22.3773C16.8955 22.8827 15.5594 24.1862 15.1039 24.1835C14.9719 24.1871 14.8416 24.1533 14.728 24.0859C14.6145 24.0186 14.5223 23.9204 14.4622 23.8029C14.3837 23.6831 14.3475 23.5405 14.3594 23.3978C14.3713 23.255 14.4306 23.1204 14.5278 23.0153C14.9067 22.6011 15.3066 22.2068 15.7261 21.8338C15.9544 21.6291 16.251 21.6396 16.5135 21.7787C16.626 21.8338 16.7211 21.9188 16.7885 22.0244C16.8558 22.13 16.8928 22.2521 16.8955 22.3773Z" fill="#040404"/>
</g>
<defs>
<clipPath id="clip0_344_356">
<rect width="50" height="50" fill="white"/>
</clipPath>
</defs>
</svg>
