<svg xmlns="http://www.w3.org/2000/svg" width="54.735" height="40.939" viewBox="0 0 54.735 40.939">
  <g id="Youtube_Iconn" transform="translate(-951.14 -2041)">
    <g id="Ellipse_6" data-name="Ellipse 6" transform="translate(964 2046)" fill="#fff" stroke="#707070" stroke-width="1">
      <circle cx="15" cy="15" r="15" stroke="none"/>
      <circle cx="15" cy="15" r="14.5" fill="none"/>
    </g>
    <path id="Path_1532" data-name="Path 1532" d="M27.48,0c2.032.059,4.25.1,6.467.2Q36.462.3,38.972.524c2.024.18,4.043.409,6.062.641,1.069.123,2.143.246,3.2.457a6.594,6.594,0,0,1,4.353,3.012,7.48,7.48,0,0,1,1.056,3.088c.17,1.187.365,2.371.518,3.56.126.98.213,1.966.306,2.95.192,2.026.272,4.059.271,6.093,0,1.2-.078,2.4-.138,3.6-.044.879-.1,1.758-.176,2.634-.107,1.216-.219,2.431-.367,3.643-.152,1.244-.317,2.488-.537,3.722a6.619,6.619,0,0,1-3.352,4.728,7.474,7.474,0,0,1-2.891.887c-1.1.137-2.188.3-3.284.432-.954.115-1.911.21-2.868.3q-1.252.123-2.507.223c-.85.069-1.7.136-2.552.184-1.315.073-2.631.13-3.947.191-.5.023-1,.051-1.494.052-2.2.006-4.4.034-6.6-.008-1.856-.035-3.711-.132-5.564-.245-1.593-.1-3.184-.236-4.772-.393-1.737-.171-3.471-.371-5.2-.585a15.875,15.875,0,0,1-2.516-.425,6.552,6.552,0,0,1-4.83-5.107C.9,33.109.782,32.025.64,30.952c-.125-.946-.217-1.9-.3-2.847C.259,27.269.2,26.432.147,25.595q-.208-3.436-.121-6.878.063-2.424.238-4.845c.1-1.4.249-2.8.421-4.192a23.41,23.41,0,0,1,.514-3.1A6.547,6.547,0,0,1,5.981,1.717a15.472,15.472,0,0,1,2.213-.382q1.772-.244,3.551-.441c1.037-.116,2.076-.211,3.116-.3,1.149-.1,2.3-.195,3.448-.273C19.337.249,20.366.187,21.4.155,23.361.092,25.327.053,27.48,0M21.836,30.071,38.254,20.5,21.836,10.92Z" transform="translate(951.14 2041)" fill="#6440fb"/>
  </g>
</svg>
