<svg xmlns="http://www.w3.org/2000/svg" width="105" height="29" viewBox="0 0 105 29" fill="none">
  <g clip-path="url(#clip0_1920_1478)">
    <path d="M41.9173 9.9363V12.2118H35.5752V2.68848H41.8015V4.95524H38.2445V6.35598H41.4393V8.5094H38.2445V9.9363H41.9203H41.9173Z" fill="white"/>
    <path d="M54.8005 7.60494V12.214H52.2144V7.9188C52.2144 7.15159 51.9264 6.78252 51.3771 6.78252C50.6674 6.78252 50.3022 7.26202 50.3022 8.18616V12.214H47.7844V7.9188C47.7844 7.17484 47.4994 6.78252 46.956 6.78252C46.2553 6.78252 45.8723 7.27365 45.8723 8.18616V12.214H43.2861V4.8674H45.1033L45.4714 5.65786C46.0148 5.03886 46.8016 4.65234 47.6656 4.65234C48.5801 4.65234 49.3521 5.05339 49.8183 5.73341C50.3586 5.06792 51.19 4.65234 52.1223 4.65234C53.7316 4.65234 54.7975 5.87872 54.7975 7.60785L54.8005 7.60494Z" fill="white"/>
    <path d="M64.3258 4.85854V12.2052H62.3276L62.1049 11.685C61.4903 12.1732 60.7124 12.4522 59.8394 12.4522C57.5443 12.4522 55.9023 10.8131 55.9023 8.52894C55.9023 6.24475 57.5443 4.63477 59.8394 4.63477C60.7242 4.63477 61.514 4.92247 62.1316 5.42523L62.3959 4.85563H64.3228L64.3258 4.85854ZM61.8674 8.53766C61.8674 7.58446 61.1548 6.86665 60.1868 6.86665C59.2189 6.86665 58.5063 7.58155 58.5063 8.53766C58.5063 9.49377 59.2189 10.2145 60.1868 10.2145C61.1548 10.2145 61.8674 9.49958 61.8674 8.53766Z" fill="white"/>
    <path d="M65.9556 4.86477H68.5417V11.4006L65.9556 12.2085V4.86186V4.86477ZM65.9764 1.79883H68.5209V3.94644H65.9764V1.79883Z" fill="white"/>
    <path d="M70.1655 2.21191H72.7517V12.2118H70.1655V2.21191Z" fill="white"/>
    <path d="M35.1001 22.9839H37.8644C37.8644 23.6639 38.4018 23.9952 39.0105 23.9952C39.5716 23.9952 40.109 23.7017 40.109 23.1815C40.109 22.5829 39.3519 22.4114 38.4255 22.1905C37.0182 21.8476 35.2248 21.4262 35.2248 19.2583C35.2248 17.3839 36.6322 16.3086 38.9273 16.3086C41.2225 16.3086 42.5972 17.4798 42.5972 19.4181H39.9101C39.9101 18.8166 39.4499 18.5347 38.8947 18.5347C38.4166 18.5347 37.9594 18.7381 37.9594 19.1827C37.9594 19.7233 38.6928 19.9034 39.6102 20.1272C41.0414 20.4876 42.9149 20.9584 42.9149 23.1321C42.9149 25.3059 41.2819 26.2911 39.0223 26.2911C36.6411 26.2911 35.1031 25.0589 35.1031 22.9839H35.1001Z" fill="white"/>
    <path d="M44.189 18.7124H46.7751V25.2482L44.189 26.0561V18.7095V18.7124ZM44.2097 15.6465H46.7543V17.7941H44.2097V15.6465Z" fill="white"/>
    <path d="M56.1636 18.712V25.242C56.1636 27.5494 54.6196 28.9821 52.1404 28.9821C50.0115 28.9821 48.518 27.9301 48.1736 26.1894H50.6677C50.8459 26.6805 51.4872 26.945 52.1166 26.945C52.9836 26.945 53.6784 26.4073 53.6784 25.5326V25.3146C53.1143 25.6663 52.4433 25.8668 51.7188 25.8668C49.5662 25.8668 47.9688 24.3004 47.9688 22.1731C47.9688 20.0459 49.5691 18.4795 51.7188 18.4795C52.6273 18.4795 53.4498 18.7992 54.0852 19.331L54.4118 18.7149H56.1606L56.1636 18.712ZM52.1493 23.7802C53.0787 23.7802 53.7467 23.106 53.7467 22.1702C53.7467 21.2345 53.0816 20.569 52.1493 20.569C51.217 20.569 50.546 21.2432 50.546 22.1702C50.546 23.0973 51.2111 23.7802 52.1493 23.7802Z" fill="white"/>
    <path d="M65.2163 21.5775V26.0558H62.6302V21.9262C62.6302 21.0719 62.3006 20.6476 61.6504 20.6476C60.8428 20.6476 60.3796 21.1997 60.3796 22.1326V26.0558H57.7935V18.7092H59.6076L59.9639 19.4677C60.5221 18.8574 61.3564 18.4941 62.3273 18.4941C64.0702 18.4941 65.2163 19.706 65.2163 21.5775Z" fill="white"/>
    <path d="M74.7501 18.7033V26.0499H72.7519L72.5292 25.5297C71.9146 26.0179 71.1367 26.2969 70.2637 26.2969C67.9686 26.2969 66.3267 24.6579 66.3267 22.3737C66.3267 20.0895 67.9686 18.4795 70.2637 18.4795C71.1486 18.4795 71.9383 18.7672 72.5559 19.27L72.8202 18.7004H74.7472L74.7501 18.7033ZM72.2917 22.3824C72.2917 21.4292 71.5791 20.7114 70.6111 20.7114C69.6432 20.7114 68.9306 21.4263 68.9306 22.3824C68.9306 23.3385 69.6432 24.0592 70.6111 24.0592C71.5791 24.0592 72.2917 23.3443 72.2917 22.3824Z" fill="white"/>
    <path d="M81.4397 23.8413V26.0587H79.6612C78.0014 26.0587 76.9919 25.0648 76.9919 23.4315V20.6591H75.6172V20.0663L78.9812 16.5615H79.5127V18.7091H81.3981V20.6591H79.578V22.9985C79.578 23.5245 79.9017 23.8413 80.448 23.8413H81.4397Z" fill="white"/>
    <path d="M82.5503 22.9054V18.7119H85.1364V22.795C85.1364 23.5709 85.561 24.0272 86.2528 24.0272C86.9446 24.0272 87.3603 23.5622 87.3603 22.795V18.7119H89.9464V22.9054C89.9464 24.96 88.4708 26.2997 86.2528 26.2997C84.0349 26.2997 82.5503 24.96 82.5503 22.9054Z" fill="white"/>
    <path d="M96.3594 18.6777V20.9939H95.3558C94.4413 20.9939 94.0583 21.3862 94.0583 22.3249V25.2513L91.4722 26.0592V18.7126H93.2032L93.607 19.5292C94.1355 18.9306 94.7798 18.6777 95.6735 18.6777H96.3594Z" fill="white"/>
    <path d="M104.946 22.3155C104.946 22.5363 104.925 22.7572 104.893 22.9839H99.3195C99.4887 23.8266 100.035 24.2625 100.852 24.2625C101.454 24.2625 101.959 24.0039 102.208 23.5738H104.78C104.251 25.2506 102.734 26.2968 100.849 26.2968C98.5059 26.2968 96.772 24.62 96.772 22.3765C96.772 20.133 98.4941 18.4678 100.849 18.4678C103.203 18.4678 104.943 20.1562 104.943 22.3125L104.946 22.3155ZM99.364 21.5831H102.399C102.173 20.8479 101.629 20.4526 100.852 20.4526C100.074 20.4526 99.5748 20.8537 99.364 21.5831Z" fill="white"/>
    <path d="M23.9312 24.6258L18.5808 21.6034C18.3937 21.4959 18.1592 21.6296 18.1592 21.8417V27.8893C18.1592 28.1015 18.3937 28.2351 18.5808 28.1276L23.9312 25.1053C24.1183 24.9978 24.1183 24.7333 23.9312 24.6287V24.6258Z" fill="#E35C2E"/>
    <path d="M14.5576 26.4419C11.434 26.657 8.18576 25.9014 5.32054 23.7945C1.08356 20.6791 -0.852322 15.2825 0.460042 10.2055C1.76053 5.16633 6.13408 1.31574 11.3865 0.577594C19.4477 -0.55288 26.541 5.39301 26.636 13.3615C26.6479 14.3554 26.6509 15.3493 26.636 16.3432C26.6034 18.1828 25.4781 19.755 23.7589 20.3798C22.0487 21.0017 20.2019 20.5919 18.9667 19.2202C18.554 18.7611 18.3492 18.7291 17.8444 19.1127C15.3592 21.0017 12.0843 21.1644 9.4625 19.598C6.85856 18.0404 5.49869 15.1343 5.98563 12.17C6.46069 9.28428 8.76178 6.94487 11.7725 6.28809C16.1668 5.33198 20.5463 8.62169 20.7156 13.0244C20.7542 14.0474 20.7156 15.0732 20.7334 16.0962C20.7482 17.0959 21.3124 17.7352 22.1705 17.7585C23.0582 17.7817 23.6877 17.1191 23.6788 16.0817C23.6639 14.6402 23.7679 13.1959 23.5333 11.7545C22.7673 7.03205 18.4739 3.37617 13.5688 3.30933C8.50643 3.23958 4.0824 6.73853 3.20057 11.5045C2.03072 17.8428 6.81105 23.4893 13.3966 23.5474C14.7802 23.5591 17.8474 23.5387 19.234 23.5532C20.2939 23.562 20.962 24.1606 20.9323 25.0412C20.9056 25.8868 20.2613 26.4245 19.234 26.439C18.3729 26.4506 15.8284 26.439 14.5605 26.439L14.5576 26.4419ZM8.91914 13.3063C8.86273 15.7097 10.8135 17.712 13.266 17.7672C15.6621 17.8195 17.7227 15.8957 17.7731 13.5592C17.8236 11.1471 15.867 9.14188 13.4263 9.10119C11.0154 9.06051 8.97556 10.9669 8.91914 13.3063Z" fill="#E35C2E"/>
    <g filter="url(#filter0_d_1920_1478)">
      <path d="M24.1717 24.969L18.3462 28.2616C18.2631 28.3081 18.1591 28.25 18.1591 28.157V26.4453C17.0279 26.4453 15.4661 26.4424 14.5576 26.4424C11.434 26.6574 8.18576 25.9018 5.32054 23.7949C1.08356 20.6796 -0.852322 15.2829 0.460042 10.206C1.76053 5.16679 6.13408 1.3162 11.3865 0.580961C14.9257 0.0840172 18.2779 0.950036 20.9353 2.75473L20.959 2.77216C18.8955 17.2823 4.5159 15.4776 3.19166 15.28C3.19166 15.28 3.19166 15.28 3.1976 15.3149C4.14772 19.9414 8.17092 23.5043 13.3907 23.5479C14.4833 23.5566 16.6211 23.5479 18.1562 23.5479V21.5717C18.1562 21.4787 18.2601 21.4206 18.3432 21.4671L24.1687 24.7597C24.2518 24.8062 24.2518 24.9225 24.1687 24.969H24.1717Z" fill="#6440FB"/>
    </g>
    <path d="M7.31584 7.48501C7.17629 7.37748 7.00705 7.29611 6.83781 7.23799C6.64481 7.17115 6.45776 7.23799 6.38353 7.42688C6.29149 7.66809 6.19944 7.92092 6.17866 8.17375C6.06583 9.54543 6.55574 10.6817 7.63651 11.5652C7.67511 11.5971 7.71371 11.6233 7.74934 11.6553C7.89483 11.7889 7.91264 11.9546 7.79981 12.0941C7.68995 12.2278 7.49102 12.2655 7.35147 12.1348C7.01893 11.8267 6.65669 11.5274 6.39244 11.167C5.6353 10.1441 5.36214 8.99327 5.59671 7.74365C5.6353 7.53732 5.70656 7.33098 5.80751 7.14499C6.07177 6.65677 6.57356 6.47659 7.11097 6.65386C7.54744 6.79917 7.89779 7.08106 8.19174 7.40945C8.61039 7.87442 8.9845 8.37718 9.3794 8.8654C9.40315 8.89737 9.42394 8.93224 9.4566 8.97584C9.56052 8.71429 9.64365 8.45855 9.76539 8.22316C9.86337 8.03717 9.98511 7.85408 10.1395 7.71168C10.4245 7.44432 10.7897 7.46757 11.0807 7.73202C11.342 7.96742 11.5261 7.94417 11.6597 7.61578C11.7814 7.31936 11.8586 7.00259 11.9537 6.69745C12.1377 6.11042 12.3575 5.54082 12.788 5.08166C13.2452 4.59053 13.8034 4.28829 14.5041 4.31735C14.6348 4.32317 14.7684 4.35223 14.8931 4.39291C15.0653 4.44813 15.1485 4.61087 15.095 4.7678C15.0416 4.93345 14.9139 5.02354 14.7417 4.98866C13.943 4.8172 13.3907 5.1979 13.0374 5.81981C12.7613 6.30803 12.6187 6.87182 12.4109 7.40073C12.3099 7.65356 12.2268 7.92383 12.0694 8.14178C11.728 8.62129 11.146 8.66198 10.7155 8.25512C10.5819 8.13016 10.5136 8.18247 10.4453 8.30162C10.1603 8.78985 10.0118 9.32166 9.93166 9.87382C9.92275 9.94066 9.96135 10.0191 9.98807 10.0889C10.2553 10.7718 10.4186 11.4751 10.478 12.2045C10.4899 12.3614 10.4928 12.5387 10.3236 12.591C10.1959 12.6317 10.0148 12.6201 9.89306 12.562C9.56646 12.4079 9.39721 12.1057 9.35565 11.7744C9.29033 11.2688 9.28142 10.7544 9.23985 10.2429" fill="white"/>
  </g>
  <defs>
    <filter id="filter0_d_1920_1478" x="0.0541992" y="0.442383" width="26.1768" height="30.8359" filterUnits="userSpaceOnUse" color-interpolation-filters="sRGB">
      <feFlood flood-opacity="0" result="BackgroundImageFix"/>
      <feColorMatrix in="SourceAlpha" type="matrix" values="0 0 0 0 0 0 0 0 0 0 0 0 0 0 0 0 0 0 127 0" result="hardAlpha"/>
      <feOffset dx="2" dy="3"/>
      <feColorMatrix type="matrix" values="0 0 0 0 0 0 0 0 0 0 0 0 0 0 0 0 0 0 0.2 0"/>
      <feBlend mode="normal" in2="BackgroundImageFix" result="effect1_dropShadow_1920_1478"/>
      <feBlend mode="normal" in="SourceGraphic" in2="effect1_dropShadow_1920_1478" result="shape"/>
    </filter>
    <clipPath id="clip0_1920_1478">
      <rect width="105" height="29" fill="white"/>
    </clipPath>
  </defs>
</svg>